<svg width="371" height="95" viewBox="0 0 371 95" fill="none" xmlns="http://www.w3.org/2000/svg">
<path d="M54.9188 56.4379H56.2388C59.0121 56.4379 61.3721 57.3979 63.3188 59.3179C65.2655 61.2112 66.2388 63.4512 66.2388 66.0379C66.2388 68.6245 65.2255 70.8512 63.1988 72.7179C61.1988 74.5845 58.9855 75.5179 56.5588 75.5179H56.2388V86.4379H54.9188V56.4379ZM56.2388 74.3979H56.5588C58.7988 74.3979 60.7455 73.5712 62.3988 71.9179C64.0788 70.2645 64.9188 68.3045 64.9188 66.0379C64.9188 63.7712 64.0655 61.7979 62.3588 60.1179C60.6788 58.4379 58.7455 57.5979 56.5588 57.5979H56.2388V74.3979ZM92.4247 56.4379H93.7447V86.4379H92.4247V74.9979H71.8647V86.4379H70.5447V56.4379H71.8647V73.8379H92.4247V56.4379ZM113.843 86.9579C109.71 86.9579 106.123 85.3979 103.083 82.2779C100.07 79.1579 98.5635 75.5179 98.5635 71.3579C98.5635 67.1712 100.097 63.5579 103.163 60.5179C106.23 57.4512 109.91 55.9179 114.203 55.9179C118.497 55.9179 122.163 57.4379 125.203 60.4779C128.243 63.5179 129.763 67.1445 129.763 71.3579C129.763 75.5445 128.257 79.1979 125.243 82.3179C122.23 85.4112 118.63 86.9579 114.443 86.9579H113.843ZM128.443 71.4379C128.443 67.4912 127.043 64.1179 124.243 61.3179C121.47 58.4912 118.11 57.0779 114.163 57.0779C110.243 57.0779 106.883 58.4912 104.083 61.3179C101.283 64.1179 99.8835 67.4912 99.8835 71.4379C99.8835 75.3579 101.283 78.7312 104.083 81.5579C106.883 84.3845 110.243 85.7979 114.163 85.7979C118.083 85.7979 121.443 84.3845 124.243 81.5579C127.043 78.7312 128.443 75.3579 128.443 71.4379ZM144.089 56.4379V57.5979H137.249V86.4379H135.929V57.5979H129.009V56.4379H144.089ZM158.765 86.9579C154.632 86.9579 151.045 85.3979 148.005 82.2779C144.992 79.1579 143.485 75.5179 143.485 71.3579C143.485 67.1712 145.019 63.5579 148.085 60.5179C151.152 57.4512 154.832 55.9179 159.125 55.9179C163.419 55.9179 167.085 57.4379 170.125 60.4779C173.165 63.5179 174.685 67.1445 174.685 71.3579C174.685 75.5445 173.179 79.1979 170.165 82.3179C167.152 85.4112 163.552 86.9579 159.365 86.9579H158.765ZM173.365 71.4379C173.365 67.4912 171.965 64.1179 169.165 61.3179C166.392 58.4912 163.032 57.0779 159.085 57.0779C155.165 57.0779 151.805 58.4912 149.005 61.3179C146.205 64.1179 144.805 67.4912 144.805 71.4379C144.805 75.3579 146.205 78.7312 149.005 81.5579C151.805 84.3845 155.165 85.7979 159.085 85.7979C163.005 85.7979 166.365 84.3845 169.165 81.5579C171.965 78.7312 173.365 75.3579 173.365 71.4379ZM190.77 74.9979V73.8379H202.01V84.6779C199.663 86.1445 197.023 86.8779 194.09 86.8779H193.65C190.903 86.8779 188.343 86.1579 185.97 84.7179C183.597 83.2779 181.717 81.3712 180.33 78.9979C178.97 76.5979 178.29 74.0512 178.29 71.3579C178.29 67.1179 179.823 63.4779 182.89 60.4379C185.957 57.3712 189.623 55.8379 193.89 55.8379C196.743 55.8379 199.45 56.5845 202.01 58.0779V59.5579C199.503 57.8512 196.797 56.9979 193.89 56.9979C189.97 56.9979 186.61 58.4112 183.81 61.2379C181.01 64.0379 179.61 67.4112 179.61 71.3579C179.61 75.2779 181.01 78.6512 183.81 81.4779C186.61 84.3045 189.97 85.7179 193.89 85.7179C196.077 85.7179 198.343 85.1579 200.69 84.0379V74.9979H190.77ZM207.224 56.4379H208.944C211.531 56.4379 213.798 57.3979 215.744 59.3179C217.718 61.2112 218.704 63.4512 218.704 66.0379C218.704 68.5979 217.704 70.8245 215.704 72.7179C213.704 74.6112 211.558 75.5579 209.264 75.5579H208.984L219.304 86.4379H217.584L208.504 76.9179V86.4379H207.224V56.4379ZM208.504 74.3979H209.224C211.384 74.3979 213.291 73.5712 214.944 71.9179C216.598 70.2645 217.424 68.3045 217.424 66.0379C217.424 63.7712 216.571 61.7979 214.864 60.1179C213.158 58.4379 211.211 57.5979 209.024 57.5979H208.504V74.3979ZM236.673 55.7179L251.673 86.4379H250.273L244.593 74.9979H228.553L222.953 86.4379H221.713L236.673 55.7179ZM236.553 58.4779L229.073 73.8379H244.113L236.553 58.4779ZM255.817 56.4379H257.137C259.911 56.4379 262.271 57.3979 264.217 59.3179C266.164 61.2112 267.137 63.4512 267.137 66.0379C267.137 68.6245 266.124 70.8512 264.097 72.7179C262.097 74.5845 259.884 75.5179 257.457 75.5179H257.137V86.4379H255.817V56.4379ZM257.137 74.3979H257.457C259.697 74.3979 261.644 73.5712 263.297 71.9179C264.977 70.2645 265.817 68.3045 265.817 66.0379C265.817 63.7712 264.964 61.7979 263.257 60.1179C261.577 58.4379 259.644 57.5979 257.457 57.5979H257.137V74.3979ZM293.323 56.4379H294.643V86.4379H293.323V74.9979H272.763V86.4379H271.443V56.4379H272.763V73.8379H293.323V56.4379ZM300.862 56.4379H302.182V86.4379H300.862V56.4379ZM308.396 56.4379H319.156V57.5979H309.716V73.9179H317.596V75.0779H309.716V85.2779H319.156V86.4379H308.396V56.4379Z" fill="#F4F4F4"/>
<path d="M25.738 9.43786H26.898V39.8779L4.81802 12.7179V39.4379H3.65802V8.99786L25.738 36.1179V9.43786ZM33.1158 9.43786H34.4358V39.4379H33.1158V9.43786ZM55.2502 39.8779H54.8102C52.0635 39.8779 49.5035 39.1579 47.1302 37.7179C44.7569 36.2779 42.8769 34.3712 41.4902 31.9979C40.1302 29.5979 39.4502 27.0512 39.4502 24.3579C39.4502 20.1179 40.9835 16.4779 44.0502 13.4379C47.1169 10.3712 50.7835 8.83786 55.0502 8.83786C57.9035 8.83786 60.6102 9.58453 63.1702 11.0779V12.5579C60.6635 10.8512 57.9569 9.99786 55.0502 9.99786C51.1302 9.99786 47.7702 11.4112 44.9702 14.2379C42.1702 17.0379 40.7702 20.4112 40.7702 24.3579C40.7702 28.2779 42.1702 31.6512 44.9702 34.4779C47.7702 37.3045 51.1302 38.7179 55.0502 38.7179C57.9569 38.7179 60.6635 37.8645 63.1702 36.1579V37.6379C60.7435 39.1312 58.1035 39.8779 55.2502 39.8779ZM82.6599 39.9579C78.5266 39.9579 74.9399 38.3979 71.8999 35.2779C68.8866 32.1579 67.3799 28.5179 67.3799 24.3579C67.3799 20.1712 68.9132 16.5579 71.9799 13.5179C75.0466 10.4512 78.7266 8.91787 83.0199 8.91787C87.3132 8.91787 90.9799 10.4379 94.0199 13.4779C97.0599 16.5179 98.5799 20.1445 98.5799 24.3579C98.5799 28.5445 97.0732 32.1979 94.0599 35.3179C91.0466 38.4112 87.4466 39.9579 83.2599 39.9579H82.6599ZM97.2599 24.4379C97.2599 20.4912 95.8599 17.1179 93.0599 14.3179C90.2866 11.4912 86.9266 10.0779 82.9799 10.0779C79.0599 10.0779 75.6999 11.4912 72.8999 14.3179C70.0999 17.1179 68.6999 20.4912 68.6999 24.4379C68.6999 28.3579 70.0999 31.7312 72.8999 34.5579C75.6999 37.3845 79.0599 38.7979 82.9799 38.7979C86.8999 38.7979 90.2599 37.3845 93.0599 34.5579C95.8599 31.7312 97.2599 28.3579 97.2599 24.4379ZM104.705 9.43786V38.2779H113.985V39.4379H103.385V9.43786H104.705ZM130.959 8.71787L145.959 39.4379H144.559L138.879 27.9979H122.839L117.239 39.4379H115.999L130.959 8.71787ZM130.839 11.4779L123.359 26.8379H138.399L130.839 11.4779ZM162.222 13.6779C161.609 12.5579 160.769 11.6779 159.702 11.0379C158.662 10.3979 157.489 10.0779 156.182 10.0779C154.876 10.0779 153.756 10.4912 152.822 11.3179C151.916 12.1179 151.462 13.2245 151.462 14.6379V14.8379C151.462 16.5179 152.396 18.0512 154.262 19.4379C155.062 20.0245 155.956 20.6112 156.942 21.1979C157.956 21.7579 158.956 22.3712 159.942 23.0379C160.956 23.6779 161.862 24.3712 162.662 25.1179C163.489 25.8379 164.156 26.7312 164.662 27.7979C165.196 28.8645 165.462 30.0379 165.462 31.3179V31.7179C165.462 34.2512 164.596 36.2645 162.862 37.7579C161.156 39.2512 159.036 39.9979 156.502 39.9979C153.169 39.9979 150.582 38.6245 148.742 35.8779V33.7179C149.436 35.2379 150.449 36.4779 151.782 37.4379C153.142 38.3712 154.822 38.8379 156.822 38.8379C158.822 38.8379 160.556 38.1979 162.022 36.9179C163.489 35.6379 164.222 33.9312 164.222 31.7979V31.5579C164.222 30.2245 163.876 29.0112 163.182 27.9179C162.489 26.7979 161.622 25.8912 160.582 25.1979C159.542 24.4779 158.409 23.7312 157.182 22.9579C155.956 22.1845 154.822 21.4645 153.782 20.7979C152.742 20.1312 151.876 19.2912 151.182 18.2779C150.489 17.2645 150.142 16.1579 150.142 14.9579V14.6779C150.142 12.8112 150.742 11.3845 151.942 10.3979C153.142 9.4112 154.622 8.91787 156.382 8.91787C158.836 8.91787 160.782 9.82453 162.222 11.6379V13.6779ZM195.329 27.9979V26.8379H206.569V37.6779C204.222 39.1445 201.582 39.8779 198.649 39.8779H198.209C195.462 39.8779 192.902 39.1579 190.529 37.7179C188.155 36.2779 186.275 34.3712 184.889 31.9979C183.529 29.5979 182.849 27.0512 182.849 24.3579C182.849 20.1179 184.382 16.4779 187.449 13.4379C190.515 10.3712 194.182 8.83786 198.449 8.83786C201.302 8.83786 204.009 9.58453 206.569 11.0779V12.5579C204.062 10.8512 201.355 9.99786 198.449 9.99786C194.529 9.99786 191.169 11.4112 188.369 14.2379C185.569 17.0379 184.169 20.4112 184.169 24.3579C184.169 28.2779 185.569 31.6512 188.369 34.4779C191.169 37.3045 194.529 38.7179 198.449 38.7179C200.635 38.7179 202.902 38.1579 205.249 37.0379V27.9979H195.329ZM225.863 39.9579C221.73 39.9579 218.143 38.3979 215.103 35.2779C212.09 32.1579 210.583 28.5179 210.583 24.3579C210.583 20.1712 212.116 16.5579 215.183 13.5179C218.25 10.4512 221.93 8.91787 226.223 8.91787C230.516 8.91787 234.183 10.4379 237.223 13.4779C240.263 16.5179 241.783 20.1445 241.783 24.3579C241.783 28.5445 240.276 32.1979 237.263 35.3179C234.25 38.4112 230.65 39.9579 226.463 39.9579H225.863ZM240.463 24.4379C240.463 20.4912 239.063 17.1179 236.263 14.3179C233.49 11.4912 230.13 10.0779 226.183 10.0779C222.263 10.0779 218.903 11.4912 216.103 14.3179C213.303 17.1179 211.903 20.4912 211.903 24.4379C211.903 28.3579 213.303 31.7312 216.103 34.5579C218.903 37.3845 222.263 38.7979 226.183 38.7979C230.103 38.7979 233.463 37.3845 236.263 34.5579C239.063 31.7312 240.463 28.3579 240.463 24.4379ZM246.588 9.43786H247.868C252.348 9.43786 255.961 10.9179 258.708 13.8779C261.454 16.8112 262.828 20.3445 262.828 24.4779C262.828 28.5845 261.454 32.1045 258.708 35.0379C255.988 37.9712 252.374 39.4379 247.868 39.4379H246.588V9.43786ZM248.188 10.6379H247.868V38.1979H248.188C252.081 38.1979 255.268 36.8512 257.748 34.1579C260.254 31.4645 261.508 28.2379 261.508 24.4779C261.508 20.6912 260.254 17.4379 257.748 14.7179C255.268 11.9979 252.081 10.6379 248.188 10.6379ZM267.842 9.43786H269.162V39.4379H267.842V9.43786ZM297.457 9.43786H298.617V39.8779L276.537 12.7179V39.4379H275.377V8.99786L297.457 36.1179V9.43786ZM304.635 9.43786H315.395V10.5979H305.955V26.9179H313.835V28.0779H305.955V38.2779H315.395V39.4379H304.635V9.43786ZM332.56 8.71787L347.56 39.4379H346.16L340.48 27.9979H324.44L318.84 39.4379H317.6L332.56 8.71787ZM332.44 11.4779L324.96 26.8379H340L332.44 11.4779ZM358.756 39.9979H358.356C355.902 39.9979 353.822 39.1445 352.116 37.4379C350.436 35.7312 349.596 33.5845 349.596 30.9979V9.43786H350.916V30.9579C350.916 33.2245 351.649 35.1045 353.116 36.5979C354.582 38.0912 356.396 38.8379 358.556 38.8379C360.716 38.8379 362.516 38.1045 363.956 36.6379C365.422 35.1445 366.156 33.2512 366.156 30.9579V9.43786H367.476V30.9179C367.476 33.5312 366.622 35.7045 364.916 37.4379C363.236 39.1445 361.182 39.9979 358.756 39.9979Z" fill="#F4F4F4"/>
<path d="M25.738 9.43786V8.93786H25.238V9.43786H25.738ZM26.898 9.43786H27.398V8.93786H26.898V9.43786ZM26.898 39.8779L26.5101 40.1933L27.398 41.2855V39.8779H26.898ZM4.81802 12.7179L5.20599 12.4025L4.31802 11.3102V12.7179H4.81802ZM4.81802 39.4379V39.9379H5.31802V39.4379H4.81802ZM3.65802 39.4379H3.15802V39.9379H3.65802V39.4379ZM3.65802 8.99786L4.04576 8.68218L3.15802 7.5918V8.99786H3.65802ZM25.738 36.1179L25.3503 36.4335L26.238 37.5239V36.1179H25.738ZM25.738 9.93786H26.898V8.93786H25.738V9.93786ZM26.398 9.43786V39.8779H27.398V9.43786H26.398ZM27.286 39.5625L5.20599 12.4025L4.43005 13.0333L26.5101 40.1933L27.286 39.5625ZM4.31802 12.7179V39.4379H5.31802V12.7179H4.31802ZM4.81802 38.9379H3.65802V39.9379H4.81802V38.9379ZM4.15802 39.4379V8.99786H3.15802V39.4379H4.15802ZM3.27028 9.31355L25.3503 36.4335L26.1258 35.8022L4.04576 8.68218L3.27028 9.31355ZM26.238 36.1179V9.43786H25.238V36.1179H26.238ZM33.1158 9.43786V8.93786H32.6158V9.43786H33.1158ZM34.4358 9.43786H34.9358V8.93786H34.4358V9.43786ZM34.4358 39.4379V39.9379H34.9358V39.4379H34.4358ZM33.1158 39.4379H32.6158V39.9379H33.1158V39.4379ZM33.1158 9.93786H34.4358V8.93786H33.1158V9.93786ZM33.9358 9.43786V39.4379H34.9358V9.43786H33.9358ZM34.4358 38.9379H33.1158V39.9379H34.4358V38.9379ZM33.6158 39.4379V9.43786H32.6158V39.4379H33.6158ZM47.1302 37.7179L47.3896 37.2904L47.3896 37.2904L47.1302 37.7179ZM41.4902 31.9979L41.0552 32.2444L41.0585 32.2501L41.4902 31.9979ZM44.0502 13.4379L44.4022 13.793L44.4038 13.7914L44.0502 13.4379ZM63.1702 11.0779H63.6702V10.7907L63.4221 10.646L63.1702 11.0779ZM63.1702 12.5579L62.8888 12.9712L63.6702 13.5032V12.5579H63.1702ZM44.9702 14.2379L45.3238 14.5914L45.3254 14.5897L44.9702 14.2379ZM44.9702 34.4779L45.3254 34.126L45.3254 34.126L44.9702 34.4779ZM63.1702 36.1579H63.6702V35.2126L62.8888 35.7446L63.1702 36.1579ZM63.1702 37.6379L63.4323 38.0637L63.6702 37.9173V37.6379H63.1702ZM55.2502 39.3779H54.8102V40.3779H55.2502V39.3779ZM54.8102 39.3779C52.156 39.3779 49.6856 38.6835 47.3896 37.2904L46.8708 38.1453C49.3215 39.6322 51.9711 40.3779 54.8102 40.3779V39.3779ZM47.3896 37.2904C45.0866 35.8931 43.2662 34.0464 41.9219 31.7456L41.0585 32.2501C42.4876 34.696 44.4271 36.6626 46.8708 38.1453L47.3896 37.2904ZM41.9252 31.7514C40.6067 29.4246 39.9502 26.9626 39.9502 24.3579H38.9502C38.9502 27.1398 39.6537 29.7711 41.0552 32.2444L41.9252 31.7514ZM39.9502 24.3579C39.9502 20.254 41.4283 16.741 44.4022 13.793L43.6982 13.0828C40.5388 16.2147 38.9502 19.9818 38.9502 24.3579H39.9502ZM44.4038 13.7914C47.3784 10.8168 50.9186 9.33786 55.0502 9.33786V8.33786C50.6485 8.33786 46.8554 9.92561 43.6967 13.0843L44.4038 13.7914ZM55.0502 9.33786C57.8115 9.33786 60.4317 10.0592 62.9183 11.5098L63.4221 10.646C60.7888 9.10984 57.9956 8.33786 55.0502 8.33786V9.33786ZM62.6702 11.0779V12.5579H63.6702V11.0779H62.6702ZM63.4516 12.1446C60.8658 10.384 58.0618 9.49786 55.0502 9.49786V10.4979C57.852 10.4979 60.4613 11.3184 62.8888 12.9712L63.4516 12.1446ZM55.0502 9.49786C50.9945 9.49786 47.5073 10.9661 44.615 13.886L45.3254 14.5897C48.0331 11.8563 51.2659 10.4979 55.0502 10.4979V9.49786ZM44.6167 13.8843C41.7232 16.7777 40.2702 20.2781 40.2702 24.3579H41.2702C41.2702 20.5443 42.6172 17.298 45.3238 14.5914L44.6167 13.8843ZM40.2702 24.3579C40.2702 28.4118 41.7238 31.911 44.615 34.8297L45.3254 34.126C42.6166 31.3914 41.2702 28.1439 41.2702 24.3579H40.2702ZM44.615 34.8297C47.5073 37.7496 50.9945 39.2179 55.0502 39.2179V38.2179C51.2659 38.2179 48.0331 36.8595 45.3254 34.126L44.615 34.8297ZM55.0502 39.2179C58.0618 39.2179 60.8658 38.3317 63.4516 36.5712L62.8888 35.7446C60.4613 37.3973 57.852 38.2179 55.0502 38.2179V39.2179ZM62.6702 36.1579V37.6379H63.6702V36.1579H62.6702ZM62.9082 37.212C60.5604 38.6568 58.0111 39.3779 55.2502 39.3779V40.3779C58.1959 40.3779 60.9267 39.6056 63.4323 38.0637L62.9082 37.212ZM71.8999 35.2779L71.5402 35.6252L71.5418 35.6268L71.8999 35.2779ZM71.9799 13.5179L72.3319 13.873L72.3334 13.8714L71.9799 13.5179ZM94.0199 13.4779L94.3734 13.1243L94.3734 13.1243L94.0199 13.4779ZM94.0599 35.3179L94.4181 35.6668L94.4195 35.6652L94.0599 35.3179ZM93.0599 14.3179L92.703 14.6681L92.7063 14.6714L93.0599 14.3179ZM72.8999 14.3179L73.2535 14.6714L73.2551 14.6697L72.8999 14.3179ZM72.8999 34.5579L73.2551 34.206L73.2551 34.206L72.8999 34.5579ZM93.0599 34.5579L92.7047 34.206L93.0599 34.5579ZM82.6599 39.4579C78.6693 39.4579 75.2096 37.9582 72.258 34.9289L71.5418 35.6268C74.6702 38.8376 78.3838 40.4579 82.6599 40.4579V39.4579ZM72.2595 34.9305C69.332 31.8993 67.8799 28.3823 67.8799 24.3579H66.8799C66.8799 28.6535 68.4411 32.4164 71.5402 35.6252L72.2595 34.9305ZM67.8799 24.3579C67.8799 20.3092 69.3566 16.8224 72.3319 13.873L71.6279 13.1628C68.4698 16.2934 66.8799 20.0332 66.8799 24.3579H67.8799ZM72.3334 13.8714C75.3074 10.8975 78.8607 9.41787 83.0199 9.41787V8.41787C78.5924 8.41787 74.7857 10.0049 71.6263 13.1643L72.3334 13.8714ZM83.0199 9.41787C87.1804 9.41787 90.72 10.885 93.6663 13.8314L94.3734 13.1243C91.2398 9.99069 87.446 8.41787 83.0199 8.41787V9.41787ZM93.6663 13.8314C96.6147 16.7798 98.0799 20.2801 98.0799 24.3579H99.0799C99.0799 20.0089 97.5051 16.2559 94.3734 13.1243L93.6663 13.8314ZM98.0799 24.3579C98.0799 28.4098 96.6272 31.94 93.7002 34.9705L94.4195 35.6652C97.5193 32.4557 99.0799 28.6792 99.0799 24.3579H98.0799ZM93.7017 34.969C90.7792 37.9691 87.307 39.4579 83.2599 39.4579V40.4579C87.5861 40.4579 91.3139 38.8533 94.418 35.6668L93.7017 34.969ZM83.2599 39.4579H82.6599V40.4579H83.2599V39.4579ZM97.7599 24.4379C97.7599 20.3581 96.3069 16.8577 93.4134 13.9643L92.7063 14.6714C95.4129 17.378 96.7599 20.6243 96.7599 24.4379H97.7599ZM93.4168 13.9677C90.5498 11.0456 87.0613 9.57787 82.9799 9.57787V10.5779C86.7918 10.5779 90.0233 11.9368 92.703 14.668L93.4168 13.9677ZM82.9799 9.57787C78.9242 9.57787 75.437 11.0461 72.5447 13.966L73.2551 14.6697C75.9628 11.9363 79.1956 10.5779 82.9799 10.5779V9.57787ZM72.5463 13.9643C69.6529 16.8577 68.1999 20.3581 68.1999 24.4379H69.1999C69.1999 20.6243 70.5469 17.378 73.2534 14.6714L72.5463 13.9643ZM68.1999 24.4379C68.1999 28.4918 69.6535 31.991 72.5447 34.9097L73.2551 34.206C70.5463 31.4714 69.1999 28.2239 69.1999 24.4379H68.1999ZM72.5447 34.9097C75.437 37.8296 78.9242 39.2979 82.9799 39.2979V38.2979C79.1956 38.2979 75.9628 36.9395 73.2551 34.206L72.5447 34.9097ZM82.9799 39.2979C87.0356 39.2979 90.5228 37.8296 93.4151 34.9097L92.7047 34.206C89.997 36.9395 86.7642 38.2979 82.9799 38.2979V39.2979ZM93.4151 34.9097C96.3063 31.991 97.7599 28.4918 97.7599 24.4379H96.7599C96.7599 28.2239 95.4135 31.4714 92.7047 34.206L93.4151 34.9097ZM104.705 9.43786H105.205V8.93786H104.705V9.43786ZM104.705 38.2779H104.205V38.7779H104.705V38.2779ZM113.985 38.2779H114.485V37.7779H113.985V38.2779ZM113.985 39.4379V39.9379H114.485V39.4379H113.985ZM103.385 39.4379H102.885V39.9379H103.385V39.4379ZM103.385 9.43786V8.93786H102.885V9.43786H103.385ZM104.205 9.43786V38.2779H105.205V9.43786H104.205ZM104.705 38.7779H113.985V37.7779H104.705V38.7779ZM113.485 38.2779V39.4379H114.485V38.2779H113.485ZM113.985 38.9379H103.385V39.9379H113.985V38.9379ZM103.885 39.4379V9.43786H102.885V39.4379H103.885ZM103.385 9.93786H104.705V8.93786H103.385V9.93786ZM130.959 8.71787L131.408 8.49848L130.958 7.57709L130.509 8.49895L130.959 8.71787ZM145.959 39.4379V39.9379H146.759L146.408 39.2185L145.959 39.4379ZM144.559 39.4379L144.111 39.6602L144.249 39.9379H144.559V39.4379ZM138.879 27.9979L139.326 27.7755L139.189 27.4979H138.879V27.9979ZM122.839 27.9979V27.4979H122.527L122.39 27.778L122.839 27.9979ZM117.239 39.4379V39.9379H117.551L117.688 39.6577L117.239 39.4379ZM115.999 39.4379L115.549 39.219L115.199 39.9379H115.999V39.4379ZM130.839 11.4779L131.287 11.2571L130.836 10.3408L130.389 11.259L130.839 11.4779ZM123.359 26.8379L122.909 26.619L122.559 27.3379H123.359V26.8379ZM138.399 26.8379V27.3379H139.202L138.847 26.6171L138.399 26.8379ZM130.509 8.93725L145.509 39.6573L146.408 39.2185L131.408 8.49848L130.509 8.93725ZM145.959 38.9379H144.559V39.9379H145.959V38.9379ZM145.006 39.2155L139.326 27.7755L138.431 28.2202L144.111 39.6602L145.006 39.2155ZM138.879 27.4979H122.839V28.4979H138.879V27.4979ZM122.39 27.778L116.79 39.218L117.688 39.6577L123.288 28.2177L122.39 27.778ZM117.239 38.9379H115.999V39.9379H117.239V38.9379ZM116.448 39.6568L131.408 8.93678L130.509 8.49895L115.549 39.219L116.448 39.6568ZM130.389 11.259L122.909 26.619L123.808 27.0568L131.288 11.6968L130.389 11.259ZM123.359 27.3379H138.399V26.3379H123.359V27.3379ZM138.847 26.6171L131.287 11.2571L130.39 11.6987L137.95 27.0587L138.847 26.6171ZM162.222 13.6779L161.784 13.918L162.722 13.6779H162.222ZM159.702 11.0379L159.44 11.4637L159.445 11.4666L159.702 11.0379ZM152.822 11.3179L153.153 11.6928L153.154 11.6922L152.822 11.3179ZM154.262 19.4379L153.964 19.8392L153.967 19.8411L154.262 19.4379ZM156.942 21.1979L156.687 21.6276L156.694 21.6317L156.701 21.6355L156.942 21.1979ZM159.942 23.0379L159.662 23.4522L159.669 23.4565L159.675 23.4606L159.942 23.0379ZM162.662 25.1179L162.321 25.4834L162.328 25.4893L162.334 25.4949L162.662 25.1179ZM164.662 27.7979L164.211 28.0124L164.215 28.0215L164.662 27.7979ZM162.862 37.7579L162.536 37.3791L162.533 37.3816L162.862 37.7579ZM148.742 35.8779H148.242V36.0299L148.327 36.1561L148.742 35.8779ZM148.742 33.7179L149.197 33.5104L148.242 33.7179H148.742ZM151.782 37.4379L151.49 37.8437L151.499 37.8501L151.782 37.4379ZM162.022 36.9179L162.351 37.2946L162.351 37.2946L162.022 36.9179ZM163.182 27.9179L162.757 28.1811L162.76 28.1856L163.182 27.9179ZM160.582 25.1979L160.298 25.609L160.305 25.6139L160.582 25.1979ZM157.182 22.9579L157.449 22.5349L157.449 22.5349L157.182 22.9579ZM151.182 18.2779L151.595 17.9955L151.595 17.9955L151.182 18.2779ZM162.222 11.6379H162.722V11.4635L162.614 11.3269L162.222 11.6379ZM162.661 13.4377C162.006 12.242 161.104 11.296 159.96 10.6091L159.445 11.4666C160.434 12.0597 161.212 12.8737 161.784 13.918L162.661 13.4377ZM159.964 10.612C158.84 9.92012 157.575 9.57787 156.182 9.57787V10.5779C157.403 10.5779 158.485 10.8756 159.44 11.4637L159.964 10.612ZM156.182 9.57787C154.76 9.57787 153.52 10.0318 152.491 10.9436L153.154 11.6922C153.991 10.9506 154.991 10.5779 156.182 10.5779V9.57787ZM152.492 10.9429C151.459 11.8542 150.962 13.1078 150.962 14.6379H151.962C151.962 13.3413 152.373 12.3815 153.153 11.6928L152.492 10.9429ZM150.962 14.6379V14.8379H151.962V14.6379H150.962ZM150.962 14.8379C150.962 16.7315 152.023 18.3971 153.964 19.8392L154.561 19.0365C152.769 17.7053 151.962 16.3043 151.962 14.8379H150.962ZM153.967 19.8411C154.781 20.4386 155.688 21.034 156.687 21.6276L157.198 20.7681C156.223 20.1884 155.343 19.6105 154.558 19.0347L153.967 19.8411ZM156.701 21.6355C157.7 22.1881 158.688 22.7936 159.662 23.4522L160.222 22.6236C159.224 21.9488 158.211 21.3276 157.184 20.7602L156.701 21.6355ZM159.675 23.4606C160.665 24.0855 161.546 24.76 162.321 25.4834L163.004 24.7523C162.179 23.9824 161.247 23.2703 160.209 22.6151L159.675 23.4606ZM162.334 25.4949C163.105 26.1664 163.731 27.0029 164.211 28.0124L165.114 27.5833C164.58 26.4595 163.873 25.5094 162.991 24.7408L162.334 25.4949ZM164.215 28.0215C164.711 29.0137 164.962 30.1097 164.962 31.3179H165.962C165.962 29.9661 165.68 28.7154 165.11 27.5743L164.215 28.0215ZM164.962 31.3179V31.7179H165.962V31.3179H164.962ZM164.962 31.7179C164.962 34.1232 164.146 35.9916 162.536 37.3791L163.189 38.1367C165.045 36.5375 165.962 34.3792 165.962 31.7179H164.962ZM162.533 37.3816C160.928 38.7857 158.93 39.4979 156.502 39.4979V40.4979C159.142 40.4979 161.383 39.7167 163.192 38.1342L162.533 37.3816ZM156.502 39.4979C153.334 39.4979 150.904 38.2063 149.158 35.5996L148.327 36.1561C150.261 39.0428 153.004 40.4979 156.502 40.4979V39.4979ZM149.242 35.8779V33.7179H148.242V35.8779H149.242ZM148.287 33.9254C149.016 35.5231 150.085 36.8319 151.49 37.8436L152.075 37.0321C150.813 36.1238 149.855 34.9526 149.197 33.5104L148.287 33.9254ZM151.499 37.8501C152.959 38.8518 154.743 39.3379 156.822 39.3379V38.3379C154.902 38.3379 153.326 37.8906 152.065 37.0256L151.499 37.8501ZM156.822 39.3379C158.94 39.3379 160.791 38.6564 162.351 37.2946L161.694 36.5412C160.321 37.7393 158.705 38.3379 156.822 38.3379V39.3379ZM162.351 37.2946C163.938 35.9098 164.722 34.06 164.722 31.7979H163.722C163.722 33.8024 163.04 35.3659 161.694 36.5412L162.351 37.2946ZM164.722 31.7979V31.5579H163.722V31.7979H164.722ZM164.722 31.5579C164.722 30.1327 164.35 28.826 163.605 27.6501L162.76 28.1856C163.401 29.1964 163.722 30.3164 163.722 31.5579H164.722ZM163.608 27.6547C162.879 26.4771 161.963 25.5171 160.86 24.7818L160.305 25.6139C161.282 26.2653 162.1 27.1186 162.757 28.181L163.608 27.6547ZM160.867 24.7868C159.82 24.0621 158.681 23.3115 157.449 22.5349L156.916 23.3808C158.137 24.1509 159.264 24.8936 160.298 25.609L160.867 24.7868ZM157.449 22.5349C156.223 21.7621 155.091 21.0428 154.052 20.3769L153.513 21.2188C154.554 21.8863 155.688 22.6069 156.916 23.3808L157.449 22.5349ZM154.052 20.3769C153.068 19.7462 152.25 18.9532 151.595 17.9955L150.77 18.5602C151.501 19.6292 152.417 20.5162 153.513 21.2188L154.052 20.3769ZM151.595 17.9955C150.957 17.0633 150.642 16.0546 150.642 14.9579H149.642C149.642 16.2611 150.021 17.4658 150.77 18.5602L151.595 17.9955ZM150.642 14.9579V14.6779H149.642V14.9579H150.642ZM150.642 14.6779C150.642 12.9274 151.199 11.6565 152.26 10.7841L151.625 10.0117C150.286 11.1126 149.642 12.695 149.642 14.6779H150.642ZM152.26 10.7841C153.359 9.88071 154.722 9.41787 156.382 9.41787V8.41787C154.523 8.41787 152.926 8.94169 151.625 10.0117L152.26 10.7841ZM156.382 9.41787C158.694 9.41787 160.492 10.2629 161.831 11.9488L162.614 11.3269C161.073 9.38618 158.978 8.41787 156.382 8.41787V9.41787ZM161.722 11.6379V13.6779H162.722V11.6379H161.722ZM195.329 27.9979H194.829V28.4979H195.329V27.9979ZM195.329 26.8379V26.3379H194.829V26.8379H195.329ZM206.569 26.8379H207.069V26.3379H206.569V26.8379ZM206.569 37.6779L206.834 38.1019L207.069 37.955V37.6779H206.569ZM190.529 37.7179L190.788 37.2904L190.788 37.2904L190.529 37.7179ZM184.889 31.9979L184.454 32.2444L184.457 32.2501L184.889 31.9979ZM187.449 13.4379L187.801 13.793L187.802 13.7914L187.449 13.4379ZM206.569 11.0779H207.069V10.7907L206.821 10.646L206.569 11.0779ZM206.569 12.5579L206.287 12.9712L207.069 13.5032V12.5579H206.569ZM188.369 14.2379L188.722 14.5914L188.724 14.5897L188.369 14.2379ZM188.369 34.4779L188.724 34.126L188.724 34.126L188.369 34.4779ZM205.249 37.0379L205.464 37.4891L205.749 37.3533V37.0379H205.249ZM205.249 27.9979H205.749V27.4979H205.249V27.9979ZM195.829 27.9979V26.8379H194.829V27.9979H195.829ZM195.329 27.3379H206.569V26.3379H195.329V27.3379ZM206.069 26.8379V37.6779H207.069V26.8379H206.069ZM206.304 37.2539C204.041 38.6678 201.494 39.3779 198.649 39.3779V40.3779C201.67 40.3779 204.403 39.6212 206.834 38.1019L206.304 37.2539ZM198.649 39.3779H198.209V40.3779H198.649V39.3779ZM198.209 39.3779C195.554 39.3779 193.084 38.6835 190.788 37.2904L190.269 38.1453C192.72 39.6322 195.369 40.3779 198.209 40.3779V39.3779ZM190.788 37.2904C188.485 35.8931 186.665 34.0464 185.32 31.7456L184.457 32.2501C185.886 34.696 187.826 36.6626 190.269 38.1453L190.788 37.2904ZM185.324 31.7514C184.005 29.4246 183.349 26.9626 183.349 24.3579H182.349C182.349 27.1398 183.052 29.7711 184.454 32.2444L185.324 31.7514ZM183.349 24.3579C183.349 20.254 184.827 16.741 187.801 13.793L187.097 13.0828C183.937 16.2147 182.349 19.9818 182.349 24.3579H183.349ZM187.802 13.7914C190.777 10.8168 194.317 9.33786 198.449 9.33786V8.33786C194.047 8.33786 190.254 9.92561 187.095 13.0843L187.802 13.7914ZM198.449 9.33786C201.21 9.33786 203.83 10.0592 206.317 11.5098L206.821 10.646C204.187 9.10984 201.394 8.33786 198.449 8.33786V9.33786ZM206.069 11.0779V12.5579H207.069V11.0779H206.069ZM206.85 12.1446C204.264 10.384 201.46 9.49786 198.449 9.49786V10.4979C201.25 10.4979 203.86 11.3184 206.287 12.9712L206.85 12.1446ZM198.449 9.49786C194.393 9.49786 190.906 10.9661 188.013 13.886L188.724 14.5897C191.432 11.8563 194.664 10.4979 198.449 10.4979V9.49786ZM188.015 13.8843C185.122 16.7777 183.669 20.2781 183.669 24.3579H184.669C184.669 20.5443 186.016 17.298 188.722 14.5914L188.015 13.8843ZM183.669 24.3579C183.669 28.4118 185.122 31.911 188.013 34.8297L188.724 34.126C186.015 31.3914 184.669 28.1439 184.669 24.3579H183.669ZM188.013 34.8297C190.906 37.7496 194.393 39.2179 198.449 39.2179V38.2179C194.664 38.2179 191.432 36.8595 188.724 34.126L188.013 34.8297ZM198.449 39.2179C200.723 39.2179 203.063 38.6352 205.464 37.4891L205.033 36.5866C202.741 37.6805 200.548 38.2179 198.449 38.2179V39.2179ZM205.749 37.0379V27.9979H204.749V37.0379H205.749ZM205.249 27.4979H195.329V28.4979H205.249V27.4979ZM215.103 35.2779L214.743 35.6252L214.745 35.6268L215.103 35.2779ZM215.183 13.5179L215.535 13.873L215.537 13.8714L215.183 13.5179ZM237.223 13.4779L237.577 13.1243L237.577 13.1243L237.223 13.4779ZM237.263 35.3179L237.621 35.6668L237.623 35.6652L237.263 35.3179ZM236.263 14.3179L235.906 14.6681L235.909 14.6714L236.263 14.3179ZM216.103 14.3179L216.457 14.6714L216.458 14.6697L216.103 14.3179ZM216.103 34.5579L216.458 34.206L216.458 34.206L216.103 34.5579ZM236.263 34.5579L235.908 34.206L236.263 34.5579ZM225.863 39.4579C221.872 39.4579 218.413 37.9582 215.461 34.9289L214.745 35.6268C217.873 38.8376 221.587 40.4579 225.863 40.4579V39.4579ZM215.463 34.9305C212.535 31.8993 211.083 28.3823 211.083 24.3579H210.083C210.083 28.6535 211.644 32.4164 214.743 35.6252L215.463 34.9305ZM211.083 24.3579C211.083 20.3092 212.56 16.8224 215.535 13.873L214.831 13.1628C211.673 16.2934 210.083 20.0332 210.083 24.3579H211.083ZM215.537 13.8714C218.511 10.8975 222.064 9.41787 226.223 9.41787V8.41787C221.796 8.41787 217.989 10.0049 214.829 13.1643L215.537 13.8714ZM226.223 9.41787C230.384 9.41787 233.923 10.885 236.869 13.8314L237.577 13.1243C234.443 9.99069 230.649 8.41787 226.223 8.41787V9.41787ZM236.869 13.8314C239.818 16.7798 241.283 20.2801 241.283 24.3579H242.283C242.283 20.0089 240.708 16.2559 237.577 13.1243L236.869 13.8314ZM241.283 24.3579C241.283 28.4098 239.83 31.94 236.903 34.9705L237.623 35.6652C240.722 32.4557 242.283 28.6792 242.283 24.3579H241.283ZM236.905 34.969C233.982 37.9691 230.51 39.4579 226.463 39.4579V40.4579C230.789 40.4579 234.517 38.8533 237.621 35.6668L236.905 34.969ZM226.463 39.4579H225.863V40.4579H226.463V39.4579ZM240.963 24.4379C240.963 20.3581 239.51 16.8577 236.617 13.9643L235.909 14.6714C238.616 17.378 239.963 20.6243 239.963 24.4379H240.963ZM236.62 13.9677C233.753 11.0456 230.264 9.57787 226.183 9.57787V10.5779C229.995 10.5779 233.226 11.9368 235.906 14.668L236.62 13.9677ZM226.183 9.57787C222.127 9.57787 218.64 11.0461 215.748 13.966L216.458 14.6697C219.166 11.9363 222.399 10.5779 226.183 10.5779V9.57787ZM215.749 13.9643C212.856 16.8577 211.403 20.3581 211.403 24.4379H212.403C212.403 20.6243 213.75 17.378 216.457 14.6714L215.749 13.9643ZM211.403 24.4379C211.403 28.4918 212.857 31.991 215.748 34.9097L216.458 34.206C213.749 31.4714 212.403 28.2239 212.403 24.4379H211.403ZM215.748 34.9097C218.64 37.8296 222.127 39.2979 226.183 39.2979V38.2979C222.399 38.2979 219.166 36.9395 216.458 34.206L215.748 34.9097ZM226.183 39.2979C230.239 39.2979 233.726 37.8296 236.618 34.9097L235.908 34.206C233.2 36.9395 229.967 38.2979 226.183 38.2979V39.2979ZM236.618 34.9097C239.509 31.991 240.963 28.4918 240.963 24.4379H239.963C239.963 28.2239 238.617 31.4714 235.908 34.206L236.618 34.9097ZM246.588 9.43786V8.93786H246.088V9.43786H246.588ZM258.708 13.8779L258.341 14.218L258.343 14.2196L258.708 13.8779ZM258.708 35.0379L258.343 34.6961L258.341 34.6979L258.708 35.0379ZM246.588 39.4379H246.088V39.9379H246.588V39.4379ZM247.868 10.6379V10.1379H247.368V10.6379H247.868ZM247.868 38.1979H247.368V38.6979H247.868V38.1979ZM257.748 34.1579L257.382 33.8172L257.38 33.8192L257.748 34.1579ZM257.748 14.7179L257.378 15.0547L257.38 15.0567L257.748 14.7179ZM246.588 9.93786H247.868V8.93786H246.588V9.93786ZM247.868 9.93786C252.226 9.93786 255.7 11.3717 258.341 14.218L259.074 13.5378C256.222 10.4641 252.47 8.93786 247.868 8.93786V9.93786ZM258.343 14.2196C261 17.0574 262.328 20.4674 262.328 24.4779H263.328C263.328 20.2216 261.909 16.565 259.073 13.5361L258.343 14.2196ZM262.328 24.4779C262.328 28.4607 261.001 31.8577 258.343 34.6961L259.073 35.3796C261.908 32.3514 263.328 28.7084 263.328 24.4779H262.328ZM258.341 34.6979C255.728 37.5158 252.255 38.9379 247.868 38.9379V39.9379C252.494 39.9379 256.247 38.4266 259.074 35.3778L258.341 34.6979ZM247.868 38.9379H246.588V39.9379H247.868V38.9379ZM247.088 39.4379V9.43786H246.088V39.4379H247.088ZM248.188 10.1379H247.868V11.1379H248.188V10.1379ZM247.368 10.6379V38.1979H248.368V10.6379H247.368ZM247.868 38.6979H248.188V37.6979H247.868V38.6979ZM248.188 38.6979C252.211 38.6979 255.534 37.2998 258.116 34.4966L257.38 33.8192C255.001 36.4026 251.951 37.6979 248.188 37.6979V38.6979ZM258.114 34.4985C260.709 31.7104 262.008 28.3612 262.008 24.4779H261.008C261.008 28.1145 259.8 31.2186 257.382 33.8172L258.114 34.4985ZM262.008 24.4779C262.008 20.5689 260.709 17.1937 258.115 14.379L257.38 15.0567C259.799 17.682 261.008 20.8135 261.008 24.4779H262.008ZM258.117 14.381C255.536 11.5505 252.213 10.1379 248.188 10.1379V11.1379C251.95 11.1379 254.999 12.4452 257.378 15.0547L258.117 14.381ZM267.842 9.43786V8.93786H267.342V9.43786H267.842ZM269.162 9.43786H269.662V8.93786H269.162V9.43786ZM269.162 39.4379V39.9379H269.662V39.4379H269.162ZM267.842 39.4379H267.342V39.9379H267.842V39.4379ZM267.842 9.93786H269.162V8.93786H267.842V9.93786ZM268.662 9.43786V39.4379H269.662V9.43786H268.662ZM269.162 38.9379H267.842V39.9379H269.162V38.9379ZM268.342 39.4379V9.43786H267.342V39.4379H268.342ZM297.457 9.43786V8.93786H296.957V9.43786H297.457ZM298.617 9.43786H299.117V8.93786H298.617V9.43786ZM298.617 39.8779L298.229 40.1933L299.117 41.2855V39.8779H298.617ZM276.537 12.7179L276.925 12.4025L276.037 11.3102V12.7179H276.537ZM276.537 39.4379V39.9379H277.037V39.4379H276.537ZM275.377 39.4379H274.877V39.9379H275.377V39.4379ZM275.377 8.99786L275.765 8.68218L274.877 7.5918V8.99786H275.377ZM297.457 36.1179L297.069 36.4335L297.957 37.5239V36.1179H297.457ZM297.457 9.93786H298.617V8.93786H297.457V9.93786ZM298.117 9.43786V39.8779H299.117V9.43786H298.117ZM299.005 39.5625L276.925 12.4025L276.149 13.0333L298.229 40.1933L299.005 39.5625ZM276.037 12.7179V39.4379H277.037V12.7179H276.037ZM276.537 38.9379H275.377V39.9379H276.537V38.9379ZM275.877 39.4379V8.99786H274.877V39.4379H275.877ZM274.989 9.31355L297.069 36.4335L297.845 35.8022L275.765 8.68218L274.989 9.31355ZM297.957 36.1179V9.43786H296.957V36.1179H297.957ZM304.635 9.43786V8.93786H304.135V9.43786H304.635ZM315.395 9.43786H315.895V8.93786H315.395V9.43786ZM315.395 10.5979V11.0979H315.895V10.5979H315.395ZM305.955 10.5979V10.0979H305.455V10.5979H305.955ZM305.955 26.9179H305.455V27.4179H305.955V26.9179ZM313.835 26.9179H314.335V26.4179H313.835V26.9179ZM313.835 28.0779V28.5779H314.335V28.0779H313.835ZM305.955 28.0779V27.5779H305.455V28.0779H305.955ZM305.955 38.2779H305.455V38.7779H305.955V38.2779ZM315.395 38.2779H315.895V37.7779H315.395V38.2779ZM315.395 39.4379V39.9379H315.895V39.4379H315.395ZM304.635 39.4379H304.135V39.9379H304.635V39.4379ZM304.635 9.93786H315.395V8.93786H304.635V9.93786ZM314.895 9.43786V10.5979H315.895V9.43786H314.895ZM315.395 10.0979H305.955V11.0979H315.395V10.0979ZM305.455 10.5979V26.9179H306.455V10.5979H305.455ZM305.955 27.4179H313.835V26.4179H305.955V27.4179ZM313.335 26.9179V28.0779H314.335V26.9179H313.335ZM313.835 27.5779H305.955V28.5779H313.835V27.5779ZM305.455 28.0779V38.2779H306.455V28.0779H305.455ZM305.955 38.7779H315.395V37.7779H305.955V38.7779ZM314.895 38.2779V39.4379H315.895V38.2779H314.895ZM315.395 38.9379H304.635V39.9379H315.395V38.9379ZM305.135 39.4379V9.43786H304.135V39.4379H305.135ZM332.56 8.71787L333.01 8.49848L332.56 7.57709L332.111 8.49895L332.56 8.71787ZM347.56 39.4379V39.9379H348.361L348.01 39.2185L347.56 39.4379ZM346.16 39.4379L345.712 39.6602L345.85 39.9379H346.16V39.4379ZM340.48 27.9979L340.928 27.7755L340.79 27.4979H340.48V27.9979ZM324.44 27.9979V27.4979H324.128L323.991 27.778L324.44 27.9979ZM318.84 39.4379V39.9379H319.152L319.289 39.6577L318.84 39.4379ZM317.6 39.4379L317.151 39.219L316.801 39.9379H317.6V39.4379ZM332.44 11.4779L332.889 11.2571L332.438 10.3408L331.991 11.259L332.44 11.4779ZM324.96 26.8379L324.511 26.619L324.161 27.3379H324.96V26.8379ZM340 26.8379V27.3379H340.804L340.449 26.6171L340 26.8379ZM332.111 8.93725L347.111 39.6573L348.01 39.2185L333.01 8.49848L332.111 8.93725ZM347.56 38.9379H346.16V39.9379H347.56V38.9379ZM346.608 39.2155L340.928 27.7755L340.032 28.2202L345.712 39.6602L346.608 39.2155ZM340.48 27.4979H324.44V28.4979H340.48V27.4979ZM323.991 27.778L318.391 39.218L319.289 39.6577L324.889 28.2177L323.991 27.778ZM318.84 38.9379H317.6V39.9379H318.84V38.9379ZM318.05 39.6568L333.01 8.93678L332.111 8.49895L317.151 39.219L318.05 39.6568ZM331.991 11.259L324.511 26.619L325.41 27.0568L332.89 11.6968L331.991 11.259ZM324.96 27.3379H340V26.3379H324.96V27.3379ZM340.449 26.6171L332.889 11.2571L331.992 11.6987L339.552 27.0587L340.449 26.6171ZM352.116 37.4379L351.759 37.7886L351.762 37.7914L352.116 37.4379ZM349.596 9.43786V8.93786H349.096V9.43786H349.596ZM350.916 9.43786H351.416V8.93786H350.916V9.43786ZM353.116 36.5979L352.759 36.9482L352.759 36.9482L353.116 36.5979ZM363.956 36.6379L363.599 36.2875L363.599 36.2876L363.956 36.6379ZM366.156 9.43786V8.93786H365.656V9.43786H366.156ZM367.476 9.43786H367.976V8.93786H367.476V9.43786ZM364.916 37.4379L364.559 37.0871L364.559 37.0871L364.916 37.4379ZM358.756 39.4979H358.356V40.4979H358.756V39.4979ZM358.356 39.4979C356.032 39.4979 354.08 38.6955 352.469 37.0843L351.762 37.7914C353.564 39.5936 355.772 40.4979 358.356 40.4979V39.4979ZM352.472 37.0871C350.892 35.4819 350.096 33.4649 350.096 30.9979H349.096C349.096 33.7042 349.979 35.9805 351.759 37.7886L352.472 37.0871ZM350.096 30.9979V9.43786H349.096V30.9979H350.096ZM349.596 9.93786H350.916V8.93786H349.596V9.93786ZM350.416 9.43786V30.9579H351.416V9.43786H350.416ZM350.416 30.9579C350.416 33.3436 351.192 35.3532 352.759 36.9482L353.472 36.2475C352.105 34.8559 351.416 33.1054 351.416 30.9579H350.416ZM352.759 36.9482C354.323 38.5407 356.266 39.3379 358.556 39.3379V38.3379C356.525 38.3379 354.842 37.6417 353.472 36.2475L352.759 36.9482ZM358.556 39.3379C360.842 39.3379 362.773 38.5559 364.312 36.9882L363.599 36.2876C362.258 37.6532 360.589 38.3379 358.556 38.3379V39.3379ZM364.312 36.9882C365.88 35.392 366.656 33.3685 366.656 30.9579H365.656C365.656 33.1339 364.964 34.897 363.599 36.2875L364.312 36.9882ZM366.656 30.9579V9.43786H365.656V30.9579H366.656ZM366.156 9.93786H367.476V8.93786H366.156V9.93786ZM366.976 9.43786V30.9179H367.976V9.43786H366.976ZM366.976 30.9179C366.976 33.4107 366.167 35.4547 364.559 37.0871L365.272 37.7887C367.078 35.9544 367.976 33.6517 367.976 30.9179H366.976ZM364.559 37.0871C362.975 38.6969 361.05 39.4979 358.756 39.4979V40.4979C361.314 40.4979 363.496 39.5922 365.272 37.7886L364.559 37.0871Z" fill="#F4F4F4"/>
<path d="M86.6718 18.3378L90.5817 24.4588L86.6718 30.5775H78.8494L74.9369 24.4588L78.8494 18.3378H86.6718Z" fill="#F4F4F4"/>
<line x1="71.8272" y1="18.0605" x2="86.6783" y2="18.0605" stroke="#F4F4F4" stroke-width="0.6"/>
<line y1="-0.3" x2="14.5711" y2="-0.3" transform="matrix(0.540103 0.841599 -0.885615 0.46442 82.7118 12.2173)" stroke="#F4F4F4" stroke-width="0.6"/>
<line y1="-0.3" x2="14.5711" y2="-0.3" transform="matrix(0.540103 -0.841599 0.854301 0.519779 71.4099 30.6036)" stroke="#F4F4F4" stroke-width="0.6"/>
<line y1="-0.3" x2="14.5694" y2="-0.3" transform="matrix(-0.535907 0.844277 -0.822206 -0.569191 94.4862 18.2345)" stroke="#F4F4F4" stroke-width="0.6"/>
<line y1="-0.3" x2="14.851" y2="-0.3" transform="matrix(-0.999984 0.00573688 -0.00605116 -0.999982 93.728 30.4925)" stroke="#F4F4F4" stroke-width="0.6"/>
<line y1="-0.3" x2="14.5732" y2="-0.3" transform="matrix(-0.545108 -0.838366 0.882904 -0.469554 82.8809 36.698)" stroke="#F4F4F4" stroke-width="0.6"/>
<path d="M97.9926 24.4576C97.9926 32.6319 91.264 39.2711 82.948 39.2711C74.632 39.2711 67.9034 32.6319 67.9034 24.4576C67.9034 16.2834 74.632 9.6442 82.948 9.6442C91.264 9.6442 97.9926 16.2834 97.9926 24.4576Z" stroke="#F4F4F4"/>
</svg>
