<svg width="371" height="95" viewBox="0 0 371 95" fill="none" xmlns="http://www.w3.org/2000/svg">
<rect x="0.832321" y="47.4379" width="370" height="47" fill="black"/>
<path d="M54.6419 56.4379H55.9619C58.7352 56.4379 61.0952 57.3979 63.0419 59.3179C64.9886 61.2112 65.9619 63.4512 65.9619 66.0379C65.9619 68.6245 64.9486 70.8512 62.9219 72.7179C60.9219 74.5845 58.7086 75.5179 56.2819 75.5179H55.9619V86.4379H54.6419V56.4379ZM55.9619 74.3979H56.2819C58.5219 74.3979 60.4686 73.5712 62.1219 71.9179C63.8019 70.2645 64.6419 68.3045 64.6419 66.0379C64.6419 63.7712 63.7886 61.7979 62.0819 60.1179C60.4019 58.4379 58.4686 57.5979 56.2819 57.5979H55.9619V74.3979ZM92.1479 56.4379H93.4679V86.4379H92.1479V74.9979H71.5879V86.4379H70.2679V56.4379H71.5879V73.8379H92.1479V56.4379ZM113.567 86.9579C109.433 86.9579 105.847 85.3979 102.807 82.2779C99.7933 79.1579 98.2866 75.5179 98.2866 71.3579C98.2866 67.1712 99.8199 63.5579 102.887 60.5179C105.953 57.4512 109.633 55.9179 113.927 55.9179C118.22 55.9179 121.887 57.4379 124.927 60.4779C127.967 63.5179 129.487 67.1445 129.487 71.3579C129.487 75.5445 127.98 79.1979 124.967 82.3179C121.953 85.4112 118.353 86.9579 114.167 86.9579H113.567ZM128.167 71.4379C128.167 67.4912 126.767 64.1179 123.967 61.3179C121.193 58.4912 117.833 57.0779 113.887 57.0779C109.967 57.0779 106.607 58.4912 103.807 61.3179C101.007 64.1179 99.6066 67.4912 99.6066 71.4379C99.6066 75.3579 101.007 78.7312 103.807 81.5579C106.607 84.3845 109.967 85.7979 113.887 85.7979C117.807 85.7979 121.167 84.3845 123.967 81.5579C126.767 78.7312 128.167 75.3579 128.167 71.4379ZM143.812 56.4379V57.5979H136.972V86.4379H135.652V57.5979H128.732V56.4379H143.812ZM158.488 86.9579C154.355 86.9579 150.768 85.3979 147.728 82.2779C144.715 79.1579 143.208 75.5179 143.208 71.3579C143.208 67.1712 144.742 63.5579 147.808 60.5179C150.875 57.4512 154.555 55.9179 158.848 55.9179C163.142 55.9179 166.808 57.4379 169.848 60.4779C172.888 63.5179 174.408 67.1445 174.408 71.3579C174.408 75.5445 172.902 79.1979 169.888 82.3179C166.875 85.4112 163.275 86.9579 159.088 86.9579H158.488ZM173.088 71.4379C173.088 67.4912 171.688 64.1179 168.888 61.3179C166.115 58.4912 162.755 57.0779 158.808 57.0779C154.888 57.0779 151.528 58.4912 148.728 61.3179C145.928 64.1179 144.528 67.4912 144.528 71.4379C144.528 75.3579 145.928 78.7312 148.728 81.5579C151.528 84.3845 154.888 85.7979 158.808 85.7979C162.728 85.7979 166.088 84.3845 168.888 81.5579C171.688 78.7312 173.088 75.3579 173.088 71.4379ZM190.493 74.9979V73.8379H201.733V84.6779C199.386 86.1445 196.746 86.8779 193.813 86.8779H193.373C190.626 86.8779 188.066 86.1579 185.693 84.7179C183.32 83.2779 181.44 81.3712 180.053 78.9979C178.693 76.5979 178.013 74.0512 178.013 71.3579C178.013 67.1179 179.546 63.4779 182.613 60.4379C185.68 57.3712 189.346 55.8379 193.613 55.8379C196.467 55.8379 199.173 56.5845 201.733 58.0779V59.5579C199.226 57.8512 196.52 56.9979 193.613 56.9979C189.693 56.9979 186.333 58.4112 183.533 61.2379C180.733 64.0379 179.333 67.4112 179.333 71.3579C179.333 75.2779 180.733 78.6512 183.533 81.4779C186.333 84.3045 189.693 85.7179 193.613 85.7179C195.8 85.7179 198.066 85.1579 200.413 84.0379V74.9979H190.493ZM206.948 56.4379H208.668C211.254 56.4379 213.521 57.3979 215.468 59.3179C217.441 61.2112 218.428 63.4512 218.428 66.0379C218.428 68.5979 217.428 70.8245 215.428 72.7179C213.428 74.6112 211.281 75.5579 208.988 75.5579H208.708L219.028 86.4379H217.308L208.228 76.9179V86.4379H206.948V56.4379ZM208.228 74.3979H208.948C211.108 74.3979 213.014 73.5712 214.668 71.9179C216.321 70.2645 217.148 68.3045 217.148 66.0379C217.148 63.7712 216.294 61.7979 214.588 60.1179C212.881 58.4379 210.934 57.5979 208.748 57.5979H208.228V74.3979ZM236.397 55.7179L251.397 86.4379H249.997L244.317 74.9979H228.277L222.677 86.4379H221.437L236.397 55.7179ZM236.277 58.4779L228.797 73.8379H243.837L236.277 58.4779ZM255.54 56.4379H256.86C259.634 56.4379 261.994 57.3979 263.94 59.3179C265.887 61.2112 266.86 63.4512 266.86 66.0379C266.86 68.6245 265.847 70.8512 263.82 72.7179C261.82 74.5845 259.607 75.5179 257.18 75.5179H256.86V86.4379H255.54V56.4379ZM256.86 74.3979H257.18C259.42 74.3979 261.367 73.5712 263.02 71.9179C264.7 70.2645 265.54 68.3045 265.54 66.0379C265.54 63.7712 264.687 61.7979 262.98 60.1179C261.3 58.4379 259.367 57.5979 257.18 57.5979H256.86V74.3979ZM293.046 56.4379H294.366V86.4379H293.046V74.9979H272.486V86.4379H271.166V56.4379H272.486V73.8379H293.046V56.4379ZM300.585 56.4379H301.905V86.4379H300.585V56.4379ZM308.119 56.4379H318.879V57.5979H309.439V73.9179H317.319V75.0779H309.439V85.2779H318.879V86.4379H308.119V56.4379Z" fill="white"/>
<path d="M54.6419 56.4379V55.8379H54.0419V56.4379H54.6419ZM63.0419 59.3179L62.6206 59.7451L62.6236 59.748L63.0419 59.3179ZM62.9219 72.7179L62.5154 72.2765L62.5125 72.2792L62.9219 72.7179ZM55.9619 75.5179V74.9179H55.3619V75.5179H55.9619ZM55.9619 86.4379V87.0379H56.5619V86.4379H55.9619ZM54.6419 86.4379H54.0419V87.0379H54.6419V86.4379ZM55.9619 74.3979H55.3619V74.9979H55.9619V74.3979ZM62.1219 71.9179L61.701 71.4902L61.6977 71.4936L62.1219 71.9179ZM62.0819 60.1179L61.6576 60.5421L61.661 60.5455L62.0819 60.1179ZM55.9619 57.5979V56.9979H55.3619V57.5979H55.9619ZM54.6419 57.0379H55.9619V55.8379H54.6419V57.0379ZM55.9619 57.0379C58.5801 57.0379 60.788 57.9375 62.6206 59.745L63.4632 58.8907C61.4025 56.8582 58.8904 55.8379 55.9619 55.8379V57.0379ZM62.6236 59.748C64.4606 61.5346 65.3619 63.622 65.3619 66.0379H66.5619C66.5619 63.2804 65.5166 60.8878 63.4602 58.8877L62.6236 59.748ZM65.3619 66.0379C65.3619 68.4449 64.4278 70.5152 62.5154 72.2765L63.3284 73.1592C65.4694 71.1872 66.5619 68.8041 66.5619 66.0379H65.3619ZM62.5125 72.2792C60.6084 74.0565 58.5369 74.9179 56.2819 74.9179V76.1179C58.8802 76.1179 61.2355 75.1126 63.3313 73.1565L62.5125 72.2792ZM56.2819 74.9179H55.9619V76.1179H56.2819V74.9179ZM55.3619 75.5179V86.4379H56.5619V75.5179H55.3619ZM55.9619 85.8379H54.6419V87.0379H55.9619V85.8379ZM55.2419 86.4379V56.4379H54.0419V86.4379H55.2419ZM55.9619 74.9979H56.2819V73.7979H55.9619V74.9979ZM56.2819 74.9979C58.6887 74.9979 60.7858 74.1025 62.5462 72.3421L61.6977 71.4936C60.1513 73.0399 58.3552 73.7979 56.2819 73.7979V74.9979ZM62.5428 72.3455C64.3323 70.5844 65.2419 68.4724 65.2419 66.0379H64.0419C64.0419 68.1367 63.2716 69.9446 61.7011 71.4902L62.5428 72.3455ZM65.2419 66.0379C65.2419 63.6006 64.3169 61.476 62.5028 59.6903L61.661 60.5455C63.2603 62.1198 64.0419 63.9418 64.0419 66.0379H65.2419ZM62.5062 59.6936C60.7244 57.9118 58.6423 56.9979 56.2819 56.9979V58.1979C58.2949 58.1979 60.0794 58.9639 61.6577 60.5421L62.5062 59.6936ZM56.2819 56.9979H55.9619V58.1979H56.2819V56.9979ZM55.3619 57.5979V74.3979H56.5619V57.5979H55.3619ZM92.1479 56.4379V55.8379H91.5479V56.4379H92.1479ZM93.4679 56.4379H94.0679V55.8379H93.4679V56.4379ZM93.4679 86.4379V87.0379H94.0679V86.4379H93.4679ZM92.1479 86.4379H91.5479V87.0379H92.1479V86.4379ZM92.1479 74.9979H92.7479V74.3979H92.1479V74.9979ZM71.5879 74.9979V74.3979H70.9879V74.9979H71.5879ZM71.5879 86.4379V87.0379H72.1879V86.4379H71.5879ZM70.2679 86.4379H69.6679V87.0379H70.2679V86.4379ZM70.2679 56.4379V55.8379H69.6679V56.4379H70.2679ZM71.5879 56.4379H72.1879V55.8379H71.5879V56.4379ZM71.5879 73.8379H70.9879V74.4379H71.5879V73.8379ZM92.1479 73.8379V74.4379H92.7479V73.8379H92.1479ZM92.1479 57.0379H93.4679V55.8379H92.1479V57.0379ZM92.8679 56.4379V86.4379H94.0679V56.4379H92.8679ZM93.4679 85.8379H92.1479V87.0379H93.4679V85.8379ZM92.7479 86.4379V74.9979H91.5479V86.4379H92.7479ZM92.1479 74.3979H71.5879V75.5979H92.1479V74.3979ZM70.9879 74.9979V86.4379H72.1879V74.9979H70.9879ZM71.5879 85.8379H70.2679V87.0379H71.5879V85.8379ZM70.8679 86.4379V56.4379H69.6679V86.4379H70.8679ZM70.2679 57.0379H71.5879V55.8379H70.2679V57.0379ZM70.9879 56.4379V73.8379H72.1879V56.4379H70.9879ZM71.5879 74.4379H92.1479V73.2379H71.5879V74.4379ZM92.7479 73.8379V56.4379H91.5479V73.8379H92.7479ZM102.807 82.2779L102.375 82.6947L102.377 82.6966L102.807 82.2779ZM102.887 60.5179L103.309 60.944L103.311 60.9421L102.887 60.5179ZM124.927 60.4779L125.351 60.0536L125.351 60.0536L124.927 60.4779ZM124.967 82.3179L125.396 82.7365L125.398 82.7347L124.967 82.3179ZM123.967 61.3179L123.538 61.7381L123.542 61.7421L123.967 61.3179ZM103.807 61.3179L104.231 61.7421L104.233 61.7401L103.807 61.3179ZM103.807 81.5579L104.233 81.1356L104.233 81.1356L103.807 81.5579ZM123.967 81.5579L123.54 81.1356L123.967 81.5579ZM113.567 86.3579C109.605 86.3579 106.17 84.8702 103.236 81.8591L102.377 82.6966C105.523 85.9255 109.262 87.5579 113.567 87.5579V86.3579ZM103.238 81.861C100.328 78.8476 98.8866 75.3551 98.8866 71.3579H97.6866C97.6866 75.6806 99.2588 79.4681 102.375 82.6947L103.238 81.861ZM98.8866 71.3579C98.8866 67.3368 100.352 63.8753 103.309 60.944L102.464 60.0918C99.2879 63.2405 97.6866 67.0056 97.6866 71.3579H98.8866ZM103.311 60.9421C106.266 57.9867 109.794 56.5179 113.927 56.5179V55.3179C109.472 55.3179 105.64 56.9157 102.462 60.0936L103.311 60.9421ZM113.927 56.5179C118.061 56.5179 121.575 57.9745 124.502 60.9021L125.351 60.0536C122.199 56.9013 118.379 55.3179 113.927 55.3179V56.5179ZM124.502 60.9021C127.432 63.8322 128.887 67.3073 128.887 71.3579H130.087C130.087 66.9818 128.501 63.2036 125.351 60.0536L124.502 60.9021ZM128.887 71.3579C128.887 75.3829 127.445 78.8884 124.535 81.901L125.398 82.7347C128.515 79.5073 130.087 75.7062 130.087 71.3579H128.887ZM124.537 81.8992C121.632 84.8807 118.186 86.3579 114.167 86.3579V87.5579C118.521 87.5579 122.274 85.9417 125.396 82.7365L124.537 81.8992ZM114.167 86.3579H113.567V87.5579H114.167V86.3579ZM128.767 71.4379C128.767 67.3315 127.303 63.8057 124.391 60.8936L123.542 61.7421C126.23 64.43 127.567 67.6509 127.567 71.4379H128.767ZM124.395 60.8977C121.509 57.9564 117.995 56.4779 113.887 56.4779V57.6779C117.672 57.6779 120.877 59.026 123.538 61.7381L124.395 60.8977ZM113.887 56.4779C109.804 56.4779 106.291 57.9571 103.38 60.8956L104.233 61.7401C106.922 59.0253 110.129 57.6779 113.887 57.6779V56.4779ZM103.382 60.8936C100.47 63.8057 99.0066 67.3315 99.0066 71.4379H100.207C100.207 67.6509 101.543 64.43 104.231 61.7421L103.382 60.8936ZM99.0066 71.4379C99.0066 75.5186 100.471 79.043 103.38 81.9801L104.233 81.1356C101.542 78.4194 100.207 75.1971 100.207 71.4379H99.0066ZM103.38 81.9801C106.291 84.9186 109.804 86.3979 113.887 86.3979V85.1979C110.129 85.1979 106.922 83.8504 104.233 81.1356L103.38 81.9801ZM113.887 86.3979C117.969 86.3979 121.482 84.9186 124.393 81.9801L123.54 81.1356C120.851 83.8504 117.644 85.1979 113.887 85.1979V86.3979ZM124.393 81.9801C127.302 79.043 128.767 75.5186 128.767 71.4379H127.567C127.567 75.1971 126.231 78.4194 123.54 81.1356L124.393 81.9801ZM143.812 56.4379H144.412V55.8379H143.812V56.4379ZM143.812 57.5979V58.1979H144.412V57.5979H143.812ZM136.972 57.5979V56.9979H136.372V57.5979H136.972ZM136.972 86.4379V87.0379H137.572V86.4379H136.972ZM135.652 86.4379H135.052V87.0379H135.652V86.4379ZM135.652 57.5979H136.252V56.9979H135.652V57.5979ZM128.732 57.5979H128.132V58.1979H128.732V57.5979ZM128.732 56.4379V55.8379H128.132V56.4379H128.732ZM143.212 56.4379V57.5979H144.412V56.4379H143.212ZM143.812 56.9979H136.972V58.1979H143.812V56.9979ZM136.372 57.5979V86.4379H137.572V57.5979H136.372ZM136.972 85.8379H135.652V87.0379H136.972V85.8379ZM136.252 86.4379V57.5979H135.052V86.4379H136.252ZM135.652 56.9979H128.732V58.1979H135.652V56.9979ZM129.332 57.5979V56.4379H128.132V57.5979H129.332ZM128.732 57.0379H143.812V55.8379H128.732V57.0379ZM147.728 82.2779L147.297 82.6947L147.299 82.6966L147.728 82.2779ZM147.808 60.5179L148.231 60.944L148.233 60.9421L147.808 60.5179ZM169.848 60.4779L170.273 60.0536L170.273 60.0536L169.848 60.4779ZM169.888 82.3179L170.318 82.7365L170.32 82.7347L169.888 82.3179ZM168.888 61.3179L168.46 61.7381L168.464 61.7421L168.888 61.3179ZM148.728 61.3179L149.153 61.7421L149.155 61.7401L148.728 61.3179ZM148.728 81.5579L149.155 81.1356L149.155 81.1356L148.728 81.5579ZM168.888 81.5579L168.462 81.1356L168.888 81.5579ZM158.488 86.3579C154.526 86.3579 151.092 84.8702 148.158 81.8591L147.299 82.6966C150.445 85.9255 154.184 87.5579 158.488 87.5579V86.3579ZM148.16 81.861C145.25 78.8476 143.808 75.3551 143.808 71.3579H142.608C142.608 75.6806 144.181 79.4681 147.297 82.6947L148.16 81.861ZM143.808 71.3579C143.808 67.3368 145.274 63.8753 148.231 60.944L147.386 60.0918C144.21 63.2405 142.608 67.0056 142.608 71.3579H143.808ZM148.233 60.9421C151.188 57.9867 154.716 56.5179 158.848 56.5179V55.3179C154.394 55.3179 150.562 56.9157 147.384 60.0936L148.233 60.9421ZM158.848 56.5179C162.982 56.5179 166.497 57.9745 169.424 60.9021L170.273 60.0536C167.12 56.9013 163.301 55.3179 158.848 55.3179V56.5179ZM169.424 60.9021C172.354 63.8322 173.808 67.3073 173.808 71.3579H175.008C175.008 66.9818 173.423 63.2036 170.273 60.0536L169.424 60.9021ZM173.808 71.3579C173.808 75.3829 172.367 78.8884 169.457 81.901L170.32 82.7347C173.437 79.5073 175.008 75.7062 175.008 71.3579H173.808ZM169.459 81.8992C166.554 84.8807 163.108 86.3579 159.088 86.3579V87.5579C163.443 87.5579 167.196 85.9417 170.318 82.7365L169.459 81.8992ZM159.088 86.3579H158.488V87.5579H159.088V86.3579ZM173.688 71.4379C173.688 67.3315 172.225 63.8057 169.313 60.8936L168.464 61.7421C171.152 64.43 172.488 67.6509 172.488 71.4379H173.688ZM169.317 60.8977C166.431 57.9564 162.917 56.4779 158.808 56.4779V57.6779C162.593 57.6779 165.799 59.026 168.46 61.7381L169.317 60.8977ZM158.808 56.4779C154.726 56.4779 151.213 57.9571 148.302 60.8956L149.155 61.7401C151.844 59.0253 155.051 57.6779 158.808 57.6779V56.4779ZM148.304 60.8936C145.392 63.8057 143.928 67.3315 143.928 71.4379H145.128C145.128 67.6509 146.465 64.43 149.153 61.7421L148.304 60.8936ZM143.928 71.4379C143.928 75.5186 145.393 79.043 148.302 81.9801L149.155 81.1356C146.464 78.4194 145.128 75.1971 145.128 71.4379H143.928ZM148.302 81.9801C151.213 84.9186 154.726 86.3979 158.808 86.3979V85.1979C155.051 85.1979 151.844 83.8504 149.155 81.1356L148.302 81.9801ZM158.808 86.3979C162.891 86.3979 166.404 84.9186 169.315 81.9801L168.462 81.1356C165.773 83.8504 162.566 85.1979 158.808 85.1979V86.3979ZM169.315 81.9801C172.224 79.043 173.688 75.5186 173.688 71.4379H172.488C172.488 75.1971 171.153 78.4194 168.462 81.1356L169.315 81.9801ZM190.493 74.9979H189.893V75.5979H190.493V74.9979ZM190.493 73.8379V73.2379H189.893V73.8379H190.493ZM201.733 73.8379H202.333V73.2379H201.733V73.8379ZM201.733 84.6779L202.051 85.1867L202.333 85.0104V84.6779H201.733ZM185.693 84.7179L186.004 84.2049L186.004 84.2049L185.693 84.7179ZM180.053 78.9979L179.531 79.2937L179.535 79.3006L180.053 78.9979ZM182.613 60.4379L183.036 60.864L183.037 60.8621L182.613 60.4379ZM201.733 58.0779H202.333V57.7332L202.035 57.5596L201.733 58.0779ZM201.733 59.5579L201.395 60.0538L202.333 60.6922V59.5579H201.733ZM183.533 61.2379L183.957 61.6621L183.959 61.6601L183.533 61.2379ZM183.533 81.4779L183.959 81.0556L183.959 81.0556L183.533 81.4779ZM200.413 84.0379L200.672 84.5794L201.013 84.4163V84.0379H200.413ZM200.413 74.9979H201.013V74.3979H200.413V74.9979ZM191.093 74.9979V73.8379H189.893V74.9979H191.093ZM190.493 74.4379H201.733V73.2379H190.493V74.4379ZM201.133 73.8379V84.6779H202.333V73.8379H201.133ZM201.415 84.1691C199.17 85.5725 196.641 86.2779 193.813 86.2779V87.4779C196.852 87.4779 199.603 86.7166 202.051 85.1867L201.415 84.1691ZM193.813 86.2779H193.373V87.4779H193.813V86.2779ZM193.373 86.2779C190.737 86.2779 188.285 85.5886 186.004 84.2049L185.382 85.2308C187.848 86.7271 190.516 87.4779 193.373 87.4779V86.2779ZM186.004 84.2049C183.716 82.8162 181.907 80.9814 180.571 78.6952L179.535 79.3006C180.973 81.761 182.924 83.7396 185.382 85.2308L186.004 84.2049ZM180.575 78.7021C179.265 76.39 178.613 73.9449 178.613 71.3579H177.413C177.413 74.1575 178.121 76.8057 179.531 79.2937L180.575 78.7021ZM178.613 71.3579C178.613 67.2812 180.08 63.7936 183.036 60.864L182.191 60.0118C179.013 63.1621 177.413 66.9545 177.413 71.3579H178.613ZM183.037 60.8621C185.994 57.9059 189.509 56.4379 193.613 56.4379V55.2379C189.184 55.2379 185.366 56.8365 182.189 60.0136L183.037 60.8621ZM193.613 56.4379C196.356 56.4379 198.959 57.1542 201.431 58.5961L202.035 57.5596C199.387 56.0149 196.577 55.2379 193.613 55.2379V56.4379ZM201.133 58.0779V59.5579H202.333V58.0779H201.133ZM202.071 59.0619C199.469 57.2906 196.646 56.3979 193.613 56.3979V57.5979C196.394 57.5979 198.984 58.4118 201.395 60.0538L202.071 59.0619ZM193.613 56.3979C189.53 56.3979 186.018 57.8771 183.107 60.8156L183.959 61.6601C186.649 58.9453 189.856 57.5979 193.613 57.5979V56.3979ZM183.109 60.8136C180.197 63.7257 178.733 67.2515 178.733 71.3579H179.933C179.933 67.5709 181.27 64.35 183.957 61.6621L183.109 60.8136ZM178.733 71.3579C178.733 75.4386 180.197 78.963 183.107 81.9001L183.959 81.0556C181.269 78.3394 179.933 75.1171 179.933 71.3579H178.733ZM183.107 81.9001C186.018 84.8386 189.53 86.3179 193.613 86.3179V85.1179C189.856 85.1179 186.649 83.7704 183.959 81.0556L183.107 81.9001ZM193.613 86.3179C195.905 86.3179 198.259 85.7307 200.672 84.5794L200.155 83.4964C197.874 84.5851 195.695 85.1179 193.613 85.1179V86.3179ZM201.013 84.0379V74.9979H199.813V84.0379H201.013ZM200.413 74.3979H190.493V75.5979H200.413V74.3979ZM206.948 56.4379V55.8379H206.348V56.4379H206.948ZM215.468 59.3179L215.046 59.7451L215.052 59.7508L215.468 59.3179ZM215.428 72.7179L215.015 72.2821L215.015 72.2821L215.428 72.7179ZM208.708 75.5579V74.9579H207.311L208.272 75.9708L208.708 75.5579ZM219.028 86.4379V87.0379H220.424L219.463 86.025L219.028 86.4379ZM217.308 86.4379L216.873 86.852L217.051 87.0379H217.308V86.4379ZM208.228 76.9179L208.662 76.5038L207.628 75.4195V76.9179H208.228ZM208.228 86.4379V87.0379H208.828V86.4379H208.228ZM206.948 86.4379H206.348V87.0379H206.948V86.4379ZM208.228 74.3979H207.628V74.9979H208.228V74.3979ZM214.668 71.9179L215.092 72.3421L215.092 72.3421L214.668 71.9179ZM214.588 60.1179L215.008 59.6903L215.008 59.6903L214.588 60.1179ZM208.228 57.5979V56.9979H207.628V57.5979H208.228ZM206.948 57.0379H208.668V55.8379H206.948V57.0379ZM208.668 57.0379C211.087 57.0379 213.205 57.9288 215.046 59.745L215.889 58.8907C213.837 56.8669 211.422 55.8379 208.668 55.8379V57.0379ZM215.052 59.7508C216.915 61.5382 217.828 63.6248 217.828 66.0379H219.028C219.028 63.2776 217.967 60.8842 215.883 58.8849L215.052 59.7508ZM217.828 66.0379C217.828 68.4196 216.905 70.4925 215.015 72.2821L215.84 73.1536C217.95 71.1565 219.028 68.7761 219.028 66.0379H217.828ZM215.015 72.2821C213.103 74.0925 211.098 74.9579 208.988 74.9579V76.1579C211.464 76.1579 213.752 75.1299 215.84 73.1536L215.015 72.2821ZM208.988 74.9579H208.708V76.1579H208.988V74.9579ZM208.272 75.9708L218.592 86.8508L219.463 86.025L209.143 75.145L208.272 75.9708ZM219.028 85.8379H217.308V87.0379H219.028V85.8379ZM217.742 86.0238L208.662 76.5038L207.793 77.332L216.873 86.852L217.742 86.0238ZM207.628 76.9179V86.4379H208.828V76.9179H207.628ZM208.228 85.8379H206.948V87.0379H208.228V85.8379ZM207.548 86.4379V56.4379H206.348V86.4379H207.548ZM208.228 74.9979H208.948V73.7979H208.228V74.9979ZM208.948 74.9979C211.281 74.9979 213.336 74.0977 215.092 72.3421L214.243 71.4936C212.692 73.0447 210.934 73.7979 208.948 73.7979V74.9979ZM215.092 72.3421C216.854 70.5802 217.748 68.4692 217.748 66.0379H216.548C216.548 68.1399 215.788 69.9488 214.243 71.4936L215.092 72.3421ZM217.748 66.0379C217.748 63.6006 216.822 61.476 215.008 59.6903L214.167 60.5455C215.766 62.1198 216.548 63.9418 216.548 66.0379H217.748ZM215.008 59.6903C213.201 57.9113 211.107 56.9979 208.748 56.9979V58.1979C210.761 58.1979 212.56 58.9644 214.167 60.5455L215.008 59.6903ZM208.748 56.9979H208.228V58.1979H208.748V56.9979ZM207.628 57.5979V74.3979H208.828V57.5979H207.628ZM236.397 55.7179L236.936 55.4546L236.396 54.3489L235.857 55.4552L236.397 55.7179ZM251.397 86.4379V87.0379H252.357L251.936 86.1746L251.397 86.4379ZM249.997 86.4379L249.459 86.7047L249.625 87.0379H249.997V86.4379ZM244.317 74.9979L244.854 74.731L244.689 74.3979H244.317V74.9979ZM228.277 74.9979V74.3979H227.902L227.738 74.7341L228.277 74.9979ZM222.677 86.4379V87.0379H223.051L223.216 86.7017L222.677 86.4379ZM221.437 86.4379L220.897 86.1752L220.477 87.0379H221.437V86.4379ZM236.277 58.4779L236.815 58.2129L236.274 57.1133L235.737 58.2152L236.277 58.4779ZM228.797 73.8379L228.257 73.5752L227.837 74.4379H228.797V73.8379ZM243.837 73.8379V74.4379H244.801L244.375 73.5729L243.837 73.8379ZM235.857 55.9811L250.857 86.7011L251.936 86.1746L236.936 55.4546L235.857 55.9811ZM251.397 85.8379H249.997V87.0379H251.397V85.8379ZM250.534 86.171L244.854 74.731L243.779 75.2647L249.459 86.7047L250.534 86.171ZM244.317 74.3979H228.277V75.5979H244.317V74.3979ZM227.738 74.7341L222.138 86.1741L223.216 86.7017L228.816 75.2617L227.738 74.7341ZM222.677 85.8379H221.437V87.0379H222.677V85.8379ZM221.976 86.7006L236.936 55.9806L235.857 55.4552L220.897 86.1752L221.976 86.7006ZM235.737 58.2152L228.257 73.5752L229.336 74.1006L236.816 58.7406L235.737 58.2152ZM228.797 74.4379H243.837V73.2379H228.797V74.4379ZM244.375 73.5729L236.815 58.2129L235.738 58.7428L243.298 74.1028L244.375 73.5729ZM255.54 56.4379V55.8379H254.94V56.4379H255.54ZM263.94 59.3179L263.519 59.7451L263.522 59.748L263.94 59.3179ZM263.82 72.7179L263.414 72.2765L263.411 72.2792L263.82 72.7179ZM256.86 75.5179V74.9179H256.26V75.5179H256.86ZM256.86 86.4379V87.0379H257.46V86.4379H256.86ZM255.54 86.4379H254.94V87.0379H255.54V86.4379ZM256.86 74.3979H256.26V74.9979H256.86V74.3979ZM263.02 71.9179L262.599 71.4902L262.596 71.4936L263.02 71.9179ZM262.98 60.1179L262.556 60.5421L262.559 60.5455L262.98 60.1179ZM256.86 57.5979V56.9979H256.26V57.5979H256.86ZM255.54 57.0379H256.86V55.8379H255.54V57.0379ZM256.86 57.0379C259.479 57.0379 261.686 57.9375 263.519 59.745L264.362 58.8907C262.301 56.8582 259.789 55.8379 256.86 55.8379V57.0379ZM263.522 59.748C265.359 61.5346 266.26 63.622 266.26 66.0379H267.46C267.46 63.2804 266.415 60.8878 264.359 58.8877L263.522 59.748ZM266.26 66.0379C266.26 68.4449 265.326 70.5152 263.414 72.2765L264.227 73.1592C266.368 71.1872 267.46 68.8041 267.46 66.0379H266.26ZM263.411 72.2792C261.507 74.0565 259.435 74.9179 257.18 74.9179V76.1179C259.779 76.1179 262.134 75.1126 264.23 73.1565L263.411 72.2792ZM257.18 74.9179H256.86V76.1179H257.18V74.9179ZM256.26 75.5179V86.4379H257.46V75.5179H256.26ZM256.86 85.8379H255.54V87.0379H256.86V85.8379ZM256.14 86.4379V56.4379H254.94V86.4379H256.14ZM256.86 74.9979H257.18V73.7979H256.86V74.9979ZM257.18 74.9979C259.587 74.9979 261.684 74.1025 263.445 72.3421L262.596 71.4936C261.05 73.0399 259.254 73.7979 257.18 73.7979V74.9979ZM263.441 72.3455C265.231 70.5844 266.14 68.4724 266.14 66.0379H264.94C264.94 68.1367 264.17 69.9446 262.599 71.4902L263.441 72.3455ZM266.14 66.0379C266.14 63.6006 265.215 61.476 263.401 59.6903L262.559 60.5455C264.159 62.1198 264.94 63.9418 264.94 66.0379H266.14ZM263.405 59.6936C261.623 57.9118 259.541 56.9979 257.18 56.9979V58.1979C259.193 58.1979 260.978 58.9639 262.556 60.5421L263.405 59.6936ZM257.18 56.9979H256.86V58.1979H257.18V56.9979ZM256.26 57.5979V74.3979H257.46V57.5979H256.26ZM293.046 56.4379V55.8379H292.446V56.4379H293.046ZM294.366 56.4379H294.966V55.8379H294.366V56.4379ZM294.366 86.4379V87.0379H294.966V86.4379H294.366ZM293.046 86.4379H292.446V87.0379H293.046V86.4379ZM293.046 74.9979H293.646V74.3979H293.046V74.9979ZM272.486 74.9979V74.3979H271.886V74.9979H272.486ZM272.486 86.4379V87.0379H273.086V86.4379H272.486ZM271.166 86.4379H270.566V87.0379H271.166V86.4379ZM271.166 56.4379V55.8379H270.566V56.4379H271.166ZM272.486 56.4379H273.086V55.8379H272.486V56.4379ZM272.486 73.8379H271.886V74.4379H272.486V73.8379ZM293.046 73.8379V74.4379H293.646V73.8379H293.046ZM293.046 57.0379H294.366V55.8379H293.046V57.0379ZM293.766 56.4379V86.4379H294.966V56.4379H293.766ZM294.366 85.8379H293.046V87.0379H294.366V85.8379ZM293.646 86.4379V74.9979H292.446V86.4379H293.646ZM293.046 74.3979H272.486V75.5979H293.046V74.3979ZM271.886 74.9979V86.4379H273.086V74.9979H271.886ZM272.486 85.8379H271.166V87.0379H272.486V85.8379ZM271.766 86.4379V56.4379H270.566V86.4379H271.766ZM271.166 57.0379H272.486V55.8379H271.166V57.0379ZM271.886 56.4379V73.8379H273.086V56.4379H271.886ZM272.486 74.4379H293.046V73.2379H272.486V74.4379ZM293.646 73.8379V56.4379H292.446V73.8379H293.646ZM300.585 56.4379V55.8379H299.985V56.4379H300.585ZM301.905 56.4379H302.505V55.8379H301.905V56.4379ZM301.905 86.4379V87.0379H302.505V86.4379H301.905ZM300.585 86.4379H299.985V87.0379H300.585V86.4379ZM300.585 57.0379H301.905V55.8379H300.585V57.0379ZM301.305 56.4379V86.4379H302.505V56.4379H301.305ZM301.905 85.8379H300.585V87.0379H301.905V85.8379ZM301.185 86.4379V56.4379H299.985V86.4379H301.185ZM308.119 56.4379V55.8379H307.519V56.4379H308.119ZM318.879 56.4379H319.479V55.8379H318.879V56.4379ZM318.879 57.5979V58.1979H319.479V57.5979H318.879ZM309.439 57.5979V56.9979H308.839V57.5979H309.439ZM309.439 73.9179H308.839V74.5179H309.439V73.9179ZM317.319 73.9179H317.919V73.3179H317.319V73.9179ZM317.319 75.0779V75.6779H317.919V75.0779H317.319ZM309.439 75.0779V74.4779H308.839V75.0779H309.439ZM309.439 85.2779H308.839V85.8779H309.439V85.2779ZM318.879 85.2779H319.479V84.6779H318.879V85.2779ZM318.879 86.4379V87.0379H319.479V86.4379H318.879ZM308.119 86.4379H307.519V87.0379H308.119V86.4379ZM308.119 57.0379H318.879V55.8379H308.119V57.0379ZM318.279 56.4379V57.5979H319.479V56.4379H318.279ZM318.879 56.9979H309.439V58.1979H318.879V56.9979ZM308.839 57.5979V73.9179H310.039V57.5979H308.839ZM309.439 74.5179H317.319V73.3179H309.439V74.5179ZM316.719 73.9179V75.0779H317.919V73.9179H316.719ZM317.319 74.4779H309.439V75.6779H317.319V74.4779ZM308.839 75.0779V85.2779H310.039V75.0779H308.839ZM309.439 85.8779H318.879V84.6779H309.439V85.8779ZM318.279 85.2779V86.4379H319.479V85.2779H318.279ZM318.879 85.8379H308.119V87.0379H318.879V85.8379ZM308.719 86.4379V56.4379H307.519V86.4379H308.719Z" fill="white"/>
<path d="M26.01 9.43786H27.17V39.8779L5.08998 12.7179V39.4379H3.92998V8.99786L26.01 36.1179V9.43786ZM33.3878 9.43786H34.7078V39.4379H33.3878V9.43786ZM55.5222 39.8779H55.0822C52.3355 39.8779 49.7755 39.1579 47.4022 37.7179C45.0288 36.2779 43.1488 34.3712 41.7622 31.9979C40.4022 29.5979 39.7222 27.0512 39.7222 24.3579C39.7222 20.1179 41.2555 16.4779 44.3222 13.4379C47.3888 10.3712 51.0555 8.83786 55.3222 8.83786C58.1755 8.83786 60.8822 9.58453 63.4422 11.0779V12.5579C60.9355 10.8512 58.2288 9.99786 55.3222 9.99786C51.4022 9.99786 48.0422 11.4112 45.2422 14.2379C42.4422 17.0379 41.0422 20.4112 41.0422 24.3579C41.0422 28.2779 42.4422 31.6512 45.2422 34.4779C48.0422 37.3045 51.4022 38.7179 55.3222 38.7179C58.2288 38.7179 60.9355 37.8645 63.4422 36.1579V37.6379C61.0155 39.1312 58.3755 39.8779 55.5222 39.8779ZM82.9319 39.9579C78.7985 39.9579 75.2119 38.3979 72.1719 35.2779C69.1585 32.1579 67.6519 28.5179 67.6519 24.3579C67.6519 20.1712 69.1852 16.5579 72.2519 13.5179C75.3185 10.4512 78.9985 8.91787 83.2919 8.91787C87.5852 8.91787 91.2519 10.4379 94.2919 13.4779C97.3319 16.5179 98.8519 20.1445 98.8519 24.3579C98.8519 28.5445 97.3452 32.1979 94.3319 35.3179C91.3185 38.4112 87.7185 39.9579 83.5319 39.9579H82.9319ZM97.5319 24.4379C97.5319 20.4912 96.1319 17.1179 93.3319 14.3179C90.5585 11.4912 87.1985 10.0779 83.2519 10.0779C79.3319 10.0779 75.9719 11.4912 73.1719 14.3179C70.3719 17.1179 68.9719 20.4912 68.9719 24.4379C68.9719 28.3579 70.3719 31.7312 73.1719 34.5579C75.9719 37.3845 79.3319 38.7979 83.2519 38.7979C87.1719 38.7979 90.5319 37.3845 93.3319 34.5579C96.1319 31.7312 97.5319 28.3579 97.5319 24.4379ZM104.977 9.43786V38.2779H114.257V39.4379H103.657V9.43786H104.977ZM131.231 8.71787L146.231 39.4379H144.831L139.151 27.9979H123.111L117.511 39.4379H116.271L131.231 8.71787ZM131.111 11.4779L123.631 26.8379H138.671L131.111 11.4779ZM162.494 13.6779C161.881 12.5579 161.041 11.6779 159.974 11.0379C158.934 10.3979 157.761 10.0779 156.454 10.0779C155.148 10.0779 154.028 10.4912 153.094 11.3179C152.188 12.1179 151.734 13.2245 151.734 14.6379V14.8379C151.734 16.5179 152.668 18.0512 154.534 19.4379C155.334 20.0245 156.228 20.6112 157.214 21.1979C158.228 21.7579 159.228 22.3712 160.214 23.0379C161.228 23.6779 162.134 24.3712 162.934 25.1179C163.761 25.8379 164.428 26.7312 164.934 27.7979C165.468 28.8645 165.734 30.0379 165.734 31.3179V31.7179C165.734 34.2512 164.868 36.2645 163.134 37.7579C161.428 39.2512 159.308 39.9979 156.774 39.9979C153.441 39.9979 150.854 38.6245 149.014 35.8779V33.7179C149.708 35.2379 150.721 36.4779 152.054 37.4379C153.414 38.3712 155.094 38.8379 157.094 38.8379C159.094 38.8379 160.828 38.1979 162.294 36.9179C163.761 35.6379 164.494 33.9312 164.494 31.7979V31.5579C164.494 30.2245 164.148 29.0112 163.454 27.9179C162.761 26.7979 161.894 25.8912 160.854 25.1979C159.814 24.4779 158.681 23.7312 157.454 22.9579C156.228 22.1845 155.094 21.4645 154.054 20.7979C153.014 20.1312 152.148 19.2912 151.454 18.2779C150.761 17.2645 150.414 16.1579 150.414 14.9579V14.6779C150.414 12.8112 151.014 11.3845 152.214 10.3979C153.414 9.4112 154.894 8.91787 156.654 8.91787C159.108 8.91787 161.054 9.82453 162.494 11.6379V13.6779ZM195.601 27.9979V26.8379H206.841V37.6779C204.494 39.1445 201.854 39.8779 198.921 39.8779H198.481C195.734 39.8779 193.174 39.1579 190.801 37.7179C188.427 36.2779 186.547 34.3712 185.161 31.9979C183.801 29.5979 183.121 27.0512 183.121 24.3579C183.121 20.1179 184.654 16.4779 187.721 13.4379C190.787 10.3712 194.454 8.83786 198.721 8.83786C201.574 8.83786 204.281 9.58453 206.841 11.0779V12.5579C204.334 10.8512 201.627 9.99786 198.721 9.99786C194.801 9.99786 191.441 11.4112 188.641 14.2379C185.841 17.0379 184.441 20.4112 184.441 24.3579C184.441 28.2779 185.841 31.6512 188.641 34.4779C191.441 37.3045 194.801 38.7179 198.721 38.7179C200.907 38.7179 203.174 38.1579 205.521 37.0379V27.9979H195.601ZM226.135 39.9579C222.002 39.9579 218.415 38.3979 215.375 35.2779C212.362 32.1579 210.855 28.5179 210.855 24.3579C210.855 20.1712 212.388 16.5579 215.455 13.5179C218.522 10.4512 222.202 8.91787 226.495 8.91787C230.788 8.91787 234.455 10.4379 237.495 13.4779C240.535 16.5179 242.055 20.1445 242.055 24.3579C242.055 28.5445 240.548 32.1979 237.535 35.3179C234.522 38.4112 230.922 39.9579 226.735 39.9579H226.135ZM240.735 24.4379C240.735 20.4912 239.335 17.1179 236.535 14.3179C233.762 11.4912 230.402 10.0779 226.455 10.0779C222.535 10.0779 219.175 11.4912 216.375 14.3179C213.575 17.1179 212.175 20.4912 212.175 24.4379C212.175 28.3579 213.575 31.7312 216.375 34.5579C219.175 37.3845 222.535 38.7979 226.455 38.7979C230.375 38.7979 233.735 37.3845 236.535 34.5579C239.335 31.7312 240.735 28.3579 240.735 24.4379ZM246.86 9.43786H248.14C252.62 9.43786 256.233 10.9179 258.98 13.8779C261.726 16.8112 263.1 20.3445 263.1 24.4779C263.1 28.5845 261.726 32.1045 258.98 35.0379C256.26 37.9712 252.646 39.4379 248.14 39.4379H246.86V9.43786ZM248.46 10.6379H248.14V38.1979H248.46C252.353 38.1979 255.54 36.8512 258.02 34.1579C260.526 31.4645 261.78 28.2379 261.78 24.4779C261.78 20.6912 260.526 17.4379 258.02 14.7179C255.54 11.9979 252.353 10.6379 248.46 10.6379ZM268.114 9.43786H269.434V39.4379H268.114V9.43786ZM297.729 9.43786H298.889V39.8779L276.809 12.7179V39.4379H275.649V8.99786L297.729 36.1179V9.43786ZM304.907 9.43786H315.667V10.5979H306.227V26.9179H314.107V28.0779H306.227V38.2779H315.667V39.4379H304.907V9.43786ZM332.832 8.71787L347.832 39.4379H346.432L340.752 27.9979H324.712L319.112 39.4379H317.872L332.832 8.71787ZM332.712 11.4779L325.232 26.8379H340.272L332.712 11.4779ZM359.027 39.9979H358.627C356.174 39.9979 354.094 39.1445 352.387 37.4379C350.707 35.7312 349.867 33.5845 349.867 30.9979V9.43786H351.187V30.9579C351.187 33.2245 351.921 35.1045 353.387 36.5979C354.854 38.0912 356.667 38.8379 358.827 38.8379C360.987 38.8379 362.787 38.1045 364.227 36.6379C365.694 35.1445 366.427 33.2512 366.427 30.9579V9.43786H367.747V30.9179C367.747 33.5312 366.894 35.7045 365.187 37.4379C363.507 39.1445 361.454 39.9979 359.027 39.9979Z" fill="black"/>
<path d="M26.01 9.43786V8.83786H25.41V9.43786H26.01ZM27.17 9.43786H27.77V8.83786H27.17V9.43786ZM27.17 39.8779L26.7044 40.2564L27.77 41.5671V39.8779H27.17ZM5.08998 12.7179L5.55554 12.3394L4.48998 11.0287V12.7179H5.08998ZM5.08998 39.4379V40.0379H5.68998V39.4379H5.08998ZM3.92998 39.4379H3.32998V40.0379H3.92998V39.4379ZM3.92998 8.99786L4.39527 8.61904L3.32998 7.31059V8.99786H3.92998ZM26.01 36.1179L25.5447 36.4967L26.61 37.8051V36.1179H26.01ZM26.01 10.0379H27.17V8.83786H26.01V10.0379ZM26.57 9.43786V39.8779H27.77V9.43786H26.57ZM27.6355 39.4994L5.55554 12.3394L4.62441 13.0963L26.7044 40.2564L27.6355 39.4994ZM4.48998 12.7179V39.4379H5.68998V12.7179H4.48998ZM5.08998 38.8379H3.92998V40.0379H5.08998V38.8379ZM4.52998 39.4379V8.99786H3.32998V39.4379H4.52998ZM3.46469 9.37669L25.5447 36.4967L26.4753 35.739L4.39527 8.61904L3.46469 9.37669ZM26.61 36.1179V9.43786H25.41V36.1179H26.61ZM33.3878 9.43786V8.83786H32.7878V9.43786H33.3878ZM34.7078 9.43786H35.3078V8.83786H34.7078V9.43786ZM34.7078 39.4379V40.0379H35.3078V39.4379H34.7078ZM33.3878 39.4379H32.7878V40.0379H33.3878V39.4379ZM33.3878 10.0379H34.7078V8.83786H33.3878V10.0379ZM34.1078 9.43786V39.4379H35.3078V9.43786H34.1078ZM34.7078 38.8379H33.3878V40.0379H34.7078V38.8379ZM33.9878 39.4379V9.43786H32.7878V39.4379H33.9878ZM47.4022 37.7179L47.7134 37.2049L47.7134 37.2049L47.4022 37.7179ZM41.7622 31.9979L41.2401 32.2937L41.2441 32.3006L41.7622 31.9979ZM44.3222 13.4379L44.7446 13.864L44.7464 13.8621L44.3222 13.4379ZM63.4422 11.0779H64.0422V10.7332L63.7445 10.5596L63.4422 11.0779ZM63.4422 12.5579L63.1045 13.0538L64.0422 13.6922V12.5579H63.4422ZM45.2422 14.2379L45.6664 14.6621L45.6684 14.6601L45.2422 14.2379ZM45.2422 34.4779L45.6684 34.0556L45.6684 34.0556L45.2422 34.4779ZM63.4422 36.1579H64.0422V35.0235L63.1045 35.6619L63.4422 36.1579ZM63.4422 37.6379L63.7566 38.1489L64.0422 37.9731V37.6379H63.4422ZM55.5222 39.2779H55.0822V40.4779H55.5222V39.2779ZM55.0822 39.2779C52.4465 39.2779 49.994 38.5886 47.7134 37.2049L47.0909 38.2308C49.557 39.7271 52.2245 40.4779 55.0822 40.4779V39.2779ZM47.7134 37.2049C45.4245 35.8162 43.616 33.9814 42.2802 31.6952L41.2441 32.3006C42.6817 34.761 44.6331 36.7396 47.0909 38.2308L47.7134 37.2049ZM42.2842 31.7021C40.974 29.39 40.3222 26.9449 40.3222 24.3579H39.1222C39.1222 27.1575 39.8303 29.8057 41.2402 32.2937L42.2842 31.7021ZM40.3222 24.3579C40.3222 20.2812 41.7892 16.7936 44.7446 13.864L43.8998 13.0118C40.7218 16.1621 39.1222 19.9545 39.1222 24.3579H40.3222ZM44.7464 13.8621C47.7027 10.9059 51.2175 9.43786 55.3222 9.43786V8.23786C50.8935 8.23786 47.075 9.83649 43.8979 13.0136L44.7464 13.8621ZM55.3222 9.43786C58.0651 9.43786 60.6679 10.1542 63.1398 11.5961L63.7445 10.5596C61.0964 9.0149 58.2859 8.23786 55.3222 8.23786V9.43786ZM62.8422 11.0779V12.5579H64.0422V11.0779H62.8422ZM63.7798 12.0619C61.1782 10.2906 58.3547 9.39786 55.3222 9.39786V10.5979C58.103 10.5979 60.6928 11.4118 63.1045 13.0538L63.7798 12.0619ZM55.3222 9.39786C51.2394 9.39786 47.7267 10.8771 44.8159 13.8156L45.6684 14.6601C48.3577 11.9453 51.565 10.5979 55.3222 10.5979V9.39786ZM44.8179 13.8136C41.9058 16.7257 40.4422 20.2515 40.4422 24.3579H41.6422C41.6422 20.5709 42.9785 17.35 45.6664 14.6621L44.8179 13.8136ZM40.4422 24.3579C40.4422 28.4386 41.9065 31.963 44.8159 34.9001L45.6684 34.0556C42.9779 31.3394 41.6422 28.1171 41.6422 24.3579H40.4422ZM44.8159 34.9001C47.7267 37.8386 51.2394 39.3179 55.3222 39.3179V38.1179C51.565 38.1179 48.3577 36.7704 45.6684 34.0556L44.8159 34.9001ZM55.3222 39.3179C58.3547 39.3179 61.1782 38.4252 63.7798 36.6538L63.1045 35.6619C60.6928 37.3039 58.103 38.1179 55.3222 38.1179V39.3179ZM62.8422 36.1579V37.6379H64.0422V36.1579H62.8422ZM63.1277 37.1269C60.7957 38.5619 58.2646 39.2779 55.5222 39.2779V40.4779C58.4864 40.4779 61.2353 39.7005 63.7566 38.1489L63.1277 37.1269ZM72.1719 35.2779L71.7403 35.6947L71.7421 35.6966L72.1719 35.2779ZM72.2519 13.5179L72.6743 13.944L72.6761 13.9421L72.2519 13.5179ZM94.2919 13.4779L94.7161 13.0536L94.7161 13.0536L94.2919 13.4779ZM94.3319 35.3179L94.7616 35.7365L94.7634 35.7347L94.3319 35.3179ZM93.3319 14.3179L92.9035 14.7381L92.9076 14.7421L93.3319 14.3179ZM73.1719 14.3179L73.5961 14.7421L73.5981 14.7401L73.1719 14.3179ZM73.1719 34.5579L73.5981 34.1356L73.5981 34.1356L73.1719 34.5579ZM93.3319 34.5579L92.9056 34.1356L93.3319 34.5579ZM82.9319 39.3579C78.9698 39.3579 75.5355 37.8702 72.6016 34.8591L71.7421 35.6966C74.8883 38.9255 78.6272 40.5579 82.9319 40.5579V39.3579ZM72.6034 34.861C69.693 31.8476 68.2519 28.3551 68.2519 24.3579H67.0519C67.0519 28.6806 68.624 32.4681 71.7403 35.6947L72.6034 34.861ZM68.2519 24.3579C68.2519 20.3368 69.7173 16.8753 72.6743 13.944L71.8294 13.0918C68.6531 16.2405 67.0519 20.0056 67.0519 24.3579H68.2519ZM72.6761 13.9421C75.6315 10.9867 79.1595 9.51787 83.2919 9.51787V8.31787C78.8376 8.31787 75.0055 9.9157 71.8276 13.0936L72.6761 13.9421ZM83.2919 9.51787C87.4258 9.51787 90.9399 10.9745 93.8676 13.9021L94.7161 13.0536C91.5638 9.90125 87.7446 8.31787 83.2919 8.31787V9.51787ZM93.8676 13.9021C96.7976 16.8322 98.2519 20.3073 98.2519 24.3579H99.4519C99.4519 19.9818 97.8661 16.2036 94.7161 13.0536L93.8676 13.9021ZM98.2519 24.3579C98.2519 28.3829 96.8099 31.8884 93.9003 34.901L94.7634 35.7347C97.8805 32.5073 99.4519 28.7062 99.4519 24.3579H98.2519ZM93.9021 34.8992C90.9977 37.8807 87.551 39.3579 83.5319 39.3579V40.5579C87.886 40.5579 91.6394 38.9417 94.7616 35.7365L93.9021 34.8992ZM83.5319 39.3579H82.9319V40.5579H83.5319V39.3579ZM98.1319 24.4379C98.1319 20.3315 96.6682 16.8057 93.7561 13.8936L92.9076 14.7421C95.5955 17.43 96.9319 20.6509 96.9319 24.4379H98.1319ZM93.7601 13.8977C90.8744 10.9564 87.3602 9.47787 83.2519 9.47787V10.6779C87.0368 10.6779 90.2426 12.026 92.9036 14.7381L93.7601 13.8977ZM83.2519 9.47787C79.1691 9.47787 75.6564 10.9571 72.7456 13.8956L73.5981 14.7401C76.2873 12.0253 79.4946 10.6779 83.2519 10.6779V9.47787ZM72.7476 13.8936C69.8355 16.8057 68.3719 20.3315 68.3719 24.4379H69.5719C69.5719 20.6509 70.9082 17.43 73.5961 14.7421L72.7476 13.8936ZM68.3719 24.4379C68.3719 28.5186 69.8362 32.043 72.7456 34.9801L73.5981 34.1356C70.9075 31.4194 69.5719 28.1971 69.5719 24.4379H68.3719ZM72.7456 34.9801C75.6564 37.9186 79.1691 39.3979 83.2519 39.3979V38.1979C79.4946 38.1979 76.2873 36.8504 73.5981 34.1356L72.7456 34.9801ZM83.2519 39.3979C87.3346 39.3979 90.8473 37.9186 93.7581 34.9801L92.9056 34.1356C90.2164 36.8504 87.0091 38.1979 83.2519 38.1979V39.3979ZM93.7581 34.9801C96.6676 32.043 98.1319 28.5186 98.1319 24.4379H96.9319C96.9319 28.1971 95.5962 31.4194 92.9056 34.1356L93.7581 34.9801ZM104.977 9.43786H105.577V8.83786H104.977V9.43786ZM104.977 38.2779H104.377V38.8779H104.977V38.2779ZM114.257 38.2779H114.857V37.6779H114.257V38.2779ZM114.257 39.4379V40.0379H114.857V39.4379H114.257ZM103.657 39.4379H103.057V40.0379H103.657V39.4379ZM103.657 9.43786V8.83786H103.057V9.43786H103.657ZM104.377 9.43786V38.2779H105.577V9.43786H104.377ZM104.977 38.8779H114.257V37.6779H104.977V38.8779ZM113.657 38.2779V39.4379H114.857V38.2779H113.657ZM114.257 38.8379H103.657V40.0379H114.257V38.8379ZM104.257 39.4379V9.43786H103.057V39.4379H104.257ZM103.657 10.0379H104.977V8.83786H103.657V10.0379ZM131.231 8.71787L131.77 8.4546L131.23 7.34893L130.691 8.45517L131.231 8.71787ZM146.231 39.4379V40.0379H147.191L146.77 39.1746L146.231 39.4379ZM144.831 39.4379L144.293 39.7047L144.459 40.0379H144.831V39.4379ZM139.151 27.9979L139.688 27.731L139.523 27.3979H139.151V27.9979ZM123.111 27.9979V27.3979H122.736L122.572 27.7341L123.111 27.9979ZM117.511 39.4379V40.0379H117.885L118.05 39.7017L117.511 39.4379ZM116.271 39.4379L115.731 39.1752L115.311 40.0379H116.271V39.4379ZM131.111 11.4779L131.649 11.2129L131.108 10.1133L130.571 11.2152L131.111 11.4779ZM123.631 26.8379L123.091 26.5752L122.671 27.4379H123.631V26.8379ZM138.671 26.8379V27.4379H139.635L139.209 26.5729L138.671 26.8379ZM130.691 8.98113L145.691 39.7011L146.77 39.1746L131.77 8.4546L130.691 8.98113ZM146.231 38.8379H144.831V40.0379H146.231V38.8379ZM145.368 39.171L139.688 27.731L138.613 28.2647L144.293 39.7047L145.368 39.171ZM139.151 27.3979H123.111V28.5979H139.151V27.3979ZM122.572 27.7341L116.972 39.1741L118.05 39.7017L123.65 28.2617L122.572 27.7341ZM117.511 38.8379H116.271V40.0379H117.511V38.8379ZM116.81 39.7006L131.77 8.98056L130.691 8.45517L115.731 39.1752L116.81 39.7006ZM130.571 11.2152L123.091 26.5752L124.17 27.1006L131.65 11.7406L130.571 11.2152ZM123.631 27.4379H138.671V26.2379H123.631V27.4379ZM139.209 26.5729L131.649 11.2129L130.572 11.7428L138.132 27.1028L139.209 26.5729ZM162.494 13.6779L161.968 13.9661L163.094 13.6779H162.494ZM159.974 11.0379L159.66 11.5489L159.666 11.5524L159.974 11.0379ZM153.094 11.3179L153.491 11.7678L153.492 11.767L153.094 11.3179ZM154.534 19.4379L154.177 19.9195L154.18 19.9217L154.534 19.4379ZM157.214 21.1979L156.908 21.7136L156.916 21.7184L156.924 21.723L157.214 21.1979ZM160.214 23.0379L159.878 23.535L159.886 23.5402L159.894 23.5452L160.214 23.0379ZM162.934 25.1179L162.525 25.5565L162.533 25.5635L162.54 25.5703L162.934 25.1179ZM164.934 27.7979L164.392 28.0554L164.398 28.0662L164.934 27.7979ZM163.134 37.7579L162.743 37.3033L162.739 37.3063L163.134 37.7579ZM149.014 35.8779H148.414V36.0603L148.516 36.2118L149.014 35.8779ZM149.014 33.7179L149.56 33.4689L148.414 33.7179H149.014ZM152.054 37.4379L151.704 37.9249L151.715 37.9326L152.054 37.4379ZM162.294 36.9179L162.689 37.3699L162.689 37.3699L162.294 36.9179ZM163.454 27.9179L162.944 28.2337L162.948 28.2392L163.454 27.9179ZM160.854 25.1979L160.513 25.6913L160.522 25.6971L160.854 25.1979ZM157.454 22.9579L157.774 22.4503L157.774 22.4503L157.454 22.9579ZM151.454 18.2779L151.95 17.9391L151.95 17.9391L151.454 18.2779ZM162.494 11.6379H163.094V11.4286L162.964 11.2647L162.494 11.6379ZM163.021 13.3897C162.358 12.1789 161.444 11.2197 160.283 10.5234L159.666 11.5524C160.638 12.1361 161.404 12.9369 161.968 13.9661L163.021 13.3897ZM160.289 10.5269C159.148 9.82457 157.864 9.47787 156.454 9.47787V10.6779C157.658 10.6779 158.721 10.9712 159.66 11.5489L160.289 10.5269ZM156.454 9.47787C155.009 9.47787 153.745 9.93987 152.697 10.8687L153.492 11.767C154.31 11.0425 155.287 10.6779 156.454 10.6779V9.47787ZM152.697 10.868C151.639 11.8015 151.134 13.0844 151.134 14.6379H152.334C152.334 13.3647 152.736 12.4343 153.491 11.7678L152.697 10.868ZM151.134 14.6379V14.8379H152.334V14.6379H151.134ZM151.134 14.8379C151.134 16.7742 152.22 18.4662 154.177 19.9195L154.892 18.9562C153.115 17.6362 152.334 16.2615 152.334 14.8379H151.134ZM154.18 19.9217C154.997 20.5214 155.907 21.1186 156.908 21.7136L157.521 20.6821C156.548 20.1038 155.671 19.5277 154.889 18.954L154.18 19.9217ZM156.924 21.723C157.921 22.2741 158.906 22.8781 159.878 23.535L160.55 22.5407C159.549 21.8643 158.534 21.2416 157.505 20.6727L156.924 21.723ZM159.894 23.5452C160.879 24.167 161.755 24.8377 162.525 25.5565L163.344 24.6792C162.514 23.9047 161.577 23.1887 160.535 22.5306L159.894 23.5452ZM162.54 25.5703C163.3 26.2321 163.918 27.0573 164.392 28.0553L165.476 27.5404C164.937 26.4051 164.222 25.4436 163.328 24.6654L162.54 25.5703ZM164.398 28.0662C164.886 29.0435 165.134 30.124 165.134 31.3179H166.334C166.334 29.9517 166.049 28.6855 165.471 27.5295L164.398 28.0662ZM165.134 31.3179V31.7179H166.334V31.3179H165.134ZM165.134 31.7179C165.134 34.0976 164.329 35.937 162.743 37.3033L163.526 38.2124C165.407 36.5921 166.334 34.4048 166.334 31.7179H165.134ZM162.739 37.3063C161.155 38.6926 159.181 39.3979 156.774 39.3979V40.5979C159.435 40.5979 161.7 39.8098 163.529 38.2094L162.739 37.3063ZM156.774 39.3979C153.639 39.3979 151.24 38.1227 149.513 35.5439L148.516 36.2118C150.468 39.1264 153.243 40.5979 156.774 40.5979V39.3979ZM149.614 35.8779V33.7179H148.414V35.8779H149.614ZM148.468 33.9669C149.204 35.5801 150.284 36.9027 151.704 37.9248L152.405 36.9509C151.158 36.053 150.211 34.8956 149.56 33.4689L148.468 33.9669ZM151.715 37.9326C153.194 38.9479 154.999 39.4379 157.094 39.4379V38.2379C155.189 38.2379 153.634 37.7945 152.394 36.9432L151.715 37.9326ZM157.094 39.4379C159.235 39.4379 161.11 38.7481 162.689 37.3699L161.9 36.4658C160.546 37.6476 158.954 38.2379 157.094 38.2379V39.4379ZM162.689 37.3699C164.3 35.9642 165.094 34.0858 165.094 31.7979H163.894C163.894 33.7766 163.222 35.3115 161.9 36.4658L162.689 37.3699ZM165.094 31.7979V31.5579H163.894V31.7979H165.094ZM165.094 31.5579C165.094 30.1143 164.717 28.789 163.961 27.5965L162.948 28.2392C163.578 29.2334 163.894 30.3347 163.894 31.5579H165.094ZM163.965 27.6021C163.228 26.4129 162.303 25.4422 161.187 24.6986L160.522 25.6971C161.486 26.3402 162.294 27.1828 162.944 28.2337L163.965 27.6021ZM161.196 24.7046C160.148 23.979 159.007 23.2276 157.774 22.4503L157.134 23.4654C158.355 24.2348 159.481 24.9767 160.513 25.6912L161.196 24.7046ZM157.774 22.4503C156.549 21.6776 155.417 20.9585 154.378 20.2927L153.731 21.303C154.772 21.9706 155.907 22.6914 157.134 23.4654L157.774 22.4503ZM154.378 20.2927C153.405 19.6692 152.597 18.8856 151.95 17.9391L150.959 18.6167C151.698 19.6968 152.623 20.5932 153.731 21.303L154.378 20.2927ZM151.95 17.9391C151.323 17.0231 151.014 16.034 151.014 14.9579H149.814C149.814 16.2817 150.199 17.506 150.959 18.6167L151.95 17.9391ZM151.014 14.9579V14.6779H149.814V14.9579H151.014ZM151.014 14.6779C151.014 12.9507 151.562 11.7108 152.595 10.8613L151.833 9.93441C150.466 11.0582 149.814 12.6717 149.814 14.6779H151.014ZM152.595 10.8613C153.674 9.97461 155.014 9.51787 156.654 9.51787V8.31787C154.775 8.31787 153.155 8.84779 151.833 9.93441L152.595 10.8613ZM156.654 9.51787C158.937 9.51787 160.706 10.3506 162.024 12.011L162.964 11.2647C161.403 9.29851 159.278 8.31787 156.654 8.31787V9.51787ZM161.894 11.6379V13.6779H163.094V11.6379H161.894ZM195.601 27.9979H195.001V28.5979H195.601V27.9979ZM195.601 26.8379V26.2379H195.001V26.8379H195.601ZM206.841 26.8379H207.441V26.2379H206.841V26.8379ZM206.841 37.6779L207.159 38.1867L207.441 38.0104V37.6779H206.841ZM190.801 37.7179L191.112 37.2049L191.112 37.2049L190.801 37.7179ZM185.161 31.9979L184.639 32.2937L184.643 32.3006L185.161 31.9979ZM187.721 13.4379L188.143 13.864L188.145 13.8621L187.721 13.4379ZM206.841 11.0779H207.441V10.7332L207.143 10.5596L206.841 11.0779ZM206.841 12.5579L206.503 13.0538L207.441 13.6922V12.5579H206.841ZM188.641 14.2379L189.065 14.6621L189.067 14.6601L188.641 14.2379ZM188.641 34.4779L189.067 34.0556L189.067 34.0556L188.641 34.4779ZM205.521 37.0379L205.779 37.5794L206.121 37.4163V37.0379H205.521ZM205.521 27.9979H206.121V27.3979H205.521V27.9979ZM196.201 27.9979V26.8379H195.001V27.9979H196.201ZM195.601 27.4379H206.841V26.2379H195.601V27.4379ZM206.241 26.8379V37.6779H207.441V26.8379H206.241ZM206.523 37.1691C204.277 38.5725 201.749 39.2779 198.921 39.2779V40.4779C201.959 40.4779 204.711 39.7166 207.159 38.1867L206.523 37.1691ZM198.921 39.2779H198.481V40.4779H198.921V39.2779ZM198.481 39.2779C195.845 39.2779 193.392 38.5886 191.112 37.2049L190.489 38.2308C192.955 39.7271 195.623 40.4779 198.481 40.4779V39.2779ZM191.112 37.2049C188.823 35.8162 187.014 33.9814 185.679 31.6952L184.643 32.3006C186.08 34.761 188.032 36.7396 190.489 38.2308L191.112 37.2049ZM185.683 31.7021C184.372 29.39 183.721 26.9449 183.721 24.3579H182.521C182.521 27.1575 183.229 29.8057 184.639 32.2937L185.683 31.7021ZM183.721 24.3579C183.721 20.2812 185.188 16.7936 188.143 13.864L187.298 13.0118C184.12 16.1621 182.521 19.9545 182.521 24.3579H183.721ZM188.145 13.8621C191.101 10.9059 194.616 9.43786 198.721 9.43786V8.23786C194.292 8.23786 190.473 9.83649 187.296 13.0136L188.145 13.8621ZM198.721 9.43786C201.463 9.43786 204.066 10.1542 206.538 11.5961L207.143 10.5596C204.495 9.0149 201.684 8.23786 198.721 8.23786V9.43786ZM206.241 11.0779V12.5579H207.441V11.0779H206.241ZM207.178 12.0619C204.577 10.2906 201.753 9.39786 198.721 9.39786V10.5979C201.501 10.5979 204.091 11.4118 206.503 13.0538L207.178 12.0619ZM198.721 9.39786C194.638 9.39786 191.125 10.8771 188.214 13.8156L189.067 14.6601C191.756 11.9453 194.963 10.5979 198.721 10.5979V9.39786ZM188.216 13.8136C185.304 16.7257 183.841 20.2515 183.841 24.3579H185.041C185.041 20.5709 186.377 17.35 189.065 14.6621L188.216 13.8136ZM183.841 24.3579C183.841 28.4386 185.305 31.963 188.214 34.9001L189.067 34.0556C186.376 31.3394 185.041 28.1171 185.041 24.3579H183.841ZM188.214 34.9001C191.125 37.8386 194.638 39.3179 198.721 39.3179V38.1179C194.963 38.1179 191.756 36.7704 189.067 34.0556L188.214 34.9001ZM198.721 39.3179C201.012 39.3179 203.367 38.7307 205.779 37.5794L205.262 36.4964C202.981 37.5851 200.802 38.1179 198.721 38.1179V39.3179ZM206.121 37.0379V27.9979H204.921V37.0379H206.121ZM205.521 27.3979H195.601V28.5979H205.521V27.3979ZM215.375 35.2779L214.943 35.6947L214.945 35.6966L215.375 35.2779ZM215.455 13.5179L215.877 13.944L215.879 13.9421L215.455 13.5179ZM237.495 13.4779L237.919 13.0536L237.919 13.0536L237.495 13.4779ZM237.535 35.3179L237.965 35.7365L237.967 35.7347L237.535 35.3179ZM236.535 14.3179L236.107 14.7381L236.111 14.7421L236.535 14.3179ZM216.375 14.3179L216.799 14.7421L216.801 14.7401L216.375 14.3179ZM216.375 34.5579L216.801 34.1356L216.801 34.1356L216.375 34.5579ZM236.535 34.5579L236.109 34.1356L236.535 34.5579ZM226.135 39.3579C222.173 39.3579 218.739 37.8702 215.805 34.8591L214.945 35.6966C218.091 38.9255 221.83 40.5579 226.135 40.5579V39.3579ZM215.807 34.861C212.896 31.8476 211.455 28.3551 211.455 24.3579H210.255C210.255 28.6806 211.827 32.4681 214.943 35.6947L215.807 34.861ZM211.455 24.3579C211.455 20.3368 212.92 16.8753 215.877 13.944L215.033 13.0918C211.856 16.2405 210.255 20.0056 210.255 24.3579H211.455ZM215.879 13.9421C218.835 10.9867 222.363 9.51787 226.495 9.51787V8.31787C222.041 8.31787 218.209 9.9157 215.031 13.0936L215.879 13.9421ZM226.495 9.51787C230.629 9.51787 234.143 10.9745 237.071 13.9021L237.919 13.0536C234.767 9.90125 230.948 8.31787 226.495 8.31787V9.51787ZM237.071 13.9021C240.001 16.8322 241.455 20.3073 241.455 24.3579H242.655C242.655 19.9818 241.069 16.2036 237.919 13.0536L237.071 13.9021ZM241.455 24.3579C241.455 28.3829 240.013 31.8884 237.103 34.901L237.967 35.7347C241.084 32.5073 242.655 28.7062 242.655 24.3579H241.455ZM237.105 34.8992C234.201 37.8807 230.754 39.3579 226.735 39.3579V40.5579C231.089 40.5579 234.842 38.9417 237.965 35.7365L237.105 34.8992ZM226.735 39.3579H226.135V40.5579H226.735V39.3579ZM241.335 24.4379C241.335 20.3315 239.871 16.8057 236.959 13.8936L236.111 14.7421C238.799 17.43 240.135 20.6509 240.135 24.4379H241.335ZM236.963 13.8977C234.078 10.9564 230.563 9.47787 226.455 9.47787V10.6779C230.24 10.6779 233.446 12.026 236.107 14.7381L236.963 13.8977ZM226.455 9.47787C222.372 9.47787 218.859 10.9571 215.949 13.8956L216.801 14.7401C219.49 12.0253 222.698 10.6779 226.455 10.6779V9.47787ZM215.951 13.8936C213.039 16.8057 211.575 20.3315 211.575 24.4379H212.775C212.775 20.6509 214.111 17.43 216.799 14.7421L215.951 13.8936ZM211.575 24.4379C211.575 28.5186 213.039 32.043 215.949 34.9801L216.801 34.1356C214.111 31.4194 212.775 28.1971 212.775 24.4379H211.575ZM215.949 34.9801C218.859 37.9186 222.372 39.3979 226.455 39.3979V38.1979C222.698 38.1979 219.49 36.8504 216.801 34.1356L215.949 34.9801ZM226.455 39.3979C230.538 39.3979 234.05 37.9186 236.961 34.9801L236.109 34.1356C233.419 36.8504 230.212 38.1979 226.455 38.1979V39.3979ZM236.961 34.9801C239.871 32.043 241.335 28.5186 241.335 24.4379H240.135C240.135 28.1971 238.799 31.4194 236.109 34.1356L236.961 34.9801ZM246.86 9.43786V8.83786H246.26V9.43786H246.86ZM258.98 13.8779L258.54 14.286L258.542 14.288L258.98 13.8779ZM258.98 35.0379L258.542 34.6278L258.54 34.6299L258.98 35.0379ZM246.86 39.4379H246.26V40.0379H246.86V39.4379ZM248.14 10.6379V10.0379H247.54V10.6379H248.14ZM248.14 38.1979H247.54V38.7979H248.14V38.1979ZM258.02 34.1579L257.58 33.7491L257.578 33.7514L258.02 34.1579ZM258.02 14.7179L257.576 15.1221L257.578 15.1245L258.02 14.7179ZM246.86 10.0379H248.14V8.83786H246.86V10.0379ZM248.14 10.0379C252.473 10.0379 255.92 11.4624 258.54 14.286L259.419 13.4697C256.546 10.3733 252.766 8.83786 248.14 8.83786V10.0379ZM258.542 14.288C261.181 17.1066 262.5 20.492 262.5 24.4779H263.7C263.7 20.197 262.272 16.5157 259.418 13.4678L258.542 14.288ZM262.5 24.4779C262.5 28.4359 261.182 31.8083 258.542 34.6278L259.418 35.448C262.271 32.4008 263.7 28.7331 263.7 24.4779H262.5ZM258.54 34.6299C255.948 37.4247 252.503 38.8379 248.14 38.8379V40.0379C252.79 40.0379 256.571 38.5177 259.42 35.4458L258.54 34.6299ZM248.14 38.8379H246.86V40.0379H248.14V38.8379ZM247.46 39.4379V9.43786H246.26V39.4379H247.46ZM248.46 10.0379H248.14V11.2379H248.46V10.0379ZM247.54 10.6379V38.1979H248.74V10.6379H247.54ZM248.14 38.7979H248.46V37.5979H248.14V38.7979ZM248.46 38.7979C252.509 38.7979 255.86 37.3895 258.461 34.5643L257.578 33.7514C255.22 36.3129 252.197 37.5979 248.46 37.5979V38.7979ZM258.459 34.5666C261.071 31.7596 262.38 28.3859 262.38 24.4779H261.18C261.18 28.0899 259.981 31.1695 257.58 33.7491L258.459 34.5666ZM262.38 24.4779C262.38 20.5445 261.072 17.1449 258.461 14.3113L257.578 15.1245C259.98 17.7308 261.18 20.8379 261.18 24.4779H262.38ZM258.463 14.3136C255.862 11.461 252.511 10.0379 248.46 10.0379V11.2379C252.195 11.2379 255.217 12.5347 257.576 15.1221L258.463 14.3136ZM268.114 9.43786V8.83786H267.514V9.43786H268.114ZM269.434 9.43786H270.034V8.83786H269.434V9.43786ZM269.434 39.4379V40.0379H270.034V39.4379H269.434ZM268.114 39.4379H267.514V40.0379H268.114V39.4379ZM268.114 10.0379H269.434V8.83786H268.114V10.0379ZM268.834 9.43786V39.4379H270.034V9.43786H268.834ZM269.434 38.8379H268.114V40.0379H269.434V38.8379ZM268.714 39.4379V9.43786H267.514V39.4379H268.714ZM297.729 9.43786V8.83786H297.129V9.43786H297.729ZM298.889 9.43786H299.489V8.83786H298.889V9.43786ZM298.889 39.8779L298.423 40.2564L299.489 41.5671V39.8779H298.889ZM276.809 12.7179L277.274 12.3394L276.209 11.0287V12.7179H276.809ZM276.809 39.4379V40.0379H277.409V39.4379H276.809ZM275.649 39.4379H275.049V40.0379H275.649V39.4379ZM275.649 8.99786L276.114 8.61904L275.049 7.31059V8.99786H275.649ZM297.729 36.1179L297.263 36.4967L298.329 37.8051V36.1179H297.729ZM297.729 10.0379H298.889V8.83786H297.729V10.0379ZM298.289 9.43786V39.8779H299.489V9.43786H298.289ZM299.354 39.4994L277.274 12.3394L276.343 13.0963L298.423 40.2564L299.354 39.4994ZM276.209 12.7179V39.4379H277.409V12.7179H276.209ZM276.809 38.8379H275.649V40.0379H276.809V38.8379ZM276.249 39.4379V8.99786H275.049V39.4379H276.249ZM275.183 9.37669L297.263 36.4967L298.194 35.739L276.114 8.61904L275.183 9.37669ZM298.329 36.1179V9.43786H297.129V36.1179H298.329ZM304.907 9.43786V8.83786H304.307V9.43786H304.907ZM315.667 9.43786H316.267V8.83786H315.667V9.43786ZM315.667 10.5979V11.1979H316.267V10.5979H315.667ZM306.227 10.5979V9.99787H305.627V10.5979H306.227ZM306.227 26.9179H305.627V27.5179H306.227V26.9179ZM314.107 26.9179H314.707V26.3179H314.107V26.9179ZM314.107 28.0779V28.6779H314.707V28.0779H314.107ZM306.227 28.0779V27.4779H305.627V28.0779H306.227ZM306.227 38.2779H305.627V38.8779H306.227V38.2779ZM315.667 38.2779H316.267V37.6779H315.667V38.2779ZM315.667 39.4379V40.0379H316.267V39.4379H315.667ZM304.907 39.4379H304.307V40.0379H304.907V39.4379ZM304.907 10.0379H315.667V8.83786H304.907V10.0379ZM315.067 9.43786V10.5979H316.267V9.43786H315.067ZM315.667 9.99787H306.227V11.1979H315.667V9.99787ZM305.627 10.5979V26.9179H306.827V10.5979H305.627ZM306.227 27.5179H314.107V26.3179H306.227V27.5179ZM313.507 26.9179V28.0779H314.707V26.9179H313.507ZM314.107 27.4779H306.227V28.6779H314.107V27.4779ZM305.627 28.0779V38.2779H306.827V28.0779H305.627ZM306.227 38.8779H315.667V37.6779H306.227V38.8779ZM315.067 38.2779V39.4379H316.267V38.2779H315.067ZM315.667 38.8379H304.907V40.0379H315.667V38.8379ZM305.507 39.4379V9.43786H304.307V39.4379H305.507ZM332.832 8.71787L333.371 8.4546L332.831 7.34893L332.293 8.45517L332.832 8.71787ZM347.832 39.4379V40.0379H348.793L348.371 39.1746L347.832 39.4379ZM346.432 39.4379L345.895 39.7047L346.06 40.0379H346.432V39.4379ZM340.752 27.9979L341.29 27.731L341.124 27.3979H340.752V27.9979ZM324.712 27.9979V27.3979H324.338L324.173 27.7341L324.712 27.9979ZM319.112 39.4379V40.0379H319.486L319.651 39.7017L319.112 39.4379ZM317.872 39.4379L317.333 39.1752L316.913 40.0379H317.872V39.4379ZM332.712 11.4779L333.25 11.2129L332.709 10.1133L332.173 11.2152L332.712 11.4779ZM325.232 26.8379L324.693 26.5752L324.273 27.4379H325.232V26.8379ZM340.272 26.8379V27.4379H341.236L340.81 26.5729L340.272 26.8379ZM332.293 8.98113L347.293 39.7011L348.371 39.1746L333.371 8.4546L332.293 8.98113ZM347.832 38.8379H346.432V40.0379H347.832V38.8379ZM346.97 39.171L341.29 27.731L340.215 28.2647L345.895 39.7047L346.97 39.171ZM340.752 27.3979H324.712V28.5979H340.752V27.3979ZM324.173 27.7341L318.573 39.1741L319.651 39.7017L325.251 28.2617L324.173 27.7341ZM319.112 38.8379H317.872V40.0379H319.112V38.8379ZM318.412 39.7006L333.372 8.98056L332.293 8.45517L317.333 39.1752L318.412 39.7006ZM332.173 11.2152L324.693 26.5752L325.772 27.1006L333.252 11.7406L332.173 11.2152ZM325.232 27.4379H340.272V26.2379H325.232V27.4379ZM340.81 26.5729L333.25 11.2129L332.174 11.7428L339.734 27.1028L340.81 26.5729ZM352.387 37.4379L351.96 37.8588L351.963 37.8621L352.387 37.4379ZM349.867 9.43786V8.83786H349.267V9.43786H349.867ZM351.187 9.43786H351.787V8.83786H351.187V9.43786ZM353.387 36.5979L352.959 37.0183L352.959 37.0183L353.387 36.5979ZM364.227 36.6379L363.799 36.2174L363.799 36.2175L364.227 36.6379ZM366.427 9.43786V8.83786H365.827V9.43786H366.427ZM367.747 9.43786H368.347V8.83786H367.747V9.43786ZM365.187 37.4379L364.76 37.0169L364.76 37.017L365.187 37.4379ZM359.027 39.3979H358.627V40.5979H359.027V39.3979ZM358.627 39.3979C356.33 39.3979 354.404 38.6057 352.812 37.0136L351.963 37.8621C353.784 39.6834 356.018 40.5979 358.627 40.5979V39.3979ZM352.815 37.017C351.255 35.4321 350.467 33.4409 350.467 30.9979H349.267C349.267 33.7281 350.16 36.0303 351.96 37.8588L352.815 37.017ZM350.467 30.9979V9.43786H349.267V30.9979H350.467ZM349.867 10.0379H351.187V8.83786H349.867V10.0379ZM350.587 9.43786V30.9579H351.787V9.43786H350.587ZM350.587 30.9579C350.587 33.3674 351.373 35.4029 352.959 37.0183L353.816 36.1774C352.469 34.8061 351.787 33.0816 351.787 30.9579H350.587ZM352.959 37.0183C354.543 38.6305 356.512 39.4379 358.827 39.4379V38.2379C356.823 38.2379 355.165 37.5519 353.816 36.1774L352.959 37.0183ZM358.827 39.4379C361.139 39.4379 363.097 38.6462 364.656 37.0582L363.799 36.2175C362.478 37.5629 360.836 38.2379 358.827 38.2379V39.4379ZM364.656 37.0583C366.243 35.4415 367.027 33.392 367.027 30.9579H365.827C365.827 33.1104 365.145 34.8475 363.799 36.2174L364.656 37.0583ZM367.027 30.9579V9.43786H365.827V30.9579H367.027ZM366.427 10.0379H367.747V8.83786H366.427V10.0379ZM367.147 9.43786V30.9179H368.347V9.43786H367.147ZM367.147 30.9179C367.147 33.3866 366.347 35.4047 364.76 37.0169L365.615 37.8588C367.441 36.0044 368.347 33.6758 368.347 30.9179H367.147ZM364.76 37.017C363.194 38.6073 361.296 39.3979 359.027 39.3979V40.5979C361.613 40.5979 363.821 39.6817 365.615 37.8588L364.76 37.017Z" fill="black"/>
<path d="M86.9437 18.3378L90.8536 24.4588L86.9437 30.5775H79.1213L75.2088 24.4588L79.1213 18.3378H86.9437Z" fill="black"/>
<line x1="72.0991" y1="18.0105" x2="86.9502" y2="18.0105" stroke="black" stroke-width="0.7"/>
<line y1="-0.35" x2="14.5711" y2="-0.35" transform="matrix(0.540103 0.841599 -0.885615 0.46442 82.9837 12.2173)" stroke="black" stroke-width="0.7"/>
<line y1="-0.35" x2="14.5711" y2="-0.35" transform="matrix(0.540103 -0.841599 0.854301 0.519779 71.6818 30.6036)" stroke="black" stroke-width="0.7"/>
<line y1="-0.35" x2="14.5694" y2="-0.35" transform="matrix(-0.535907 0.844277 -0.822206 -0.569191 94.7581 18.2346)" stroke="black" stroke-width="0.7"/>
<line y1="-0.35" x2="14.851" y2="-0.35" transform="matrix(-0.999984 0.00573688 -0.00605116 -0.999982 93.9999 30.4926)" stroke="black" stroke-width="0.7"/>
<line y1="-0.35" x2="14.5732" y2="-0.35" transform="matrix(-0.545108 -0.838366 0.882904 -0.469554 83.1528 36.6981)" stroke="black" stroke-width="0.7"/>
<path d="M98.2646 24.4577C98.2646 32.6319 91.536 39.2711 83.22 39.2711C74.904 39.2711 68.1754 32.6319 68.1754 24.4577C68.1754 16.2835 74.904 9.64423 83.22 9.64423C91.536 9.64423 98.2646 16.2835 98.2646 24.4577Z" stroke="black"/>
</svg>
