<svg width="371" height="95" viewBox="0 0 371 95" fill="none" xmlns="http://www.w3.org/2000/svg">
<path d="M54.693 56.4379H56.013C58.7864 56.4379 61.1464 57.3979 63.093 59.3179C65.0397 61.2112 66.013 63.4512 66.013 66.0379C66.013 68.6245 64.9997 70.8512 62.973 72.7179C60.973 74.5845 58.7597 75.5179 56.333 75.5179H56.013V86.4379H54.693V56.4379ZM56.013 74.3979H56.333C58.573 74.3979 60.5197 73.5712 62.173 71.9179C63.853 70.2645 64.693 68.3045 64.693 66.0379C64.693 63.7712 63.8397 61.7979 62.133 60.1179C60.453 58.4379 58.5197 57.5979 56.333 57.5979H56.013V74.3979ZM92.199 56.4379H93.519V86.4379H92.199V74.9979H71.639V86.4379H70.319V56.4379H71.639V73.8379H92.199V56.4379ZM113.618 86.9579C109.484 86.9579 105.898 85.3979 102.858 82.2779C99.8444 79.1579 98.3377 75.5179 98.3377 71.3579C98.3377 67.1712 99.8711 63.5579 102.938 60.5179C106.004 57.4512 109.684 55.9179 113.978 55.9179C118.271 55.9179 121.938 57.4379 124.978 60.4779C128.018 63.5179 129.538 67.1445 129.538 71.3579C129.538 75.5445 128.031 79.1979 125.018 82.3179C122.004 85.4112 118.404 86.9579 114.218 86.9579H113.618ZM128.218 71.4379C128.218 67.4912 126.818 64.1179 124.018 61.3179C121.244 58.4912 117.884 57.0779 113.938 57.0779C110.018 57.0779 106.658 58.4912 103.858 61.3179C101.058 64.1179 99.6577 67.4912 99.6577 71.4379C99.6577 75.3579 101.058 78.7312 103.858 81.5579C106.658 84.3845 110.018 85.7979 113.938 85.7979C117.858 85.7979 121.218 84.3845 124.018 81.5579C126.818 78.7312 128.218 75.3579 128.218 71.4379ZM143.863 56.4379V57.5979H137.023V86.4379H135.703V57.5979H128.783V56.4379H143.863ZM158.54 86.9579C154.406 86.9579 150.82 85.3979 147.78 82.2779C144.766 79.1579 143.26 75.5179 143.26 71.3579C143.26 67.1712 144.793 63.5579 147.86 60.5179C150.926 57.4512 154.606 55.9179 158.9 55.9179C163.193 55.9179 166.86 57.4379 169.9 60.4779C172.94 63.5179 174.46 67.1445 174.46 71.3579C174.46 75.5445 172.953 79.1979 169.94 82.3179C166.926 85.4112 163.326 86.9579 159.14 86.9579H158.54ZM173.14 71.4379C173.14 67.4912 171.74 64.1179 168.94 61.3179C166.166 58.4912 162.806 57.0779 158.86 57.0779C154.94 57.0779 151.58 58.4912 148.78 61.3179C145.98 64.1179 144.58 67.4912 144.58 71.4379C144.58 75.3579 145.98 78.7312 148.78 81.5579C151.58 84.3845 154.94 85.7979 158.86 85.7979C162.78 85.7979 166.14 84.3845 168.94 81.5579C171.74 78.7312 173.14 75.3579 173.14 71.4379ZM190.544 74.9979V73.8379H201.784V84.6779C199.438 86.1445 196.798 86.8779 193.864 86.8779H193.424C190.678 86.8779 188.118 86.1579 185.744 84.7179C183.371 83.2779 181.491 81.3712 180.104 78.9979C178.744 76.5979 178.064 74.0512 178.064 71.3579C178.064 67.1179 179.598 63.4779 182.664 60.4379C185.731 57.3712 189.398 55.8379 193.664 55.8379C196.518 55.8379 199.224 56.5845 201.784 58.0779V59.5579C199.278 57.8512 196.571 56.9979 193.664 56.9979C189.744 56.9979 186.384 58.4112 183.584 61.2379C180.784 64.0379 179.384 67.4112 179.384 71.3579C179.384 75.2779 180.784 78.6512 183.584 81.4779C186.384 84.3045 189.744 85.7179 193.664 85.7179C195.851 85.7179 198.118 85.1579 200.464 84.0379V74.9979H190.544ZM206.999 56.4379H208.719C211.305 56.4379 213.572 57.3979 215.519 59.3179C217.492 61.2112 218.479 63.4512 218.479 66.0379C218.479 68.5979 217.479 70.8245 215.479 72.7179C213.479 74.6112 211.332 75.5579 209.039 75.5579H208.759L219.079 86.4379H217.359L208.279 76.9179V86.4379H206.999V56.4379ZM208.279 74.3979H208.999C211.159 74.3979 213.065 73.5712 214.719 71.9179C216.372 70.2645 217.199 68.3045 217.199 66.0379C217.199 63.7712 216.345 61.7979 214.639 60.1179C212.932 58.4379 210.985 57.5979 208.799 57.5979H208.279V74.3979ZM236.448 55.7179L251.448 86.4379H250.048L244.368 74.9979H228.328L222.728 86.4379H221.488L236.448 55.7179ZM236.328 58.4779L228.848 73.8379H243.888L236.328 58.4779ZM255.591 56.4379H256.911C259.685 56.4379 262.045 57.3979 263.991 59.3179C265.938 61.2112 266.911 63.4512 266.911 66.0379C266.911 68.6245 265.898 70.8512 263.871 72.7179C261.871 74.5845 259.658 75.5179 257.231 75.5179H256.911V86.4379H255.591V56.4379ZM256.911 74.3979H257.231C259.471 74.3979 261.418 73.5712 263.071 71.9179C264.751 70.2645 265.591 68.3045 265.591 66.0379C265.591 63.7712 264.738 61.7979 263.031 60.1179C261.351 58.4379 259.418 57.5979 257.231 57.5979H256.911V74.3979ZM293.097 56.4379H294.417V86.4379H293.097V74.9979H272.537V86.4379H271.217V56.4379H272.537V73.8379H293.097V56.4379ZM300.636 56.4379H301.956V86.4379H300.636V56.4379ZM308.171 56.4379H318.931V57.5979H309.491V73.9179H317.371V75.0779H309.491V85.2779H318.931V86.4379H308.171V56.4379Z" fill="black"/>
<path d="M25.5123 9.43786H26.6723V39.8779L4.59225 12.7179V39.4379H3.43225V8.99786L25.5123 36.1179V9.43786ZM32.8901 9.43786H34.2101V39.4379H32.8901V9.43786ZM55.0244 39.8779H54.5844C51.8378 39.8779 49.2778 39.1579 46.9044 37.7179C44.5311 36.2779 42.6511 34.3712 41.2644 31.9979C39.9044 29.5979 39.2244 27.0512 39.2244 24.3579C39.2244 20.1179 40.7578 16.4779 43.8244 13.4379C46.8911 10.3712 50.5578 8.83786 54.8244 8.83786C57.6778 8.83786 60.3844 9.58453 62.9444 11.0779V12.5579C60.4378 10.8512 57.7311 9.99786 54.8244 9.99786C50.9044 9.99786 47.5444 11.4112 44.7444 14.2379C41.9444 17.0379 40.5444 20.4112 40.5444 24.3579C40.5444 28.2779 41.9444 31.6512 44.7444 34.4779C47.5444 37.3045 50.9044 38.7179 54.8244 38.7179C57.7311 38.7179 60.4378 37.8645 62.9444 36.1579V37.6379C60.5178 39.1312 57.8778 39.8779 55.0244 39.8779ZM82.4341 39.9579C78.3008 39.9579 74.7141 38.3979 71.6741 35.2779C68.6608 32.1579 67.1541 28.5179 67.1541 24.3579C67.1541 20.1712 68.6875 16.5579 71.7541 13.5179C74.8208 10.4512 78.5008 8.91787 82.7941 8.91787C87.0875 8.91787 90.7541 10.4379 93.7941 13.4779C96.8341 16.5179 98.3541 20.1445 98.3541 24.3579C98.3541 28.5445 96.8475 32.1979 93.8341 35.3179C90.8208 38.4112 87.2208 39.9579 83.0341 39.9579H82.4341ZM97.0341 24.4379C97.0341 20.4912 95.6341 17.1179 92.8341 14.3179C90.0608 11.4912 86.7008 10.0779 82.7541 10.0779C78.8341 10.0779 75.4741 11.4912 72.6741 14.3179C69.8741 17.1179 68.4741 20.4912 68.4741 24.4379C68.4741 28.3579 69.8741 31.7312 72.6741 34.5579C75.4741 37.3845 78.8341 38.7979 82.7541 38.7979C86.6741 38.7979 90.0341 37.3845 92.8341 34.5579C95.6341 31.7312 97.0341 28.3579 97.0341 24.4379ZM104.479 9.43786V38.2779H113.759V39.4379H103.159V9.43786H104.479ZM130.733 8.71787L145.733 39.4379H144.333L138.653 27.9979H122.613L117.013 39.4379H115.773L130.733 8.71787ZM130.613 11.4779L123.133 26.8379H138.173L130.613 11.4779ZM161.997 13.6779C161.383 12.5579 160.543 11.6779 159.477 11.0379C158.437 10.3979 157.263 10.0779 155.957 10.0779C154.65 10.0779 153.53 10.4912 152.597 11.3179C151.69 12.1179 151.237 13.2245 151.237 14.6379V14.8379C151.237 16.5179 152.17 18.0512 154.037 19.4379C154.837 20.0245 155.73 20.6112 156.717 21.1979C157.73 21.7579 158.73 22.3712 159.717 23.0379C160.73 23.6779 161.637 24.3712 162.437 25.1179C163.263 25.8379 163.93 26.7312 164.437 27.7979C164.97 28.8645 165.237 30.0379 165.237 31.3179V31.7179C165.237 34.2512 164.37 36.2645 162.637 37.7579C160.93 39.2512 158.81 39.9979 156.277 39.9979C152.943 39.9979 150.357 38.6245 148.517 35.8779V33.7179C149.21 35.2379 150.223 36.4779 151.557 37.4379C152.917 38.3712 154.597 38.8379 156.597 38.8379C158.597 38.8379 160.33 38.1979 161.797 36.9179C163.263 35.6379 163.997 33.9312 163.997 31.7979V31.5579C163.997 30.2245 163.65 29.0112 162.957 27.9179C162.263 26.7979 161.397 25.8912 160.357 25.1979C159.317 24.4779 158.183 23.7312 156.957 22.9579C155.73 22.1845 154.597 21.4645 153.557 20.7979C152.517 20.1312 151.65 19.2912 150.957 18.2779C150.263 17.2645 149.917 16.1579 149.917 14.9579V14.6779C149.917 12.8112 150.517 11.3845 151.717 10.3979C152.917 9.4112 154.397 8.91787 156.157 8.91787C158.61 8.91787 160.557 9.82453 161.997 11.6379V13.6779ZM195.103 27.9979V26.8379H206.343V37.6779C203.996 39.1445 201.356 39.8779 198.423 39.8779H197.983C195.236 39.8779 192.676 39.1579 190.303 37.7179C187.93 36.2779 186.05 34.3712 184.663 31.9979C183.303 29.5979 182.623 27.0512 182.623 24.3579C182.623 20.1179 184.156 16.4779 187.223 13.4379C190.29 10.3712 193.956 8.83786 198.223 8.83786C201.076 8.83786 203.783 9.58453 206.343 11.0779V12.5579C203.836 10.8512 201.13 9.99786 198.223 9.99786C194.303 9.99786 190.943 11.4112 188.143 14.2379C185.343 17.0379 183.943 20.4112 183.943 24.3579C183.943 28.2779 185.343 31.6512 188.143 34.4779C190.943 37.3045 194.303 38.7179 198.223 38.7179C200.41 38.7179 202.676 38.1579 205.023 37.0379V27.9979H195.103ZM225.637 39.9579C221.504 39.9579 217.917 38.3979 214.877 35.2779C211.864 32.1579 210.357 28.5179 210.357 24.3579C210.357 20.1712 211.891 16.5579 214.957 13.5179C218.024 10.4512 221.704 8.91787 225.997 8.91787C230.291 8.91787 233.957 10.4379 236.997 13.4779C240.037 16.5179 241.557 20.1445 241.557 24.3579C241.557 28.5445 240.051 32.1979 237.037 35.3179C234.024 38.4112 230.424 39.9579 226.237 39.9579H225.637ZM240.237 24.4379C240.237 20.4912 238.837 17.1179 236.037 14.3179C233.264 11.4912 229.904 10.0779 225.957 10.0779C222.037 10.0779 218.677 11.4912 215.877 14.3179C213.077 17.1179 211.677 20.4912 211.677 24.4379C211.677 28.3579 213.077 31.7312 215.877 34.5579C218.677 37.3845 222.037 38.7979 225.957 38.7979C229.877 38.7979 233.237 37.3845 236.037 34.5579C238.837 31.7312 240.237 28.3579 240.237 24.4379ZM246.362 9.43786H247.642C252.122 9.43786 255.735 10.9179 258.482 13.8779C261.229 16.8112 262.602 20.3445 262.602 24.4779C262.602 28.5845 261.229 32.1045 258.482 35.0379C255.762 37.9712 252.149 39.4379 247.642 39.4379H246.362V9.43786ZM247.962 10.6379H247.642V38.1979H247.962C251.855 38.1979 255.042 36.8512 257.522 34.1579C260.029 31.4645 261.282 28.2379 261.282 24.4779C261.282 20.6912 260.029 17.4379 257.522 14.7179C255.042 11.9979 251.855 10.6379 247.962 10.6379ZM267.617 9.43786H268.937V39.4379H267.617V9.43786ZM297.231 9.43786H298.391V39.8779L276.311 12.7179V39.4379H275.151V8.99786L297.231 36.1179V9.43786ZM304.409 9.43786H315.169V10.5979H305.729V26.9179H313.609V28.0779H305.729V38.2779H315.169V39.4379H304.409V9.43786ZM332.334 8.71787L347.334 39.4379H345.934L340.254 27.9979H324.214L318.614 39.4379H317.374L332.334 8.71787ZM332.214 11.4779L324.734 26.8379H339.774L332.214 11.4779ZM358.53 39.9979H358.13C355.676 39.9979 353.596 39.1445 351.89 37.4379C350.21 35.7312 349.37 33.5845 349.37 30.9979V9.43786H350.69V30.9579C350.69 33.2245 351.423 35.1045 352.89 36.5979C354.356 38.0912 356.17 38.8379 358.33 38.8379C360.49 38.8379 362.29 38.1045 363.73 36.6379C365.196 35.1445 365.93 33.2512 365.93 30.9579V9.43786H367.25V30.9179C367.25 33.5312 366.396 35.7045 364.69 37.4379C363.01 39.1445 360.956 39.9979 358.53 39.9979Z" fill="black"/>
<path d="M25.5123 9.43786V8.93786H25.0123V9.43786H25.5123ZM26.6723 9.43786H27.1723V8.93786H26.6723V9.43786ZM26.6723 39.8779L26.2843 40.1933L27.1723 41.2855V39.8779H26.6723ZM4.59225 12.7179L4.98022 12.4025L4.09225 11.3102V12.7179H4.59225ZM4.59225 39.4379V39.9379H5.09225V39.4379H4.59225ZM3.43225 39.4379H2.93225V39.9379H3.43225V39.4379ZM3.43225 8.99786L3.81999 8.68218L2.93225 7.5918V8.99786H3.43225ZM25.5123 36.1179L25.1245 36.4335L26.0123 37.5239V36.1179H25.5123ZM25.5123 9.93786H26.6723V8.93786H25.5123V9.93786ZM26.1723 9.43786V39.8779H27.1723V9.43786H26.1723ZM27.0602 39.5625L4.98022 12.4025L4.20428 13.0333L26.2843 40.1933L27.0602 39.5625ZM4.09225 12.7179V39.4379H5.09225V12.7179H4.09225ZM4.59225 38.9379H3.43225V39.9379H4.59225V38.9379ZM3.93225 39.4379V8.99786H2.93225V39.4379H3.93225ZM3.04451 9.31355L25.1245 36.4335L25.9 35.8022L3.81999 8.68218L3.04451 9.31355ZM26.0123 36.1179V9.43786H25.0123V36.1179H26.0123ZM32.8901 9.43786V8.93786H32.3901V9.43786H32.8901ZM34.2101 9.43786H34.7101V8.93786H34.2101V9.43786ZM34.2101 39.4379V39.9379H34.7101V39.4379H34.2101ZM32.8901 39.4379H32.3901V39.9379H32.8901V39.4379ZM32.8901 9.93786H34.2101V8.93786H32.8901V9.93786ZM33.7101 9.43786V39.4379H34.7101V9.43786H33.7101ZM34.2101 38.9379H32.8901V39.9379H34.2101V38.9379ZM33.3901 39.4379V9.43786H32.3901V39.4379H33.3901ZM46.9044 37.7179L47.1638 37.2904L47.1638 37.2904L46.9044 37.7179ZM41.2644 31.9979L40.8294 32.2444L40.8327 32.2501L41.2644 31.9979ZM43.8244 13.4379L44.1764 13.793L44.178 13.7914L43.8244 13.4379ZM62.9444 11.0779H63.4444V10.7907L63.1964 10.646L62.9444 11.0779ZM62.9444 12.5579L62.663 12.9712L63.4444 13.5032V12.5579H62.9444ZM44.7444 14.2379L45.098 14.5914L45.0997 14.5897L44.7444 14.2379ZM44.7444 34.4779L45.0997 34.126L45.0997 34.126L44.7444 34.4779ZM62.9444 36.1579H63.4444V35.2126L62.663 35.7446L62.9444 36.1579ZM62.9444 37.6379L63.2065 38.0637L63.4444 37.9173V37.6379H62.9444ZM55.0244 39.3779H54.5844V40.3779H55.0244V39.3779ZM54.5844 39.3779C51.9303 39.3779 49.4598 38.6835 47.1638 37.2904L46.6451 38.1453C49.0957 39.6322 51.7453 40.3779 54.5844 40.3779V39.3779ZM47.1638 37.2904C44.8609 35.8931 43.0404 34.0464 41.6962 31.7456L40.8327 32.2501C42.2618 34.696 44.2013 36.6626 46.6451 38.1453L47.1638 37.2904ZM41.6994 31.7514C40.381 29.4246 39.7244 26.9626 39.7244 24.3579H38.7244C38.7244 27.1398 39.4279 29.7711 40.8294 32.2444L41.6994 31.7514ZM39.7244 24.3579C39.7244 20.254 41.2025 16.741 44.1764 13.793L43.4724 13.0828C40.313 16.2147 38.7244 19.9818 38.7244 24.3579H39.7244ZM44.178 13.7914C47.1526 10.8168 50.6928 9.33786 54.8244 9.33786V8.33786C50.4227 8.33786 46.6296 9.92561 43.4709 13.0843L44.178 13.7914ZM54.8244 9.33786C57.5857 9.33786 60.2059 10.0592 62.6925 11.5098L63.1964 10.646C60.563 9.10984 57.7698 8.33786 54.8244 8.33786V9.33786ZM62.4444 11.0779V12.5579H63.4444V11.0779H62.4444ZM63.2258 12.1446C60.64 10.384 57.836 9.49786 54.8244 9.49786V10.4979C57.6262 10.4979 60.2355 11.3184 62.663 12.9712L63.2258 12.1446ZM54.8244 9.49786C50.7688 9.49786 47.2815 10.9661 44.3892 13.886L45.0997 14.5897C47.8073 11.8563 51.0401 10.4979 54.8244 10.4979V9.49786ZM44.3909 13.8843C41.4975 16.7777 40.0444 20.2781 40.0444 24.3579H41.0444C41.0444 20.5443 42.3914 17.298 45.098 14.5914L44.3909 13.8843ZM40.0444 24.3579C40.0444 28.4118 41.498 31.911 44.3892 34.8297L45.0997 34.126C42.3909 31.3914 41.0444 28.1439 41.0444 24.3579H40.0444ZM44.3892 34.8297C47.2815 37.7496 50.7688 39.2179 54.8244 39.2179V38.2179C51.0401 38.2179 47.8073 36.8595 45.0997 34.126L44.3892 34.8297ZM54.8244 39.2179C57.836 39.2179 60.64 38.3317 63.2258 36.5712L62.663 35.7446C60.2355 37.3973 57.6262 38.2179 54.8244 38.2179V39.2179ZM62.4444 36.1579V37.6379H63.4444V36.1579H62.4444ZM62.6824 37.212C60.3346 38.6568 57.7854 39.3779 55.0244 39.3779V40.3779C57.9702 40.3779 60.7009 39.6056 63.2065 38.0637L62.6824 37.212ZM71.6741 35.2779L71.3145 35.6252L71.316 35.6268L71.6741 35.2779ZM71.7541 13.5179L72.1061 13.873L72.1077 13.8714L71.7541 13.5179ZM93.7941 13.4779L94.1477 13.1243L94.1477 13.1243L93.7941 13.4779ZM93.8341 35.3179L94.1923 35.6668L94.1938 35.6652L93.8341 35.3179ZM92.8341 14.3179L92.4772 14.6681L92.4806 14.6714L92.8341 14.3179ZM72.6741 14.3179L73.0277 14.6714L73.0294 14.6697L72.6741 14.3179ZM72.6741 34.5579L73.0294 34.206L73.0294 34.206L72.6741 34.5579ZM92.8341 34.5579L92.4789 34.206L92.8341 34.5579ZM82.4341 39.4579C78.4436 39.4579 74.9838 37.9582 72.0322 34.9289L71.316 35.6268C74.4445 38.8376 78.158 40.4579 82.4341 40.4579V39.4579ZM72.0338 34.9305C69.1062 31.8993 67.6541 28.3823 67.6541 24.3579H66.6541C66.6541 28.6535 68.2154 32.4164 71.3145 35.6252L72.0338 34.9305ZM67.6541 24.3579C67.6541 20.3092 69.1309 16.8224 72.1061 13.873L71.4021 13.1628C68.2441 16.2934 66.6541 20.0332 66.6541 24.3579H67.6541ZM72.1077 13.8714C75.0816 10.8975 78.6349 9.41787 82.7941 9.41787V8.41787C78.3667 8.41787 74.5599 10.0049 71.4006 13.1643L72.1077 13.8714ZM82.7941 9.41787C86.9546 9.41787 90.4942 10.885 93.4406 13.8314L94.1477 13.1243C91.0141 9.99069 87.2203 8.41787 82.7941 8.41787V9.41787ZM93.4406 13.8314C96.3889 16.7798 97.8541 20.2801 97.8541 24.3579H98.8541C98.8541 20.0089 97.2793 16.2559 94.1477 13.1243L93.4406 13.8314ZM97.8541 24.3579C97.8541 28.4098 96.4014 31.94 93.4745 34.9705L94.1938 35.6652C97.2935 32.4557 98.8541 28.6792 98.8541 24.3579H97.8541ZM93.476 34.969C90.5534 37.9691 87.0812 39.4579 83.0341 39.4579V40.4579C87.3604 40.4579 91.0882 38.8533 94.1923 35.6668L93.476 34.969ZM83.0341 39.4579H82.4341V40.4579H83.0341V39.4579ZM97.5341 24.4379C97.5341 20.3581 96.0811 16.8577 93.1877 13.9643L92.4806 14.6714C95.1872 17.378 96.5341 20.6243 96.5341 24.4379H97.5341ZM93.191 13.9677C90.324 11.0456 86.8356 9.57787 82.7541 9.57787V10.5779C86.566 10.5779 89.7976 11.9368 92.4772 14.668L93.191 13.9677ZM82.7541 9.57787C78.6985 9.57787 75.2112 11.0461 72.3189 13.966L73.0294 14.6697C75.737 11.9363 78.9698 10.5779 82.7541 10.5779V9.57787ZM72.3206 13.9643C69.4272 16.8577 67.9741 20.3581 67.9741 24.4379H68.9741C68.9741 20.6243 70.3211 17.378 73.0277 14.6714L72.3206 13.9643ZM67.9741 24.4379C67.9741 28.4918 69.4277 31.991 72.3189 34.9097L73.0294 34.206C70.3205 31.4714 68.9741 28.2239 68.9741 24.4379H67.9741ZM72.3189 34.9097C75.2112 37.8296 78.6985 39.2979 82.7541 39.2979V38.2979C78.9698 38.2979 75.737 36.9395 73.0294 34.206L72.3189 34.9097ZM82.7541 39.2979C86.8098 39.2979 90.297 37.8296 93.1894 34.9097L92.4789 34.206C89.7712 36.9395 86.5385 38.2979 82.7541 38.2979V39.2979ZM93.1894 34.9097C96.0805 31.991 97.5341 28.4918 97.5341 24.4379H96.5341C96.5341 28.2239 95.1877 31.4714 92.4789 34.206L93.1894 34.9097ZM104.479 9.43786H104.979V8.93786H104.479V9.43786ZM104.479 38.2779H103.979V38.7779H104.479V38.2779ZM113.759 38.2779H114.259V37.7779H113.759V38.2779ZM113.759 39.4379V39.9379H114.259V39.4379H113.759ZM103.159 39.4379H102.659V39.9379H103.159V39.4379ZM103.159 9.43786V8.93786H102.659V9.43786H103.159ZM103.979 9.43786V38.2779H104.979V9.43786H103.979ZM104.479 38.7779H113.759V37.7779H104.479V38.7779ZM113.259 38.2779V39.4379H114.259V38.2779H113.259ZM113.759 38.9379H103.159V39.9379H113.759V38.9379ZM103.659 39.4379V9.43786H102.659V39.4379H103.659ZM103.159 9.93786H104.479V8.93786H103.159V9.93786ZM130.733 8.71787L131.182 8.49848L130.732 7.57709L130.283 8.49895L130.733 8.71787ZM145.733 39.4379V39.9379H146.533L146.182 39.2185L145.733 39.4379ZM144.333 39.4379L143.885 39.6602L144.023 39.9379H144.333V39.4379ZM138.653 27.9979L139.101 27.7755L138.963 27.4979H138.653V27.9979ZM122.613 27.9979V27.4979H122.301L122.164 27.778L122.613 27.9979ZM117.013 39.4379V39.9379H117.325L117.462 39.6577L117.013 39.4379ZM115.773 39.4379L115.323 39.219L114.973 39.9379H115.773V39.4379ZM130.613 11.4779L131.061 11.2571L130.61 10.3408L130.163 11.259L130.613 11.4779ZM123.133 26.8379L122.683 26.619L122.333 27.3379H123.133V26.8379ZM138.173 26.8379V27.3379H138.976L138.621 26.6171L138.173 26.8379ZM130.284 8.93725L145.284 39.6573L146.182 39.2185L131.182 8.49848L130.284 8.93725ZM145.733 38.9379H144.333V39.9379H145.733V38.9379ZM144.781 39.2155L139.101 27.7755L138.205 28.2202L143.885 39.6602L144.781 39.2155ZM138.653 27.4979H122.613V28.4979H138.653V27.4979ZM122.164 27.778L116.564 39.218L117.462 39.6577L123.062 28.2177L122.164 27.778ZM117.013 38.9379H115.773V39.9379H117.013V38.9379ZM116.222 39.6568L131.182 8.93678L130.283 8.49895L115.323 39.219L116.222 39.6568ZM130.163 11.259L122.683 26.619L123.582 27.0568L131.062 11.6968L130.163 11.259ZM123.133 27.3379H138.173V26.3379H123.133V27.3379ZM138.621 26.6171L131.061 11.2571L130.164 11.6987L137.724 27.0587L138.621 26.6171ZM161.997 13.6779L161.558 13.918L162.497 13.6779H161.997ZM159.477 11.0379L159.215 11.4637L159.219 11.4666L159.477 11.0379ZM152.597 11.3179L152.927 11.6928L152.928 11.6922L152.597 11.3179ZM154.037 19.4379L153.738 19.8392L153.741 19.8411L154.037 19.4379ZM156.717 21.1979L156.461 21.6276L156.468 21.6317L156.475 21.6355L156.717 21.1979ZM159.717 23.0379L159.437 23.4522L159.443 23.4565L159.45 23.4606L159.717 23.0379ZM162.437 25.1179L162.095 25.4834L162.102 25.4893L162.108 25.4949L162.437 25.1179ZM164.437 27.7979L163.985 28.0124L163.989 28.0215L164.437 27.7979ZM162.637 37.7579L162.31 37.3791L162.307 37.3816L162.637 37.7579ZM148.517 35.8779H148.017V36.0299L148.101 36.1561L148.517 35.8779ZM148.517 33.7179L148.972 33.5104L148.017 33.7179H148.517ZM151.557 37.4379L151.264 37.8437L151.274 37.8501L151.557 37.4379ZM161.797 36.9179L162.125 37.2946L162.125 37.2946L161.797 36.9179ZM162.957 27.9179L162.531 28.1811L162.534 28.1856L162.957 27.9179ZM160.357 25.1979L160.072 25.609L160.079 25.6139L160.357 25.1979ZM156.957 22.9579L157.223 22.5349L157.223 22.5349L156.957 22.9579ZM150.957 18.2779L151.369 17.9955L151.369 17.9955L150.957 18.2779ZM161.997 11.6379H162.497V11.4635L162.388 11.3269L161.997 11.6379ZM162.435 13.4377C161.78 12.242 160.879 11.296 159.734 10.6091L159.219 11.4666C160.208 12.0597 160.986 12.8737 161.558 13.918L162.435 13.4377ZM159.739 10.612C158.614 9.92012 157.349 9.57787 155.957 9.57787V10.5779C157.178 10.5779 158.259 10.8756 159.215 11.4637L159.739 10.612ZM155.957 9.57787C154.534 9.57787 153.295 10.0318 152.265 10.9436L152.928 11.6922C153.765 10.9506 154.766 10.5779 155.957 10.5779V9.57787ZM152.266 10.9429C151.233 11.8542 150.737 13.1078 150.737 14.6379H151.737C151.737 13.3413 152.147 12.3815 152.927 11.6928L152.266 10.9429ZM150.737 14.6379V14.8379H151.737V14.6379H150.737ZM150.737 14.8379C150.737 16.7315 151.797 18.3971 153.738 19.8392L154.335 19.0365C152.543 17.7053 151.737 16.3043 151.737 14.8379H150.737ZM153.741 19.8411C154.556 20.4386 155.463 21.034 156.461 21.6276L156.972 20.7681C155.997 20.1884 155.118 19.6105 154.332 19.0347L153.741 19.8411ZM156.475 21.6355C157.475 22.1881 158.462 22.7936 159.437 23.4522L159.997 22.6236C158.998 21.9488 157.985 21.3276 156.958 20.7602L156.475 21.6355ZM159.45 23.4606C160.439 24.0855 161.32 24.76 162.095 25.4834L162.778 24.7523C161.953 23.9824 161.021 23.2703 159.984 22.6151L159.45 23.4606ZM162.108 25.4949C162.879 26.1664 163.505 27.0029 163.985 28.0124L164.888 27.5833C164.354 26.4595 163.647 25.5094 162.765 24.7408L162.108 25.4949ZM163.989 28.0215C164.486 29.0137 164.737 30.1097 164.737 31.3179H165.737C165.737 29.9661 165.454 28.7154 164.884 27.5743L163.989 28.0215ZM164.737 31.3179V31.7179H165.737V31.3179H164.737ZM164.737 31.7179C164.737 34.1232 163.921 35.9916 162.31 37.3791L162.963 38.1367C164.819 36.5375 165.737 34.3792 165.737 31.7179H164.737ZM162.307 37.3816C160.703 38.7857 158.704 39.4979 156.277 39.4979V40.4979C158.916 40.4979 161.157 39.7167 162.966 38.1342L162.307 37.3816ZM156.277 39.4979C153.108 39.4979 150.678 38.2063 148.932 35.5996L148.101 36.1561C150.035 39.0428 152.778 40.4979 156.277 40.4979V39.4979ZM149.017 35.8779V33.7179H148.017V35.8779H149.017ZM148.062 33.9254C148.791 35.5231 149.859 36.8319 151.264 37.8436L151.849 37.0321C150.587 36.1238 149.629 34.9526 148.972 33.5104L148.062 33.9254ZM151.274 37.8501C152.733 38.8518 154.517 39.3379 156.597 39.3379V38.3379C154.676 38.3379 153.1 37.8906 151.84 37.0256L151.274 37.8501ZM156.597 39.3379C158.714 39.3379 160.565 38.6564 162.125 37.2946L161.468 36.5412C160.095 37.7393 158.479 38.3379 156.597 38.3379V39.3379ZM162.125 37.2946C163.712 35.9098 164.497 34.06 164.497 31.7979H163.497C163.497 33.8024 162.815 35.3659 161.468 36.5412L162.125 37.2946ZM164.497 31.7979V31.5579H163.497V31.7979H164.497ZM164.497 31.5579C164.497 30.1327 164.125 28.826 163.379 27.6501L162.534 28.1856C163.175 29.1964 163.497 30.3164 163.497 31.5579H164.497ZM163.382 27.6547C162.653 26.4771 161.737 25.5171 160.634 24.7818L160.079 25.6139C161.056 26.2653 161.874 27.1186 162.531 28.181L163.382 27.6547ZM160.641 24.7868C159.595 24.0621 158.455 23.3115 157.223 22.5349L156.69 23.3808C157.911 24.1509 159.039 24.8936 160.072 25.609L160.641 24.7868ZM157.223 22.5349C155.997 21.7621 154.865 21.0428 153.826 20.3769L153.287 21.2188C154.328 21.8863 155.462 22.6069 156.69 23.3808L157.223 22.5349ZM153.826 20.3769C152.843 19.7462 152.025 18.9532 151.369 17.9955L150.544 18.5602C151.275 19.6292 152.191 20.5162 153.287 21.2188L153.826 20.3769ZM151.369 17.9955C150.731 17.0633 150.417 16.0546 150.417 14.9579H149.417C149.417 16.2611 149.795 17.4658 150.544 18.5602L151.369 17.9955ZM150.417 14.9579V14.6779H149.417V14.9579H150.417ZM150.417 14.6779C150.417 12.9274 150.973 11.6565 152.034 10.7841L151.399 10.0117C150.06 11.1126 149.417 12.695 149.417 14.6779H150.417ZM152.034 10.7841C153.133 9.88071 154.496 9.41787 156.157 9.41787V8.41787C154.297 8.41787 152.7 8.94169 151.399 10.0117L152.034 10.7841ZM156.157 9.41787C158.468 9.41787 160.266 10.2629 161.605 11.9488L162.388 11.3269C160.847 9.38618 158.752 8.41787 156.157 8.41787V9.41787ZM161.497 11.6379V13.6779H162.497V11.6379H161.497ZM195.103 27.9979H194.603V28.4979H195.103V27.9979ZM195.103 26.8379V26.3379H194.603V26.8379H195.103ZM206.343 26.8379H206.843V26.3379H206.343V26.8379ZM206.343 37.6779L206.608 38.1019L206.843 37.955V37.6779H206.343ZM190.303 37.7179L190.562 37.2904L190.562 37.2904L190.303 37.7179ZM184.663 31.9979L184.228 32.2444L184.231 32.2501L184.663 31.9979ZM187.223 13.4379L187.575 13.793L187.576 13.7914L187.223 13.4379ZM206.343 11.0779H206.843V10.7907L206.595 10.646L206.343 11.0779ZM206.343 12.5579L206.061 12.9712L206.843 13.5032V12.5579H206.343ZM188.143 14.2379L188.496 14.5914L188.498 14.5897L188.143 14.2379ZM188.143 34.4779L188.498 34.126L188.498 34.126L188.143 34.4779ZM205.023 37.0379L205.238 37.4891L205.523 37.3533V37.0379H205.023ZM205.023 27.9979H205.523V27.4979H205.023V27.9979ZM195.603 27.9979V26.8379H194.603V27.9979H195.603ZM195.103 27.3379H206.343V26.3379H195.103V27.3379ZM205.843 26.8379V37.6779H206.843V26.8379H205.843ZM206.078 37.2539C203.816 38.6678 201.268 39.3779 198.423 39.3779V40.3779C201.444 40.3779 204.177 39.6212 206.608 38.1019L206.078 37.2539ZM198.423 39.3779H197.983V40.3779H198.423V39.3779ZM197.983 39.3779C195.329 39.3779 192.858 38.6835 190.562 37.2904L190.044 38.1453C192.494 39.6322 195.144 40.3779 197.983 40.3779V39.3779ZM190.562 37.2904C188.259 35.8931 186.439 34.0464 185.095 31.7456L184.231 32.2501C185.66 34.696 187.6 36.6626 190.044 38.1453L190.562 37.2904ZM185.098 31.7514C183.779 29.4246 183.123 26.9626 183.123 24.3579H182.123C182.123 27.1398 182.826 29.7711 184.228 32.2444L185.098 31.7514ZM183.123 24.3579C183.123 20.254 184.601 16.741 187.575 13.793L186.871 13.0828C183.711 16.2147 182.123 19.9818 182.123 24.3579H183.123ZM187.576 13.7914C190.551 10.8168 194.091 9.33786 198.223 9.33786V8.33786C193.821 8.33786 190.028 9.92561 186.869 13.0843L187.576 13.7914ZM198.223 9.33786C200.984 9.33786 203.604 10.0592 206.091 11.5098L206.595 10.646C203.961 9.10984 201.168 8.33786 198.223 8.33786V9.33786ZM205.843 11.0779V12.5579H206.843V11.0779H205.843ZM206.624 12.1446C204.038 10.384 201.234 9.49786 198.223 9.49786V10.4979C201.025 10.4979 203.634 11.3184 206.061 12.9712L206.624 12.1446ZM198.223 9.49786C194.167 9.49786 190.68 10.9661 187.788 13.886L188.498 14.5897C191.206 11.8563 194.439 10.4979 198.223 10.4979V9.49786ZM187.789 13.8843C184.896 16.7777 183.443 20.2781 183.443 24.3579H184.443C184.443 20.5443 185.79 17.298 188.496 14.5914L187.789 13.8843ZM183.443 24.3579C183.443 28.4118 184.896 31.911 187.788 34.8297L188.498 34.126C185.789 31.3914 184.443 28.1439 184.443 24.3579H183.443ZM187.788 34.8297C190.68 37.7496 194.167 39.2179 198.223 39.2179V38.2179C194.439 38.2179 191.206 36.8595 188.498 34.126L187.788 34.8297ZM198.223 39.2179C200.497 39.2179 202.837 38.6352 205.238 37.4891L204.808 36.5866C202.516 37.6805 200.322 38.2179 198.223 38.2179V39.2179ZM205.523 37.0379V27.9979H204.523V37.0379H205.523ZM205.023 27.4979H195.103V28.4979H205.023V27.4979ZM214.877 35.2779L214.518 35.6252L214.519 35.6268L214.877 35.2779ZM214.957 13.5179L215.309 13.873L215.311 13.8714L214.957 13.5179ZM236.997 13.4779L237.351 13.1243L237.351 13.1243L236.997 13.4779ZM237.037 35.3179L237.395 35.6668L237.397 35.6652L237.037 35.3179ZM236.037 14.3179L235.68 14.6681L235.684 14.6714L236.037 14.3179ZM215.877 14.3179L216.231 14.6714L216.232 14.6697L215.877 14.3179ZM215.877 34.5579L216.232 34.206L216.232 34.206L215.877 34.5579ZM236.037 34.5579L235.682 34.206L236.037 34.5579ZM225.637 39.4579C221.647 39.4579 218.187 37.9582 215.235 34.9289L214.519 35.6268C217.648 38.8376 221.361 40.4579 225.637 40.4579V39.4579ZM215.237 34.9305C212.309 31.8993 210.857 28.3823 210.857 24.3579H209.857C209.857 28.6535 211.418 32.4164 214.518 35.6252L215.237 34.9305ZM210.857 24.3579C210.857 20.3092 212.334 16.8224 215.309 13.873L214.605 13.1628C211.447 16.2934 209.857 20.0332 209.857 24.3579H210.857ZM215.311 13.8714C218.285 10.8975 221.838 9.41787 225.997 9.41787V8.41787C221.57 8.41787 217.763 10.0049 214.604 13.1643L215.311 13.8714ZM225.997 9.41787C230.158 9.41787 233.697 10.885 236.644 13.8314L237.351 13.1243C234.217 9.99069 230.423 8.41787 225.997 8.41787V9.41787ZM236.644 13.8314C239.592 16.7798 241.057 20.2801 241.057 24.3579H242.057C242.057 20.0089 240.482 16.2559 237.351 13.1243L236.644 13.8314ZM241.057 24.3579C241.057 28.4098 239.605 31.94 236.678 34.9705L237.397 35.6652C240.497 32.4557 242.057 28.6792 242.057 24.3579H241.057ZM236.679 34.969C233.757 37.9691 230.284 39.4579 226.237 39.4579V40.4579C230.563 40.4579 234.291 38.8533 237.395 35.6668L236.679 34.969ZM226.237 39.4579H225.637V40.4579H226.237V39.4579ZM240.737 24.4379C240.737 20.3581 239.284 16.8577 236.391 13.9643L235.684 14.6714C238.39 17.378 239.737 20.6243 239.737 24.4379H240.737ZM236.394 13.9677C233.527 11.0456 230.039 9.57787 225.957 9.57787V10.5779C229.769 10.5779 233.001 11.9368 235.68 14.668L236.394 13.9677ZM225.957 9.57787C221.902 9.57787 218.414 11.0461 215.522 13.966L216.232 14.6697C218.94 11.9363 222.173 10.5779 225.957 10.5779V9.57787ZM215.524 13.9643C212.63 16.8577 211.177 20.3581 211.177 24.4379H212.177C212.177 20.6243 213.524 17.378 216.231 14.6714L215.524 13.9643ZM211.177 24.4379C211.177 28.4918 212.631 31.991 215.522 34.9097L216.232 34.206C213.524 31.4714 212.177 28.2239 212.177 24.4379H211.177ZM215.522 34.9097C218.414 37.8296 221.902 39.2979 225.957 39.2979V38.2979C222.173 38.2979 218.94 36.9395 216.232 34.206L215.522 34.9097ZM225.957 39.2979C230.013 39.2979 233.5 37.8296 236.392 34.9097L235.682 34.206C232.974 36.9395 229.742 38.2979 225.957 38.2979V39.2979ZM236.392 34.9097C239.284 31.991 240.737 28.4918 240.737 24.4379H239.737C239.737 28.2239 238.391 31.4714 235.682 34.206L236.392 34.9097ZM246.362 9.43786V8.93786H245.862V9.43786H246.362ZM258.482 13.8779L258.115 14.218L258.117 14.2196L258.482 13.8779ZM258.482 35.0379L258.117 34.6961L258.115 34.6979L258.482 35.0379ZM246.362 39.4379H245.862V39.9379H246.362V39.4379ZM247.642 10.6379V10.1379H247.142V10.6379H247.642ZM247.642 38.1979H247.142V38.6979H247.642V38.1979ZM257.522 34.1579L257.156 33.8172L257.154 33.8192L257.522 34.1579ZM257.522 14.7179L257.152 15.0547L257.154 15.0567L257.522 14.7179ZM246.362 9.93786H247.642V8.93786H246.362V9.93786ZM247.642 9.93786C252 9.93786 255.474 11.3717 258.115 14.218L258.848 13.5378C255.996 10.4641 252.244 8.93786 247.642 8.93786V9.93786ZM258.117 14.2196C260.774 17.0574 262.102 20.4674 262.102 24.4779H263.102C263.102 20.2216 261.683 16.565 258.847 13.5361L258.117 14.2196ZM262.102 24.4779C262.102 28.4607 260.775 31.8577 258.117 34.6961L258.847 35.3796C261.682 32.3514 263.102 28.7084 263.102 24.4779H262.102ZM258.115 34.6979C255.502 37.5158 252.029 38.9379 247.642 38.9379V39.9379C252.268 39.9379 256.021 38.4266 258.849 35.3778L258.115 34.6979ZM247.642 38.9379H246.362V39.9379H247.642V38.9379ZM246.862 39.4379V9.43786H245.862V39.4379H246.862ZM247.962 10.1379H247.642V11.1379H247.962V10.1379ZM247.142 10.6379V38.1979H248.142V10.6379H247.142ZM247.642 38.6979H247.962V37.6979H247.642V38.6979ZM247.962 38.6979C251.985 38.6979 255.309 37.2998 257.89 34.4966L257.154 33.8192C254.775 36.4026 251.725 37.6979 247.962 37.6979V38.6979ZM257.888 34.4985C260.483 31.7104 261.782 28.3612 261.782 24.4779H260.782C260.782 28.1145 259.574 31.2186 257.156 33.8172L257.888 34.4985ZM261.782 24.4779C261.782 20.5689 260.484 17.1937 257.89 14.379L257.154 15.0567C259.574 17.682 260.782 20.8135 260.782 24.4779H261.782ZM257.891 14.381C255.311 11.5505 251.987 10.1379 247.962 10.1379V11.1379C251.724 11.1379 254.773 12.4452 257.152 15.0547L257.891 14.381ZM267.617 9.43786V8.93786H267.117V9.43786H267.617ZM268.937 9.43786H269.437V8.93786H268.937V9.43786ZM268.937 39.4379V39.9379H269.437V39.4379H268.937ZM267.617 39.4379H267.117V39.9379H267.617V39.4379ZM267.617 9.93786H268.937V8.93786H267.617V9.93786ZM268.437 9.43786V39.4379H269.437V9.43786H268.437ZM268.937 38.9379H267.617V39.9379H268.937V38.9379ZM268.117 39.4379V9.43786H267.117V39.4379H268.117ZM297.231 9.43786V8.93786H296.731V9.43786H297.231ZM298.391 9.43786H298.891V8.93786H298.391V9.43786ZM298.391 39.8779L298.003 40.1933L298.891 41.2855V39.8779H298.391ZM276.311 12.7179L276.699 12.4025L275.811 11.3102V12.7179H276.311ZM276.311 39.4379V39.9379H276.811V39.4379H276.311ZM275.151 39.4379H274.651V39.9379H275.151V39.4379ZM275.151 8.99786L275.539 8.68218L274.651 7.5918V8.99786H275.151ZM297.231 36.1179L296.843 36.4335L297.731 37.5239V36.1179H297.231ZM297.231 9.93786H298.391V8.93786H297.231V9.93786ZM297.891 9.43786V39.8779H298.891V9.43786H297.891ZM298.779 39.5625L276.699 12.4025L275.923 13.0333L298.003 40.1933L298.779 39.5625ZM275.811 12.7179V39.4379H276.811V12.7179H275.811ZM276.311 38.9379H275.151V39.9379H276.311V38.9379ZM275.651 39.4379V8.99786H274.651V39.4379H275.651ZM274.763 9.31355L296.843 36.4335L297.619 35.8022L275.539 8.68218L274.763 9.31355ZM297.731 36.1179V9.43786H296.731V36.1179H297.731ZM304.409 9.43786V8.93786H303.909V9.43786H304.409ZM315.169 9.43786H315.669V8.93786H315.169V9.43786ZM315.169 10.5979V11.0979H315.669V10.5979H315.169ZM305.729 10.5979V10.0979H305.229V10.5979H305.729ZM305.729 26.9179H305.229V27.4179H305.729V26.9179ZM313.609 26.9179H314.109V26.4179H313.609V26.9179ZM313.609 28.0779V28.5779H314.109V28.0779H313.609ZM305.729 28.0779V27.5779H305.229V28.0779H305.729ZM305.729 38.2779H305.229V38.7779H305.729V38.2779ZM315.169 38.2779H315.669V37.7779H315.169V38.2779ZM315.169 39.4379V39.9379H315.669V39.4379H315.169ZM304.409 39.4379H303.909V39.9379H304.409V39.4379ZM304.409 9.93786H315.169V8.93786H304.409V9.93786ZM314.669 9.43786V10.5979H315.669V9.43786H314.669ZM315.169 10.0979H305.729V11.0979H315.169V10.0979ZM305.229 10.5979V26.9179H306.229V10.5979H305.229ZM305.729 27.4179H313.609V26.4179H305.729V27.4179ZM313.109 26.9179V28.0779H314.109V26.9179H313.109ZM313.609 27.5779H305.729V28.5779H313.609V27.5779ZM305.229 28.0779V38.2779H306.229V28.0779H305.229ZM305.729 38.7779H315.169V37.7779H305.729V38.7779ZM314.669 38.2779V39.4379H315.669V38.2779H314.669ZM315.169 38.9379H304.409V39.9379H315.169V38.9379ZM304.909 39.4379V9.43786H303.909V39.4379H304.909ZM332.334 8.71787L332.784 8.49848L332.334 7.57709L331.885 8.49895L332.334 8.71787ZM347.334 39.4379V39.9379H348.135L347.784 39.2185L347.334 39.4379ZM345.934 39.4379L345.487 39.6602L345.624 39.9379H345.934V39.4379ZM340.254 27.9979L340.702 27.7755L340.564 27.4979H340.254V27.9979ZM324.214 27.9979V27.4979H323.903L323.765 27.778L324.214 27.9979ZM318.614 39.4379V39.9379H318.926L319.064 39.6577L318.614 39.4379ZM317.374 39.4379L316.925 39.219L316.575 39.9379H317.374V39.4379ZM332.214 11.4779L332.663 11.2571L332.212 10.3408L331.765 11.259L332.214 11.4779ZM324.734 26.8379L324.285 26.619L323.935 27.3379H324.734V26.8379ZM339.774 26.8379V27.3379H340.578L340.223 26.6171L339.774 26.8379ZM331.885 8.93725L346.885 39.6573L347.784 39.2185L332.784 8.49848L331.885 8.93725ZM347.334 38.9379H345.934V39.9379H347.334V38.9379ZM346.382 39.2155L340.702 27.7755L339.807 28.2202L345.487 39.6602L346.382 39.2155ZM340.254 27.4979H324.214V28.4979H340.254V27.4979ZM323.765 27.778L318.165 39.218L319.064 39.6577L324.664 28.2177L323.765 27.778ZM318.614 38.9379H317.374V39.9379H318.614V38.9379ZM317.824 39.6568L332.784 8.93678L331.885 8.49895L316.925 39.219L317.824 39.6568ZM331.765 11.259L324.285 26.619L325.184 27.0568L332.664 11.6968L331.765 11.259ZM324.734 27.3379H339.774V26.3379H324.734V27.3379ZM340.223 26.6171L332.663 11.2571L331.766 11.6987L339.326 27.0587L340.223 26.6171ZM351.89 37.4379L351.533 37.7886L351.536 37.7914L351.89 37.4379ZM349.37 9.43786V8.93786H348.87V9.43786H349.37ZM350.69 9.43786H351.19V8.93786H350.69V9.43786ZM352.89 36.5979L352.533 36.9482L352.533 36.9482L352.89 36.5979ZM363.73 36.6379L363.373 36.2875L363.373 36.2876L363.73 36.6379ZM365.93 9.43786V8.93786H365.43V9.43786H365.93ZM367.25 9.43786H367.75V8.93786H367.25V9.43786ZM364.69 37.4379L364.333 37.0871L364.333 37.0871L364.69 37.4379ZM358.53 39.4979H358.13V40.4979H358.53V39.4979ZM358.13 39.4979C355.807 39.4979 353.854 38.6955 352.243 37.0843L351.536 37.7914C353.338 39.5936 355.546 40.4979 358.13 40.4979V39.4979ZM352.246 37.0871C350.666 35.4819 349.87 33.4649 349.87 30.9979H348.87C348.87 33.7042 349.754 35.9805 351.533 37.7886L352.246 37.0871ZM349.87 30.9979V9.43786H348.87V30.9979H349.87ZM349.37 9.93786H350.69V8.93786H349.37V9.93786ZM350.19 9.43786V30.9579H351.19V9.43786H350.19ZM350.19 30.9579C350.19 33.3436 350.966 35.3532 352.533 36.9482L353.246 36.2475C351.88 34.8559 351.19 33.1054 351.19 30.9579H350.19ZM352.533 36.9482C354.097 38.5407 356.04 39.3379 358.33 39.3379V38.3379C356.299 38.3379 354.616 37.6417 353.246 36.2475L352.533 36.9482ZM358.33 39.3379C360.616 39.3379 362.547 38.5559 364.087 36.9882L363.373 36.2876C362.032 37.6532 360.363 38.3379 358.33 38.3379V39.3379ZM364.086 36.9882C365.654 35.392 366.43 33.3685 366.43 30.9579H365.43C365.43 33.1339 364.739 34.897 363.373 36.2875L364.086 36.9882ZM366.43 30.9579V9.43786H365.43V30.9579H366.43ZM365.93 9.93786H367.25V8.93786H365.93V9.93786ZM366.75 9.43786V30.9179H367.75V9.43786H366.75ZM366.75 30.9179C366.75 33.4107 365.941 35.4547 364.333 37.0871L365.046 37.7887C366.852 35.9544 367.75 33.6517 367.75 30.9179H366.75ZM364.333 37.0871C362.749 38.6969 360.824 39.4979 358.53 39.4979V40.4979C361.088 40.4979 363.271 39.5922 365.046 37.7886L364.333 37.0871Z" fill="black"/>
<path d="M86.446 18.3378L90.3559 24.4588L86.446 30.5775H78.6236L74.7111 24.4588L78.6236 18.3378H86.446Z" fill="black"/>
<line x1="71.6014" y1="18.0605" x2="86.4525" y2="18.0605" stroke="black" stroke-width="0.6"/>
<line y1="-0.3" x2="14.5711" y2="-0.3" transform="matrix(0.540103 0.841599 -0.885615 0.46442 82.486 12.2173)" stroke="black" stroke-width="0.6"/>
<line y1="-0.3" x2="14.5711" y2="-0.3" transform="matrix(0.540103 -0.841599 0.854301 0.519779 71.1841 30.6036)" stroke="black" stroke-width="0.6"/>
<line y1="-0.3" x2="14.5694" y2="-0.3" transform="matrix(-0.535907 0.844277 -0.822206 -0.569191 94.2604 18.2345)" stroke="black" stroke-width="0.6"/>
<line y1="-0.3" x2="14.851" y2="-0.3" transform="matrix(-0.999984 0.00573688 -0.00605116 -0.999982 93.5022 30.4925)" stroke="black" stroke-width="0.6"/>
<line y1="-0.3" x2="14.5732" y2="-0.3" transform="matrix(-0.545108 -0.838366 0.882904 -0.469554 82.6551 36.698)" stroke="black" stroke-width="0.6"/>
<path d="M97.7668 24.4576C97.7668 32.6319 91.0382 39.2711 82.7223 39.2711C74.4063 39.2711 67.6777 32.6319 67.6777 24.4576C67.6777 16.2834 74.4063 9.6442 82.7223 9.6442C91.0382 9.6442 97.7668 16.2834 97.7668 24.4576Z" stroke="black"/>
</svg>
