<svg width="371" height="95" viewBox="0 0 371 95" fill="none" xmlns="http://www.w3.org/2000/svg">
<rect x="0.330322" y="47.4379" width="370" height="47" fill="white"/>
<path d="M54.1399 56.4379H55.4599C58.2333 56.4379 60.5933 57.3979 62.5399 59.3179C64.4866 61.2112 65.4599 63.4512 65.4599 66.0379C65.4599 68.6245 64.4466 70.8512 62.4199 72.7179C60.4199 74.5845 58.2066 75.5179 55.7799 75.5179H55.4599V86.4379H54.1399V56.4379ZM55.4599 74.3979H55.7799C58.0199 74.3979 59.9666 73.5712 61.6199 71.9179C63.2999 70.2645 64.1399 68.3045 64.1399 66.0379C64.1399 63.7712 63.2866 61.7979 61.5799 60.1179C59.8999 58.4379 57.9666 57.5979 55.7799 57.5979H55.4599V74.3979ZM91.6459 56.4379H92.9659V86.4379H91.6459V74.9979H71.0859V86.4379H69.7659V56.4379H71.0859V73.8379H91.6459V56.4379ZM113.065 86.9579C108.931 86.9579 105.345 85.3979 102.305 82.2779C99.2913 79.1579 97.7846 75.5179 97.7846 71.3579C97.7846 67.1712 99.318 63.5579 102.385 60.5179C105.451 57.4512 109.131 55.9179 113.425 55.9179C117.718 55.9179 121.385 57.4379 124.425 60.4779C127.465 63.5179 128.985 67.1445 128.985 71.3579C128.985 75.5445 127.478 79.1979 124.465 82.3179C121.451 85.4112 117.851 86.9579 113.665 86.9579H113.065ZM127.665 71.4379C127.665 67.4912 126.265 64.1179 123.465 61.3179C120.691 58.4912 117.331 57.0779 113.385 57.0779C109.465 57.0779 106.105 58.4912 103.305 61.3179C100.505 64.1179 99.1046 67.4912 99.1046 71.4379C99.1046 75.3579 100.505 78.7312 103.305 81.5579C106.105 84.3845 109.465 85.7979 113.385 85.7979C117.305 85.7979 120.665 84.3845 123.465 81.5579C126.265 78.7312 127.665 75.3579 127.665 71.4379ZM143.31 56.4379V57.5979H136.47V86.4379H135.15V57.5979H128.23V56.4379H143.31ZM157.987 86.9579C153.853 86.9579 150.267 85.3979 147.227 82.2779C144.213 79.1579 142.707 75.5179 142.707 71.3579C142.707 67.1712 144.24 63.5579 147.307 60.5179C150.373 57.4512 154.053 55.9179 158.347 55.9179C162.64 55.9179 166.307 57.4379 169.347 60.4779C172.387 63.5179 173.907 67.1445 173.907 71.3579C173.907 75.5445 172.4 79.1979 169.387 82.3179C166.373 85.4112 162.773 86.9579 158.587 86.9579H157.987ZM172.587 71.4379C172.587 67.4912 171.187 64.1179 168.387 61.3179C165.613 58.4912 162.253 57.0779 158.307 57.0779C154.387 57.0779 151.027 58.4912 148.227 61.3179C145.427 64.1179 144.027 67.4912 144.027 71.4379C144.027 75.3579 145.427 78.7312 148.227 81.5579C151.027 84.3845 154.387 85.7979 158.307 85.7979C162.227 85.7979 165.587 84.3845 168.387 81.5579C171.187 78.7312 172.587 75.3579 172.587 71.4379ZM189.991 74.9979V73.8379H201.231V84.6779C198.885 86.1445 196.245 86.8779 193.311 86.8779H192.871C190.125 86.8779 187.565 86.1579 185.191 84.7179C182.818 83.2779 180.938 81.3712 179.551 78.9979C178.191 76.5979 177.511 74.0512 177.511 71.3579C177.511 67.1179 179.045 63.4779 182.111 60.4379C185.178 57.3712 188.845 55.8379 193.111 55.8379C195.965 55.8379 198.671 56.5845 201.231 58.0779V59.5579C198.725 57.8512 196.018 56.9979 193.111 56.9979C189.191 56.9979 185.831 58.4112 183.031 61.2379C180.231 64.0379 178.831 67.4112 178.831 71.3579C178.831 75.2779 180.231 78.6512 183.031 81.4779C185.831 84.3045 189.191 85.7179 193.111 85.7179C195.298 85.7179 197.565 85.1579 199.911 84.0379V74.9979H189.991ZM206.446 56.4379H208.166C210.752 56.4379 213.019 57.3979 214.966 59.3179C216.939 61.2112 217.926 63.4512 217.926 66.0379C217.926 68.5979 216.926 70.8245 214.926 72.7179C212.926 74.6112 210.779 75.5579 208.486 75.5579H208.206L218.526 86.4379H216.806L207.726 76.9179V86.4379H206.446V56.4379ZM207.726 74.3979H208.446C210.606 74.3979 212.512 73.5712 214.166 71.9179C215.819 70.2645 216.646 68.3045 216.646 66.0379C216.646 63.7712 215.792 61.7979 214.086 60.1179C212.379 58.4379 210.432 57.5979 208.246 57.5979H207.726V74.3979ZM235.895 55.7179L250.895 86.4379H249.495L243.815 74.9979H227.775L222.175 86.4379H220.935L235.895 55.7179ZM235.775 58.4779L228.295 73.8379H243.335L235.775 58.4779ZM255.038 56.4379H256.358C259.132 56.4379 261.492 57.3979 263.438 59.3179C265.385 61.2112 266.358 63.4512 266.358 66.0379C266.358 68.6245 265.345 70.8512 263.318 72.7179C261.318 74.5845 259.105 75.5179 256.678 75.5179H256.358V86.4379H255.038V56.4379ZM256.358 74.3979H256.678C258.918 74.3979 260.865 73.5712 262.518 71.9179C264.198 70.2645 265.038 68.3045 265.038 66.0379C265.038 63.7712 264.185 61.7979 262.478 60.1179C260.798 58.4379 258.865 57.5979 256.678 57.5979H256.358V74.3979ZM292.544 56.4379H293.864V86.4379H292.544V74.9979H271.984V86.4379H270.664V56.4379H271.984V73.8379H292.544V56.4379ZM300.083 56.4379H301.403V86.4379H300.083V56.4379ZM307.617 56.4379H318.377V57.5979H308.937V73.9179H316.817V75.0779H308.937V85.2779H318.377V86.4379H307.617V56.4379Z" fill="black"/>
<path d="M54.1399 56.4379V55.8379H53.5399V56.4379H54.1399ZM62.5399 59.3179L62.1186 59.7451L62.1216 59.748L62.5399 59.3179ZM62.4199 72.7179L62.0135 72.2765L62.0106 72.2792L62.4199 72.7179ZM55.4599 75.5179V74.9179H54.8599V75.5179H55.4599ZM55.4599 86.4379V87.0379H56.0599V86.4379H55.4599ZM54.1399 86.4379H53.5399V87.0379H54.1399V86.4379ZM55.4599 74.3979H54.8599V74.9979H55.4599V74.3979ZM61.6199 71.9179L61.1991 71.4902L61.1957 71.4936L61.6199 71.9179ZM61.5799 60.1179L61.1557 60.5421L61.159 60.5455L61.5799 60.1179ZM55.4599 57.5979V56.9979H54.8599V57.5979H55.4599ZM54.1399 57.0379H55.4599V55.8379H54.1399V57.0379ZM55.4599 57.0379C58.0781 57.0379 60.286 57.9375 62.1186 59.745L62.9613 58.8907C60.9005 56.8582 58.3884 55.8379 55.4599 55.8379V57.0379ZM62.1216 59.748C63.9586 61.5346 64.8599 63.622 64.8599 66.0379H66.0599C66.0599 63.2804 65.0146 60.8878 62.9583 58.8877L62.1216 59.748ZM64.8599 66.0379C64.8599 68.4449 63.9258 70.5152 62.0135 72.2765L62.8264 73.1592C64.9674 71.1872 66.0599 68.8041 66.0599 66.0379H64.8599ZM62.0106 72.2792C60.1064 74.0565 58.035 74.9179 55.7799 74.9179V76.1179C58.3783 76.1179 60.7335 75.1126 62.8293 73.1565L62.0106 72.2792ZM55.7799 74.9179H55.4599V76.1179H55.7799V74.9179ZM54.8599 75.5179V86.4379H56.0599V75.5179H54.8599ZM55.4599 85.8379H54.1399V87.0379H55.4599V85.8379ZM54.7399 86.4379V56.4379H53.5399V86.4379H54.7399ZM55.4599 74.9979H55.7799V73.7979H55.4599V74.9979ZM55.7799 74.9979C58.1867 74.9979 60.2839 74.1025 62.0442 72.3421L61.1957 71.4936C59.6494 73.0399 57.8532 73.7979 55.7799 73.7979V74.9979ZM62.0408 72.3455C63.8303 70.5844 64.7399 68.4724 64.7399 66.0379H63.5399C63.5399 68.1367 62.7696 69.9446 61.1991 71.4902L62.0408 72.3455ZM64.7399 66.0379C64.7399 63.6006 63.8149 61.476 62.0009 59.6903L61.159 60.5455C62.7583 62.1198 63.5399 63.9418 63.5399 66.0379H64.7399ZM62.0042 59.6936C60.2224 57.9118 58.1403 56.9979 55.7799 56.9979V58.1979C57.7929 58.1979 59.5775 58.9639 61.1557 60.5421L62.0042 59.6936ZM55.7799 56.9979H55.4599V58.1979H55.7799V56.9979ZM54.8599 57.5979V74.3979H56.0599V57.5979H54.8599ZM91.6459 56.4379V55.8379H91.0459V56.4379H91.6459ZM92.9659 56.4379H93.5659V55.8379H92.9659V56.4379ZM92.9659 86.4379V87.0379H93.5659V86.4379H92.9659ZM91.6459 86.4379H91.0459V87.0379H91.6459V86.4379ZM91.6459 74.9979H92.2459V74.3979H91.6459V74.9979ZM71.0859 74.9979V74.3979H70.4859V74.9979H71.0859ZM71.0859 86.4379V87.0379H71.6859V86.4379H71.0859ZM69.7659 86.4379H69.1659V87.0379H69.7659V86.4379ZM69.7659 56.4379V55.8379H69.1659V56.4379H69.7659ZM71.0859 56.4379H71.6859V55.8379H71.0859V56.4379ZM71.0859 73.8379H70.4859V74.4379H71.0859V73.8379ZM91.6459 73.8379V74.4379H92.2459V73.8379H91.6459ZM91.6459 57.0379H92.9659V55.8379H91.6459V57.0379ZM92.3659 56.4379V86.4379H93.5659V56.4379H92.3659ZM92.9659 85.8379H91.6459V87.0379H92.9659V85.8379ZM92.2459 86.4379V74.9979H91.0459V86.4379H92.2459ZM91.6459 74.3979H71.0859V75.5979H91.6459V74.3979ZM70.4859 74.9979V86.4379H71.6859V74.9979H70.4859ZM71.0859 85.8379H69.7659V87.0379H71.0859V85.8379ZM70.3659 86.4379V56.4379H69.1659V86.4379H70.3659ZM69.7659 57.0379H71.0859V55.8379H69.7659V57.0379ZM70.4859 56.4379V73.8379H71.6859V56.4379H70.4859ZM71.0859 74.4379H91.6459V73.2379H71.0859V74.4379ZM92.2459 73.8379V56.4379H91.0459V73.8379H92.2459ZM102.305 82.2779L101.873 82.6947L101.875 82.6966L102.305 82.2779ZM102.385 60.5179L102.807 60.944L102.809 60.9421L102.385 60.5179ZM124.425 60.4779L124.849 60.0536L124.849 60.0536L124.425 60.4779ZM124.465 82.3179L124.894 82.7365L124.896 82.7347L124.465 82.3179ZM123.465 61.3179L123.036 61.7381L123.04 61.7421L123.465 61.3179ZM103.305 61.3179L103.729 61.7421L103.731 61.7401L103.305 61.3179ZM103.305 81.5579L103.731 81.1356L103.731 81.1356L103.305 81.5579ZM123.465 81.5579L123.038 81.1356L123.465 81.5579ZM113.065 86.3579C109.103 86.3579 105.668 84.8702 102.734 81.8591L101.875 82.6966C105.021 85.9255 108.76 87.5579 113.065 87.5579V86.3579ZM102.736 81.861C99.8258 78.8476 98.3846 75.3551 98.3846 71.3579H97.1846C97.1846 75.6806 98.7568 79.4681 101.873 82.6947L102.736 81.861ZM98.3846 71.3579C98.3846 67.3368 99.85 63.8753 102.807 60.944L101.962 60.0918C98.7859 63.2405 97.1846 67.0056 97.1846 71.3579H98.3846ZM102.809 60.9421C105.764 57.9867 109.292 56.5179 113.425 56.5179V55.3179C108.97 55.3179 105.138 56.9157 101.96 60.0936L102.809 60.9421ZM113.425 56.5179C117.559 56.5179 121.073 57.9745 124 60.9021L124.849 60.0536C121.697 56.9013 117.877 55.3179 113.425 55.3179V56.5179ZM124 60.9021C126.93 63.8322 128.385 67.3073 128.385 71.3579H129.585C129.585 66.9818 127.999 63.2036 124.849 60.0536L124 60.9021ZM128.385 71.3579C128.385 75.3829 126.943 78.8884 124.033 81.901L124.896 82.7347C128.013 79.5073 129.585 75.7062 129.585 71.3579H128.385ZM124.035 81.8992C121.13 84.8807 117.684 86.3579 113.665 86.3579V87.5579C118.019 87.5579 121.772 85.9417 124.894 82.7365L124.035 81.8992ZM113.665 86.3579H113.065V87.5579H113.665V86.3579ZM128.265 71.4379C128.265 67.3315 126.801 63.8057 123.889 60.8936L123.04 61.7421C125.728 64.43 127.065 67.6509 127.065 71.4379H128.265ZM123.893 60.8977C121.007 57.9564 117.493 56.4779 113.385 56.4779V57.6779C117.17 57.6779 120.375 59.026 123.036 61.7381L123.893 60.8977ZM113.385 56.4779C109.302 56.4779 105.789 57.9571 102.878 60.8956L103.731 61.7401C106.42 59.0253 109.627 57.6779 113.385 57.6779V56.4779ZM102.88 60.8936C99.9683 63.8057 98.5046 67.3315 98.5046 71.4379H99.7046C99.7046 67.6509 101.041 64.43 103.729 61.7421L102.88 60.8936ZM98.5046 71.4379C98.5046 75.5186 99.9689 79.043 102.878 81.9801L103.731 81.1356C101.04 78.4194 99.7046 75.1971 99.7046 71.4379H98.5046ZM102.878 81.9801C105.789 84.9186 109.302 86.3979 113.385 86.3979V85.1979C109.627 85.1979 106.42 83.8504 103.731 81.1356L102.878 81.9801ZM113.385 86.3979C117.467 86.3979 120.98 84.9186 123.891 81.9801L123.038 81.1356C120.349 83.8504 117.142 85.1979 113.385 85.1979V86.3979ZM123.891 81.9801C126.8 79.043 128.265 75.5186 128.265 71.4379H127.065C127.065 75.1971 125.729 78.4194 123.038 81.1356L123.891 81.9801ZM143.31 56.4379H143.91V55.8379H143.31V56.4379ZM143.31 57.5979V58.1979H143.91V57.5979H143.31ZM136.47 57.5979V56.9979H135.87V57.5979H136.47ZM136.47 86.4379V87.0379H137.07V86.4379H136.47ZM135.15 86.4379H134.55V87.0379H135.15V86.4379ZM135.15 57.5979H135.75V56.9979H135.15V57.5979ZM128.23 57.5979H127.63V58.1979H128.23V57.5979ZM128.23 56.4379V55.8379H127.63V56.4379H128.23ZM142.71 56.4379V57.5979H143.91V56.4379H142.71ZM143.31 56.9979H136.47V58.1979H143.31V56.9979ZM135.87 57.5979V86.4379H137.07V57.5979H135.87ZM136.47 85.8379H135.15V87.0379H136.47V85.8379ZM135.75 86.4379V57.5979H134.55V86.4379H135.75ZM135.15 56.9979H128.23V58.1979H135.15V56.9979ZM128.83 57.5979V56.4379H127.63V57.5979H128.83ZM128.23 57.0379H143.31V55.8379H128.23V57.0379ZM147.227 82.2779L146.795 82.6947L146.797 82.6966L147.227 82.2779ZM147.307 60.5179L147.729 60.944L147.731 60.9421L147.307 60.5179ZM169.347 60.4779L169.771 60.0536L169.771 60.0536L169.347 60.4779ZM169.387 82.3179L169.816 82.7365L169.818 82.7347L169.387 82.3179ZM168.387 61.3179L167.958 61.7381L167.962 61.7421L168.387 61.3179ZM148.227 61.3179L148.651 61.7421L148.653 61.7401L148.227 61.3179ZM148.227 81.5579L148.653 81.1356L148.653 81.1356L148.227 81.5579ZM168.387 81.5579L167.96 81.1356L168.387 81.5579ZM157.987 86.3579C154.024 86.3579 150.59 84.8702 147.656 81.8591L146.797 82.6966C149.943 85.9255 153.682 87.5579 157.987 87.5579V86.3579ZM147.658 81.861C144.748 78.8476 143.307 75.3551 143.307 71.3579H142.107C142.107 75.6806 143.679 79.4681 146.795 82.6947L147.658 81.861ZM143.307 71.3579C143.307 67.3368 144.772 63.8753 147.729 60.944L146.884 60.0918C143.708 63.2405 142.107 67.0056 142.107 71.3579H143.307ZM147.731 60.9421C150.686 57.9867 154.214 56.5179 158.347 56.5179V55.3179C153.892 55.3179 150.06 56.9157 146.882 60.0936L147.731 60.9421ZM158.347 56.5179C162.48 56.5179 165.995 57.9745 168.922 60.9021L169.771 60.0536C166.618 56.9013 162.799 55.3179 158.347 55.3179V56.5179ZM168.922 60.9021C171.852 63.8322 173.307 67.3073 173.307 71.3579H174.507C174.507 66.9818 172.921 63.2036 169.771 60.0536L168.922 60.9021ZM173.307 71.3579C173.307 75.3829 171.865 78.8884 168.955 81.901L169.818 82.7347C172.935 79.5073 174.507 75.7062 174.507 71.3579H173.307ZM168.957 81.8992C166.052 84.8807 162.606 86.3579 158.587 86.3579V87.5579C162.941 87.5579 166.694 85.9417 169.816 82.7365L168.957 81.8992ZM158.587 86.3579H157.987V87.5579H158.587V86.3579ZM173.187 71.4379C173.187 67.3315 171.723 63.8057 168.811 60.8936L167.962 61.7421C170.65 64.43 171.987 67.6509 171.987 71.4379H173.187ZM168.815 60.8977C165.929 57.9564 162.415 56.4779 158.307 56.4779V57.6779C162.091 57.6779 165.297 59.026 167.958 61.7381L168.815 60.8977ZM158.307 56.4779C154.224 56.4779 150.711 57.9571 147.8 60.8956L148.653 61.7401C151.342 59.0253 154.549 57.6779 158.307 57.6779V56.4779ZM147.802 60.8936C144.89 63.8057 143.427 67.3315 143.427 71.4379H144.627C144.627 67.6509 145.963 64.43 148.651 61.7421L147.802 60.8936ZM143.427 71.4379C143.427 75.5186 144.891 79.043 147.8 81.9801L148.653 81.1356C145.962 78.4194 144.627 75.1971 144.627 71.4379H143.427ZM147.8 81.9801C150.711 84.9186 154.224 86.3979 158.307 86.3979V85.1979C154.549 85.1979 151.342 83.8504 148.653 81.1356L147.8 81.9801ZM158.307 86.3979C162.389 86.3979 165.902 84.9186 168.813 81.9801L167.96 81.1356C165.271 83.8504 162.064 85.1979 158.307 85.1979V86.3979ZM168.813 81.9801C171.722 79.043 173.187 75.5186 173.187 71.4379H171.987C171.987 75.1971 170.651 78.4194 167.96 81.1356L168.813 81.9801ZM189.991 74.9979H189.391V75.5979H189.991V74.9979ZM189.991 73.8379V73.2379H189.391V73.8379H189.991ZM201.231 73.8379H201.831V73.2379H201.231V73.8379ZM201.231 84.6779L201.549 85.1867L201.831 85.0104V84.6779H201.231ZM185.191 84.7179L185.502 84.2049L185.502 84.2049L185.191 84.7179ZM179.551 78.9979L179.029 79.2937L179.033 79.3006L179.551 78.9979ZM182.111 60.4379L182.534 60.864L182.535 60.8621L182.111 60.4379ZM201.231 58.0779H201.831V57.7332L201.534 57.5596L201.231 58.0779ZM201.231 59.5579L200.894 60.0538L201.831 60.6922V59.5579H201.231ZM183.031 61.2379L183.455 61.6621L183.457 61.6601L183.031 61.2379ZM183.031 81.4779L183.457 81.0556L183.457 81.0556L183.031 81.4779ZM199.911 84.0379L200.17 84.5794L200.511 84.4163V84.0379H199.911ZM199.911 74.9979H200.511V74.3979H199.911V74.9979ZM190.591 74.9979V73.8379H189.391V74.9979H190.591ZM189.991 74.4379H201.231V73.2379H189.991V74.4379ZM200.631 73.8379V84.6779H201.831V73.8379H200.631ZM200.913 84.1691C198.668 85.5725 196.139 86.2779 193.311 86.2779V87.4779C196.35 87.4779 199.101 86.7166 201.549 85.1867L200.913 84.1691ZM193.311 86.2779H192.871V87.4779H193.311V86.2779ZM192.871 86.2779C190.236 86.2779 187.783 85.5886 185.502 84.2049L184.88 85.2308C187.346 86.7271 190.014 87.4779 192.871 87.4779V86.2779ZM185.502 84.2049C183.214 82.8162 181.405 80.9814 180.069 78.6952L179.033 79.3006C180.471 81.761 182.422 83.7396 184.88 85.2308L185.502 84.2049ZM180.073 78.7021C178.763 76.39 178.111 73.9449 178.111 71.3579H176.911C176.911 74.1575 177.619 76.8057 179.029 79.2937L180.073 78.7021ZM178.111 71.3579C178.111 67.2812 179.578 63.7936 182.534 60.864L181.689 60.0118C178.511 63.1621 176.911 66.9545 176.911 71.3579H178.111ZM182.535 60.8621C185.492 57.9059 189.007 56.4379 193.111 56.4379V55.2379C188.682 55.2379 184.864 56.8365 181.687 60.0136L182.535 60.8621ZM193.111 56.4379C195.854 56.4379 198.457 57.1542 200.929 58.5961L201.534 57.5596C198.885 56.0149 196.075 55.2379 193.111 55.2379V56.4379ZM200.631 58.0779V59.5579H201.831V58.0779H200.631ZM201.569 59.0619C198.967 57.2906 196.144 56.3979 193.111 56.3979V57.5979C195.892 57.5979 198.482 58.4118 200.894 60.0538L201.569 59.0619ZM193.111 56.3979C189.028 56.3979 185.516 57.8771 182.605 60.8156L183.457 61.6601C186.147 58.9453 189.354 57.5979 193.111 57.5979V56.3979ZM182.607 60.8136C179.695 63.7257 178.231 67.2515 178.231 71.3579H179.431C179.431 67.5709 180.768 64.35 183.455 61.6621L182.607 60.8136ZM178.231 71.3579C178.231 75.4386 179.696 78.963 182.605 81.9001L183.457 81.0556C180.767 78.3394 179.431 75.1171 179.431 71.3579H178.231ZM182.605 81.9001C185.516 84.8386 189.028 86.3179 193.111 86.3179V85.1179C189.354 85.1179 186.147 83.7704 183.457 81.0556L182.605 81.9001ZM193.111 86.3179C195.403 86.3179 197.757 85.7307 200.17 84.5794L199.653 83.4964C197.372 84.5851 195.193 85.1179 193.111 85.1179V86.3179ZM200.511 84.0379V74.9979H199.311V84.0379H200.511ZM199.911 74.3979H189.991V75.5979H199.911V74.3979ZM206.446 56.4379V55.8379H205.846V56.4379H206.446ZM214.966 59.3179L214.544 59.7451L214.55 59.7508L214.966 59.3179ZM214.926 72.7179L214.513 72.2821L214.513 72.2821L214.926 72.7179ZM208.206 75.5579V74.9579H206.809L207.77 75.9708L208.206 75.5579ZM218.526 86.4379V87.0379H219.922L218.961 86.025L218.526 86.4379ZM216.806 86.4379L216.371 86.852L216.549 87.0379H216.806V86.4379ZM207.726 76.9179L208.16 76.5038L207.126 75.4195V76.9179H207.726ZM207.726 86.4379V87.0379H208.326V86.4379H207.726ZM206.446 86.4379H205.846V87.0379H206.446V86.4379ZM207.726 74.3979H207.126V74.9979H207.726V74.3979ZM214.166 71.9179L214.59 72.3421L214.59 72.3421L214.166 71.9179ZM214.086 60.1179L214.506 59.6903L214.506 59.6903L214.086 60.1179ZM207.726 57.5979V56.9979H207.126V57.5979H207.726ZM206.446 57.0379H208.166V55.8379H206.446V57.0379ZM208.166 57.0379C210.585 57.0379 212.703 57.9288 214.544 59.745L215.387 58.8907C213.335 56.8669 210.92 55.8379 208.166 55.8379V57.0379ZM214.55 59.7508C216.413 61.5382 217.326 63.6248 217.326 66.0379H218.526C218.526 63.2776 217.465 60.8842 215.381 58.8849L214.55 59.7508ZM217.326 66.0379C217.326 68.4196 216.404 70.4925 214.513 72.2821L215.338 73.1536C217.448 71.1565 218.526 68.7761 218.526 66.0379H217.326ZM214.513 72.2821C212.601 74.0925 210.596 74.9579 208.486 74.9579V76.1579C210.962 76.1579 213.25 75.1299 215.338 73.1536L214.513 72.2821ZM208.486 74.9579H208.206V76.1579H208.486V74.9579ZM207.77 75.9708L218.09 86.8508L218.961 86.025L208.641 75.145L207.77 75.9708ZM218.526 85.8379H216.806V87.0379H218.526V85.8379ZM217.24 86.0238L208.16 76.5038L207.291 77.332L216.371 86.852L217.24 86.0238ZM207.126 76.9179V86.4379H208.326V76.9179H207.126ZM207.726 85.8379H206.446V87.0379H207.726V85.8379ZM207.046 86.4379V56.4379H205.846V86.4379H207.046ZM207.726 74.9979H208.446V73.7979H207.726V74.9979ZM208.446 74.9979C210.779 74.9979 212.834 74.0977 214.59 72.3421L213.741 71.4936C212.19 73.0447 210.433 73.7979 208.446 73.7979V74.9979ZM214.59 72.3421C216.352 70.5802 217.246 68.4692 217.246 66.0379H216.046C216.046 68.1399 215.286 69.9488 213.741 71.4936L214.59 72.3421ZM217.246 66.0379C217.246 63.6006 216.321 61.476 214.506 59.6903L213.665 60.5455C215.264 62.1198 216.046 63.9418 216.046 66.0379H217.246ZM214.506 59.6903C212.699 57.9113 210.605 56.9979 208.246 56.9979V58.1979C210.259 58.1979 212.059 58.9644 213.665 60.5455L214.506 59.6903ZM208.246 56.9979H207.726V58.1979H208.246V56.9979ZM207.126 57.5979V74.3979H208.326V57.5979H207.126ZM235.895 55.7179L236.434 55.4546L235.894 54.3489L235.355 55.4552L235.895 55.7179ZM250.895 86.4379V87.0379H251.855L251.434 86.1746L250.895 86.4379ZM249.495 86.4379L248.957 86.7047L249.123 87.0379H249.495V86.4379ZM243.815 74.9979L244.352 74.731L244.187 74.3979H243.815V74.9979ZM227.775 74.9979V74.3979H227.4L227.236 74.7341L227.775 74.9979ZM222.175 86.4379V87.0379H222.549L222.714 86.7017L222.175 86.4379ZM220.935 86.4379L220.395 86.1752L219.975 87.0379H220.935V86.4379ZM235.775 58.4779L236.313 58.2129L235.772 57.1133L235.235 58.2152L235.775 58.4779ZM228.295 73.8379L227.755 73.5752L227.335 74.4379H228.295V73.8379ZM243.335 73.8379V74.4379H244.299L243.873 73.5729L243.335 73.8379ZM235.355 55.9811L250.355 86.7011L251.434 86.1746L236.434 55.4546L235.355 55.9811ZM250.895 85.8379H249.495V87.0379H250.895V85.8379ZM250.032 86.171L244.352 74.731L243.277 75.2647L248.957 86.7047L250.032 86.171ZM243.815 74.3979H227.775V75.5979H243.815V74.3979ZM227.236 74.7341L221.636 86.1741L222.714 86.7017L228.314 75.2617L227.236 74.7341ZM222.175 85.8379H220.935V87.0379H222.175V85.8379ZM221.474 86.7006L236.434 55.9806L235.355 55.4552L220.395 86.1752L221.474 86.7006ZM235.235 58.2152L227.755 73.5752L228.834 74.1006L236.314 58.7406L235.235 58.2152ZM228.295 74.4379H243.335V73.2379H228.295V74.4379ZM243.873 73.5729L236.313 58.2129L235.236 58.7428L242.796 74.1028L243.873 73.5729ZM255.038 56.4379V55.8379H254.438V56.4379H255.038ZM263.438 59.3179L263.017 59.7451L263.02 59.748L263.438 59.3179ZM263.318 72.7179L262.912 72.2765L262.909 72.2792L263.318 72.7179ZM256.358 75.5179V74.9179H255.758V75.5179H256.358ZM256.358 86.4379V87.0379H256.958V86.4379H256.358ZM255.038 86.4379H254.438V87.0379H255.038V86.4379ZM256.358 74.3979H255.758V74.9979H256.358V74.3979ZM262.518 71.9179L262.098 71.4902L262.094 71.4936L262.518 71.9179ZM262.478 60.1179L262.054 60.5421L262.057 60.5455L262.478 60.1179ZM256.358 57.5979V56.9979H255.758V57.5979H256.358ZM255.038 57.0379H256.358V55.8379H255.038V57.0379ZM256.358 57.0379C258.977 57.0379 261.184 57.9375 263.017 59.745L263.86 58.8907C261.799 56.8582 259.287 55.8379 256.358 55.8379V57.0379ZM263.02 59.748C264.857 61.5346 265.758 63.622 265.758 66.0379H266.958C266.958 63.2804 265.913 60.8878 263.857 58.8877L263.02 59.748ZM265.758 66.0379C265.758 68.4449 264.824 70.5152 262.912 72.2765L263.725 73.1592C265.866 71.1872 266.958 68.8041 266.958 66.0379H265.758ZM262.909 72.2792C261.005 74.0565 258.933 74.9179 256.678 74.9179V76.1179C259.277 76.1179 261.632 75.1126 263.728 73.1565L262.909 72.2792ZM256.678 74.9179H256.358V76.1179H256.678V74.9179ZM255.758 75.5179V86.4379H256.958V75.5179H255.758ZM256.358 85.8379H255.038V87.0379H256.358V85.8379ZM255.638 86.4379V56.4379H254.438V86.4379H255.638ZM256.358 74.9979H256.678V73.7979H256.358V74.9979ZM256.678 74.9979C259.085 74.9979 261.182 74.1025 262.943 72.3421L262.094 71.4936C260.548 73.0399 258.752 73.7979 256.678 73.7979V74.9979ZM262.939 72.3455C264.729 70.5844 265.638 68.4724 265.638 66.0379H264.438C264.438 68.1367 263.668 69.9446 262.098 71.4902L262.939 72.3455ZM265.638 66.0379C265.638 63.6006 264.713 61.476 262.899 59.6903L262.057 60.5455C263.657 62.1198 264.438 63.9418 264.438 66.0379H265.638ZM262.903 59.6936C261.121 57.9118 259.039 56.9979 256.678 56.9979V58.1979C258.691 58.1979 260.476 58.9639 262.054 60.5421L262.903 59.6936ZM256.678 56.9979H256.358V58.1979H256.678V56.9979ZM255.758 57.5979V74.3979H256.958V57.5979H255.758ZM292.544 56.4379V55.8379H291.944V56.4379H292.544ZM293.864 56.4379H294.464V55.8379H293.864V56.4379ZM293.864 86.4379V87.0379H294.464V86.4379H293.864ZM292.544 86.4379H291.944V87.0379H292.544V86.4379ZM292.544 74.9979H293.144V74.3979H292.544V74.9979ZM271.984 74.9979V74.3979H271.384V74.9979H271.984ZM271.984 86.4379V87.0379H272.584V86.4379H271.984ZM270.664 86.4379H270.064V87.0379H270.664V86.4379ZM270.664 56.4379V55.8379H270.064V56.4379H270.664ZM271.984 56.4379H272.584V55.8379H271.984V56.4379ZM271.984 73.8379H271.384V74.4379H271.984V73.8379ZM292.544 73.8379V74.4379H293.144V73.8379H292.544ZM292.544 57.0379H293.864V55.8379H292.544V57.0379ZM293.264 56.4379V86.4379H294.464V56.4379H293.264ZM293.864 85.8379H292.544V87.0379H293.864V85.8379ZM293.144 86.4379V74.9979H291.944V86.4379H293.144ZM292.544 74.3979H271.984V75.5979H292.544V74.3979ZM271.384 74.9979V86.4379H272.584V74.9979H271.384ZM271.984 85.8379H270.664V87.0379H271.984V85.8379ZM271.264 86.4379V56.4379H270.064V86.4379H271.264ZM270.664 57.0379H271.984V55.8379H270.664V57.0379ZM271.384 56.4379V73.8379H272.584V56.4379H271.384ZM271.984 74.4379H292.544V73.2379H271.984V74.4379ZM293.144 73.8379V56.4379H291.944V73.8379H293.144ZM300.083 56.4379V55.8379H299.483V56.4379H300.083ZM301.403 56.4379H302.003V55.8379H301.403V56.4379ZM301.403 86.4379V87.0379H302.003V86.4379H301.403ZM300.083 86.4379H299.483V87.0379H300.083V86.4379ZM300.083 57.0379H301.403V55.8379H300.083V57.0379ZM300.803 56.4379V86.4379H302.003V56.4379H300.803ZM301.403 85.8379H300.083V87.0379H301.403V85.8379ZM300.683 86.4379V56.4379H299.483V86.4379H300.683ZM307.617 56.4379V55.8379H307.017V56.4379H307.617ZM318.377 56.4379H318.977V55.8379H318.377V56.4379ZM318.377 57.5979V58.1979H318.977V57.5979H318.377ZM308.937 57.5979V56.9979H308.337V57.5979H308.937ZM308.937 73.9179H308.337V74.5179H308.937V73.9179ZM316.817 73.9179H317.417V73.3179H316.817V73.9179ZM316.817 75.0779V75.6779H317.417V75.0779H316.817ZM308.937 75.0779V74.4779H308.337V75.0779H308.937ZM308.937 85.2779H308.337V85.8779H308.937V85.2779ZM318.377 85.2779H318.977V84.6779H318.377V85.2779ZM318.377 86.4379V87.0379H318.977V86.4379H318.377ZM307.617 86.4379H307.017V87.0379H307.617V86.4379ZM307.617 57.0379H318.377V55.8379H307.617V57.0379ZM317.777 56.4379V57.5979H318.977V56.4379H317.777ZM318.377 56.9979H308.937V58.1979H318.377V56.9979ZM308.337 57.5979V73.9179H309.537V57.5979H308.337ZM308.937 74.5179H316.817V73.3179H308.937V74.5179ZM316.217 73.9179V75.0779H317.417V73.9179H316.217ZM316.817 74.4779H308.937V75.6779H316.817V74.4779ZM308.337 75.0779V85.2779H309.537V75.0779H308.337ZM308.937 85.8779H318.377V84.6779H308.937V85.8779ZM317.777 85.2779V86.4379H318.977V85.2779H317.777ZM318.377 85.8379H307.617V87.0379H318.377V85.8379ZM308.217 86.4379V56.4379H307.017V86.4379H308.217Z" fill="black"/>
<path d="M25.508 9.43786H26.668V39.8779L4.58798 12.7179V39.4379H3.42798V8.99786L25.508 36.1179V9.43786ZM32.8858 9.43786H34.2058V39.4379H32.8858V9.43786ZM55.0202 39.8779H54.5802C51.8335 39.8779 49.2735 39.1579 46.9002 37.7179C44.5268 36.2779 42.6468 34.3712 41.2602 31.9979C39.9002 29.5979 39.2202 27.0512 39.2202 24.3579C39.2202 20.1179 40.7535 16.4779 43.8202 13.4379C46.8868 10.3712 50.5535 8.83786 54.8202 8.83786C57.6735 8.83786 60.3802 9.58453 62.9402 11.0779V12.5579C60.4335 10.8512 57.7268 9.99786 54.8202 9.99786C50.9002 9.99786 47.5402 11.4112 44.7402 14.2379C41.9402 17.0379 40.5402 20.4112 40.5402 24.3579C40.5402 28.2779 41.9402 31.6512 44.7402 34.4779C47.5402 37.3045 50.9002 38.7179 54.8202 38.7179C57.7268 38.7179 60.4335 37.8645 62.9402 36.1579V37.6379C60.5135 39.1312 57.8735 39.8779 55.0202 39.8779ZM82.4299 39.9579C78.2965 39.9579 74.7099 38.3979 71.6699 35.2779C68.6565 32.1579 67.1499 28.5179 67.1499 24.3579C67.1499 20.1712 68.6832 16.5579 71.7499 13.5179C74.8165 10.4512 78.4965 8.91787 82.7899 8.91787C87.0832 8.91787 90.7499 10.4379 93.7899 13.4779C96.8299 16.5179 98.3499 20.1445 98.3499 24.3579C98.3499 28.5445 96.8432 32.1979 93.8299 35.3179C90.8165 38.4112 87.2165 39.9579 83.0299 39.9579H82.4299ZM97.0299 24.4379C97.0299 20.4912 95.6299 17.1179 92.8299 14.3179C90.0565 11.4912 86.6965 10.0779 82.7499 10.0779C78.8299 10.0779 75.4699 11.4912 72.6699 14.3179C69.8699 17.1179 68.4699 20.4912 68.4699 24.4379C68.4699 28.3579 69.8699 31.7312 72.6699 34.5579C75.4699 37.3845 78.8299 38.7979 82.7499 38.7979C86.6699 38.7979 90.0299 37.3845 92.8299 34.5579C95.6299 31.7312 97.0299 28.3579 97.0299 24.4379ZM104.475 9.43786V38.2779H113.755V39.4379H103.155V9.43786H104.475ZM130.729 8.71787L145.729 39.4379H144.329L138.649 27.9979H122.609L117.009 39.4379H115.769L130.729 8.71787ZM130.609 11.4779L123.129 26.8379H138.169L130.609 11.4779ZM161.992 13.6779C161.379 12.5579 160.539 11.6779 159.472 11.0379C158.432 10.3979 157.259 10.0779 155.952 10.0779C154.646 10.0779 153.526 10.4912 152.592 11.3179C151.686 12.1179 151.232 13.2245 151.232 14.6379V14.8379C151.232 16.5179 152.166 18.0512 154.032 19.4379C154.832 20.0245 155.726 20.6112 156.712 21.1979C157.726 21.7579 158.726 22.3712 159.712 23.0379C160.726 23.6779 161.632 24.3712 162.432 25.1179C163.259 25.8379 163.926 26.7312 164.432 27.7979C164.966 28.8645 165.232 30.0379 165.232 31.3179V31.7179C165.232 34.2512 164.366 36.2645 162.632 37.7579C160.926 39.2512 158.806 39.9979 156.272 39.9979C152.939 39.9979 150.352 38.6245 148.512 35.8779V33.7179C149.206 35.2379 150.219 36.4779 151.552 37.4379C152.912 38.3712 154.592 38.8379 156.592 38.8379C158.592 38.8379 160.326 38.1979 161.792 36.9179C163.259 35.6379 163.992 33.9312 163.992 31.7979V31.5579C163.992 30.2245 163.646 29.0112 162.952 27.9179C162.259 26.7979 161.392 25.8912 160.352 25.1979C159.312 24.4779 158.179 23.7312 156.952 22.9579C155.726 22.1845 154.592 21.4645 153.552 20.7979C152.512 20.1312 151.646 19.2912 150.952 18.2779C150.259 17.2645 149.912 16.1579 149.912 14.9579V14.6779C149.912 12.8112 150.512 11.3845 151.712 10.3979C152.912 9.4112 154.392 8.91787 156.152 8.91787C158.606 8.91787 160.552 9.82453 161.992 11.6379V13.6779ZM195.099 27.9979V26.8379H206.339V37.6779C203.992 39.1445 201.352 39.8779 198.419 39.8779H197.979C195.232 39.8779 192.672 39.1579 190.299 37.7179C187.925 36.2779 186.045 34.3712 184.659 31.9979C183.299 29.5979 182.619 27.0512 182.619 24.3579C182.619 20.1179 184.152 16.4779 187.219 13.4379C190.285 10.3712 193.952 8.83786 198.219 8.83786C201.072 8.83786 203.779 9.58453 206.339 11.0779V12.5579C203.832 10.8512 201.125 9.99786 198.219 9.99786C194.299 9.99786 190.939 11.4112 188.139 14.2379C185.339 17.0379 183.939 20.4112 183.939 24.3579C183.939 28.2779 185.339 31.6512 188.139 34.4779C190.939 37.3045 194.299 38.7179 198.219 38.7179C200.405 38.7179 202.672 38.1579 205.019 37.0379V27.9979H195.099ZM225.633 39.9579C221.5 39.9579 217.913 38.3979 214.873 35.2779C211.86 32.1579 210.353 28.5179 210.353 24.3579C210.353 20.1712 211.886 16.5579 214.953 13.5179C218.02 10.4512 221.7 8.91787 225.993 8.91787C230.286 8.91787 233.953 10.4379 236.993 13.4779C240.033 16.5179 241.553 20.1445 241.553 24.3579C241.553 28.5445 240.046 32.1979 237.033 35.3179C234.02 38.4112 230.42 39.9579 226.233 39.9579H225.633ZM240.233 24.4379C240.233 20.4912 238.833 17.1179 236.033 14.3179C233.26 11.4912 229.9 10.0779 225.953 10.0779C222.033 10.0779 218.673 11.4912 215.873 14.3179C213.073 17.1179 211.673 20.4912 211.673 24.4379C211.673 28.3579 213.073 31.7312 215.873 34.5579C218.673 37.3845 222.033 38.7979 225.953 38.7979C229.873 38.7979 233.233 37.3845 236.033 34.5579C238.833 31.7312 240.233 28.3579 240.233 24.4379ZM246.358 9.43786H247.638C252.118 9.43786 255.731 10.9179 258.478 13.8779C261.224 16.8112 262.598 20.3445 262.598 24.4779C262.598 28.5845 261.224 32.1045 258.478 35.0379C255.758 37.9712 252.144 39.4379 247.638 39.4379H246.358V9.43786ZM247.958 10.6379H247.638V38.1979H247.958C251.851 38.1979 255.038 36.8512 257.518 34.1579C260.024 31.4645 261.278 28.2379 261.278 24.4779C261.278 20.6912 260.024 17.4379 257.518 14.7179C255.038 11.9979 251.851 10.6379 247.958 10.6379ZM267.612 9.43786H268.932V39.4379H267.612V9.43786ZM297.227 9.43786H298.387V39.8779L276.307 12.7179V39.4379H275.147V8.99786L297.227 36.1179V9.43786ZM304.405 9.43786H315.165V10.5979H305.725V26.9179H313.605V28.0779H305.725V38.2779H315.165V39.4379H304.405V9.43786ZM332.33 8.71787L347.33 39.4379H345.93L340.25 27.9979H324.21L318.61 39.4379H317.37L332.33 8.71787ZM332.21 11.4779L324.73 26.8379H339.77L332.21 11.4779ZM358.525 39.9979H358.125C355.672 39.9979 353.592 39.1445 351.885 37.4379C350.205 35.7312 349.365 33.5845 349.365 30.9979V9.43786H350.685V30.9579C350.685 33.2245 351.419 35.1045 352.885 36.5979C354.352 38.0912 356.165 38.8379 358.325 38.8379C360.485 38.8379 362.285 38.1045 363.725 36.6379C365.192 35.1445 365.925 33.2512 365.925 30.9579V9.43786H367.245V30.9179C367.245 33.5312 366.392 35.7045 364.685 37.4379C363.005 39.1445 360.952 39.9979 358.525 39.9979Z" fill="white"/>
<path d="M25.508 9.43786V8.83786H24.908V9.43786H25.508ZM26.668 9.43786H27.268V8.83786H26.668V9.43786ZM26.668 39.8779L26.2024 40.2564L27.268 41.5671V39.8779H26.668ZM4.58798 12.7179L5.05354 12.3394L3.98798 11.0287V12.7179H4.58798ZM4.58798 39.4379V40.0379H5.18798V39.4379H4.58798ZM3.42798 39.4379H2.82798V40.0379H3.42798V39.4379ZM3.42798 8.99786L3.89327 8.61904L2.82798 7.31059V8.99786H3.42798ZM25.508 36.1179L25.0427 36.4967L26.108 37.8051V36.1179H25.508ZM25.508 10.0379H26.668V8.83786H25.508V10.0379ZM26.068 9.43786V39.8779H27.268V9.43786H26.068ZM27.1335 39.4994L5.05354 12.3394L4.12242 13.0963L26.2024 40.2564L27.1335 39.4994ZM3.98798 12.7179V39.4379H5.18798V12.7179H3.98798ZM4.58798 38.8379H3.42798V40.0379H4.58798V38.8379ZM4.02798 39.4379V8.99786H2.82798V39.4379H4.02798ZM2.96269 9.37669L25.0427 36.4967L25.9733 35.739L3.89327 8.61904L2.96269 9.37669ZM26.108 36.1179V9.43786H24.908V36.1179H26.108ZM32.8858 9.43786V8.83786H32.2858V9.43786H32.8858ZM34.2058 9.43786H34.8058V8.83786H34.2058V9.43786ZM34.2058 39.4379V40.0379H34.8058V39.4379H34.2058ZM32.8858 39.4379H32.2858V40.0379H32.8858V39.4379ZM32.8858 10.0379H34.2058V8.83786H32.8858V10.0379ZM33.6058 9.43786V39.4379H34.8058V9.43786H33.6058ZM34.2058 38.8379H32.8858V40.0379H34.2058V38.8379ZM33.4858 39.4379V9.43786H32.2858V39.4379H33.4858ZM46.9002 37.7179L47.2114 37.2049L47.2114 37.2049L46.9002 37.7179ZM41.2602 31.9979L40.7381 32.2937L40.7421 32.3006L41.2602 31.9979ZM43.8202 13.4379L44.2426 13.864L44.2444 13.8621L43.8202 13.4379ZM62.9402 11.0779H63.5402V10.7332L63.2425 10.5596L62.9402 11.0779ZM62.9402 12.5579L62.6025 13.0538L63.5402 13.6922V12.5579H62.9402ZM44.7402 14.2379L45.1644 14.6621L45.1664 14.6601L44.7402 14.2379ZM44.7402 34.4779L45.1664 34.0556L45.1664 34.0556L44.7402 34.4779ZM62.9402 36.1579H63.5402V35.0235L62.6025 35.6619L62.9402 36.1579ZM62.9402 37.6379L63.2546 38.1489L63.5402 37.9731V37.6379H62.9402ZM55.0202 39.2779H54.5802V40.4779H55.0202V39.2779ZM54.5802 39.2779C51.9445 39.2779 49.492 38.5886 47.2114 37.2049L46.5889 38.2308C49.055 39.7271 51.7225 40.4779 54.5802 40.4779V39.2779ZM47.2114 37.2049C44.9225 35.8162 43.114 33.9814 41.7782 31.6952L40.7421 32.3006C42.1797 34.761 44.1311 36.7396 46.5889 38.2308L47.2114 37.2049ZM41.7822 31.7021C40.472 29.39 39.8202 26.9449 39.8202 24.3579H38.6202C38.6202 27.1575 39.3283 29.8057 40.7382 32.2937L41.7822 31.7021ZM39.8202 24.3579C39.8202 20.2812 41.2872 16.7936 44.2426 13.864L43.3978 13.0118C40.2198 16.1621 38.6202 19.9545 38.6202 24.3579H39.8202ZM44.2444 13.8621C47.2007 10.9059 50.7155 9.43786 54.8202 9.43786V8.23786C50.3915 8.23786 46.573 9.83649 43.3959 13.0136L44.2444 13.8621ZM54.8202 9.43786C57.5631 9.43786 60.1659 10.1542 62.6378 11.5961L63.2425 10.5596C60.5944 9.0149 57.7839 8.23786 54.8202 8.23786V9.43786ZM62.3402 11.0779V12.5579H63.5402V11.0779H62.3402ZM63.2778 12.0619C60.6762 10.2906 57.8527 9.39786 54.8202 9.39786V10.5979C57.601 10.5979 60.1908 11.4118 62.6025 13.0538L63.2778 12.0619ZM54.8202 9.39786C50.7374 9.39786 47.2247 10.8771 44.3139 13.8156L45.1664 14.6601C47.8557 11.9453 51.063 10.5979 54.8202 10.5979V9.39786ZM44.3159 13.8136C41.4038 16.7257 39.9402 20.2515 39.9402 24.3579H41.1402C41.1402 20.5709 42.4765 17.35 45.1644 14.6621L44.3159 13.8136ZM39.9402 24.3579C39.9402 28.4386 41.4045 31.963 44.3139 34.9001L45.1664 34.0556C42.4759 31.3394 41.1402 28.1171 41.1402 24.3579H39.9402ZM44.3139 34.9001C47.2247 37.8386 50.7374 39.3179 54.8202 39.3179V38.1179C51.063 38.1179 47.8557 36.7704 45.1664 34.0556L44.3139 34.9001ZM54.8202 39.3179C57.8527 39.3179 60.6762 38.4252 63.2778 36.6538L62.6025 35.6619C60.1908 37.3039 57.601 38.1179 54.8202 38.1179V39.3179ZM62.3402 36.1579V37.6379H63.5402V36.1579H62.3402ZM62.6257 37.1269C60.2937 38.5619 57.7626 39.2779 55.0202 39.2779V40.4779C57.9844 40.4779 60.7333 39.7005 63.2546 38.1489L62.6257 37.1269ZM71.6699 35.2779L71.2383 35.6947L71.2401 35.6966L71.6699 35.2779ZM71.7499 13.5179L72.1723 13.944L72.1741 13.9421L71.7499 13.5179ZM93.7899 13.4779L94.2141 13.0536L94.2141 13.0536L93.7899 13.4779ZM93.8299 35.3179L94.2596 35.7365L94.2614 35.7347L93.8299 35.3179ZM92.8299 14.3179L92.4016 14.7381L92.4056 14.7421L92.8299 14.3179ZM72.6699 14.3179L73.0941 14.7421L73.0961 14.7401L72.6699 14.3179ZM72.6699 34.5579L73.0961 34.1356L73.0961 34.1356L72.6699 34.5579ZM92.8299 34.5579L92.4036 34.1356L92.8299 34.5579ZM82.4299 39.3579C78.4678 39.3579 75.0335 37.8702 72.0996 34.8591L71.2401 35.6966C74.3863 38.9255 78.1252 40.5579 82.4299 40.5579V39.3579ZM72.1014 34.861C69.191 31.8476 67.7499 28.3551 67.7499 24.3579H66.5499C66.5499 28.6806 68.122 32.4681 71.2383 35.6947L72.1014 34.861ZM67.7499 24.3579C67.7499 20.3368 69.2153 16.8753 72.1723 13.944L71.3274 13.0918C68.1511 16.2405 66.5499 20.0056 66.5499 24.3579H67.7499ZM72.1741 13.9421C75.1295 10.9867 78.6575 9.51787 82.7899 9.51787V8.31787C78.3356 8.31787 74.5035 9.9157 71.3256 13.0936L72.1741 13.9421ZM82.7899 9.51787C86.9238 9.51787 90.4379 10.9745 93.3656 13.9021L94.2141 13.0536C91.0618 9.90125 87.2426 8.31787 82.7899 8.31787V9.51787ZM93.3656 13.9021C96.2956 16.8322 97.7499 20.3073 97.7499 24.3579H98.9499C98.9499 19.9818 97.3641 16.2036 94.2141 13.0536L93.3656 13.9021ZM97.7499 24.3579C97.7499 28.3829 96.3079 31.8884 93.3983 34.901L94.2614 35.7347C97.3785 32.5073 98.9499 28.7062 98.9499 24.3579H97.7499ZM93.4001 34.8992C90.4957 37.8807 87.049 39.3579 83.0299 39.3579V40.5579C87.384 40.5579 91.1374 38.9417 94.2596 35.7365L93.4001 34.8992ZM83.0299 39.3579H82.4299V40.5579H83.0299V39.3579ZM97.6299 24.4379C97.6299 20.3315 96.1662 16.8057 93.2541 13.8936L92.4056 14.7421C95.0935 17.43 96.4299 20.6509 96.4299 24.4379H97.6299ZM93.2581 13.8977C90.3724 10.9564 86.8582 9.47787 82.7499 9.47787V10.6779C86.5348 10.6779 89.7406 12.026 92.4016 14.7381L93.2581 13.8977ZM82.7499 9.47787C78.6671 9.47787 75.1544 10.9571 72.2436 13.8956L73.0961 14.7401C75.7853 12.0253 78.9926 10.6779 82.7499 10.6779V9.47787ZM72.2456 13.8936C69.3335 16.8057 67.8699 20.3315 67.8699 24.4379H69.0699C69.0699 20.6509 70.4062 17.43 73.0941 14.7421L72.2456 13.8936ZM67.8699 24.4379C67.8699 28.5186 69.3342 32.043 72.2436 34.9801L73.0961 34.1356C70.4055 31.4194 69.0699 28.1971 69.0699 24.4379H67.8699ZM72.2436 34.9801C75.1544 37.9186 78.6671 39.3979 82.7499 39.3979V38.1979C78.9926 38.1979 75.7853 36.8504 73.0961 34.1356L72.2436 34.9801ZM82.7499 39.3979C86.8326 39.3979 90.3453 37.9186 93.2561 34.9801L92.4036 34.1356C89.7144 36.8504 86.5071 38.1979 82.7499 38.1979V39.3979ZM93.2561 34.9801C96.1656 32.043 97.6299 28.5186 97.6299 24.4379H96.4299C96.4299 28.1971 95.0942 31.4194 92.4036 34.1356L93.2561 34.9801ZM104.475 9.43786H105.075V8.83786H104.475V9.43786ZM104.475 38.2779H103.875V38.8779H104.475V38.2779ZM113.755 38.2779H114.355V37.6779H113.755V38.2779ZM113.755 39.4379V40.0379H114.355V39.4379H113.755ZM103.155 39.4379H102.555V40.0379H103.155V39.4379ZM103.155 9.43786V8.83786H102.555V9.43786H103.155ZM103.875 9.43786V38.2779H105.075V9.43786H103.875ZM104.475 38.8779H113.755V37.6779H104.475V38.8779ZM113.155 38.2779V39.4379H114.355V38.2779H113.155ZM113.755 38.8379H103.155V40.0379H113.755V38.8379ZM103.755 39.4379V9.43786H102.555V39.4379H103.755ZM103.155 10.0379H104.475V8.83786H103.155V10.0379ZM130.729 8.71787L131.268 8.4546L130.728 7.34893L130.189 8.45517L130.729 8.71787ZM145.729 39.4379V40.0379H146.689L146.268 39.1746L145.729 39.4379ZM144.329 39.4379L143.791 39.7047L143.957 40.0379H144.329V39.4379ZM138.649 27.9979L139.186 27.731L139.021 27.3979H138.649V27.9979ZM122.609 27.9979V27.3979H122.234L122.07 27.7341L122.609 27.9979ZM117.009 39.4379V40.0379H117.383L117.548 39.7017L117.009 39.4379ZM115.769 39.4379L115.229 39.1752L114.809 40.0379H115.769V39.4379ZM130.609 11.4779L131.147 11.2129L130.606 10.1133L130.069 11.2152L130.609 11.4779ZM123.129 26.8379L122.589 26.5752L122.169 27.4379H123.129V26.8379ZM138.169 26.8379V27.4379H139.133L138.707 26.5729L138.169 26.8379ZM130.189 8.98113L145.189 39.7011L146.268 39.1746L131.268 8.4546L130.189 8.98113ZM145.729 38.8379H144.329V40.0379H145.729V38.8379ZM144.866 39.171L139.186 27.731L138.111 28.2647L143.791 39.7047L144.866 39.171ZM138.649 27.3979H122.609V28.5979H138.649V27.3979ZM122.07 27.7341L116.47 39.1741L117.548 39.7017L123.148 28.2617L122.07 27.7341ZM117.009 38.8379H115.769V40.0379H117.009V38.8379ZM116.308 39.7006L131.268 8.98056L130.189 8.45517L115.229 39.1752L116.308 39.7006ZM130.069 11.2152L122.589 26.5752L123.668 27.1006L131.148 11.7406L130.069 11.2152ZM123.129 27.4379H138.169V26.2379H123.129V27.4379ZM138.707 26.5729L131.147 11.2129L130.07 11.7428L137.63 27.1028L138.707 26.5729ZM161.992 13.6779L161.466 13.9661L162.592 13.6779H161.992ZM159.472 11.0379L159.158 11.5489L159.164 11.5524L159.472 11.0379ZM152.592 11.3179L152.989 11.7678L152.99 11.767L152.592 11.3179ZM154.032 19.4379L153.675 19.9195L153.678 19.9217L154.032 19.4379ZM156.712 21.1979L156.406 21.7136L156.414 21.7184L156.422 21.723L156.712 21.1979ZM159.712 23.0379L159.376 23.535L159.384 23.5402L159.392 23.5452L159.712 23.0379ZM162.432 25.1179L162.023 25.5565L162.031 25.5635L162.038 25.5703L162.432 25.1179ZM164.432 27.7979L163.89 28.0554L163.896 28.0662L164.432 27.7979ZM162.632 37.7579L162.241 37.3033L162.237 37.3063L162.632 37.7579ZM148.512 35.8779H147.912V36.0603L148.014 36.2118L148.512 35.8779ZM148.512 33.7179L149.058 33.4689L147.912 33.7179H148.512ZM151.552 37.4379L151.202 37.9249L151.213 37.9326L151.552 37.4379ZM161.792 36.9179L162.187 37.3699L162.187 37.3699L161.792 36.9179ZM162.952 27.9179L162.442 28.2337L162.446 28.2392L162.952 27.9179ZM160.352 25.1979L160.011 25.6913L160.02 25.6971L160.352 25.1979ZM156.952 22.9579L157.272 22.4503L157.272 22.4503L156.952 22.9579ZM150.952 18.2779L151.448 17.9391L151.448 17.9391L150.952 18.2779ZM161.992 11.6379H162.592V11.4286L162.462 11.2647L161.992 11.6379ZM162.519 13.3897C161.856 12.1789 160.942 11.2197 159.781 10.5234L159.164 11.5524C160.136 12.1361 160.902 12.9369 161.466 13.9661L162.519 13.3897ZM159.787 10.5269C158.646 9.82457 157.362 9.47787 155.952 9.47787V10.6779C157.156 10.6779 158.219 10.9712 159.158 11.5489L159.787 10.5269ZM155.952 9.47787C154.507 9.47787 153.243 9.93987 152.195 10.8687L152.99 11.767C153.808 11.0425 154.785 10.6779 155.952 10.6779V9.47787ZM152.195 10.868C151.137 11.8015 150.632 13.0844 150.632 14.6379H151.832C151.832 13.3647 152.234 12.4343 152.989 11.7678L152.195 10.868ZM150.632 14.6379V14.8379H151.832V14.6379H150.632ZM150.632 14.8379C150.632 16.7742 151.718 18.4662 153.675 19.9195L154.39 18.9562C152.613 17.6362 151.832 16.2615 151.832 14.8379H150.632ZM153.678 19.9217C154.495 20.5214 155.405 21.1186 156.406 21.7136L157.019 20.6821C156.046 20.1038 155.169 19.5277 154.387 18.954L153.678 19.9217ZM156.422 21.723C157.419 22.2741 158.404 22.8781 159.376 23.535L160.048 22.5407C159.047 21.8643 158.032 21.2416 157.003 20.6727L156.422 21.723ZM159.392 23.5452C160.377 24.167 161.253 24.8377 162.023 25.5565L162.842 24.6792C162.012 23.9047 161.075 23.1887 160.033 22.5306L159.392 23.5452ZM162.038 25.5703C162.798 26.2321 163.416 27.0573 163.89 28.0553L164.974 27.5404C164.435 26.4051 163.72 25.4436 162.826 24.6654L162.038 25.5703ZM163.896 28.0662C164.384 29.0435 164.632 30.124 164.632 31.3179H165.832C165.832 29.9517 165.547 28.6855 164.969 27.5295L163.896 28.0662ZM164.632 31.3179V31.7179H165.832V31.3179H164.632ZM164.632 31.7179C164.632 34.0976 163.827 35.937 162.241 37.3033L163.024 38.2124C164.905 36.5921 165.832 34.4048 165.832 31.7179H164.632ZM162.237 37.3063C160.653 38.6926 158.679 39.3979 156.272 39.3979V40.5979C158.933 40.5979 161.198 39.8098 163.027 38.2094L162.237 37.3063ZM156.272 39.3979C153.137 39.3979 150.738 38.1227 149.011 35.5439L148.014 36.2118C149.966 39.1264 152.741 40.5979 156.272 40.5979V39.3979ZM149.112 35.8779V33.7179H147.912V35.8779H149.112ZM147.966 33.9669C148.702 35.5801 149.782 36.9027 151.202 37.9248L151.903 36.9509C150.656 36.053 149.709 34.8956 149.058 33.4689L147.966 33.9669ZM151.213 37.9326C152.692 38.9479 154.497 39.4379 156.592 39.4379V38.2379C154.687 38.2379 153.132 37.7945 151.892 36.9432L151.213 37.9326ZM156.592 39.4379C158.733 39.4379 160.608 38.7481 162.187 37.3699L161.398 36.4658C160.044 37.6476 158.452 38.2379 156.592 38.2379V39.4379ZM162.187 37.3699C163.798 35.9642 164.592 34.0858 164.592 31.7979H163.392C163.392 33.7766 162.72 35.3115 161.398 36.4658L162.187 37.3699ZM164.592 31.7979V31.5579H163.392V31.7979H164.592ZM164.592 31.5579C164.592 30.1143 164.215 28.789 163.459 27.5965L162.446 28.2392C163.076 29.2334 163.392 30.3347 163.392 31.5579H164.592ZM163.463 27.6021C162.726 26.4129 161.801 25.4422 160.685 24.6986L160.02 25.6971C160.984 26.3402 161.792 27.1828 162.442 28.2337L163.463 27.6021ZM160.694 24.7046C159.646 23.979 158.505 23.2276 157.272 22.4503L156.632 23.4654C157.853 24.2348 158.979 24.9767 160.011 25.6912L160.694 24.7046ZM157.272 22.4503C156.047 21.6776 154.915 20.9585 153.876 20.2927L153.229 21.303C154.27 21.9706 155.405 22.6914 156.632 23.4654L157.272 22.4503ZM153.876 20.2927C152.903 19.6692 152.095 18.8856 151.448 17.9391L150.457 18.6167C151.196 19.6968 152.121 20.5932 153.229 21.303L153.876 20.2927ZM151.448 17.9391C150.821 17.0231 150.512 16.034 150.512 14.9579H149.312C149.312 16.2817 149.697 17.506 150.457 18.6167L151.448 17.9391ZM150.512 14.9579V14.6779H149.312V14.9579H150.512ZM150.512 14.6779C150.512 12.9507 151.06 11.7108 152.093 10.8613L151.331 9.93441C149.964 11.0582 149.312 12.6717 149.312 14.6779H150.512ZM152.093 10.8613C153.172 9.97461 154.512 9.51787 156.152 9.51787V8.31787C154.273 8.31787 152.653 8.84779 151.331 9.93441L152.093 10.8613ZM156.152 9.51787C158.435 9.51787 160.204 10.3506 161.522 12.011L162.462 11.2647C160.901 9.29851 158.776 8.31787 156.152 8.31787V9.51787ZM161.392 11.6379V13.6779H162.592V11.6379H161.392ZM195.099 27.9979H194.499V28.5979H195.099V27.9979ZM195.099 26.8379V26.2379H194.499V26.8379H195.099ZM206.339 26.8379H206.939V26.2379H206.339V26.8379ZM206.339 37.6779L206.657 38.1867L206.939 38.0104V37.6779H206.339ZM190.299 37.7179L190.61 37.2049L190.61 37.2049L190.299 37.7179ZM184.659 31.9979L184.137 32.2937L184.141 32.3006L184.659 31.9979ZM187.219 13.4379L187.641 13.864L187.643 13.8621L187.219 13.4379ZM206.339 11.0779H206.939V10.7332L206.641 10.5596L206.339 11.0779ZM206.339 12.5579L206.001 13.0538L206.939 13.6922V12.5579H206.339ZM188.139 14.2379L188.563 14.6621L188.565 14.6601L188.139 14.2379ZM188.139 34.4779L188.565 34.0556L188.565 34.0556L188.139 34.4779ZM205.019 37.0379L205.277 37.5794L205.619 37.4163V37.0379H205.019ZM205.019 27.9979H205.619V27.3979H205.019V27.9979ZM195.699 27.9979V26.8379H194.499V27.9979H195.699ZM195.099 27.4379H206.339V26.2379H195.099V27.4379ZM205.739 26.8379V37.6779H206.939V26.8379H205.739ZM206.021 37.1691C203.775 38.5725 201.247 39.2779 198.419 39.2779V40.4779C201.457 40.4779 204.209 39.7166 206.657 38.1867L206.021 37.1691ZM198.419 39.2779H197.979V40.4779H198.419V39.2779ZM197.979 39.2779C195.343 39.2779 192.89 38.5886 190.61 37.2049L189.987 38.2308C192.453 39.7271 195.121 40.4779 197.979 40.4779V39.2779ZM190.61 37.2049C188.321 35.8162 186.512 33.9814 185.177 31.6952L184.141 32.3006C185.578 34.761 187.53 36.7396 189.987 38.2308L190.61 37.2049ZM185.181 31.7021C183.87 29.39 183.219 26.9449 183.219 24.3579H182.019C182.019 27.1575 182.727 29.8057 184.137 32.2937L185.181 31.7021ZM183.219 24.3579C183.219 20.2812 184.686 16.7936 187.641 13.864L186.796 13.0118C183.618 16.1621 182.019 19.9545 182.019 24.3579H183.219ZM187.643 13.8621C190.599 10.9059 194.114 9.43786 198.219 9.43786V8.23786C193.79 8.23786 189.971 9.83649 186.794 13.0136L187.643 13.8621ZM198.219 9.43786C200.961 9.43786 203.564 10.1542 206.036 11.5961L206.641 10.5596C203.993 9.0149 201.182 8.23786 198.219 8.23786V9.43786ZM205.739 11.0779V12.5579H206.939V11.0779H205.739ZM206.676 12.0619C204.075 10.2906 201.251 9.39786 198.219 9.39786V10.5979C200.999 10.5979 203.589 11.4118 206.001 13.0538L206.676 12.0619ZM198.219 9.39786C194.136 9.39786 190.623 10.8771 187.712 13.8156L188.565 14.6601C191.254 11.9453 194.461 10.5979 198.219 10.5979V9.39786ZM187.714 13.8136C184.802 16.7257 183.339 20.2515 183.339 24.3579H184.539C184.539 20.5709 185.875 17.35 188.563 14.6621L187.714 13.8136ZM183.339 24.3579C183.339 28.4386 184.803 31.963 187.712 34.9001L188.565 34.0556C185.874 31.3394 184.539 28.1171 184.539 24.3579H183.339ZM187.712 34.9001C190.623 37.8386 194.136 39.3179 198.219 39.3179V38.1179C194.461 38.1179 191.254 36.7704 188.565 34.0556L187.712 34.9001ZM198.219 39.3179C200.51 39.3179 202.865 38.7307 205.277 37.5794L204.76 36.4964C202.479 37.5851 200.3 38.1179 198.219 38.1179V39.3179ZM205.619 37.0379V27.9979H204.419V37.0379H205.619ZM205.019 27.3979H195.099V28.5979H205.019V27.3979ZM214.873 35.2779L214.441 35.6947L214.443 35.6966L214.873 35.2779ZM214.953 13.5179L215.375 13.944L215.377 13.9421L214.953 13.5179ZM236.993 13.4779L237.417 13.0536L237.417 13.0536L236.993 13.4779ZM237.033 35.3179L237.463 35.7365L237.465 35.7347L237.033 35.3179ZM236.033 14.3179L235.605 14.7381L235.609 14.7421L236.033 14.3179ZM215.873 14.3179L216.297 14.7421L216.299 14.7401L215.873 14.3179ZM215.873 34.5579L216.299 34.1356L216.299 34.1356L215.873 34.5579ZM236.033 34.5579L235.607 34.1356L236.033 34.5579ZM225.633 39.3579C221.671 39.3579 218.237 37.8702 215.303 34.8591L214.443 35.6966C217.589 38.9255 221.328 40.5579 225.633 40.5579V39.3579ZM215.305 34.861C212.394 31.8476 210.953 28.3551 210.953 24.3579H209.753C209.753 28.6806 211.325 32.4681 214.441 35.6947L215.305 34.861ZM210.953 24.3579C210.953 20.3368 212.418 16.8753 215.375 13.944L214.531 13.0918C211.354 16.2405 209.753 20.0056 209.753 24.3579H210.953ZM215.377 13.9421C218.333 10.9867 221.861 9.51787 225.993 9.51787V8.31787C221.539 8.31787 217.707 9.9157 214.529 13.0936L215.377 13.9421ZM225.993 9.51787C230.127 9.51787 233.641 10.9745 236.569 13.9021L237.417 13.0536C234.265 9.90125 230.446 8.31787 225.993 8.31787V9.51787ZM236.569 13.9021C239.499 16.8322 240.953 20.3073 240.953 24.3579H242.153C242.153 19.9818 240.567 16.2036 237.417 13.0536L236.569 13.9021ZM240.953 24.3579C240.953 28.3829 239.511 31.8884 236.601 34.901L237.465 35.7347C240.582 32.5073 242.153 28.7062 242.153 24.3579H240.953ZM236.603 34.8992C233.699 37.8807 230.252 39.3579 226.233 39.3579V40.5579C230.587 40.5579 234.34 38.9417 237.463 35.7365L236.603 34.8992ZM226.233 39.3579H225.633V40.5579H226.233V39.3579ZM240.833 24.4379C240.833 20.3315 239.369 16.8057 236.457 13.8936L235.609 14.7421C238.297 17.43 239.633 20.6509 239.633 24.4379H240.833ZM236.461 13.8977C233.576 10.9564 230.061 9.47787 225.953 9.47787V10.6779C229.738 10.6779 232.944 12.026 235.605 14.7381L236.461 13.8977ZM225.953 9.47787C221.87 9.47787 218.357 10.9571 215.447 13.8956L216.299 14.7401C218.988 12.0253 222.196 10.6779 225.953 10.6779V9.47787ZM215.449 13.8936C212.537 16.8057 211.073 20.3315 211.073 24.4379H212.273C212.273 20.6509 213.609 17.43 216.297 14.7421L215.449 13.8936ZM211.073 24.4379C211.073 28.5186 212.537 32.043 215.447 34.9801L216.299 34.1356C213.609 31.4194 212.273 28.1971 212.273 24.4379H211.073ZM215.447 34.9801C218.357 37.9186 221.87 39.3979 225.953 39.3979V38.1979C222.196 38.1979 218.988 36.8504 216.299 34.1356L215.447 34.9801ZM225.953 39.3979C230.036 39.3979 233.548 37.9186 236.459 34.9801L235.607 34.1356C232.917 36.8504 229.71 38.1979 225.953 38.1979V39.3979ZM236.459 34.9801C239.369 32.043 240.833 28.5186 240.833 24.4379H239.633C239.633 28.1971 238.297 31.4194 235.607 34.1356L236.459 34.9801ZM246.358 9.43786V8.83786H245.758V9.43786H246.358ZM258.478 13.8779L258.038 14.286L258.04 14.288L258.478 13.8779ZM258.478 35.0379L258.04 34.6278L258.038 34.6299L258.478 35.0379ZM246.358 39.4379H245.758V40.0379H246.358V39.4379ZM247.638 10.6379V10.0379H247.038V10.6379H247.638ZM247.638 38.1979H247.038V38.7979H247.638V38.1979ZM257.518 34.1579L257.078 33.7491L257.076 33.7514L257.518 34.1579ZM257.518 14.7179L257.074 15.1221L257.076 15.1245L257.518 14.7179ZM246.358 10.0379H247.638V8.83786H246.358V10.0379ZM247.638 10.0379C251.971 10.0379 255.418 11.4624 258.038 14.286L258.917 13.4697C256.044 10.3733 252.264 8.83786 247.638 8.83786V10.0379ZM258.04 14.288C260.679 17.1066 261.998 20.492 261.998 24.4779H263.198C263.198 20.197 261.77 16.5157 258.916 13.4678L258.04 14.288ZM261.998 24.4779C261.998 28.4359 260.68 31.8083 258.04 34.6278L258.916 35.448C261.769 32.4008 263.198 28.7331 263.198 24.4779H261.998ZM258.038 34.6299C255.446 37.4247 252.001 38.8379 247.638 38.8379V40.0379C252.288 40.0379 256.069 38.5177 258.918 35.4458L258.038 34.6299ZM247.638 38.8379H246.358V40.0379H247.638V38.8379ZM246.958 39.4379V9.43786H245.758V39.4379H246.958ZM247.958 10.0379H247.638V11.2379H247.958V10.0379ZM247.038 10.6379V38.1979H248.238V10.6379H247.038ZM247.638 38.7979H247.958V37.5979H247.638V38.7979ZM247.958 38.7979C252.007 38.7979 255.358 37.3895 257.959 34.5643L257.076 33.7514C254.718 36.3129 251.695 37.5979 247.958 37.5979V38.7979ZM257.957 34.5666C260.569 31.7596 261.878 28.3859 261.878 24.4779H260.678C260.678 28.0899 259.479 31.1695 257.078 33.7491L257.957 34.5666ZM261.878 24.4779C261.878 20.5445 260.57 17.1449 257.959 14.3113L257.076 15.1245C259.478 17.7308 260.678 20.8379 260.678 24.4779H261.878ZM257.961 14.3136C255.36 11.461 252.009 10.0379 247.958 10.0379V11.2379C251.693 11.2379 254.715 12.5347 257.074 15.1221L257.961 14.3136ZM267.612 9.43786V8.83786H267.012V9.43786H267.612ZM268.932 9.43786H269.532V8.83786H268.932V9.43786ZM268.932 39.4379V40.0379H269.532V39.4379H268.932ZM267.612 39.4379H267.012V40.0379H267.612V39.4379ZM267.612 10.0379H268.932V8.83786H267.612V10.0379ZM268.332 9.43786V39.4379H269.532V9.43786H268.332ZM268.932 38.8379H267.612V40.0379H268.932V38.8379ZM268.212 39.4379V9.43786H267.012V39.4379H268.212ZM297.227 9.43786V8.83786H296.627V9.43786H297.227ZM298.387 9.43786H298.987V8.83786H298.387V9.43786ZM298.387 39.8779L297.921 40.2564L298.987 41.5671V39.8779H298.387ZM276.307 12.7179L276.772 12.3394L275.707 11.0287V12.7179H276.307ZM276.307 39.4379V40.0379H276.907V39.4379H276.307ZM275.147 39.4379H274.547V40.0379H275.147V39.4379ZM275.147 8.99786L275.612 8.61904L274.547 7.31059V8.99786H275.147ZM297.227 36.1179L296.761 36.4967L297.827 37.8051V36.1179H297.227ZM297.227 10.0379H298.387V8.83786H297.227V10.0379ZM297.787 9.43786V39.8779H298.987V9.43786H297.787ZM298.852 39.4994L276.772 12.3394L275.841 13.0963L297.921 40.2564L298.852 39.4994ZM275.707 12.7179V39.4379H276.907V12.7179H275.707ZM276.307 38.8379H275.147V40.0379H276.307V38.8379ZM275.747 39.4379V8.99786H274.547V39.4379H275.747ZM274.681 9.37669L296.761 36.4967L297.692 35.739L275.612 8.61904L274.681 9.37669ZM297.827 36.1179V9.43786H296.627V36.1179H297.827ZM304.405 9.43786V8.83786H303.805V9.43786H304.405ZM315.165 9.43786H315.765V8.83786H315.165V9.43786ZM315.165 10.5979V11.1979H315.765V10.5979H315.165ZM305.725 10.5979V9.99787H305.125V10.5979H305.725ZM305.725 26.9179H305.125V27.5179H305.725V26.9179ZM313.605 26.9179H314.205V26.3179H313.605V26.9179ZM313.605 28.0779V28.6779H314.205V28.0779H313.605ZM305.725 28.0779V27.4779H305.125V28.0779H305.725ZM305.725 38.2779H305.125V38.8779H305.725V38.2779ZM315.165 38.2779H315.765V37.6779H315.165V38.2779ZM315.165 39.4379V40.0379H315.765V39.4379H315.165ZM304.405 39.4379H303.805V40.0379H304.405V39.4379ZM304.405 10.0379H315.165V8.83786H304.405V10.0379ZM314.565 9.43786V10.5979H315.765V9.43786H314.565ZM315.165 9.99787H305.725V11.1979H315.165V9.99787ZM305.125 10.5979V26.9179H306.325V10.5979H305.125ZM305.725 27.5179H313.605V26.3179H305.725V27.5179ZM313.005 26.9179V28.0779H314.205V26.9179H313.005ZM313.605 27.4779H305.725V28.6779H313.605V27.4779ZM305.125 28.0779V38.2779H306.325V28.0779H305.125ZM305.725 38.8779H315.165V37.6779H305.725V38.8779ZM314.565 38.2779V39.4379H315.765V38.2779H314.565ZM315.165 38.8379H304.405V40.0379H315.165V38.8379ZM305.005 39.4379V9.43786H303.805V39.4379H305.005ZM332.33 8.71787L332.869 8.4546L332.329 7.34893L331.791 8.45517L332.33 8.71787ZM347.33 39.4379V40.0379H348.291L347.869 39.1746L347.33 39.4379ZM345.93 39.4379L345.393 39.7047L345.558 40.0379H345.93V39.4379ZM340.25 27.9979L340.788 27.731L340.622 27.3979H340.25V27.9979ZM324.21 27.9979V27.3979H323.836L323.671 27.7341L324.21 27.9979ZM318.61 39.4379V40.0379H318.984L319.149 39.7017L318.61 39.4379ZM317.37 39.4379L316.831 39.1752L316.411 40.0379H317.37V39.4379ZM332.21 11.4779L332.748 11.2129L332.207 10.1133L331.671 11.2152L332.21 11.4779ZM324.73 26.8379L324.191 26.5752L323.771 27.4379H324.73V26.8379ZM339.77 26.8379V27.4379H340.734L340.308 26.5729L339.77 26.8379ZM331.791 8.98113L346.791 39.7011L347.869 39.1746L332.869 8.4546L331.791 8.98113ZM347.33 38.8379H345.93V40.0379H347.33V38.8379ZM346.468 39.171L340.788 27.731L339.713 28.2647L345.393 39.7047L346.468 39.171ZM340.25 27.3979H324.21V28.5979H340.25V27.3979ZM323.671 27.7341L318.071 39.1741L319.149 39.7017L324.749 28.2617L323.671 27.7341ZM318.61 38.8379H317.37V40.0379H318.61V38.8379ZM317.91 39.7006L332.87 8.98056L331.791 8.45517L316.831 39.1752L317.91 39.7006ZM331.671 11.2152L324.191 26.5752L325.27 27.1006L332.75 11.7406L331.671 11.2152ZM324.73 27.4379H339.77V26.2379H324.73V27.4379ZM340.308 26.5729L332.748 11.2129L331.672 11.7428L339.232 27.1028L340.308 26.5729ZM351.885 37.4379L351.458 37.8588L351.461 37.8621L351.885 37.4379ZM349.365 9.43786V8.83786H348.765V9.43786H349.365ZM350.685 9.43786H351.285V8.83786H350.685V9.43786ZM352.885 36.5979L352.457 37.0183L352.457 37.0183L352.885 36.5979ZM363.725 36.6379L363.297 36.2174L363.297 36.2175L363.725 36.6379ZM365.925 9.43786V8.83786H365.325V9.43786H365.925ZM367.245 9.43786H367.845V8.83786H367.245V9.43786ZM364.685 37.4379L364.258 37.0169L364.258 37.017L364.685 37.4379ZM358.525 39.3979H358.125V40.5979H358.525V39.3979ZM358.125 39.3979C355.828 39.3979 353.902 38.6057 352.31 37.0136L351.461 37.8621C353.282 39.6834 355.516 40.5979 358.125 40.5979V39.3979ZM352.313 37.017C350.753 35.4321 349.965 33.4409 349.965 30.9979H348.765C348.765 33.7281 349.658 36.0303 351.458 37.8588L352.313 37.017ZM349.965 30.9979V9.43786H348.765V30.9979H349.965ZM349.365 10.0379H350.685V8.83786H349.365V10.0379ZM350.085 9.43786V30.9579H351.285V9.43786H350.085ZM350.085 30.9579C350.085 33.3674 350.871 35.4029 352.457 37.0183L353.314 36.1774C351.967 34.8061 351.285 33.0816 351.285 30.9579H350.085ZM352.457 37.0183C354.041 38.6305 356.01 39.4379 358.325 39.4379V38.2379C356.321 38.2379 354.663 37.5519 353.314 36.1774L352.457 37.0183ZM358.325 39.4379C360.637 39.4379 362.595 38.6462 364.154 37.0582L363.297 36.2175C361.976 37.5629 360.334 38.2379 358.325 38.2379V39.4379ZM364.154 37.0583C365.741 35.4415 366.525 33.392 366.525 30.9579H365.325C365.325 33.1104 364.643 34.8475 363.297 36.2174L364.154 37.0583ZM366.525 30.9579V9.43786H365.325V30.9579H366.525ZM365.925 10.0379H367.245V8.83786H365.925V10.0379ZM366.645 9.43786V30.9179H367.845V9.43786H366.645ZM366.645 30.9179C366.645 33.3866 365.845 35.4047 364.258 37.0169L365.113 37.8588C366.939 36.0044 367.845 33.6758 367.845 30.9179H366.645ZM364.258 37.017C362.692 38.6073 360.794 39.3979 358.525 39.3979V40.5979C361.111 40.5979 363.319 39.6817 365.113 37.8588L364.258 37.017Z" fill="white"/>
<path d="M86.4417 18.3378L90.3517 24.4588L86.4417 30.5775H78.6193L74.7068 24.4588L78.6193 18.3378H86.4417Z" fill="white"/>
<line x1="71.5972" y1="18.0105" x2="86.4483" y2="18.0105" stroke="white" stroke-width="0.7"/>
<line y1="-0.35" x2="14.5711" y2="-0.35" transform="matrix(0.540103 0.841599 -0.885615 0.46442 82.4818 12.2173)" stroke="white" stroke-width="0.7"/>
<line y1="-0.35" x2="14.5711" y2="-0.35" transform="matrix(0.540103 -0.841599 0.854301 0.519779 71.1798 30.6036)" stroke="white" stroke-width="0.7"/>
<line y1="-0.35" x2="14.5694" y2="-0.35" transform="matrix(-0.535907 0.844277 -0.822206 -0.569191 94.2562 18.2346)" stroke="white" stroke-width="0.7"/>
<line y1="-0.35" x2="14.851" y2="-0.35" transform="matrix(-0.999984 0.00573688 -0.00605116 -0.999982 93.498 30.4926)" stroke="white" stroke-width="0.7"/>
<line y1="-0.35" x2="14.5732" y2="-0.35" transform="matrix(-0.545108 -0.838366 0.882904 -0.469554 82.6508 36.6981)" stroke="white" stroke-width="0.7"/>
<path d="M97.7626 24.4577C97.7626 32.6319 91.034 39.2711 82.718 39.2711C74.402 39.2711 67.6734 32.6319 67.6734 24.4577C67.6734 16.2835 74.402 9.64423 82.718 9.64423C91.034 9.64423 97.7626 16.2835 97.7626 24.4577Z" stroke="white"/>
</svg>
