<svg width="371" height="95" viewBox="0 0 371 95" fill="none" xmlns="http://www.w3.org/2000/svg">
<path d="M55.0767 56.4379H56.3967C59.17 56.4379 61.53 57.3979 63.4767 59.3179C65.4234 61.2112 66.3967 63.4512 66.3967 66.0379C66.3967 68.6245 65.3834 70.8512 63.3567 72.7179C61.3567 74.5845 59.1434 75.5179 56.7167 75.5179H56.3967V86.4379H55.0767V56.4379ZM56.3967 74.3979H56.7167C58.9567 74.3979 60.9034 73.5712 62.5567 71.9179C64.2367 70.2645 65.0767 68.3045 65.0767 66.0379C65.0767 63.7712 64.2234 61.7979 62.5167 60.1179C60.8367 58.4379 58.9034 57.5979 56.7167 57.5979H56.3967V74.3979ZM92.5826 56.4379H93.9026V86.4379H92.5826V74.9979H72.0226V86.4379H70.7026V56.4379H72.0226V73.8379H92.5826V56.4379ZM114.001 86.9579C109.868 86.9579 106.281 85.3979 103.241 82.2779C100.228 79.1579 98.7214 75.5179 98.7214 71.3579C98.7214 67.1712 100.255 63.5579 103.321 60.5179C106.388 57.4512 110.068 55.9179 114.361 55.9179C118.655 55.9179 122.321 57.4379 125.361 60.4779C128.401 63.5179 129.921 67.1445 129.921 71.3579C129.921 75.5445 128.415 79.1979 125.401 82.3179C122.388 85.4112 118.788 86.9579 114.601 86.9579H114.001ZM128.601 71.4379C128.601 67.4912 127.201 64.1179 124.401 61.3179C121.628 58.4912 118.268 57.0779 114.321 57.0779C110.401 57.0779 107.041 58.4912 104.241 61.3179C101.441 64.1179 100.041 67.4912 100.041 71.4379C100.041 75.3579 101.441 78.7312 104.241 81.5579C107.041 84.3845 110.401 85.7979 114.321 85.7979C118.241 85.7979 121.601 84.3845 124.401 81.5579C127.201 78.7312 128.601 75.3579 128.601 71.4379ZM144.247 56.4379V57.5979H137.407V86.4379H136.087V57.5979H129.167V56.4379H144.247ZM158.923 86.9579C154.79 86.9579 151.203 85.3979 148.163 82.2779C145.15 79.1579 143.643 75.5179 143.643 71.3579C143.643 67.1712 145.177 63.5579 148.243 60.5179C151.31 57.4512 154.99 55.9179 159.283 55.9179C163.577 55.9179 167.243 57.4379 170.283 60.4779C173.323 63.5179 174.843 67.1445 174.843 71.3579C174.843 75.5445 173.337 79.1979 170.323 82.3179C167.31 85.4112 163.71 86.9579 159.523 86.9579H158.923ZM173.523 71.4379C173.523 67.4912 172.123 64.1179 169.323 61.3179C166.55 58.4912 163.19 57.0779 159.243 57.0779C155.323 57.0779 151.963 58.4912 149.163 61.3179C146.363 64.1179 144.963 67.4912 144.963 71.4379C144.963 75.3579 146.363 78.7312 149.163 81.5579C151.963 84.3845 155.323 85.7979 159.243 85.7979C163.163 85.7979 166.523 84.3845 169.323 81.5579C172.123 78.7312 173.523 75.3579 173.523 71.4379ZM190.928 74.9979V73.8379H202.168V84.6779C199.821 86.1445 197.181 86.8779 194.248 86.8779H193.808C191.061 86.8779 188.501 86.1579 186.128 84.7179C183.755 83.2779 181.875 81.3712 180.488 78.9979C179.128 76.5979 178.448 74.0512 178.448 71.3579C178.448 67.1179 179.981 63.4779 183.048 60.4379C186.115 57.3712 189.781 55.8379 194.048 55.8379C196.901 55.8379 199.608 56.5845 202.168 58.0779V59.5579C199.661 57.8512 196.955 56.9979 194.048 56.9979C190.128 56.9979 186.768 58.4112 183.968 61.2379C181.168 64.0379 179.768 67.4112 179.768 71.3579C179.768 75.2779 181.168 78.6512 183.968 81.4779C186.768 84.3045 190.128 85.7179 194.048 85.7179C196.235 85.7179 198.501 85.1579 200.848 84.0379V74.9979H190.928ZM207.382 56.4379H209.102C211.689 56.4379 213.956 57.3979 215.902 59.3179C217.876 61.2112 218.862 63.4512 218.862 66.0379C218.862 68.5979 217.862 70.8245 215.862 72.7179C213.862 74.6112 211.716 75.5579 209.422 75.5579H209.142L219.462 86.4379H217.742L208.662 76.9179V86.4379H207.382V56.4379ZM208.662 74.3979H209.382C211.542 74.3979 213.449 73.5712 215.102 71.9179C216.756 70.2645 217.582 68.3045 217.582 66.0379C217.582 63.7712 216.729 61.7979 215.022 60.1179C213.316 58.4379 211.369 57.5979 209.182 57.5979H208.662V74.3979ZM236.831 55.7179L251.831 86.4379H250.431L244.751 74.9979H228.711L223.111 86.4379H221.871L236.831 55.7179ZM236.711 58.4779L229.231 73.8379H244.271L236.711 58.4779ZM255.975 56.4379H257.295C260.068 56.4379 262.428 57.3979 264.375 59.3179C266.322 61.2112 267.295 63.4512 267.295 66.0379C267.295 68.6245 266.282 70.8512 264.255 72.7179C262.255 74.5845 260.042 75.5179 257.615 75.5179H257.295V86.4379H255.975V56.4379ZM257.295 74.3979H257.615C259.855 74.3979 261.802 73.5712 263.455 71.9179C265.135 70.2645 265.975 68.3045 265.975 66.0379C265.975 63.7712 265.122 61.7979 263.415 60.1179C261.735 58.4379 259.802 57.5979 257.615 57.5979H257.295V74.3979ZM293.481 56.4379H294.801V86.4379H293.481V74.9979H272.921V86.4379H271.601V56.4379H272.921V73.8379H293.481V56.4379ZM301.02 56.4379H302.34V86.4379H301.02V56.4379ZM308.554 56.4379H319.314V57.5979H309.874V73.9179H317.754V75.0779H309.874V85.2779H319.314V86.4379H308.554V56.4379Z" fill="#F4F4F4"/>
<path d="M25.8959 9.43786H27.0559V39.8779L4.9759 12.7179V39.4379H3.8159V8.99786L25.8959 36.1179V9.43786ZM33.2737 9.43786H34.5937V39.4379H33.2737V9.43786ZM55.4081 39.8779H54.9681C52.2214 39.8779 49.6614 39.1579 47.2881 37.7179C44.9148 36.2779 43.0348 34.3712 41.6481 31.9979C40.2881 29.5979 39.6081 27.0512 39.6081 24.3579C39.6081 20.1179 41.1414 16.4779 44.2081 13.4379C47.2748 10.3712 50.9414 8.83786 55.2081 8.83786C58.0614 8.83786 60.7681 9.58453 63.3281 11.0779V12.5579C60.8214 10.8512 58.1148 9.99786 55.2081 9.99786C51.2881 9.99786 47.9281 11.4112 45.1281 14.2379C42.3281 17.0379 40.9281 20.4112 40.9281 24.3579C40.9281 28.2779 42.3281 31.6512 45.1281 34.4779C47.9281 37.3045 51.2881 38.7179 55.2081 38.7179C58.1148 38.7179 60.8214 37.8645 63.3281 36.1579V37.6379C60.9014 39.1312 58.2614 39.8779 55.4081 39.8779ZM82.8178 39.9579C78.6844 39.9579 75.0978 38.3979 72.0578 35.2779C69.0444 32.1579 67.5378 28.5179 67.5378 24.3579C67.5378 20.1712 69.0711 16.5579 72.1378 13.5179C75.2044 10.4512 78.8844 8.91787 83.1778 8.91787C87.4711 8.91787 91.1378 10.4379 94.1778 13.4779C97.2178 16.5179 98.7378 20.1445 98.7378 24.3579C98.7378 28.5445 97.2311 32.1979 94.2178 35.3179C91.2044 38.4112 87.6044 39.9579 83.4178 39.9579H82.8178ZM97.4178 24.4379C97.4178 20.4912 96.0178 17.1179 93.2178 14.3179C90.4444 11.4912 87.0844 10.0779 83.1378 10.0779C79.2178 10.0779 75.8578 11.4912 73.0578 14.3179C70.2578 17.1179 68.8578 20.4912 68.8578 24.4379C68.8578 28.3579 70.2578 31.7312 73.0578 34.5579C75.8578 37.3845 79.2178 38.7979 83.1378 38.7979C87.0578 38.7979 90.4178 37.3845 93.2178 34.5579C96.0178 31.7312 97.4178 28.3579 97.4178 24.4379ZM104.862 9.43786V38.2779H114.142V39.4379H103.542V9.43786H104.862ZM131.117 8.71787L146.117 39.4379H144.717L139.037 27.9979H122.997L117.397 39.4379H116.157L131.117 8.71787ZM130.997 11.4779L123.517 26.8379H138.557L130.997 11.4779ZM162.38 13.6779C161.767 12.5579 160.927 11.6779 159.86 11.0379C158.82 10.3979 157.647 10.0779 156.34 10.0779C155.034 10.0779 153.914 10.4912 152.98 11.3179C152.074 12.1179 151.62 13.2245 151.62 14.6379V14.8379C151.62 16.5179 152.554 18.0512 154.42 19.4379C155.22 20.0245 156.114 20.6112 157.1 21.1979C158.114 21.7579 159.114 22.3712 160.1 23.0379C161.114 23.6779 162.02 24.3712 162.82 25.1179C163.647 25.8379 164.314 26.7312 164.82 27.7979C165.354 28.8645 165.62 30.0379 165.62 31.3179V31.7179C165.62 34.2512 164.754 36.2645 163.02 37.7579C161.314 39.2512 159.194 39.9979 156.66 39.9979C153.327 39.9979 150.74 38.6245 148.9 35.8779V33.7179C149.594 35.2379 150.607 36.4779 151.94 37.4379C153.3 38.3712 154.98 38.8379 156.98 38.8379C158.98 38.8379 160.714 38.1979 162.18 36.9179C163.647 35.6379 164.38 33.9312 164.38 31.7979V31.5579C164.38 30.2245 164.034 29.0112 163.34 27.9179C162.647 26.7979 161.78 25.8912 160.74 25.1979C159.7 24.4779 158.567 23.7312 157.34 22.9579C156.114 22.1845 154.98 21.4645 153.94 20.7979C152.9 20.1312 152.034 19.2912 151.34 18.2779C150.647 17.2645 150.3 16.1579 150.3 14.9579V14.6779C150.3 12.8112 150.9 11.3845 152.1 10.3979C153.3 9.4112 154.78 8.91787 156.54 8.91787C158.994 8.91787 160.94 9.82453 162.38 11.6379V13.6779ZM195.487 27.9979V26.8379H206.727V37.6779C204.38 39.1445 201.74 39.8779 198.807 39.8779H198.367C195.62 39.8779 193.06 39.1579 190.687 37.7179C188.313 36.2779 186.433 34.3712 185.047 31.9979C183.687 29.5979 183.007 27.0512 183.007 24.3579C183.007 20.1179 184.54 16.4779 187.607 13.4379C190.673 10.3712 194.34 8.83786 198.607 8.83786C201.46 8.83786 204.167 9.58453 206.727 11.0779V12.5579C204.22 10.8512 201.513 9.99786 198.607 9.99786C194.687 9.99786 191.327 11.4112 188.527 14.2379C185.727 17.0379 184.327 20.4112 184.327 24.3579C184.327 28.2779 185.727 31.6512 188.527 34.4779C191.327 37.3045 194.687 38.7179 198.607 38.7179C200.793 38.7179 203.06 38.1579 205.407 37.0379V27.9979H195.487ZM226.021 39.9579C221.888 39.9579 218.301 38.3979 215.261 35.2779C212.248 32.1579 210.741 28.5179 210.741 24.3579C210.741 20.1712 212.274 16.5579 215.341 13.5179C218.408 10.4512 222.088 8.91787 226.381 8.91787C230.674 8.91787 234.341 10.4379 237.381 13.4779C240.421 16.5179 241.941 20.1445 241.941 24.3579C241.941 28.5445 240.434 32.1979 237.421 35.3179C234.408 38.4112 230.808 39.9579 226.621 39.9579H226.021ZM240.621 24.4379C240.621 20.4912 239.221 17.1179 236.421 14.3179C233.648 11.4912 230.288 10.0779 226.341 10.0779C222.421 10.0779 219.061 11.4912 216.261 14.3179C213.461 17.1179 212.061 20.4912 212.061 24.4379C212.061 28.3579 213.461 31.7312 216.261 34.5579C219.061 37.3845 222.421 38.7979 226.341 38.7979C230.261 38.7979 233.621 37.3845 236.421 34.5579C239.221 31.7312 240.621 28.3579 240.621 24.4379ZM246.746 9.43786H248.026C252.506 9.43786 256.119 10.9179 258.866 13.8779C261.612 16.8112 262.986 20.3445 262.986 24.4779C262.986 28.5845 261.612 32.1045 258.866 35.0379C256.146 37.9712 252.532 39.4379 248.026 39.4379H246.746V9.43786ZM248.346 10.6379H248.026V38.1979H248.346C252.239 38.1979 255.426 36.8512 257.906 34.1579C260.412 31.4645 261.666 28.2379 261.666 24.4779C261.666 20.6912 260.412 17.4379 257.906 14.7179C255.426 11.9979 252.239 10.6379 248.346 10.6379ZM268 9.43786H269.32V39.4379H268V9.43786ZM297.615 9.43786H298.775V39.8779L276.695 12.7179V39.4379H275.535V8.99786L297.615 36.1179V9.43786ZM304.792 9.43786H315.552V10.5979H306.112V26.9179H313.992V28.0779H306.112V38.2779H315.552V39.4379H304.792V9.43786ZM332.718 8.71787L347.718 39.4379H346.318L340.638 27.9979H324.598L318.998 39.4379H317.758L332.718 8.71787ZM332.598 11.4779L325.118 26.8379H340.158L332.598 11.4779ZM358.913 39.9979H358.513C356.06 39.9979 353.98 39.1445 352.273 37.4379C350.593 35.7312 349.753 33.5845 349.753 30.9979V9.43786H351.073V30.9579C351.073 33.2245 351.807 35.1045 353.273 36.5979C354.74 38.0912 356.553 38.8379 358.713 38.8379C360.873 38.8379 362.673 38.1045 364.113 36.6379C365.58 35.1445 366.313 33.2512 366.313 30.9579V9.43786H367.633V30.9179C367.633 33.5312 366.78 35.7045 365.073 37.4379C363.393 39.1445 361.34 39.9979 358.913 39.9979Z" fill="#F4F4F4"/>
<path d="M25.8959 9.43786V8.93786H25.3959V9.43786H25.8959ZM27.0559 9.43786H27.5559V8.93786H27.0559V9.43786ZM27.0559 39.8779L26.6679 40.1933L27.5559 41.2855V39.8779H27.0559ZM4.9759 12.7179L5.36387 12.4025L4.4759 11.3102V12.7179H4.9759ZM4.9759 39.4379V39.9379H5.4759V39.4379H4.9759ZM3.8159 39.4379H3.3159V39.9379H3.8159V39.4379ZM3.8159 8.99786L4.20364 8.68218L3.3159 7.5918V8.99786H3.8159ZM25.8959 36.1179L25.5082 36.4335L26.3959 37.5239V36.1179H25.8959ZM25.8959 9.93786H27.0559V8.93786H25.8959V9.93786ZM26.5559 9.43786V39.8779H27.5559V9.43786H26.5559ZM27.4439 39.5625L5.36387 12.4025L4.58793 13.0333L26.6679 40.1933L27.4439 39.5625ZM4.4759 12.7179V39.4379H5.4759V12.7179H4.4759ZM4.9759 38.9379H3.8159V39.9379H4.9759V38.9379ZM4.3159 39.4379V8.99786H3.3159V39.4379H4.3159ZM3.42816 9.31355L25.5082 36.4335L26.2836 35.8022L4.20364 8.68218L3.42816 9.31355ZM26.3959 36.1179V9.43786H25.3959V36.1179H26.3959ZM33.2737 9.43786V8.93786H32.7737V9.43786H33.2737ZM34.5937 9.43786H35.0937V8.93786H34.5937V9.43786ZM34.5937 39.4379V39.9379H35.0937V39.4379H34.5937ZM33.2737 39.4379H32.7737V39.9379H33.2737V39.4379ZM33.2737 9.93786H34.5937V8.93786H33.2737V9.93786ZM34.0937 9.43786V39.4379H35.0937V9.43786H34.0937ZM34.5937 38.9379H33.2737V39.9379H34.5937V38.9379ZM33.7737 39.4379V9.43786H32.7737V39.4379H33.7737ZM47.2881 37.7179L47.5475 37.2904L47.5475 37.2904L47.2881 37.7179ZM41.6481 31.9979L41.213 32.2444L41.2164 32.2501L41.6481 31.9979ZM44.2081 13.4379L44.5601 13.793L44.5616 13.7914L44.2081 13.4379ZM63.3281 11.0779H63.8281V10.7907L63.58 10.646L63.3281 11.0779ZM63.3281 12.5579L63.0467 12.9712L63.8281 13.5032V12.5579H63.3281ZM45.1281 14.2379L45.4816 14.5914L45.4833 14.5897L45.1281 14.2379ZM45.1281 34.4779L45.4833 34.126L45.4833 34.126L45.1281 34.4779ZM63.3281 36.1579H63.8281V35.2126L63.0467 35.7446L63.3281 36.1579ZM63.3281 37.6379L63.5901 38.0637L63.8281 37.9173V37.6379H63.3281ZM55.4081 39.3779H54.9681V40.3779H55.4081V39.3779ZM54.9681 39.3779C52.3139 39.3779 49.8435 38.6835 47.5475 37.2904L47.0287 38.1453C49.4794 39.6322 52.1289 40.3779 54.9681 40.3779V39.3779ZM47.5475 37.2904C45.2445 35.8931 43.4241 34.0464 42.0798 31.7456L41.2164 32.2501C42.6455 34.696 44.585 36.6626 47.0287 38.1453L47.5475 37.2904ZM42.0831 31.7514C40.7646 29.4246 40.1081 26.9626 40.1081 24.3579H39.1081C39.1081 27.1398 39.8116 29.7711 41.2131 32.2444L42.0831 31.7514ZM40.1081 24.3579C40.1081 20.254 41.5862 16.741 44.5601 13.793L43.8561 13.0828C40.6967 16.2147 39.1081 19.9818 39.1081 24.3579H40.1081ZM44.5616 13.7914C47.5363 10.8168 51.0765 9.33786 55.2081 9.33786V8.33786C50.8064 8.33786 47.0132 9.92561 43.8545 13.0843L44.5616 13.7914ZM55.2081 9.33786C57.9694 9.33786 60.5895 10.0592 63.0762 11.5098L63.58 10.646C60.9466 9.10984 58.1535 8.33786 55.2081 8.33786V9.33786ZM62.8281 11.0779V12.5579H63.8281V11.0779H62.8281ZM63.6095 12.1446C61.0237 10.384 58.2196 9.49786 55.2081 9.49786V10.4979C58.0099 10.4979 60.6192 11.3184 63.0467 12.9712L63.6095 12.1446ZM55.2081 9.49786C51.1524 9.49786 47.6652 10.9661 44.7729 13.886L45.4833 14.5897C48.191 11.8563 51.4238 10.4979 55.2081 10.4979V9.49786ZM44.7745 13.8843C41.8811 16.7777 40.4281 20.2781 40.4281 24.3579H41.4281C41.4281 20.5443 42.7751 17.298 45.4816 14.5914L44.7745 13.8843ZM40.4281 24.3579C40.4281 28.4118 41.8817 31.911 44.7729 34.8297L45.4833 34.126C42.7745 31.3914 41.4281 28.1439 41.4281 24.3579H40.4281ZM44.7729 34.8297C47.6652 37.7496 51.1524 39.2179 55.2081 39.2179V38.2179C51.4238 38.2179 48.191 36.8595 45.4833 34.126L44.7729 34.8297ZM55.2081 39.2179C58.2196 39.2179 61.0237 38.3317 63.6095 36.5712L63.0467 35.7446C60.6192 37.3973 58.0099 38.2179 55.2081 38.2179V39.2179ZM62.8281 36.1579V37.6379H63.8281V36.1579H62.8281ZM63.066 37.212C60.7183 38.6568 58.169 39.3779 55.4081 39.3779V40.3779C58.3538 40.3779 61.0846 39.6056 63.5901 38.0637L63.066 37.212ZM72.0578 35.2779L71.6981 35.6252L71.6997 35.6268L72.0578 35.2779ZM72.1378 13.5179L72.4898 13.873L72.4913 13.8714L72.1378 13.5179ZM94.1778 13.4779L94.5313 13.1243L94.5313 13.1243L94.1778 13.4779ZM94.2178 35.3179L94.5759 35.6668L94.5774 35.6652L94.2178 35.3179ZM93.2178 14.3179L92.8609 14.6681L92.8642 14.6714L93.2178 14.3179ZM73.0578 14.3179L73.4113 14.6714L73.413 14.6697L73.0578 14.3179ZM73.0578 34.5579L73.413 34.206L73.413 34.206L73.0578 34.5579ZM93.2178 34.5579L92.8626 34.206L93.2178 34.5579ZM82.8178 39.4579C78.8272 39.4579 75.3674 37.9582 72.4159 34.9289L71.6997 35.6268C74.8281 38.8376 78.5417 40.4579 82.8178 40.4579V39.4579ZM72.4174 34.9305C69.4899 31.8993 68.0378 28.3823 68.0378 24.3579H67.0378C67.0378 28.6535 68.599 32.4164 71.6981 35.6252L72.4174 34.9305ZM68.0378 24.3579C68.0378 20.3092 69.5145 16.8224 72.4898 13.873L71.7858 13.1628C68.6277 16.2934 67.0378 20.0332 67.0378 24.3579H68.0378ZM72.4913 13.8714C75.4653 10.8975 79.0186 9.41787 83.1778 9.41787V8.41787C78.7503 8.41787 74.9436 10.0049 71.7842 13.1643L72.4913 13.8714ZM83.1778 9.41787C87.3383 9.41787 90.8778 10.885 93.8242 13.8314L94.5313 13.1243C91.3977 9.99069 87.6039 8.41787 83.1778 8.41787V9.41787ZM93.8242 13.8314C96.7726 16.7798 98.2378 20.2801 98.2378 24.3579H99.2378C99.2378 20.0089 97.663 16.2559 94.5313 13.1243L93.8242 13.8314ZM98.2378 24.3579C98.2378 28.4098 96.785 31.94 93.8581 34.9705L94.5774 35.6652C97.6772 32.4557 99.2378 28.6792 99.2378 24.3579H98.2378ZM93.8596 34.969C90.9371 37.9691 87.4649 39.4579 83.4178 39.4579V40.4579C87.744 40.4579 91.4718 38.8533 94.5759 35.6668L93.8596 34.969ZM83.4178 39.4579H82.8178V40.4579H83.4178V39.4579ZM97.9178 24.4379C97.9178 20.3581 96.4647 16.8577 93.5713 13.9643L92.8642 14.6714C95.5708 17.378 96.9178 20.6243 96.9178 24.4379H97.9178ZM93.5747 13.9677C90.7077 11.0456 87.2192 9.57787 83.1378 9.57787V10.5779C86.9497 10.5779 90.1812 11.9368 92.8609 14.668L93.5747 13.9677ZM83.1378 9.57787C79.0821 9.57787 75.5949 11.0461 72.7026 13.966L73.413 14.6697C76.1207 11.9363 79.3534 10.5779 83.1378 10.5779V9.57787ZM72.7042 13.9643C69.8108 16.8577 68.3578 20.3581 68.3578 24.4379H69.3578C69.3578 20.6243 70.7047 17.378 73.4113 14.6714L72.7042 13.9643ZM68.3578 24.4379C68.3578 28.4918 69.8114 31.991 72.7026 34.9097L73.413 34.206C70.7042 31.4714 69.3578 28.2239 69.3578 24.4379H68.3578ZM72.7026 34.9097C75.5949 37.8296 79.0821 39.2979 83.1378 39.2979V38.2979C79.3534 38.2979 76.1207 36.9395 73.413 34.206L72.7026 34.9097ZM83.1378 39.2979C87.1934 39.2979 90.6807 37.8296 93.573 34.9097L92.8626 34.206C90.1549 36.9395 86.9221 38.2979 83.1378 38.2979V39.2979ZM93.573 34.9097C96.4642 31.991 97.9178 28.4918 97.9178 24.4379H96.9178C96.9178 28.2239 95.5714 31.4714 92.8626 34.206L93.573 34.9097ZM104.862 9.43786H105.362V8.93786H104.862V9.43786ZM104.862 38.2779H104.362V38.7779H104.862V38.2779ZM114.142 38.2779H114.642V37.7779H114.142V38.2779ZM114.142 39.4379V39.9379H114.642V39.4379H114.142ZM103.542 39.4379H103.042V39.9379H103.542V39.4379ZM103.542 9.43786V8.93786H103.042V9.43786H103.542ZM104.362 9.43786V38.2779H105.362V9.43786H104.362ZM104.862 38.7779H114.142V37.7779H104.862V38.7779ZM113.642 38.2779V39.4379H114.642V38.2779H113.642ZM114.142 38.9379H103.542V39.9379H114.142V38.9379ZM104.042 39.4379V9.43786H103.042V39.4379H104.042ZM103.542 9.93786H104.862V8.93786H103.542V9.93786ZM131.117 8.71787L131.566 8.49848L131.116 7.57709L130.667 8.49895L131.117 8.71787ZM146.117 39.4379V39.9379H146.917L146.566 39.2185L146.117 39.4379ZM144.717 39.4379L144.269 39.6602L144.407 39.9379H144.717V39.4379ZM139.037 27.9979L139.484 27.7755L139.347 27.4979H139.037V27.9979ZM122.997 27.9979V27.4979H122.685L122.547 27.778L122.997 27.9979ZM117.397 39.4379V39.9379H117.708L117.846 39.6577L117.397 39.4379ZM116.157 39.4379L115.707 39.219L115.357 39.9379H116.157V39.4379ZM130.997 11.4779L131.445 11.2571L130.994 10.3408L130.547 11.259L130.997 11.4779ZM123.517 26.8379L123.067 26.619L122.717 27.3379H123.517V26.8379ZM138.557 26.8379V27.3379H139.36L139.005 26.6171L138.557 26.8379ZM130.667 8.93725L145.667 39.6573L146.566 39.2185L131.566 8.49848L130.667 8.93725ZM146.117 38.9379H144.717V39.9379H146.117V38.9379ZM145.164 39.2155L139.484 27.7755L138.589 28.2202L144.269 39.6602L145.164 39.2155ZM139.037 27.4979H122.997V28.4979H139.037V27.4979ZM122.547 27.778L116.947 39.218L117.846 39.6577L123.446 28.2177L122.547 27.778ZM117.397 38.9379H116.157V39.9379H117.397V38.9379ZM116.606 39.6568L131.566 8.93678L130.667 8.49895L115.707 39.219L116.606 39.6568ZM130.547 11.259L123.067 26.619L123.966 27.0568L131.446 11.6968L130.547 11.259ZM123.517 27.3379H138.557V26.3379H123.517V27.3379ZM139.005 26.6171L131.445 11.2571L130.548 11.6987L138.108 27.0587L139.005 26.6171ZM162.38 13.6779L161.942 13.918L162.88 13.6779H162.38ZM159.86 11.0379L159.598 11.4637L159.603 11.4666L159.86 11.0379ZM152.98 11.3179L153.311 11.6928L153.312 11.6922L152.98 11.3179ZM154.42 19.4379L154.122 19.8392L154.125 19.8411L154.42 19.4379ZM157.1 21.1979L156.845 21.6276L156.852 21.6317L156.858 21.6355L157.1 21.1979ZM160.1 23.0379L159.82 23.4522L159.827 23.4565L159.833 23.4606L160.1 23.0379ZM162.82 25.1179L162.479 25.4834L162.485 25.4893L162.492 25.4949L162.82 25.1179ZM164.82 27.7979L164.369 28.0124L164.373 28.0215L164.82 27.7979ZM163.02 37.7579L162.694 37.3791L162.691 37.3816L163.02 37.7579ZM148.9 35.8779H148.4V36.0299L148.485 36.1561L148.9 35.8779ZM148.9 33.7179L149.355 33.5104L148.4 33.7179H148.9ZM151.94 37.4379L151.648 37.8437L151.657 37.8501L151.94 37.4379ZM162.18 36.9179L162.509 37.2946L162.509 37.2946L162.18 36.9179ZM163.34 27.9179L162.915 28.1811L162.918 28.1856L163.34 27.9179ZM160.74 25.1979L160.456 25.609L160.463 25.6139L160.74 25.1979ZM157.34 22.9579L157.607 22.5349L157.607 22.5349L157.34 22.9579ZM151.34 18.2779L151.753 17.9955L151.753 17.9955L151.34 18.2779ZM162.38 11.6379H162.88V11.4635L162.772 11.3269L162.38 11.6379ZM162.819 13.4377C162.164 12.242 161.262 11.296 160.118 10.6091L159.603 11.4666C160.592 12.0597 161.37 12.8737 161.942 13.918L162.819 13.4377ZM160.122 10.612C158.998 9.92012 157.733 9.57787 156.34 9.57787V10.5779C157.561 10.5779 158.643 10.8756 159.598 11.4637L160.122 10.612ZM156.34 9.57787C154.918 9.57787 153.678 10.0318 152.649 10.9436L153.312 11.6922C154.149 10.9506 155.149 10.5779 156.34 10.5779V9.57787ZM152.649 10.9429C151.617 11.8542 151.12 13.1078 151.12 14.6379H152.12C152.12 13.3413 152.53 12.3815 153.311 11.6928L152.649 10.9429ZM151.12 14.6379V14.8379H152.12V14.6379H151.12ZM151.12 14.8379C151.12 16.7315 152.181 18.3971 154.122 19.8392L154.718 19.0365C152.926 17.7053 152.12 16.3043 152.12 14.8379H151.12ZM154.125 19.8411C154.939 20.4386 155.846 21.034 156.845 21.6276L157.356 20.7681C156.381 20.1884 155.501 19.6105 154.716 19.0347L154.125 19.8411ZM156.858 21.6355C157.858 22.1881 158.846 22.7936 159.82 23.4522L160.38 22.6236C159.382 21.9488 158.369 21.3276 157.342 20.7602L156.858 21.6355ZM159.833 23.4606C160.823 24.0855 161.704 24.76 162.479 25.4834L163.161 24.7523C162.337 23.9824 161.405 23.2703 160.367 22.6151L159.833 23.4606ZM162.492 25.4949C163.263 26.1664 163.889 27.0029 164.369 28.0124L165.272 27.5833C164.738 26.4595 164.031 25.5094 163.149 24.7408L162.492 25.4949ZM164.373 28.0215C164.869 29.0137 165.12 30.1097 165.12 31.3179H166.12C166.12 29.9661 165.838 28.7154 165.267 27.5743L164.373 28.0215ZM165.12 31.3179V31.7179H166.12V31.3179H165.12ZM165.12 31.7179C165.12 34.1232 164.304 35.9916 162.694 37.3791L163.347 38.1367C165.203 36.5375 166.12 34.3792 166.12 31.7179H165.12ZM162.691 37.3816C161.086 38.7857 159.088 39.4979 156.66 39.4979V40.4979C159.3 40.4979 161.541 39.7167 163.35 38.1342L162.691 37.3816ZM156.66 39.4979C153.492 39.4979 151.062 38.2063 149.316 35.5996L148.485 36.1561C150.419 39.0428 153.162 40.4979 156.66 40.4979V39.4979ZM149.4 35.8779V33.7179H148.4V35.8779H149.4ZM148.445 33.9254C149.174 35.5231 150.243 36.8319 151.648 37.8436L152.232 37.0321C150.971 36.1238 150.013 34.9526 149.355 33.5104L148.445 33.9254ZM151.657 37.8501C153.117 38.8518 154.901 39.3379 156.98 39.3379V38.3379C155.06 38.3379 153.484 37.8906 152.223 37.0256L151.657 37.8501ZM156.98 39.3379C159.098 39.3379 160.949 38.6564 162.509 37.2946L161.852 36.5412C160.479 37.7393 158.863 38.3379 156.98 38.3379V39.3379ZM162.509 37.2946C164.096 35.9098 164.88 34.06 164.88 31.7979H163.88C163.88 33.8024 163.198 35.3659 161.852 36.5412L162.509 37.2946ZM164.88 31.7979V31.5579H163.88V31.7979H164.88ZM164.88 31.5579C164.88 30.1327 164.508 28.826 163.763 27.6501L162.918 28.1856C163.559 29.1964 163.88 30.3164 163.88 31.5579H164.88ZM163.765 27.6547C163.036 26.4771 162.12 25.5171 161.018 24.7818L160.463 25.6139C161.44 26.2653 162.257 27.1186 162.915 28.181L163.765 27.6547ZM161.025 24.7868C159.978 24.0621 158.839 23.3115 157.607 22.5349L157.074 23.3808C158.295 24.1509 159.422 24.8936 160.456 25.609L161.025 24.7868ZM157.607 22.5349C156.381 21.7621 155.249 21.0428 154.21 20.3769L153.67 21.2188C154.712 21.8863 155.846 22.6069 157.074 23.3808L157.607 22.5349ZM154.21 20.3769C153.226 19.7462 152.408 18.9532 151.753 17.9955L150.928 18.5602C151.659 19.6292 152.574 20.5162 153.67 21.2188L154.21 20.3769ZM151.753 17.9955C151.115 17.0633 150.8 16.0546 150.8 14.9579H149.8C149.8 16.2611 150.179 17.4658 150.928 18.5602L151.753 17.9955ZM150.8 14.9579V14.6779H149.8V14.9579H150.8ZM150.8 14.6779C150.8 12.9274 151.357 11.6565 152.418 10.7841L151.783 10.0117C150.444 11.1126 149.8 12.695 149.8 14.6779H150.8ZM152.418 10.7841C153.517 9.88071 154.88 9.41787 156.54 9.41787V8.41787C154.681 8.41787 153.084 8.94169 151.783 10.0117L152.418 10.7841ZM156.54 9.41787C158.852 9.41787 160.65 10.2629 161.989 11.9488L162.772 11.3269C161.231 9.38618 159.136 8.41787 156.54 8.41787V9.41787ZM161.88 11.6379V13.6779H162.88V11.6379H161.88ZM195.487 27.9979H194.987V28.4979H195.487V27.9979ZM195.487 26.8379V26.3379H194.987V26.8379H195.487ZM206.727 26.8379H207.227V26.3379H206.727V26.8379ZM206.727 37.6779L206.992 38.1019L207.227 37.955V37.6779H206.727ZM190.687 37.7179L190.946 37.2904L190.946 37.2904L190.687 37.7179ZM185.047 31.9979L184.611 32.2444L184.615 32.2501L185.047 31.9979ZM187.607 13.4379L187.959 13.793L187.96 13.7914L187.607 13.4379ZM206.727 11.0779H207.227V10.7907L206.978 10.646L206.727 11.0779ZM206.727 12.5579L206.445 12.9712L207.227 13.5032V12.5579H206.727ZM188.527 14.2379L188.88 14.5914L188.882 14.5897L188.527 14.2379ZM188.527 34.4779L188.882 34.126L188.882 34.126L188.527 34.4779ZM205.407 37.0379L205.622 37.4891L205.907 37.3533V37.0379H205.407ZM205.407 27.9979H205.907V27.4979H205.407V27.9979ZM195.987 27.9979V26.8379H194.987V27.9979H195.987ZM195.487 27.3379H206.727V26.3379H195.487V27.3379ZM206.227 26.8379V37.6779H207.227V26.8379H206.227ZM206.462 37.2539C204.199 38.6678 201.652 39.3779 198.807 39.3779V40.3779C201.828 40.3779 204.561 39.6212 206.992 38.1019L206.462 37.2539ZM198.807 39.3779H198.367V40.3779H198.807V39.3779ZM198.367 39.3779C195.712 39.3779 193.242 38.6835 190.946 37.2904L190.427 38.1453C192.878 39.6322 195.527 40.3779 198.367 40.3779V39.3779ZM190.946 37.2904C188.643 35.8931 186.822 34.0464 185.478 31.7456L184.615 32.2501C186.044 34.696 187.983 36.6626 190.427 38.1453L190.946 37.2904ZM185.482 31.7514C184.163 29.4246 183.507 26.9626 183.507 24.3579H182.507C182.507 27.1398 183.21 29.7711 184.612 32.2444L185.482 31.7514ZM183.507 24.3579C183.507 20.254 184.985 16.741 187.959 13.793L187.255 13.0828C184.095 16.2147 182.507 19.9818 182.507 24.3579H183.507ZM187.96 13.7914C190.935 10.8168 194.475 9.33786 198.607 9.33786V8.33786C194.205 8.33786 190.412 9.92561 187.253 13.0843L187.96 13.7914ZM198.607 9.33786C201.368 9.33786 203.988 10.0592 206.475 11.5098L206.978 10.646C204.345 9.10984 201.552 8.33786 198.607 8.33786V9.33786ZM206.227 11.0779V12.5579H207.227V11.0779H206.227ZM207.008 12.1446C204.422 10.384 201.618 9.49786 198.607 9.49786V10.4979C201.408 10.4979 204.018 11.3184 206.445 12.9712L207.008 12.1446ZM198.607 9.49786C194.551 9.49786 191.064 10.9661 188.171 13.886L188.882 14.5897C191.589 11.8563 194.822 10.4979 198.607 10.4979V9.49786ZM188.173 13.8843C185.28 16.7777 183.827 20.2781 183.827 24.3579H184.827C184.827 20.5443 186.173 17.298 188.88 14.5914L188.173 13.8843ZM183.827 24.3579C183.827 28.4118 185.28 31.911 188.171 34.8297L188.882 34.126C186.173 31.3914 184.827 28.1439 184.827 24.3579H183.827ZM188.171 34.8297C191.064 37.7496 194.551 39.2179 198.607 39.2179V38.2179C194.822 38.2179 191.589 36.8595 188.882 34.126L188.171 34.8297ZM198.607 39.2179C200.881 39.2179 203.221 38.6352 205.622 37.4891L205.191 36.5866C202.899 37.6805 200.706 38.2179 198.607 38.2179V39.2179ZM205.907 37.0379V27.9979H204.907V37.0379H205.907ZM205.407 27.4979H195.487V28.4979H205.407V27.4979ZM215.261 35.2779L214.901 35.6252L214.903 35.6268L215.261 35.2779ZM215.341 13.5179L215.693 13.873L215.694 13.8714L215.341 13.5179ZM237.381 13.4779L237.734 13.1243L237.734 13.1243L237.381 13.4779ZM237.421 35.3179L237.779 35.6668L237.781 35.6652L237.421 35.3179ZM236.421 14.3179L236.064 14.6681L236.067 14.6714L236.421 14.3179ZM216.261 14.3179L216.614 14.6714L216.616 14.6697L216.261 14.3179ZM216.261 34.5579L216.616 34.206L216.616 34.206L216.261 34.5579ZM236.421 34.5579L236.066 34.206L236.421 34.5579ZM226.021 39.4579C222.03 39.4579 218.571 37.9582 215.619 34.9289L214.903 35.6268C218.031 38.8376 221.745 40.4579 226.021 40.4579V39.4579ZM215.621 34.9305C212.693 31.8993 211.241 28.3823 211.241 24.3579H210.241C210.241 28.6535 211.802 32.4164 214.901 35.6252L215.621 34.9305ZM211.241 24.3579C211.241 20.3092 212.718 16.8224 215.693 13.873L214.989 13.1628C211.831 16.2934 210.241 20.0332 210.241 24.3579H211.241ZM215.694 13.8714C218.668 10.8975 222.222 9.41787 226.381 9.41787V8.41787C221.953 8.41787 218.147 10.0049 214.987 13.1643L215.694 13.8714ZM226.381 9.41787C230.541 9.41787 234.081 10.885 237.027 13.8314L237.734 13.1243C234.601 9.99069 230.807 8.41787 226.381 8.41787V9.41787ZM237.027 13.8314C239.976 16.7798 241.441 20.2801 241.441 24.3579H242.441C242.441 20.0089 240.866 16.2559 237.734 13.1243L237.027 13.8314ZM241.441 24.3579C241.441 28.4098 239.988 31.94 237.061 34.9705L237.781 35.6652C240.88 32.4557 242.441 28.6792 242.441 24.3579H241.441ZM237.063 34.969C234.14 37.9691 230.668 39.4579 226.621 39.4579V40.4579C230.947 40.4579 234.675 38.8533 237.779 35.6668L237.063 34.969ZM226.621 39.4579H226.021V40.4579H226.621V39.4579ZM241.121 24.4379C241.121 20.3581 239.668 16.8577 236.774 13.9643L236.067 14.6714C238.774 17.378 240.121 20.6243 240.121 24.4379H241.121ZM236.778 13.9677C233.911 11.0456 230.422 9.57787 226.341 9.57787V10.5779C230.153 10.5779 233.384 11.9368 236.064 14.668L236.778 13.9677ZM226.341 9.57787C222.285 9.57787 218.798 11.0461 215.906 13.966L216.616 14.6697C219.324 11.9363 222.557 10.5779 226.341 10.5779V9.57787ZM215.907 13.9643C213.014 16.8577 211.561 20.3581 211.561 24.4379H212.561C212.561 20.6243 213.908 17.378 216.614 14.6714L215.907 13.9643ZM211.561 24.4379C211.561 28.4918 213.014 31.991 215.906 34.9097L216.616 34.206C213.907 31.4714 212.561 28.2239 212.561 24.4379H211.561ZM215.906 34.9097C218.798 37.8296 222.285 39.2979 226.341 39.2979V38.2979C222.557 38.2979 219.324 36.9395 216.616 34.206L215.906 34.9097ZM226.341 39.2979C230.397 39.2979 233.884 37.8296 236.776 34.9097L236.066 34.206C233.358 36.9395 230.125 38.2979 226.341 38.2979V39.2979ZM236.776 34.9097C239.667 31.991 241.121 28.4918 241.121 24.4379H240.121C240.121 28.2239 238.774 31.4714 236.066 34.206L236.776 34.9097ZM246.746 9.43786V8.93786H246.246V9.43786H246.746ZM258.866 13.8779L258.499 14.218L258.501 14.2196L258.866 13.8779ZM258.866 35.0379L258.501 34.6961L258.499 34.6979L258.866 35.0379ZM246.746 39.4379H246.246V39.9379H246.746V39.4379ZM248.026 10.6379V10.1379H247.526V10.6379H248.026ZM248.026 38.1979H247.526V38.6979H248.026V38.1979ZM257.906 34.1579L257.54 33.8172L257.538 33.8192L257.906 34.1579ZM257.906 14.7179L257.536 15.0547L257.538 15.0567L257.906 14.7179ZM246.746 9.93786H248.026V8.93786H246.746V9.93786ZM248.026 9.93786C252.383 9.93786 255.858 11.3717 258.499 14.218L259.232 13.5378C256.38 10.4641 252.628 8.93786 248.026 8.93786V9.93786ZM258.501 14.2196C261.158 17.0574 262.486 20.4674 262.486 24.4779H263.486C263.486 20.2216 262.067 16.565 259.231 13.5361L258.501 14.2196ZM262.486 24.4779C262.486 28.4607 261.158 31.8577 258.501 34.6961L259.231 35.3796C262.066 32.3514 263.486 28.7084 263.486 24.4779H262.486ZM258.499 34.6979C255.886 37.5158 252.413 38.9379 248.026 38.9379V39.9379C252.652 39.9379 256.405 38.4266 259.232 35.3778L258.499 34.6979ZM248.026 38.9379H246.746V39.9379H248.026V38.9379ZM247.246 39.4379V9.43786H246.246V39.4379H247.246ZM248.346 10.1379H248.026V11.1379H248.346V10.1379ZM247.526 10.6379V38.1979H248.526V10.6379H247.526ZM248.026 38.6979H248.346V37.6979H248.026V38.6979ZM248.346 38.6979C252.369 38.6979 255.692 37.2998 258.273 34.4966L257.538 33.8192C255.159 36.4026 252.109 37.6979 248.346 37.6979V38.6979ZM258.272 34.4985C260.866 31.7104 262.166 28.3612 262.166 24.4779H261.166C261.166 28.1145 259.958 31.2186 257.54 33.8172L258.272 34.4985ZM262.166 24.4779C262.166 20.5689 260.867 17.1937 258.273 14.379L257.538 15.0567C259.957 17.682 261.166 20.8135 261.166 24.4779H262.166ZM258.275 14.381C255.694 11.5505 252.37 10.1379 248.346 10.1379V11.1379C252.107 11.1379 255.157 12.4452 257.536 15.0547L258.275 14.381ZM268 9.43786V8.93786H267.5V9.43786H268ZM269.32 9.43786H269.82V8.93786H269.32V9.43786ZM269.32 39.4379V39.9379H269.82V39.4379H269.32ZM268 39.4379H267.5V39.9379H268V39.4379ZM268 9.93786H269.32V8.93786H268V9.93786ZM268.82 9.43786V39.4379H269.82V9.43786H268.82ZM269.32 38.9379H268V39.9379H269.32V38.9379ZM268.5 39.4379V9.43786H267.5V39.4379H268.5ZM297.615 9.43786V8.93786H297.115V9.43786H297.615ZM298.775 9.43786H299.275V8.93786H298.775V9.43786ZM298.775 39.8779L298.387 40.1933L299.275 41.2855V39.8779H298.775ZM276.695 12.7179L277.083 12.4025L276.195 11.3102V12.7179H276.695ZM276.695 39.4379V39.9379H277.195V39.4379H276.695ZM275.535 39.4379H275.035V39.9379H275.535V39.4379ZM275.535 8.99786L275.922 8.68218L275.035 7.5918V8.99786H275.535ZM297.615 36.1179L297.227 36.4335L298.115 37.5239V36.1179H297.615ZM297.615 9.93786H298.775V8.93786H297.615V9.93786ZM298.275 9.43786V39.8779H299.275V9.43786H298.275ZM299.163 39.5625L277.083 12.4025L276.307 13.0333L298.387 40.1933L299.163 39.5625ZM276.195 12.7179V39.4379H277.195V12.7179H276.195ZM276.695 38.9379H275.535V39.9379H276.695V38.9379ZM276.035 39.4379V8.99786H275.035V39.4379H276.035ZM275.147 9.31355L297.227 36.4335L298.002 35.8022L275.922 8.68218L275.147 9.31355ZM298.115 36.1179V9.43786H297.115V36.1179H298.115ZM304.792 9.43786V8.93786H304.292V9.43786H304.792ZM315.552 9.43786H316.052V8.93786H315.552V9.43786ZM315.552 10.5979V11.0979H316.052V10.5979H315.552ZM306.112 10.5979V10.0979H305.612V10.5979H306.112ZM306.112 26.9179H305.612V27.4179H306.112V26.9179ZM313.992 26.9179H314.492V26.4179H313.992V26.9179ZM313.992 28.0779V28.5779H314.492V28.0779H313.992ZM306.112 28.0779V27.5779H305.612V28.0779H306.112ZM306.112 38.2779H305.612V38.7779H306.112V38.2779ZM315.552 38.2779H316.052V37.7779H315.552V38.2779ZM315.552 39.4379V39.9379H316.052V39.4379H315.552ZM304.792 39.4379H304.292V39.9379H304.792V39.4379ZM304.792 9.93786H315.552V8.93786H304.792V9.93786ZM315.052 9.43786V10.5979H316.052V9.43786H315.052ZM315.552 10.0979H306.112V11.0979H315.552V10.0979ZM305.612 10.5979V26.9179H306.612V10.5979H305.612ZM306.112 27.4179H313.992V26.4179H306.112V27.4179ZM313.492 26.9179V28.0779H314.492V26.9179H313.492ZM313.992 27.5779H306.112V28.5779H313.992V27.5779ZM305.612 28.0779V38.2779H306.612V28.0779H305.612ZM306.112 38.7779H315.552V37.7779H306.112V38.7779ZM315.052 38.2779V39.4379H316.052V38.2779H315.052ZM315.552 38.9379H304.792V39.9379H315.552V38.9379ZM305.292 39.4379V9.43786H304.292V39.4379H305.292ZM332.718 8.71787L333.167 8.49848L332.717 7.57709L332.269 8.49895L332.718 8.71787ZM347.718 39.4379V39.9379H348.519L348.167 39.2185L347.718 39.4379ZM346.318 39.4379L345.87 39.6602L346.008 39.9379H346.318V39.4379ZM340.638 27.9979L341.086 27.7755L340.948 27.4979H340.638V27.9979ZM324.598 27.9979V27.4979H324.286L324.149 27.778L324.598 27.9979ZM318.998 39.4379V39.9379H319.31L319.447 39.6577L318.998 39.4379ZM317.758 39.4379L317.309 39.219L316.958 39.9379H317.758V39.4379ZM332.598 11.4779L333.047 11.2571L332.596 10.3408L332.149 11.259L332.598 11.4779ZM325.118 26.8379L324.669 26.619L324.318 27.3379H325.118V26.8379ZM340.158 26.8379V27.3379H340.961L340.607 26.6171L340.158 26.8379ZM332.269 8.93725L347.269 39.6573L348.167 39.2185L333.167 8.49848L332.269 8.93725ZM347.718 38.9379H346.318V39.9379H347.718V38.9379ZM346.766 39.2155L341.086 27.7755L340.19 28.2202L345.87 39.6602L346.766 39.2155ZM340.638 27.4979H324.598V28.4979H340.638V27.4979ZM324.149 27.778L318.549 39.218L319.447 39.6577L325.047 28.2177L324.149 27.778ZM318.998 38.9379H317.758V39.9379H318.998V38.9379ZM318.208 39.6568L333.168 8.93678L332.269 8.49895L317.309 39.219L318.208 39.6568ZM332.149 11.259L324.669 26.619L325.568 27.0568L333.048 11.6968L332.149 11.259ZM325.118 27.3379H340.158V26.3379H325.118V27.3379ZM340.607 26.6171L333.047 11.2571L332.149 11.6987L339.709 27.0587L340.607 26.6171ZM352.273 37.4379L351.917 37.7886L351.92 37.7914L352.273 37.4379ZM349.753 9.43786V8.93786H349.253V9.43786H349.753ZM351.073 9.43786H351.573V8.93786H351.073V9.43786ZM353.273 36.5979L352.917 36.9482L352.917 36.9482L353.273 36.5979ZM364.113 36.6379L363.757 36.2875L363.757 36.2876L364.113 36.6379ZM366.313 9.43786V8.93786H365.813V9.43786H366.313ZM367.633 9.43786H368.133V8.93786H367.633V9.43786ZM365.073 37.4379L364.717 37.0871L364.717 37.0871L365.073 37.4379ZM358.913 39.4979H358.513V40.4979H358.913V39.4979ZM358.513 39.4979C356.19 39.4979 354.238 38.6955 352.627 37.0843L351.92 37.7914C353.722 39.5936 355.93 40.4979 358.513 40.4979V39.4979ZM352.63 37.0871C351.05 35.4819 350.253 33.4649 350.253 30.9979H349.253C349.253 33.7042 350.137 35.9805 351.917 37.7886L352.63 37.0871ZM350.253 30.9979V9.43786H349.253V30.9979H350.253ZM349.753 9.93786H351.073V8.93786H349.753V9.93786ZM350.573 9.43786V30.9579H351.573V9.43786H350.573ZM350.573 30.9579C350.573 33.3436 351.35 35.3532 352.917 36.9482L353.63 36.2475C352.263 34.8559 351.573 33.1054 351.573 30.9579H350.573ZM352.917 36.9482C354.481 38.5407 356.424 39.3379 358.713 39.3379V38.3379C356.683 38.3379 354.999 37.6417 353.63 36.2475L352.917 36.9482ZM358.713 39.3379C361 39.3379 362.931 38.5559 364.47 36.9882L363.757 36.2876C362.416 37.6532 360.747 38.3379 358.713 38.3379V39.3379ZM364.47 36.9882C366.038 35.392 366.813 33.3685 366.813 30.9579H365.813C365.813 33.1339 365.122 34.897 363.757 36.2875L364.47 36.9882ZM366.813 30.9579V9.43786H365.813V30.9579H366.813ZM366.313 9.93786H367.633V8.93786H366.313V9.93786ZM367.133 9.43786V30.9179H368.133V9.43786H367.133ZM367.133 30.9179C367.133 33.4107 366.324 35.4547 364.717 37.0871L365.43 37.7887C367.236 35.9544 368.133 33.6517 368.133 30.9179H367.133ZM364.717 37.0871C363.132 38.6969 361.208 39.4979 358.913 39.4979V40.4979C361.472 40.4979 363.654 39.5922 365.43 37.7886L364.717 37.0871Z" fill="#F4F4F4"/>
<path d="M86.8296 18.3378L90.7396 24.4588L86.8296 30.5775H79.0072L75.0947 24.4588L79.0072 18.3378H86.8296Z" fill="#F4F4F4"/>
<line x1="71.985" y1="18.0605" x2="86.8362" y2="18.0605" stroke="#F4F4F4" stroke-width="0.6"/>
<line y1="-0.3" x2="14.5711" y2="-0.3" transform="matrix(0.540103 0.841599 -0.885615 0.46442 82.8696 12.2173)" stroke="#F4F4F4" stroke-width="0.6"/>
<line y1="-0.3" x2="14.5711" y2="-0.3" transform="matrix(0.540103 -0.841599 0.854301 0.519779 71.5677 30.6036)" stroke="#F4F4F4" stroke-width="0.6"/>
<line y1="-0.3" x2="14.5694" y2="-0.3" transform="matrix(-0.535907 0.844277 -0.822206 -0.569191 94.644 18.2345)" stroke="#F4F4F4" stroke-width="0.6"/>
<line y1="-0.3" x2="14.851" y2="-0.3" transform="matrix(-0.999984 0.00573688 -0.00605116 -0.999982 93.8859 30.4925)" stroke="#F4F4F4" stroke-width="0.6"/>
<line y1="-0.3" x2="14.5732" y2="-0.3" transform="matrix(-0.545108 -0.838366 0.882904 -0.469554 83.0387 36.698)" stroke="#F4F4F4" stroke-width="0.6"/>
<path d="M98.1505 24.4576C98.1505 32.6319 91.4219 39.2711 83.1059 39.2711C74.7899 39.2711 68.0613 32.6319 68.0613 24.4576C68.0613 16.2834 74.7899 9.6442 83.1059 9.6442C91.4219 9.6442 98.1505 16.2834 98.1505 24.4576Z" stroke="#F4F4F4"/>
</svg>
