<svg width="371" height="95" viewBox="0 0 371 95" fill="none" xmlns="http://www.w3.org/2000/svg">
<path d="M25.5123 9.43786H26.6723V39.8779L4.59225 12.7179V39.4379H3.43225V8.99786L25.5123 36.1179V9.43786ZM32.8901 9.43786H34.2101V39.4379H32.8901V9.43786ZM55.0244 39.8779H54.5844C51.8378 39.8779 49.2778 39.1579 46.9044 37.7179C44.5311 36.2779 42.6511 34.3712 41.2644 31.9979C39.9044 29.5979 39.2244 27.0512 39.2244 24.3579C39.2244 20.1179 40.7578 16.4779 43.8244 13.4379C46.8911 10.3712 50.5578 8.83786 54.8244 8.83786C57.6778 8.83786 60.3844 9.58453 62.9444 11.0779V12.5579C60.4378 10.8512 57.7311 9.99786 54.8244 9.99786C50.9044 9.99786 47.5444 11.4112 44.7444 14.2379C41.9444 17.0379 40.5444 20.4112 40.5444 24.3579C40.5444 28.2779 41.9444 31.6512 44.7444 34.4779C47.5444 37.3045 50.9044 38.7179 54.8244 38.7179C57.7311 38.7179 60.4378 37.8645 62.9444 36.1579V37.6379C60.5178 39.1312 57.8778 39.8779 55.0244 39.8779ZM82.4341 39.9579C78.3008 39.9579 74.7141 38.3979 71.6741 35.2779C68.6608 32.1579 67.1541 28.5179 67.1541 24.3579C67.1541 20.1712 68.6875 16.5579 71.7541 13.5179C74.8208 10.4512 78.5008 8.91787 82.7941 8.91787C87.0875 8.91787 90.7541 10.4379 93.7941 13.4779C96.8341 16.5179 98.3541 20.1445 98.3541 24.3579C98.3541 28.5445 96.8475 32.1979 93.8341 35.3179C90.8208 38.4112 87.2208 39.9579 83.0341 39.9579H82.4341ZM97.0341 24.4379C97.0341 20.4912 95.6341 17.1179 92.8341 14.3179C90.0608 11.4912 86.7008 10.0779 82.7541 10.0779C78.8341 10.0779 75.4741 11.4912 72.6741 14.3179C69.8741 17.1179 68.4741 20.4912 68.4741 24.4379C68.4741 28.3579 69.8741 31.7312 72.6741 34.5579C75.4741 37.3845 78.8341 38.7979 82.7541 38.7979C86.6741 38.7979 90.0341 37.3845 92.8341 34.5579C95.6341 31.7312 97.0341 28.3579 97.0341 24.4379ZM104.479 9.43786V38.2779H113.759V39.4379H103.159V9.43786H104.479ZM130.733 8.71787L145.733 39.4379H144.333L138.653 27.9979H122.613L117.013 39.4379H115.773L130.733 8.71787ZM130.613 11.4779L123.133 26.8379H138.173L130.613 11.4779ZM161.997 13.6779C161.383 12.5579 160.543 11.6779 159.477 11.0379C158.437 10.3979 157.263 10.0779 155.957 10.0779C154.65 10.0779 153.53 10.4912 152.597 11.3179C151.69 12.1179 151.237 13.2245 151.237 14.6379V14.8379C151.237 16.5179 152.17 18.0512 154.037 19.4379C154.837 20.0245 155.73 20.6112 156.717 21.1979C157.73 21.7579 158.73 22.3712 159.717 23.0379C160.73 23.6779 161.637 24.3712 162.437 25.1179C163.263 25.8379 163.93 26.7312 164.437 27.7979C164.97 28.8645 165.237 30.0379 165.237 31.3179V31.7179C165.237 34.2512 164.37 36.2645 162.637 37.7579C160.93 39.2512 158.81 39.9979 156.277 39.9979C152.943 39.9979 150.357 38.6245 148.517 35.8779V33.7179C149.21 35.2379 150.223 36.4779 151.557 37.4379C152.917 38.3712 154.597 38.8379 156.597 38.8379C158.597 38.8379 160.33 38.1979 161.797 36.9179C163.263 35.6379 163.997 33.9312 163.997 31.7979V31.5579C163.997 30.2245 163.65 29.0112 162.957 27.9179C162.263 26.7979 161.397 25.8912 160.357 25.1979C159.317 24.4779 158.183 23.7312 156.957 22.9579C155.73 22.1845 154.597 21.4645 153.557 20.7979C152.517 20.1312 151.65 19.2912 150.957 18.2779C150.263 17.2645 149.917 16.1579 149.917 14.9579V14.6779C149.917 12.8112 150.517 11.3845 151.717 10.3979C152.917 9.4112 154.397 8.91787 156.157 8.91787C158.61 8.91787 160.557 9.82453 161.997 11.6379V13.6779ZM195.103 27.9979V26.8379H206.343V37.6779C203.996 39.1445 201.356 39.8779 198.423 39.8779H197.983C195.236 39.8779 192.676 39.1579 190.303 37.7179C187.93 36.2779 186.05 34.3712 184.663 31.9979C183.303 29.5979 182.623 27.0512 182.623 24.3579C182.623 20.1179 184.156 16.4779 187.223 13.4379C190.29 10.3712 193.956 8.83786 198.223 8.83786C201.076 8.83786 203.783 9.58453 206.343 11.0779V12.5579C203.836 10.8512 201.13 9.99786 198.223 9.99786C194.303 9.99786 190.943 11.4112 188.143 14.2379C185.343 17.0379 183.943 20.4112 183.943 24.3579C183.943 28.2779 185.343 31.6512 188.143 34.4779C190.943 37.3045 194.303 38.7179 198.223 38.7179C200.41 38.7179 202.676 38.1579 205.023 37.0379V27.9979H195.103ZM225.637 39.9579C221.504 39.9579 217.917 38.3979 214.877 35.2779C211.864 32.1579 210.357 28.5179 210.357 24.3579C210.357 20.1712 211.891 16.5579 214.957 13.5179C218.024 10.4512 221.704 8.91787 225.997 8.91787C230.291 8.91787 233.957 10.4379 236.997 13.4779C240.037 16.5179 241.557 20.1445 241.557 24.3579C241.557 28.5445 240.051 32.1979 237.037 35.3179C234.024 38.4112 230.424 39.9579 226.237 39.9579H225.637ZM240.237 24.4379C240.237 20.4912 238.837 17.1179 236.037 14.3179C233.264 11.4912 229.904 10.0779 225.957 10.0779C222.037 10.0779 218.677 11.4912 215.877 14.3179C213.077 17.1179 211.677 20.4912 211.677 24.4379C211.677 28.3579 213.077 31.7312 215.877 34.5579C218.677 37.3845 222.037 38.7979 225.957 38.7979C229.877 38.7979 233.237 37.3845 236.037 34.5579C238.837 31.7312 240.237 28.3579 240.237 24.4379ZM246.362 9.43786H247.642C252.122 9.43786 255.735 10.9179 258.482 13.8779C261.229 16.8112 262.602 20.3445 262.602 24.4779C262.602 28.5845 261.229 32.1045 258.482 35.0379C255.762 37.9712 252.149 39.4379 247.642 39.4379H246.362V9.43786ZM247.962 10.6379H247.642V38.1979H247.962C251.855 38.1979 255.042 36.8512 257.522 34.1579C260.029 31.4645 261.282 28.2379 261.282 24.4779C261.282 20.6912 260.029 17.4379 257.522 14.7179C255.042 11.9979 251.855 10.6379 247.962 10.6379ZM267.617 9.43786H268.937V39.4379H267.617V9.43786ZM297.231 9.43786H298.391V39.8779L276.311 12.7179V39.4379H275.151V8.99786L297.231 36.1179V9.43786ZM304.409 9.43786H315.169V10.5979H305.729V26.9179H313.609V28.0779H305.729V38.2779H315.169V39.4379H304.409V9.43786ZM332.334 8.71787L347.334 39.4379H345.934L340.254 27.9979H324.214L318.614 39.4379H317.374L332.334 8.71787ZM332.214 11.4779L324.734 26.8379H339.774L332.214 11.4779ZM358.53 39.9979H358.13C355.676 39.9979 353.596 39.1445 351.89 37.4379C350.21 35.7312 349.37 33.5845 349.37 30.9979V9.43786H350.69V30.9579C350.69 33.2245 351.423 35.1045 352.89 36.5979C354.356 38.0912 356.17 38.8379 358.33 38.8379C360.49 38.8379 362.29 38.1045 363.73 36.6379C365.196 35.1445 365.93 33.2512 365.93 30.9579V9.43786H367.25V30.9179C367.25 33.5312 366.396 35.7045 364.69 37.4379C363.01 39.1445 360.956 39.9979 358.53 39.9979ZM54.193 56.4379H55.513C58.2864 56.4379 60.6464 57.3979 62.593 59.3179C64.5397 61.2112 65.513 63.4512 65.513 66.0379C65.513 68.6245 64.4997 70.8512 62.473 72.7179C60.473 74.5845 58.2597 75.5179 55.833 75.5179H55.513V86.4379H54.193V56.4379ZM55.513 74.3979H55.833C58.073 74.3979 60.0197 73.5712 61.673 71.9179C63.353 70.2645 64.193 68.3045 64.193 66.0379C64.193 63.7712 63.3397 61.7979 61.633 60.1179C59.953 58.4379 58.0197 57.5979 55.833 57.5979H55.513V74.3979ZM91.699 56.4379H93.019V86.4379H91.699V74.9979H71.139V86.4379H69.819V56.4379H71.139V73.8379H91.699V56.4379ZM113.118 86.9579C108.984 86.9579 105.398 85.3979 102.358 82.2779C99.3444 79.1579 97.8377 75.5179 97.8377 71.3579C97.8377 67.1712 99.3711 63.5579 102.438 60.5179C105.504 57.4512 109.184 55.9179 113.478 55.9179C117.771 55.9179 121.438 57.4379 124.478 60.4779C127.518 63.5179 129.038 67.1445 129.038 71.3579C129.038 75.5445 127.531 79.1979 124.518 82.3179C121.504 85.4112 117.904 86.9579 113.718 86.9579H113.118ZM127.718 71.4379C127.718 67.4912 126.318 64.1179 123.518 61.3179C120.744 58.4912 117.384 57.0779 113.438 57.0779C109.518 57.0779 106.158 58.4912 103.358 61.3179C100.558 64.1179 99.1577 67.4912 99.1577 71.4379C99.1577 75.3579 100.558 78.7312 103.358 81.5579C106.158 84.3845 109.518 85.7979 113.438 85.7979C117.358 85.7979 120.718 84.3845 123.518 81.5579C126.318 78.7312 127.718 75.3579 127.718 71.4379ZM143.363 56.4379V57.5979H136.523V86.4379H135.203V57.5979H128.283V56.4379H143.363ZM158.04 86.9579C153.906 86.9579 150.32 85.3979 147.28 82.2779C144.266 79.1579 142.76 75.5179 142.76 71.3579C142.76 67.1712 144.293 63.5579 147.36 60.5179C150.426 57.4512 154.106 55.9179 158.4 55.9179C162.693 55.9179 166.36 57.4379 169.4 60.4779C172.44 63.5179 173.96 67.1445 173.96 71.3579C173.96 75.5445 172.453 79.1979 169.44 82.3179C166.426 85.4112 162.826 86.9579 158.64 86.9579H158.04ZM172.64 71.4379C172.64 67.4912 171.24 64.1179 168.44 61.3179C165.666 58.4912 162.306 57.0779 158.36 57.0779C154.44 57.0779 151.08 58.4912 148.28 61.3179C145.48 64.1179 144.08 67.4912 144.08 71.4379C144.08 75.3579 145.48 78.7312 148.28 81.5579C151.08 84.3845 154.44 85.7979 158.36 85.7979C162.28 85.7979 165.64 84.3845 168.44 81.5579C171.24 78.7312 172.64 75.3579 172.64 71.4379ZM190.044 74.9979V73.8379H201.284V84.6779C198.938 86.1445 196.298 86.8779 193.364 86.8779H192.924C190.178 86.8779 187.618 86.1579 185.244 84.7179C182.871 83.2779 180.991 81.3712 179.604 78.9979C178.244 76.5979 177.564 74.0512 177.564 71.3579C177.564 67.1179 179.098 63.4779 182.164 60.4379C185.231 57.3712 188.898 55.8379 193.164 55.8379C196.018 55.8379 198.724 56.5845 201.284 58.0779V59.5579C198.778 57.8512 196.071 56.9979 193.164 56.9979C189.244 56.9979 185.884 58.4112 183.084 61.2379C180.284 64.0379 178.884 67.4112 178.884 71.3579C178.884 75.2779 180.284 78.6512 183.084 81.4779C185.884 84.3045 189.244 85.7179 193.164 85.7179C195.351 85.7179 197.618 85.1579 199.964 84.0379V74.9979H190.044ZM206.499 56.4379H208.219C210.805 56.4379 213.072 57.3979 215.019 59.3179C216.992 61.2112 217.979 63.4512 217.979 66.0379C217.979 68.5979 216.979 70.8245 214.979 72.7179C212.979 74.6112 210.832 75.5579 208.539 75.5579H208.259L218.579 86.4379H216.859L207.779 76.9179V86.4379H206.499V56.4379ZM207.779 74.3979H208.499C210.659 74.3979 212.565 73.5712 214.219 71.9179C215.872 70.2645 216.699 68.3045 216.699 66.0379C216.699 63.7712 215.845 61.7979 214.139 60.1179C212.432 58.4379 210.485 57.5979 208.299 57.5979H207.779V74.3979ZM235.948 55.7179L250.948 86.4379H249.548L243.868 74.9979H227.828L222.228 86.4379H220.988L235.948 55.7179ZM235.828 58.4779L228.348 73.8379H243.388L235.828 58.4779ZM255.091 56.4379H256.411C259.185 56.4379 261.545 57.3979 263.491 59.3179C265.438 61.2112 266.411 63.4512 266.411 66.0379C266.411 68.6245 265.398 70.8512 263.371 72.7179C261.371 74.5845 259.158 75.5179 256.731 75.5179H256.411V86.4379H255.091V56.4379ZM256.411 74.3979H256.731C258.971 74.3979 260.918 73.5712 262.571 71.9179C264.251 70.2645 265.091 68.3045 265.091 66.0379C265.091 63.7712 264.238 61.7979 262.531 60.1179C260.851 58.4379 258.918 57.5979 256.731 57.5979H256.411V74.3979ZM292.597 56.4379H293.917V86.4379H292.597V74.9979H272.037V86.4379H270.717V56.4379H272.037V73.8379H292.597V56.4379ZM300.136 56.4379H301.456V86.4379H300.136V56.4379ZM307.671 56.4379H318.431V57.5979H308.991V73.9179H316.871V75.0779H308.991V85.2779H318.431V86.4379H307.671V56.4379Z" fill="black"/>
<path d="M86.446 18.3378L90.3559 24.4588L86.446 30.5775H78.6236L74.7111 24.4588L78.6236 18.3378H86.446Z" fill="black"/>
<line x1="71.6014" y1="18.1105" x2="86.4525" y2="18.1105" stroke="black" stroke-width="0.5"/>
<line y1="-0.25" x2="14.5711" y2="-0.25" transform="matrix(0.540103 0.841599 -0.885615 0.46442 82.486 12.2173)" stroke="black" stroke-width="0.5"/>
<line y1="-0.25" x2="14.5711" y2="-0.25" transform="matrix(0.540103 -0.841599 0.854301 0.519779 71.1841 30.6036)" stroke="black" stroke-width="0.5"/>
<line y1="-0.25" x2="14.5694" y2="-0.25" transform="matrix(-0.535907 0.844277 -0.822206 -0.569191 94.2604 18.2345)" stroke="black" stroke-width="0.5"/>
<line y1="-0.25" x2="14.851" y2="-0.25" transform="matrix(-0.999984 0.00573688 -0.00605116 -0.999982 93.5022 30.4925)" stroke="black" stroke-width="0.5"/>
<line y1="-0.25" x2="14.5732" y2="-0.25" transform="matrix(-0.545108 -0.838366 0.882904 -0.469554 82.6551 36.698)" stroke="black" stroke-width="0.5"/>
<path d="M97.7668 24.4577C97.7668 32.6319 91.0382 39.2711 82.7223 39.2711C74.4063 39.2711 67.6777 32.6319 67.6777 24.4577C67.6777 16.2835 74.4063 9.64421 82.7223 9.64421C91.0382 9.64421 97.7668 16.2835 97.7668 24.4577Z" stroke="black"/>
</svg>
