<svg width="371" height="95" viewBox="0 0 371 95" fill="none" xmlns="http://www.w3.org/2000/svg">
<rect x="0.334595" y="47.4379" width="370" height="47" fill="black"/>
<path d="M25.5123 9.43786H26.6723V39.8779L4.59225 12.7179V39.4379H3.43225V8.99786L25.5123 36.1179V9.43786ZM32.8901 9.43786H34.2101V39.4379H32.8901V9.43786ZM55.0244 39.8779H54.5844C51.8378 39.8779 49.2778 39.1579 46.9044 37.7179C44.5311 36.2779 42.6511 34.3712 41.2644 31.9979C39.9044 29.5979 39.2244 27.0512 39.2244 24.3579C39.2244 20.1179 40.7578 16.4779 43.8244 13.4379C46.8911 10.3712 50.5578 8.83786 54.8244 8.83786C57.6778 8.83786 60.3844 9.58453 62.9444 11.0779V12.5579C60.4378 10.8512 57.7311 9.99786 54.8244 9.99786C50.9044 9.99786 47.5444 11.4112 44.7444 14.2379C41.9444 17.0379 40.5444 20.4112 40.5444 24.3579C40.5444 28.2779 41.9444 31.6512 44.7444 34.4779C47.5444 37.3045 50.9044 38.7179 54.8244 38.7179C57.7311 38.7179 60.4378 37.8645 62.9444 36.1579V37.6379C60.5178 39.1312 57.8778 39.8779 55.0244 39.8779ZM82.4341 39.9579C78.3008 39.9579 74.7141 38.3979 71.6741 35.2779C68.6608 32.1579 67.1541 28.5179 67.1541 24.3579C67.1541 20.1712 68.6875 16.5579 71.7541 13.5179C74.8208 10.4512 78.5008 8.91787 82.7941 8.91787C87.0875 8.91787 90.7541 10.4379 93.7941 13.4779C96.8341 16.5179 98.3541 20.1445 98.3541 24.3579C98.3541 28.5445 96.8475 32.1979 93.8341 35.3179C90.8208 38.4112 87.2208 39.9579 83.0341 39.9579H82.4341ZM97.0341 24.4379C97.0341 20.4912 95.6341 17.1179 92.8341 14.3179C90.0608 11.4912 86.7008 10.0779 82.7541 10.0779C78.8341 10.0779 75.4741 11.4912 72.6741 14.3179C69.8741 17.1179 68.4741 20.4912 68.4741 24.4379C68.4741 28.3579 69.8741 31.7312 72.6741 34.5579C75.4741 37.3845 78.8341 38.7979 82.7541 38.7979C86.6741 38.7979 90.0341 37.3845 92.8341 34.5579C95.6341 31.7312 97.0341 28.3579 97.0341 24.4379ZM104.479 9.43786V38.2779H113.759V39.4379H103.159V9.43786H104.479ZM130.733 8.71787L145.733 39.4379H144.333L138.653 27.9979H122.613L117.013 39.4379H115.773L130.733 8.71787ZM130.613 11.4779L123.133 26.8379H138.173L130.613 11.4779ZM161.997 13.6779C161.383 12.5579 160.543 11.6779 159.477 11.0379C158.437 10.3979 157.263 10.0779 155.957 10.0779C154.65 10.0779 153.53 10.4912 152.597 11.3179C151.69 12.1179 151.237 13.2245 151.237 14.6379V14.8379C151.237 16.5179 152.17 18.0512 154.037 19.4379C154.837 20.0245 155.73 20.6112 156.717 21.1979C157.73 21.7579 158.73 22.3712 159.717 23.0379C160.73 23.6779 161.637 24.3712 162.437 25.1179C163.263 25.8379 163.93 26.7312 164.437 27.7979C164.97 28.8645 165.237 30.0379 165.237 31.3179V31.7179C165.237 34.2512 164.37 36.2645 162.637 37.7579C160.93 39.2512 158.81 39.9979 156.277 39.9979C152.943 39.9979 150.357 38.6245 148.517 35.8779V33.7179C149.21 35.2379 150.223 36.4779 151.557 37.4379C152.917 38.3712 154.597 38.8379 156.597 38.8379C158.597 38.8379 160.33 38.1979 161.797 36.9179C163.263 35.6379 163.997 33.9312 163.997 31.7979V31.5579C163.997 30.2245 163.65 29.0112 162.957 27.9179C162.263 26.7979 161.397 25.8912 160.357 25.1979C159.317 24.4779 158.183 23.7312 156.957 22.9579C155.73 22.1845 154.597 21.4645 153.557 20.7979C152.517 20.1312 151.65 19.2912 150.957 18.2779C150.263 17.2645 149.917 16.1579 149.917 14.9579V14.6779C149.917 12.8112 150.517 11.3845 151.717 10.3979C152.917 9.4112 154.397 8.91787 156.157 8.91787C158.61 8.91787 160.557 9.82453 161.997 11.6379V13.6779ZM195.103 27.9979V26.8379H206.343V37.6779C203.996 39.1445 201.356 39.8779 198.423 39.8779H197.983C195.236 39.8779 192.676 39.1579 190.303 37.7179C187.93 36.2779 186.05 34.3712 184.663 31.9979C183.303 29.5979 182.623 27.0512 182.623 24.3579C182.623 20.1179 184.156 16.4779 187.223 13.4379C190.29 10.3712 193.956 8.83786 198.223 8.83786C201.076 8.83786 203.783 9.58453 206.343 11.0779V12.5579C203.836 10.8512 201.13 9.99786 198.223 9.99786C194.303 9.99786 190.943 11.4112 188.143 14.2379C185.343 17.0379 183.943 20.4112 183.943 24.3579C183.943 28.2779 185.343 31.6512 188.143 34.4779C190.943 37.3045 194.303 38.7179 198.223 38.7179C200.41 38.7179 202.676 38.1579 205.023 37.0379V27.9979H195.103ZM225.637 39.9579C221.504 39.9579 217.917 38.3979 214.877 35.2779C211.864 32.1579 210.357 28.5179 210.357 24.3579C210.357 20.1712 211.891 16.5579 214.957 13.5179C218.024 10.4512 221.704 8.91787 225.997 8.91787C230.291 8.91787 233.957 10.4379 236.997 13.4779C240.037 16.5179 241.557 20.1445 241.557 24.3579C241.557 28.5445 240.051 32.1979 237.037 35.3179C234.024 38.4112 230.424 39.9579 226.237 39.9579H225.637ZM240.237 24.4379C240.237 20.4912 238.837 17.1179 236.037 14.3179C233.264 11.4912 229.904 10.0779 225.957 10.0779C222.037 10.0779 218.677 11.4912 215.877 14.3179C213.077 17.1179 211.677 20.4912 211.677 24.4379C211.677 28.3579 213.077 31.7312 215.877 34.5579C218.677 37.3845 222.037 38.7979 225.957 38.7979C229.877 38.7979 233.237 37.3845 236.037 34.5579C238.837 31.7312 240.237 28.3579 240.237 24.4379ZM246.362 9.43786H247.642C252.122 9.43786 255.735 10.9179 258.482 13.8779C261.229 16.8112 262.602 20.3445 262.602 24.4779C262.602 28.5845 261.229 32.1045 258.482 35.0379C255.762 37.9712 252.149 39.4379 247.642 39.4379H246.362V9.43786ZM247.962 10.6379H247.642V38.1979H247.962C251.855 38.1979 255.042 36.8512 257.522 34.1579C260.029 31.4645 261.282 28.2379 261.282 24.4779C261.282 20.6912 260.029 17.4379 257.522 14.7179C255.042 11.9979 251.855 10.6379 247.962 10.6379ZM267.617 9.43786H268.937V39.4379H267.617V9.43786ZM297.231 9.43786H298.391V39.8779L276.311 12.7179V39.4379H275.151V8.99786L297.231 36.1179V9.43786ZM304.409 9.43786H315.169V10.5979H305.729V26.9179H313.609V28.0779H305.729V38.2779H315.169V39.4379H304.409V9.43786ZM332.334 8.71787L347.334 39.4379H345.934L340.254 27.9979H324.214L318.614 39.4379H317.374L332.334 8.71787ZM332.214 11.4779L324.734 26.8379H339.774L332.214 11.4779ZM358.53 39.9979H358.13C355.676 39.9979 353.596 39.1445 351.89 37.4379C350.21 35.7312 349.37 33.5845 349.37 30.9979V9.43786H350.69V30.9579C350.69 33.2245 351.423 35.1045 352.89 36.5979C354.356 38.0912 356.17 38.8379 358.33 38.8379C360.49 38.8379 362.29 38.1045 363.73 36.6379C365.196 35.1445 365.93 33.2512 365.93 30.9579V9.43786H367.25V30.9179C367.25 33.5312 366.396 35.7045 364.69 37.4379C363.01 39.1445 360.956 39.9979 358.53 39.9979ZM54.193 56.4379H55.513C58.2864 56.4379 60.6464 57.3979 62.593 59.3179C64.5397 61.2112 65.513 63.4512 65.513 66.0379C65.513 68.6245 64.4997 70.8512 62.473 72.7179C60.473 74.5845 58.2597 75.5179 55.833 75.5179H55.513V86.4379H54.193V56.4379ZM55.513 74.3979H55.833C58.073 74.3979 60.0197 73.5712 61.673 71.9179C63.353 70.2645 64.193 68.3045 64.193 66.0379C64.193 63.7712 63.3397 61.7979 61.633 60.1179C59.953 58.4379 58.0197 57.5979 55.833 57.5979H55.513V74.3979ZM91.699 56.4379H93.019V86.4379H91.699V74.9979H71.139V86.4379H69.819V56.4379H71.139V73.8379H91.699V56.4379ZM113.118 86.9579C108.984 86.9579 105.398 85.3979 102.358 82.2779C99.3444 79.1579 97.8377 75.5179 97.8377 71.3579C97.8377 67.1712 99.3711 63.5579 102.438 60.5179C105.504 57.4512 109.184 55.9179 113.478 55.9179C117.771 55.9179 121.438 57.4379 124.478 60.4779C127.518 63.5179 129.038 67.1445 129.038 71.3579C129.038 75.5445 127.531 79.1979 124.518 82.3179C121.504 85.4112 117.904 86.9579 113.718 86.9579H113.118ZM127.718 71.4379C127.718 67.4912 126.318 64.1179 123.518 61.3179C120.744 58.4912 117.384 57.0779 113.438 57.0779C109.518 57.0779 106.158 58.4912 103.358 61.3179C100.558 64.1179 99.1577 67.4912 99.1577 71.4379C99.1577 75.3579 100.558 78.7312 103.358 81.5579C106.158 84.3845 109.518 85.7979 113.438 85.7979C117.358 85.7979 120.718 84.3845 123.518 81.5579C126.318 78.7312 127.718 75.3579 127.718 71.4379ZM143.363 56.4379V57.5979H136.523V86.4379H135.203V57.5979H128.283V56.4379H143.363ZM158.04 86.9579C153.906 86.9579 150.32 85.3979 147.28 82.2779C144.266 79.1579 142.76 75.5179 142.76 71.3579C142.76 67.1712 144.293 63.5579 147.36 60.5179C150.426 57.4512 154.106 55.9179 158.4 55.9179C162.693 55.9179 166.36 57.4379 169.4 60.4779C172.44 63.5179 173.96 67.1445 173.96 71.3579C173.96 75.5445 172.453 79.1979 169.44 82.3179C166.426 85.4112 162.826 86.9579 158.64 86.9579H158.04ZM172.64 71.4379C172.64 67.4912 171.24 64.1179 168.44 61.3179C165.666 58.4912 162.306 57.0779 158.36 57.0779C154.44 57.0779 151.08 58.4912 148.28 61.3179C145.48 64.1179 144.08 67.4912 144.08 71.4379C144.08 75.3579 145.48 78.7312 148.28 81.5579C151.08 84.3845 154.44 85.7979 158.36 85.7979C162.28 85.7979 165.64 84.3845 168.44 81.5579C171.24 78.7312 172.64 75.3579 172.64 71.4379ZM190.044 74.9979V73.8379H201.284V84.6779C198.938 86.1445 196.298 86.8779 193.364 86.8779H192.924C190.178 86.8779 187.618 86.1579 185.244 84.7179C182.871 83.2779 180.991 81.3712 179.604 78.9979C178.244 76.5979 177.564 74.0512 177.564 71.3579C177.564 67.1179 179.098 63.4779 182.164 60.4379C185.231 57.3712 188.898 55.8379 193.164 55.8379C196.018 55.8379 198.724 56.5845 201.284 58.0779V59.5579C198.778 57.8512 196.071 56.9979 193.164 56.9979C189.244 56.9979 185.884 58.4112 183.084 61.2379C180.284 64.0379 178.884 67.4112 178.884 71.3579C178.884 75.2779 180.284 78.6512 183.084 81.4779C185.884 84.3045 189.244 85.7179 193.164 85.7179C195.351 85.7179 197.618 85.1579 199.964 84.0379V74.9979H190.044ZM206.499 56.4379H208.219C210.805 56.4379 213.072 57.3979 215.019 59.3179C216.992 61.2112 217.979 63.4512 217.979 66.0379C217.979 68.5979 216.979 70.8245 214.979 72.7179C212.979 74.6112 210.832 75.5579 208.539 75.5579H208.259L218.579 86.4379H216.859L207.779 76.9179V86.4379H206.499V56.4379ZM207.779 74.3979H208.499C210.659 74.3979 212.565 73.5712 214.219 71.9179C215.872 70.2645 216.699 68.3045 216.699 66.0379C216.699 63.7712 215.845 61.7979 214.139 60.1179C212.432 58.4379 210.485 57.5979 208.299 57.5979H207.779V74.3979ZM235.948 55.7179L250.948 86.4379H249.548L243.868 74.9979H227.828L222.228 86.4379H220.988L235.948 55.7179ZM235.828 58.4779L228.348 73.8379H243.388L235.828 58.4779ZM255.091 56.4379H256.411C259.185 56.4379 261.545 57.3979 263.491 59.3179C265.438 61.2112 266.411 63.4512 266.411 66.0379C266.411 68.6245 265.398 70.8512 263.371 72.7179C261.371 74.5845 259.158 75.5179 256.731 75.5179H256.411V86.4379H255.091V56.4379ZM256.411 74.3979H256.731C258.971 74.3979 260.918 73.5712 262.571 71.9179C264.251 70.2645 265.091 68.3045 265.091 66.0379C265.091 63.7712 264.238 61.7979 262.531 60.1179C260.851 58.4379 258.918 57.5979 256.731 57.5979H256.411V74.3979ZM292.597 56.4379H293.917V86.4379H292.597V74.9979H272.037V86.4379H270.717V56.4379H272.037V73.8379H292.597V56.4379ZM300.136 56.4379H301.456V86.4379H300.136V56.4379ZM307.671 56.4379H318.431V57.5979H308.991V73.9179H316.871V75.0779H308.991V85.2779H318.431V86.4379H307.671V56.4379Z" fill="white"/>
<path d="M25.5123 9.43786V8.83786H24.9123V9.43786H25.5123ZM26.6723 9.43786H27.2723V8.83786H26.6723V9.43786ZM26.6723 39.8779L26.2067 40.2564L27.2723 41.5671V39.8779H26.6723ZM4.59225 12.7179L5.05781 12.3394L3.99225 11.0287V12.7179H4.59225ZM4.59225 39.4379V40.0379H5.19225V39.4379H4.59225ZM3.43225 39.4379H2.83225V40.0379H3.43225V39.4379ZM3.43225 8.99786L3.89754 8.61904L2.83225 7.31059V8.99786H3.43225ZM25.5123 36.1179L25.047 36.4967L26.1123 37.8051V36.1179H25.5123ZM25.5123 10.0379H26.6723V8.83786H25.5123V10.0379ZM26.0723 9.43786V39.8779H27.2723V9.43786H26.0723ZM27.1378 39.4994L5.05781 12.3394L4.12669 13.0963L26.2067 40.2564L27.1378 39.4994ZM3.99225 12.7179V39.4379H5.19225V12.7179H3.99225ZM4.59225 38.8379H3.43225V40.0379H4.59225V38.8379ZM4.03225 39.4379V8.99786H2.83225V39.4379H4.03225ZM2.96696 9.37669L25.047 36.4967L25.9775 35.739L3.89754 8.61904L2.96696 9.37669ZM26.1123 36.1179V9.43786H24.9123V36.1179H26.1123ZM32.8901 9.43786V8.83786H32.2901V9.43786H32.8901ZM34.2101 9.43786H34.8101V8.83786H34.2101V9.43786ZM34.2101 39.4379V40.0379H34.8101V39.4379H34.2101ZM32.8901 39.4379H32.2901V40.0379H32.8901V39.4379ZM32.8901 10.0379H34.2101V8.83786H32.8901V10.0379ZM33.6101 9.43786V39.4379H34.8101V9.43786H33.6101ZM34.2101 38.8379H32.8901V40.0379H34.2101V38.8379ZM33.4901 39.4379V9.43786H32.2901V39.4379H33.4901ZM46.9044 37.7179L47.2157 37.2049L47.2157 37.2049L46.9044 37.7179ZM41.2644 31.9979L40.7424 32.2937L40.7464 32.3006L41.2644 31.9979ZM43.8244 13.4379L44.2469 13.864L44.2487 13.8621L43.8244 13.4379ZM62.9444 11.0779H63.5444V10.7332L63.2468 10.5596L62.9444 11.0779ZM62.9444 12.5579L62.6068 13.0538L63.5444 13.6922V12.5579H62.9444ZM44.7444 14.2379L45.1687 14.6621L45.1707 14.6601L44.7444 14.2379ZM44.7444 34.4779L45.1707 34.0556L45.1707 34.0556L44.7444 34.4779ZM62.9444 36.1579H63.5444V35.0235L62.6068 35.6619L62.9444 36.1579ZM62.9444 37.6379L63.2589 38.1489L63.5444 37.9731V37.6379H62.9444ZM55.0244 39.2779H54.5844V40.4779H55.0244V39.2779ZM54.5844 39.2779C51.9488 39.2779 49.4962 38.5886 47.2157 37.2049L46.5932 38.2308C49.0593 39.7271 51.7268 40.4779 54.5844 40.4779V39.2779ZM47.2157 37.2049C44.9268 35.8162 43.1183 33.9814 41.7825 31.6952L40.7464 32.3006C42.1839 34.761 44.1354 36.7396 46.5932 38.2308L47.2157 37.2049ZM41.7865 31.7021C40.4763 29.39 39.8244 26.9449 39.8244 24.3579H38.6244C38.6244 27.1575 39.3326 29.8057 40.7424 32.2937L41.7865 31.7021ZM39.8244 24.3579C39.8244 20.2812 41.2915 16.7936 44.2468 13.864L43.402 13.0118C40.2241 16.1621 38.6244 19.9545 38.6244 24.3579H39.8244ZM44.2487 13.8621C47.2049 10.9059 50.7198 9.43786 54.8244 9.43786V8.23786C50.3957 8.23786 46.5773 9.83649 43.4002 13.0136L44.2487 13.8621ZM54.8244 9.43786C57.5673 9.43786 60.1702 10.1542 62.6421 11.5961L63.2468 10.5596C60.5987 9.0149 57.7882 8.23786 54.8244 8.23786V9.43786ZM62.3444 11.0779V12.5579H63.5444V11.0779H62.3444ZM63.2821 12.0619C60.6804 10.2906 57.857 9.39786 54.8244 9.39786V10.5979C57.6052 10.5979 60.1951 11.4118 62.6068 13.0538L63.2821 12.0619ZM54.8244 9.39786C50.7416 9.39786 47.229 10.8771 44.3182 13.8156L45.1707 14.6601C47.8599 11.9453 51.0672 10.5979 54.8244 10.5979V9.39786ZM44.3202 13.8136C41.4081 16.7257 39.9444 20.2515 39.9444 24.3579H41.1444C41.1444 20.5709 42.4808 17.35 45.1687 14.6621L44.3202 13.8136ZM39.9444 24.3579C39.9444 28.4386 41.4087 31.963 44.3182 34.9001L45.1707 34.0556C42.4801 31.3394 41.1444 28.1171 41.1444 24.3579H39.9444ZM44.3182 34.9001C47.229 37.8386 50.7416 39.3179 54.8244 39.3179V38.1179C51.0672 38.1179 47.8599 36.7704 45.1707 34.0556L44.3182 34.9001ZM54.8244 39.3179C57.857 39.3179 60.6804 38.4252 63.2821 36.6538L62.6068 35.6619C60.1951 37.3039 57.6052 38.1179 54.8244 38.1179V39.3179ZM62.3444 36.1579V37.6379H63.5444V36.1579H62.3444ZM62.63 37.1269C60.298 38.5619 57.7669 39.2779 55.0244 39.2779V40.4779C57.9886 40.4779 60.7375 39.7005 63.2589 38.1489L62.63 37.1269ZM71.6741 35.2779L71.2425 35.6947L71.2444 35.6966L71.6741 35.2779ZM71.7541 13.5179L72.1765 13.944L72.1784 13.9421L71.7541 13.5179ZM93.7941 13.4779L94.2184 13.0536L94.2184 13.0536L93.7941 13.4779ZM93.8341 35.3179L94.2639 35.7365L94.2657 35.7347L93.8341 35.3179ZM92.8341 14.3179L92.4058 14.7381L92.4099 14.7421L92.8341 14.3179ZM72.6741 14.3179L73.0984 14.7421L73.1004 14.7401L72.6741 14.3179ZM72.6741 34.5579L73.1004 34.1356L73.1004 34.1356L72.6741 34.5579ZM92.8341 34.5579L92.4079 34.1356L92.8341 34.5579ZM82.4341 39.3579C78.4721 39.3579 75.0377 37.8702 72.1039 34.8591L71.2444 35.6966C74.3905 38.9255 78.1295 40.5579 82.4341 40.5579V39.3579ZM72.1057 34.861C69.1953 31.8476 67.7541 28.3551 67.7541 24.3579H66.5541C66.5541 28.6806 68.1263 32.4681 71.2425 35.6947L72.1057 34.861ZM67.7541 24.3579C67.7541 20.3368 69.2195 16.8753 72.1765 13.944L71.3317 13.0918C68.1554 16.2405 66.5541 20.0056 66.5541 24.3579H67.7541ZM72.1784 13.9421C75.1338 10.9867 78.6617 9.51787 82.7941 9.51787V8.31787C78.3399 8.31787 74.5078 9.9157 71.3299 13.0936L72.1784 13.9421ZM82.7941 9.51787C86.9281 9.51787 90.4422 10.9745 93.3699 13.9021L94.2184 13.0536C91.066 9.90125 87.2468 8.31787 82.7941 8.31787V9.51787ZM93.3699 13.9021C96.2999 16.8322 97.7541 20.3073 97.7541 24.3579H98.9541C98.9541 19.9818 97.3683 16.2036 94.2184 13.0536L93.3699 13.9021ZM97.7541 24.3579C97.7541 28.3829 96.3122 31.8884 93.4025 34.901L94.2657 35.7347C97.3828 32.5073 98.9541 28.7062 98.9541 24.3579H97.7541ZM93.4043 34.8992C90.5 37.8807 87.0533 39.3579 83.0341 39.3579V40.5579C87.3883 40.5579 91.1416 38.9417 94.2639 35.7365L93.4043 34.8992ZM83.0341 39.3579H82.4341V40.5579H83.0341V39.3579ZM97.6341 24.4379C97.6341 20.3315 96.1705 16.8057 93.2584 13.8936L92.4099 14.7421C95.0978 17.43 96.4341 20.6509 96.4341 24.4379H97.6341ZM93.2624 13.8977C90.3767 10.9564 86.8625 9.47787 82.7541 9.47787V10.6779C86.5391 10.6779 89.7449 12.026 92.4058 14.7381L93.2624 13.8977ZM82.7541 9.47787C78.6713 9.47787 75.1586 10.9571 72.2479 13.8956L73.1004 14.7401C75.7896 12.0253 78.9969 10.6779 82.7541 10.6779V9.47787ZM72.2499 13.8936C69.3378 16.8057 67.8741 20.3315 67.8741 24.4379H69.0741C69.0741 20.6509 70.4105 17.43 73.0984 14.7421L72.2499 13.8936ZM67.8741 24.4379C67.8741 28.5186 69.3384 32.043 72.2479 34.9801L73.1004 34.1356C70.4098 31.4194 69.0741 28.1971 69.0741 24.4379H67.8741ZM72.2479 34.9801C75.1586 37.9186 78.6713 39.3979 82.7541 39.3979V38.1979C78.9969 38.1979 75.7896 36.8504 73.1004 34.1356L72.2479 34.9801ZM82.7541 39.3979C86.8369 39.3979 90.3496 37.9186 93.2604 34.9801L92.4079 34.1356C89.7186 36.8504 86.5113 38.1979 82.7541 38.1979V39.3979ZM93.2604 34.9801C96.1698 32.043 97.6341 28.5186 97.6341 24.4379H96.4341C96.4341 28.1971 95.0984 31.4194 92.4079 34.1356L93.2604 34.9801ZM104.479 9.43786H105.079V8.83786H104.479V9.43786ZM104.479 38.2779H103.879V38.8779H104.479V38.2779ZM113.759 38.2779H114.359V37.6779H113.759V38.2779ZM113.759 39.4379V40.0379H114.359V39.4379H113.759ZM103.159 39.4379H102.559V40.0379H103.159V39.4379ZM103.159 9.43786V8.83786H102.559V9.43786H103.159ZM103.879 9.43786V38.2779H105.079V9.43786H103.879ZM104.479 38.8779H113.759V37.6779H104.479V38.8779ZM113.159 38.2779V39.4379H114.359V38.2779H113.159ZM113.759 38.8379H103.159V40.0379H113.759V38.8379ZM103.759 39.4379V9.43786H102.559V39.4379H103.759ZM103.159 10.0379H104.479V8.83786H103.159V10.0379ZM130.733 8.71787L131.272 8.4546L130.732 7.34893L130.193 8.45517L130.733 8.71787ZM145.733 39.4379V40.0379H146.694L146.272 39.1746L145.733 39.4379ZM144.333 39.4379L143.795 39.7047L143.961 40.0379H144.333V39.4379ZM138.653 27.9979L139.19 27.731L139.025 27.3979H138.653V27.9979ZM122.613 27.9979V27.3979H122.239L122.074 27.7341L122.613 27.9979ZM117.013 39.4379V40.0379H117.387L117.552 39.7017L117.013 39.4379ZM115.773 39.4379L115.233 39.1752L114.813 40.0379H115.773V39.4379ZM130.613 11.4779L131.151 11.2129L130.61 10.1133L130.073 11.2152L130.613 11.4779ZM123.133 26.8379L122.593 26.5752L122.173 27.4379H123.133V26.8379ZM138.173 26.8379V27.4379H139.137L138.711 26.5729L138.173 26.8379ZM130.194 8.98113L145.194 39.7011L146.272 39.1746L131.272 8.4546L130.194 8.98113ZM145.733 38.8379H144.333V40.0379H145.733V38.8379ZM144.87 39.171L139.19 27.731L138.115 28.2647L143.795 39.7047L144.87 39.171ZM138.653 27.3979H122.613V28.5979H138.653V27.3979ZM122.074 27.7341L116.474 39.1741L117.552 39.7017L123.152 28.2617L122.074 27.7341ZM117.013 38.8379H115.773V40.0379H117.013V38.8379ZM116.312 39.7006L131.272 8.98056L130.193 8.45517L115.233 39.1752L116.312 39.7006ZM130.073 11.2152L122.593 26.5752L123.672 27.1006L131.152 11.7406L130.073 11.2152ZM123.133 27.4379H138.173V26.2379H123.133V27.4379ZM138.711 26.5729L131.151 11.2129L130.075 11.7428L137.635 27.1028L138.711 26.5729ZM161.997 13.6779L161.47 13.9661L162.597 13.6779H161.997ZM159.477 11.0379L159.162 11.5489L159.168 11.5524L159.477 11.0379ZM152.597 11.3179L152.994 11.7678L152.994 11.767L152.597 11.3179ZM154.037 19.4379L153.679 19.9195L153.682 19.9217L154.037 19.4379ZM156.717 21.1979L156.41 21.7136L156.418 21.7184L156.426 21.723L156.717 21.1979ZM159.717 23.0379L159.381 23.535L159.388 23.5402L159.396 23.5452L159.717 23.0379ZM162.437 25.1179L162.027 25.5565L162.035 25.5635L162.043 25.5703L162.437 25.1179ZM164.437 27.7979L163.895 28.0554L163.9 28.0662L164.437 27.7979ZM162.637 37.7579L162.245 37.3033L162.242 37.3063L162.637 37.7579ZM148.517 35.8779H147.917V36.0603L148.018 36.2118L148.517 35.8779ZM148.517 33.7179L149.063 33.4689L147.917 33.7179H148.517ZM151.557 37.4379L151.206 37.9249L151.217 37.9326L151.557 37.4379ZM161.797 36.9179L162.191 37.3699L162.191 37.3699L161.797 36.9179ZM162.957 27.9179L162.446 28.2337L162.45 28.2392L162.957 27.9179ZM160.357 25.1979L160.015 25.6913L160.024 25.6971L160.357 25.1979ZM156.957 22.9579L157.277 22.4503L157.277 22.4503L156.957 22.9579ZM150.957 18.2779L151.452 17.9391L151.452 17.9391L150.957 18.2779ZM161.997 11.6379H162.597V11.4286L162.466 11.2647L161.997 11.6379ZM162.523 13.3897C161.86 12.1789 160.946 11.2197 159.785 10.5234L159.168 11.5524C160.141 12.1361 160.907 12.9369 161.47 13.9661L162.523 13.3897ZM159.791 10.5269C158.65 9.82457 157.366 9.47787 155.957 9.47787V10.6779C157.16 10.6779 158.223 10.9712 159.162 11.5489L159.791 10.5269ZM155.957 9.47787C154.511 9.47787 153.247 9.93987 152.199 10.8687L152.994 11.767C153.812 11.0425 154.789 10.6779 155.957 10.6779V9.47787ZM152.2 10.868C151.142 11.8015 150.637 13.0844 150.637 14.6379H151.837C151.837 13.3647 152.238 12.4343 152.994 11.7678L152.2 10.868ZM150.637 14.6379V14.8379H151.837V14.6379H150.637ZM150.637 14.8379C150.637 16.7742 151.723 18.4662 153.679 19.9195L154.394 18.9562C152.617 17.6362 151.837 16.2615 151.837 14.8379H150.637ZM153.682 19.9217C154.5 20.5214 155.409 21.1186 156.41 21.7136L157.023 20.6821C156.051 20.1038 155.174 19.5277 154.391 18.954L153.682 19.9217ZM156.426 21.723C157.424 22.2741 158.408 22.8781 159.381 23.535L160.053 22.5407C159.051 21.8643 158.036 21.2416 157.007 20.6727L156.426 21.723ZM159.396 23.5452C160.381 24.167 161.257 24.8377 162.027 25.5565L162.846 24.6792C162.016 23.9047 161.079 23.1887 160.037 22.5306L159.396 23.5452ZM162.043 25.5703C162.802 26.2321 163.421 27.0573 163.895 28.0553L164.979 27.5404C164.439 26.4051 163.724 25.4436 162.831 24.6654L162.043 25.5703ZM163.9 28.0662C164.389 29.0435 164.637 30.124 164.637 31.3179H165.837C165.837 29.9517 165.551 28.6855 164.973 27.5295L163.9 28.0662ZM164.637 31.3179V31.7179H165.837V31.3179H164.637ZM164.637 31.7179C164.637 34.0976 163.831 35.937 162.245 37.3033L163.028 38.2124C164.909 36.5921 165.837 34.4048 165.837 31.7179H164.637ZM162.242 37.3063C160.657 38.6926 158.683 39.3979 156.277 39.3979V40.5979C158.937 40.5979 161.203 39.8098 163.032 38.2094L162.242 37.3063ZM156.277 39.3979C153.141 39.3979 150.743 38.1227 149.015 35.5439L148.018 36.2118C149.971 39.1264 152.745 40.5979 156.277 40.5979V39.3979ZM149.117 35.8779V33.7179H147.917V35.8779H149.117ZM147.971 33.9669C148.707 35.5801 149.787 36.9027 151.206 37.9248L151.907 36.9509C150.66 36.053 149.713 34.8956 149.063 33.4689L147.971 33.9669ZM151.217 37.9326C152.697 38.9479 154.502 39.4379 156.597 39.4379V38.2379C154.692 38.2379 153.137 37.7945 151.896 36.9432L151.217 37.9326ZM156.597 39.4379C158.737 39.4379 160.612 38.7481 162.191 37.3699L161.402 36.4658C160.048 37.6476 158.456 38.2379 156.597 38.2379V39.4379ZM162.191 37.3699C163.802 35.9642 164.597 34.0858 164.597 31.7979H163.397C163.397 33.7766 162.725 35.3115 161.402 36.4658L162.191 37.3699ZM164.597 31.7979V31.5579H163.397V31.7979H164.597ZM164.597 31.5579C164.597 30.1143 164.219 28.789 163.463 27.5965L162.45 28.2392C163.08 29.2334 163.397 30.3347 163.397 31.5579H164.597ZM163.467 27.6021C162.731 26.4129 161.805 25.4422 160.689 24.6986L160.024 25.6971C160.988 26.3402 161.796 27.1828 162.446 28.2337L163.467 27.6021ZM160.698 24.7046C159.65 23.979 158.51 23.2276 157.277 22.4503L156.637 23.4654C157.857 24.2348 158.983 24.9767 160.015 25.6912L160.698 24.7046ZM157.277 22.4503C156.051 21.6776 154.919 20.9585 153.88 20.2927L153.233 21.303C154.274 21.9706 155.409 22.6914 156.637 23.4654L157.277 22.4503ZM153.88 20.2927C152.908 19.6692 152.099 18.8856 151.452 17.9391L150.461 18.6167C151.2 19.6968 152.126 20.5932 153.233 21.303L153.88 20.2927ZM151.452 17.9391C150.825 17.0231 150.517 16.034 150.517 14.9579H149.317C149.317 16.2817 149.702 17.506 150.461 18.6167L151.452 17.9391ZM150.517 14.9579V14.6779H149.317V14.9579H150.517ZM150.517 14.6779C150.517 12.9507 151.064 11.7108 152.098 10.8613L151.336 9.93441C149.969 11.0582 149.317 12.6717 149.317 14.6779H150.517ZM152.098 10.8613C153.176 9.97461 154.516 9.51787 156.157 9.51787V8.31787C154.277 8.31787 152.657 8.84779 151.336 9.93441L152.098 10.8613ZM156.157 9.51787C158.44 9.51787 160.208 10.3506 161.527 12.011L162.466 11.2647C160.905 9.29851 158.78 8.31787 156.157 8.31787V9.51787ZM161.397 11.6379V13.6779H162.597V11.6379H161.397ZM195.103 27.9979H194.503V28.5979H195.103V27.9979ZM195.103 26.8379V26.2379H194.503V26.8379H195.103ZM206.343 26.8379H206.943V26.2379H206.343V26.8379ZM206.343 37.6779L206.661 38.1867L206.943 38.0104V37.6779H206.343ZM190.303 37.7179L190.614 37.2049L190.614 37.2049L190.303 37.7179ZM184.663 31.9979L184.141 32.2937L184.145 32.3006L184.663 31.9979ZM187.223 13.4379L187.645 13.864L187.647 13.8621L187.223 13.4379ZM206.343 11.0779H206.943V10.7332L206.645 10.5596L206.343 11.0779ZM206.343 12.5579L206.005 13.0538L206.943 13.6922V12.5579H206.343ZM188.143 14.2379L188.567 14.6621L188.569 14.6601L188.143 14.2379ZM188.143 34.4779L188.569 34.0556L188.569 34.0556L188.143 34.4779ZM205.023 37.0379L205.281 37.5794L205.623 37.4163V37.0379H205.023ZM205.023 27.9979H205.623V27.3979H205.023V27.9979ZM195.703 27.9979V26.8379H194.503V27.9979H195.703ZM195.103 27.4379H206.343V26.2379H195.103V27.4379ZM205.743 26.8379V37.6779H206.943V26.8379H205.743ZM206.025 37.1691C203.779 38.5725 201.251 39.2779 198.423 39.2779V40.4779C201.462 40.4779 204.213 39.7166 206.661 38.1867L206.025 37.1691ZM198.423 39.2779H197.983V40.4779H198.423V39.2779ZM197.983 39.2779C195.347 39.2779 192.895 38.5886 190.614 37.2049L189.992 38.2308C192.458 39.7271 195.125 40.4779 197.983 40.4779V39.2779ZM190.614 37.2049C188.325 35.8162 186.517 33.9814 185.181 31.6952L184.145 32.3006C185.582 34.761 187.534 36.7396 189.992 38.2308L190.614 37.2049ZM185.185 31.7021C183.875 29.39 183.223 26.9449 183.223 24.3579H182.023C182.023 27.1575 182.731 29.8057 184.141 32.2937L185.185 31.7021ZM183.223 24.3579C183.223 20.2812 184.69 16.7936 187.645 13.864L186.8 13.0118C183.622 16.1621 182.023 19.9545 182.023 24.3579H183.223ZM187.647 13.8621C190.603 10.9059 194.118 9.43786 198.223 9.43786V8.23786C193.794 8.23786 189.976 9.83649 186.799 13.0136L187.647 13.8621ZM198.223 9.43786C200.966 9.43786 203.569 10.1542 206.041 11.5961L206.645 10.5596C203.997 9.0149 201.187 8.23786 198.223 8.23786V9.43786ZM205.743 11.0779V12.5579H206.943V11.0779H205.743ZM206.681 12.0619C204.079 10.2906 201.255 9.39786 198.223 9.39786V10.5979C201.004 10.5979 203.594 11.4118 206.005 13.0538L206.681 12.0619ZM198.223 9.39786C194.14 9.39786 190.627 10.8771 187.717 13.8156L188.569 14.6601C191.258 11.9453 194.466 10.5979 198.223 10.5979V9.39786ZM187.719 13.8136C184.807 16.7257 183.343 20.2515 183.343 24.3579H184.543C184.543 20.5709 185.879 17.35 188.567 14.6621L187.719 13.8136ZM183.343 24.3579C183.343 28.4386 184.807 31.963 187.717 34.9001L188.569 34.0556C185.879 31.3394 184.543 28.1171 184.543 24.3579H183.343ZM187.717 34.9001C190.627 37.8386 194.14 39.3179 198.223 39.3179V38.1179C194.466 38.1179 191.258 36.7704 188.569 34.0556L187.717 34.9001ZM198.223 39.3179C200.514 39.3179 202.869 38.7307 205.281 37.5794L204.764 36.4964C202.483 37.5851 200.305 38.1179 198.223 38.1179V39.3179ZM205.623 37.0379V27.9979H204.423V37.0379H205.623ZM205.023 27.3979H195.103V28.5979H205.023V27.3979ZM214.877 35.2779L214.446 35.6947L214.448 35.6966L214.877 35.2779ZM214.957 13.5179L215.38 13.944L215.382 13.9421L214.957 13.5179ZM236.997 13.4779L237.422 13.0536L237.422 13.0536L236.997 13.4779ZM237.037 35.3179L237.467 35.7365L237.469 35.7347L237.037 35.3179ZM236.037 14.3179L235.609 14.7381L235.613 14.7421L236.037 14.3179ZM215.877 14.3179L216.302 14.7421L216.304 14.7401L215.877 14.3179ZM215.877 34.5579L216.304 34.1356L216.304 34.1356L215.877 34.5579ZM236.037 34.5579L235.611 34.1356L236.037 34.5579ZM225.637 39.3579C221.675 39.3579 218.241 37.8702 215.307 34.8591L214.448 35.6966C217.594 38.9255 221.333 40.5579 225.637 40.5579V39.3579ZM215.309 34.861C212.398 31.8476 210.957 28.3551 210.957 24.3579H209.757C209.757 28.6806 211.329 32.4681 214.446 35.6947L215.309 34.861ZM210.957 24.3579C210.957 20.3368 212.423 16.8753 215.38 13.944L214.535 13.0918C211.359 16.2405 209.757 20.0056 209.757 24.3579H210.957ZM215.382 13.9421C218.337 10.9867 221.865 9.51787 225.997 9.51787V8.31787C221.543 8.31787 217.711 9.9157 214.533 13.0936L215.382 13.9421ZM225.997 9.51787C230.131 9.51787 233.645 10.9745 236.573 13.9021L237.422 13.0536C234.269 9.90125 230.45 8.31787 225.997 8.31787V9.51787ZM236.573 13.9021C239.503 16.8322 240.957 20.3073 240.957 24.3579H242.157C242.157 19.9818 240.571 16.2036 237.422 13.0536L236.573 13.9021ZM240.957 24.3579C240.957 28.3829 239.515 31.8884 236.606 34.901L237.469 35.7347C240.586 32.5073 242.157 28.7062 242.157 24.3579H240.957ZM236.607 34.8992C233.703 37.8807 230.256 39.3579 226.237 39.3579V40.5579C230.591 40.5579 234.345 38.9417 237.467 35.7365L236.607 34.8992ZM226.237 39.3579H225.637V40.5579H226.237V39.3579ZM240.837 24.4379C240.837 20.3315 239.374 16.8057 236.462 13.8936L235.613 14.7421C238.301 17.43 239.637 20.6509 239.637 24.4379H240.837ZM236.466 13.8977C233.58 10.9564 230.066 9.47787 225.957 9.47787V10.6779C229.742 10.6779 232.948 12.026 235.609 14.7381L236.466 13.8977ZM225.957 9.47787C221.874 9.47787 218.362 10.9571 215.451 13.8956L216.304 14.7401C218.993 12.0253 222.2 10.6779 225.957 10.6779V9.47787ZM215.453 13.8936C212.541 16.8057 211.077 20.3315 211.077 24.4379H212.277C212.277 20.6509 213.614 17.43 216.302 14.7421L215.453 13.8936ZM211.077 24.4379C211.077 28.5186 212.542 32.043 215.451 34.9801L216.304 34.1356C213.613 31.4194 212.277 28.1971 212.277 24.4379H211.077ZM215.451 34.9801C218.362 37.9186 221.874 39.3979 225.957 39.3979V38.1979C222.2 38.1979 218.993 36.8504 216.304 34.1356L215.451 34.9801ZM225.957 39.3979C230.04 39.3979 233.553 37.9186 236.464 34.9801L235.611 34.1356C232.922 36.8504 229.714 38.1979 225.957 38.1979V39.3979ZM236.464 34.9801C239.373 32.043 240.837 28.5186 240.837 24.4379H239.637C239.637 28.1971 238.302 31.4194 235.611 34.1356L236.464 34.9801ZM246.362 9.43786V8.83786H245.762V9.43786H246.362ZM258.482 13.8779L258.042 14.286L258.044 14.288L258.482 13.8779ZM258.482 35.0379L258.044 34.6278L258.042 34.6299L258.482 35.0379ZM246.362 39.4379H245.762V40.0379H246.362V39.4379ZM247.642 10.6379V10.0379H247.042V10.6379H247.642ZM247.642 38.1979H247.042V38.7979H247.642V38.1979ZM257.522 34.1579L257.083 33.7491L257.081 33.7514L257.522 34.1579ZM257.522 14.7179L257.079 15.1221L257.081 15.1245L257.522 14.7179ZM246.362 10.0379H247.642V8.83786H246.362V10.0379ZM247.642 10.0379C251.975 10.0379 255.422 11.4624 258.042 14.286L258.922 13.4697C256.048 10.3733 252.269 8.83786 247.642 8.83786V10.0379ZM258.044 14.288C260.683 17.1066 262.002 20.492 262.002 24.4779H263.202C263.202 20.197 261.774 16.5157 258.92 13.4678L258.044 14.288ZM262.002 24.4779C262.002 28.4359 260.684 31.8083 258.044 34.6278L258.92 35.448C261.773 32.4008 263.202 28.7331 263.202 24.4779H262.002ZM258.042 34.6299C255.45 37.4247 252.005 38.8379 247.642 38.8379V40.0379C252.292 40.0379 256.073 38.5177 258.922 35.4458L258.042 34.6299ZM247.642 38.8379H246.362V40.0379H247.642V38.8379ZM246.962 39.4379V9.43786H245.762V39.4379H246.962ZM247.962 10.0379H247.642V11.2379H247.962V10.0379ZM247.042 10.6379V38.1979H248.242V10.6379H247.042ZM247.642 38.7979H247.962V37.5979H247.642V38.7979ZM247.962 38.7979C252.011 38.7979 255.362 37.3895 257.963 34.5643L257.081 33.7514C254.722 36.3129 251.7 37.5979 247.962 37.5979V38.7979ZM257.961 34.5666C260.574 31.7596 261.882 28.3859 261.882 24.4779H260.682C260.682 28.0899 259.484 31.1695 257.083 33.7491L257.961 34.5666ZM261.882 24.4779C261.882 20.5445 260.575 17.1449 257.963 14.3113L257.081 15.1245C259.483 17.7308 260.682 20.8379 260.682 24.4779H261.882ZM257.965 14.3136C255.364 11.461 252.013 10.0379 247.962 10.0379V11.2379C251.698 11.2379 254.719 12.5347 257.079 15.1221L257.965 14.3136ZM267.617 9.43786V8.83786H267.017V9.43786H267.617ZM268.937 9.43786H269.537V8.83786H268.937V9.43786ZM268.937 39.4379V40.0379H269.537V39.4379H268.937ZM267.617 39.4379H267.017V40.0379H267.617V39.4379ZM267.617 10.0379H268.937V8.83786H267.617V10.0379ZM268.337 9.43786V39.4379H269.537V9.43786H268.337ZM268.937 38.8379H267.617V40.0379H268.937V38.8379ZM268.217 39.4379V9.43786H267.017V39.4379H268.217ZM297.231 9.43786V8.83786H296.631V9.43786H297.231ZM298.391 9.43786H298.991V8.83786H298.391V9.43786ZM298.391 39.8779L297.925 40.2564L298.991 41.5671V39.8779H298.391ZM276.311 12.7179L276.777 12.3394L275.711 11.0287V12.7179H276.311ZM276.311 39.4379V40.0379H276.911V39.4379H276.311ZM275.151 39.4379H274.551V40.0379H275.151V39.4379ZM275.151 8.99786L275.616 8.61904L274.551 7.31059V8.99786H275.151ZM297.231 36.1179L296.766 36.4967L297.831 37.8051V36.1179H297.231ZM297.231 10.0379H298.391V8.83786H297.231V10.0379ZM297.791 9.43786V39.8779H298.991V9.43786H297.791ZM298.857 39.4994L276.777 12.3394L275.845 13.0963L297.925 40.2564L298.857 39.4994ZM275.711 12.7179V39.4379H276.911V12.7179H275.711ZM276.311 38.8379H275.151V40.0379H276.311V38.8379ZM275.751 39.4379V8.99786H274.551V39.4379H275.751ZM274.686 9.37669L296.766 36.4967L297.696 35.739L275.616 8.61904L274.686 9.37669ZM297.831 36.1179V9.43786H296.631V36.1179H297.831ZM304.409 9.43786V8.83786H303.809V9.43786H304.409ZM315.169 9.43786H315.769V8.83786H315.169V9.43786ZM315.169 10.5979V11.1979H315.769V10.5979H315.169ZM305.729 10.5979V9.99787H305.129V10.5979H305.729ZM305.729 26.9179H305.129V27.5179H305.729V26.9179ZM313.609 26.9179H314.209V26.3179H313.609V26.9179ZM313.609 28.0779V28.6779H314.209V28.0779H313.609ZM305.729 28.0779V27.4779H305.129V28.0779H305.729ZM305.729 38.2779H305.129V38.8779H305.729V38.2779ZM315.169 38.2779H315.769V37.6779H315.169V38.2779ZM315.169 39.4379V40.0379H315.769V39.4379H315.169ZM304.409 39.4379H303.809V40.0379H304.409V39.4379ZM304.409 10.0379H315.169V8.83786H304.409V10.0379ZM314.569 9.43786V10.5979H315.769V9.43786H314.569ZM315.169 9.99787H305.729V11.1979H315.169V9.99787ZM305.129 10.5979V26.9179H306.329V10.5979H305.129ZM305.729 27.5179H313.609V26.3179H305.729V27.5179ZM313.009 26.9179V28.0779H314.209V26.9179H313.009ZM313.609 27.4779H305.729V28.6779H313.609V27.4779ZM305.129 28.0779V38.2779H306.329V28.0779H305.129ZM305.729 38.8779H315.169V37.6779H305.729V38.8779ZM314.569 38.2779V39.4379H315.769V38.2779H314.569ZM315.169 38.8379H304.409V40.0379H315.169V38.8379ZM305.009 39.4379V9.43786H303.809V39.4379H305.009ZM332.334 8.71787L332.874 8.4546L332.334 7.34893L331.795 8.45517L332.334 8.71787ZM347.334 39.4379V40.0379H348.295L347.874 39.1746L347.334 39.4379ZM345.934 39.4379L345.397 39.7047L345.562 40.0379H345.934V39.4379ZM340.254 27.9979L340.792 27.731L340.626 27.3979H340.254V27.9979ZM324.214 27.9979V27.3979H323.84L323.676 27.7341L324.214 27.9979ZM318.614 39.4379V40.0379H318.989L319.153 39.7017L318.614 39.4379ZM317.374 39.4379L316.835 39.1752L316.415 40.0379H317.374V39.4379ZM332.214 11.4779L332.753 11.2129L332.212 10.1133L331.675 11.2152L332.214 11.4779ZM324.734 26.8379L324.195 26.5752L323.775 27.4379H324.734V26.8379ZM339.774 26.8379V27.4379H340.738L340.313 26.5729L339.774 26.8379ZM331.795 8.98113L346.795 39.7011L347.874 39.1746L332.874 8.4546L331.795 8.98113ZM347.334 38.8379H345.934V40.0379H347.334V38.8379ZM346.472 39.171L340.792 27.731L339.717 28.2647L345.397 39.7047L346.472 39.171ZM340.254 27.3979H324.214V28.5979H340.254V27.3979ZM323.676 27.7341L318.076 39.1741L319.153 39.7017L324.753 28.2617L323.676 27.7341ZM318.614 38.8379H317.374V40.0379H318.614V38.8379ZM317.914 39.7006L332.874 8.98056L331.795 8.45517L316.835 39.1752L317.914 39.7006ZM331.675 11.2152L324.195 26.5752L325.274 27.1006L332.754 11.7406L331.675 11.2152ZM324.734 27.4379H339.774V26.2379H324.734V27.4379ZM340.313 26.5729L332.753 11.2129L331.676 11.7428L339.236 27.1028L340.313 26.5729ZM351.89 37.4379L351.462 37.8588L351.465 37.8621L351.89 37.4379ZM349.37 9.43786V8.83786H348.77V9.43786H349.37ZM350.69 9.43786H351.29V8.83786H350.69V9.43786ZM352.89 36.5979L352.462 37.0183L352.462 37.0183L352.89 36.5979ZM363.73 36.6379L363.302 36.2174L363.302 36.2175L363.73 36.6379ZM365.93 9.43786V8.83786H365.33V9.43786H365.93ZM367.25 9.43786H367.85V8.83786H367.25V9.43786ZM364.69 37.4379L364.262 37.0169L364.262 37.017L364.69 37.4379ZM358.53 39.3979H358.13V40.5979H358.53V39.3979ZM358.13 39.3979C355.833 39.3979 353.906 38.6057 352.314 37.0136L351.465 37.8621C353.287 39.6834 355.52 40.5979 358.13 40.5979V39.3979ZM352.317 37.017C350.757 35.4321 349.97 33.4409 349.97 30.9979H348.77C348.77 33.7281 349.662 36.0303 351.462 37.8588L352.317 37.017ZM349.97 30.9979V9.43786H348.77V30.9979H349.97ZM349.37 10.0379H350.69V8.83786H349.37V10.0379ZM350.09 9.43786V30.9579H351.29V9.43786H350.09ZM350.09 30.9579C350.09 33.3674 350.875 35.4029 352.462 37.0183L353.318 36.1774C351.971 34.8061 351.29 33.0816 351.29 30.9579H350.09ZM352.462 37.0183C354.045 38.6305 356.015 39.4379 358.33 39.4379V38.2379C356.325 38.2379 354.668 37.5519 353.318 36.1774L352.462 37.0183ZM358.33 39.4379C360.642 39.4379 362.599 38.6462 364.158 37.0582L363.302 36.2175C361.981 37.5629 360.338 38.2379 358.33 38.2379V39.4379ZM364.158 37.0583C365.746 35.4415 366.53 33.392 366.53 30.9579H365.33C365.33 33.1104 364.647 34.8475 363.302 36.2174L364.158 37.0583ZM366.53 30.9579V9.43786H365.33V30.9579H366.53ZM365.93 10.0379H367.25V8.83786H365.93V10.0379ZM366.65 9.43786V30.9179H367.85V9.43786H366.65ZM366.65 30.9179C366.65 33.3866 365.85 35.4047 364.262 37.0169L365.117 37.8588C366.943 36.0044 367.85 33.6758 367.85 30.9179H366.65ZM364.262 37.017C362.697 38.6073 360.798 39.3979 358.53 39.3979V40.5979C361.115 40.5979 363.323 39.6817 365.117 37.8588L364.262 37.017ZM54.193 56.4379V55.8379H53.593V56.4379H54.193ZM62.593 59.3179L62.1717 59.7451L62.1747 59.748L62.593 59.3179ZM62.473 72.7179L62.0665 72.2765L62.0636 72.2792L62.473 72.7179ZM55.513 75.5179V74.9179H54.913V75.5179H55.513ZM55.513 86.4379V87.0379H56.113V86.4379H55.513ZM54.193 86.4379H53.593V87.0379H54.193V86.4379ZM55.513 74.3979H54.913V74.9979H55.513V74.3979ZM61.673 71.9179L61.2522 71.4902L61.2488 71.4936L61.673 71.9179ZM61.633 60.1179L61.2088 60.5421L61.2121 60.5455L61.633 60.1179ZM55.513 57.5979V56.9979H54.913V57.5979H55.513ZM54.193 57.0379H55.513V55.8379H54.193V57.0379ZM55.513 57.0379C58.1312 57.0379 60.3391 57.9375 62.1717 59.745L63.0144 58.8907C60.9536 56.8582 58.4415 55.8379 55.513 55.8379V57.0379ZM62.1747 59.748C64.0117 61.5346 64.913 63.622 64.913 66.0379H66.113C66.113 63.2804 65.0677 60.8878 63.0114 58.8877L62.1747 59.748ZM64.913 66.0379C64.913 68.4449 63.9789 70.5152 62.0665 72.2765L62.8795 73.1592C65.0205 71.1872 66.113 68.8041 66.113 66.0379H64.913ZM62.0636 72.2792C60.1595 74.0565 58.088 74.9179 55.833 74.9179V76.1179C58.4314 76.1179 60.7866 75.1126 62.8824 73.1565L62.0636 72.2792ZM55.833 74.9179H55.513V76.1179H55.833V74.9179ZM54.913 75.5179V86.4379H56.113V75.5179H54.913ZM55.513 85.8379H54.193V87.0379H55.513V85.8379ZM54.793 86.4379V56.4379H53.593V86.4379H54.793ZM55.513 74.9979H55.833V73.7979H55.513V74.9979ZM55.833 74.9979C58.2398 74.9979 60.3369 74.1025 62.0973 72.3421L61.2488 71.4936C59.7025 73.0399 57.9063 73.7979 55.833 73.7979V74.9979ZM62.0939 72.3455C63.8834 70.5844 64.793 68.4724 64.793 66.0379H63.593C63.593 68.1367 62.8227 69.9446 61.2522 71.4902L62.0939 72.3455ZM64.793 66.0379C64.793 63.6006 63.868 61.476 62.0539 59.6903L61.2121 60.5455C62.8114 62.1198 63.593 63.9418 63.593 66.0379H64.793ZM62.0573 59.6936C60.2755 57.9118 58.1934 56.9979 55.833 56.9979V58.1979C57.846 58.1979 59.6306 58.9639 61.2088 60.5421L62.0573 59.6936ZM55.833 56.9979H55.513V58.1979H55.833V56.9979ZM54.913 57.5979V74.3979H56.113V57.5979H54.913ZM91.699 56.4379V55.8379H91.099V56.4379H91.699ZM93.019 56.4379H93.619V55.8379H93.019V56.4379ZM93.019 86.4379V87.0379H93.619V86.4379H93.019ZM91.699 86.4379H91.099V87.0379H91.699V86.4379ZM91.699 74.9979H92.299V74.3979H91.699V74.9979ZM71.139 74.9979V74.3979H70.539V74.9979H71.139ZM71.139 86.4379V87.0379H71.739V86.4379H71.139ZM69.819 86.4379H69.219V87.0379H69.819V86.4379ZM69.819 56.4379V55.8379H69.219V56.4379H69.819ZM71.139 56.4379H71.739V55.8379H71.139V56.4379ZM71.139 73.8379H70.539V74.4379H71.139V73.8379ZM91.699 73.8379V74.4379H92.299V73.8379H91.699ZM91.699 57.0379H93.019V55.8379H91.699V57.0379ZM92.419 56.4379V86.4379H93.619V56.4379H92.419ZM93.019 85.8379H91.699V87.0379H93.019V85.8379ZM92.299 86.4379V74.9979H91.099V86.4379H92.299ZM91.699 74.3979H71.139V75.5979H91.699V74.3979ZM70.539 74.9979V86.4379H71.739V74.9979H70.539ZM71.139 85.8379H69.819V87.0379H71.139V85.8379ZM70.419 86.4379V56.4379H69.219V86.4379H70.419ZM69.819 57.0379H71.139V55.8379H69.819V57.0379ZM70.539 56.4379V73.8379H71.739V56.4379H70.539ZM71.139 74.4379H91.699V73.2379H71.139V74.4379ZM92.299 73.8379V56.4379H91.099V73.8379H92.299ZM102.358 82.2779L101.926 82.6947L101.928 82.6966L102.358 82.2779ZM102.438 60.5179L102.86 60.944L102.862 60.9421L102.438 60.5179ZM124.478 60.4779L124.902 60.0536L124.902 60.0536L124.478 60.4779ZM124.518 82.3179L124.948 82.7365L124.949 82.7347L124.518 82.3179ZM123.518 61.3179L123.089 61.7381L123.093 61.7421L123.518 61.3179ZM103.358 61.3179L103.782 61.7421L103.784 61.7401L103.358 61.3179ZM103.358 81.5579L103.784 81.1356L103.784 81.1356L103.358 81.5579ZM123.518 81.5579L123.091 81.1356L123.518 81.5579ZM113.118 86.3579C109.156 86.3579 105.721 84.8702 102.787 81.8591L101.928 82.6966C105.074 85.9255 108.813 87.5579 113.118 87.5579V86.3579ZM102.789 81.861C99.8789 78.8476 98.4377 75.3551 98.4377 71.3579H97.2377C97.2377 75.6806 98.8099 79.4681 101.926 82.6947L102.789 81.861ZM98.4377 71.3579C98.4377 67.3368 99.9031 63.8753 102.86 60.944L102.015 60.0918C98.839 63.2405 97.2377 67.0056 97.2377 71.3579H98.4377ZM102.862 60.9421C105.817 57.9867 109.345 56.5179 113.478 56.5179V55.3179C109.023 55.3179 105.191 56.9157 102.013 60.0936L102.862 60.9421ZM113.478 56.5179C117.612 56.5179 121.126 57.9745 124.053 60.9021L124.902 60.0536C121.75 56.9013 117.93 55.3179 113.478 55.3179V56.5179ZM124.053 60.9021C126.984 63.8322 128.438 67.3073 128.438 71.3579H129.638C129.638 66.9818 128.052 63.2036 124.902 60.0536L124.053 60.9021ZM128.438 71.3579C128.438 75.3829 126.996 78.8884 124.086 81.901L124.949 82.7347C128.066 79.5073 129.638 75.7062 129.638 71.3579H128.438ZM124.088 81.8992C121.184 84.8807 117.737 86.3579 113.718 86.3579V87.5579C118.072 87.5579 121.825 85.9417 124.948 82.7365L124.088 81.8992ZM113.718 86.3579H113.118V87.5579H113.718V86.3579ZM128.318 71.4379C128.318 67.3315 126.854 63.8057 123.942 60.8936L123.093 61.7421C125.781 64.43 127.118 67.6509 127.118 71.4379H128.318ZM123.946 60.8977C121.06 57.9564 117.546 56.4779 113.438 56.4779V57.6779C117.223 57.6779 120.429 59.026 123.089 61.7381L123.946 60.8977ZM113.438 56.4779C109.355 56.4779 105.842 57.9571 102.931 60.8956L103.784 61.7401C106.473 59.0253 109.681 57.6779 113.438 57.6779V56.4779ZM102.933 60.8936C100.021 63.8057 98.5577 67.3315 98.5577 71.4379H99.7577C99.7577 67.6509 101.094 64.43 103.782 61.7421L102.933 60.8936ZM98.5577 71.4379C98.5577 75.5186 100.022 79.043 102.931 81.9801L103.784 81.1356C101.093 78.4194 99.7577 75.1971 99.7577 71.4379H98.5577ZM102.931 81.9801C105.842 84.9186 109.355 86.3979 113.438 86.3979V85.1979C109.681 85.1979 106.473 83.8504 103.784 81.1356L102.931 81.9801ZM113.438 86.3979C117.521 86.3979 121.033 84.9186 123.944 81.9801L123.091 81.1356C120.402 83.8504 117.195 85.1979 113.438 85.1979V86.3979ZM123.944 81.9801C126.853 79.043 128.318 75.5186 128.318 71.4379H127.118C127.118 75.1971 125.782 78.4194 123.091 81.1356L123.944 81.9801ZM143.363 56.4379H143.963V55.8379H143.363V56.4379ZM143.363 57.5979V58.1979H143.963V57.5979H143.363ZM136.523 57.5979V56.9979H135.923V57.5979H136.523ZM136.523 86.4379V87.0379H137.123V86.4379H136.523ZM135.203 86.4379H134.603V87.0379H135.203V86.4379ZM135.203 57.5979H135.803V56.9979H135.203V57.5979ZM128.283 57.5979H127.683V58.1979H128.283V57.5979ZM128.283 56.4379V55.8379H127.683V56.4379H128.283ZM142.763 56.4379V57.5979H143.963V56.4379H142.763ZM143.363 56.9979H136.523V58.1979H143.363V56.9979ZM135.923 57.5979V86.4379H137.123V57.5979H135.923ZM136.523 85.8379H135.203V87.0379H136.523V85.8379ZM135.803 86.4379V57.5979H134.603V86.4379H135.803ZM135.203 56.9979H128.283V58.1979H135.203V56.9979ZM128.883 57.5979V56.4379H127.683V57.5979H128.883ZM128.283 57.0379H143.363V55.8379H128.283V57.0379ZM147.28 82.2779L146.848 82.6947L146.85 82.6966L147.28 82.2779ZM147.36 60.5179L147.782 60.944L147.784 60.9421L147.36 60.5179ZM169.4 60.4779L169.824 60.0536L169.824 60.0536L169.4 60.4779ZM169.44 82.3179L169.869 82.7365L169.871 82.7347L169.44 82.3179ZM168.44 61.3179L168.011 61.7381L168.015 61.7421L168.44 61.3179ZM148.28 61.3179L148.704 61.7421L148.706 61.7401L148.28 61.3179ZM148.28 81.5579L148.706 81.1356L148.706 81.1356L148.28 81.5579ZM168.44 81.5579L168.013 81.1356L168.44 81.5579ZM158.04 86.3579C154.078 86.3579 150.643 84.8702 147.709 81.8591L146.85 82.6966C149.996 85.9255 153.735 87.5579 158.04 87.5579V86.3579ZM147.711 81.861C144.801 78.8476 143.36 75.3551 143.36 71.3579H142.16C142.16 75.6806 143.732 79.4681 146.848 82.6947L147.711 81.861ZM143.36 71.3579C143.36 67.3368 144.825 63.8753 147.782 60.944L146.937 60.0918C143.761 63.2405 142.16 67.0056 142.16 71.3579H143.36ZM147.784 60.9421C150.739 57.9867 154.267 56.5179 158.4 56.5179V55.3179C153.945 55.3179 150.113 56.9157 146.935 60.0936L147.784 60.9421ZM158.4 56.5179C162.534 56.5179 166.048 57.9745 168.975 60.9021L169.824 60.0536C166.672 56.9013 162.852 55.3179 158.4 55.3179V56.5179ZM168.975 60.9021C171.905 63.8322 173.36 67.3073 173.36 71.3579H174.56C174.56 66.9818 172.974 63.2036 169.824 60.0536L168.975 60.9021ZM173.36 71.3579C173.36 75.3829 171.918 78.8884 169.008 81.901L169.871 82.7347C172.988 79.5073 174.56 75.7062 174.56 71.3579H173.36ZM169.01 81.8992C166.105 84.8807 162.659 86.3579 158.64 86.3579V87.5579C162.994 87.5579 166.747 85.9417 169.869 82.7365L169.01 81.8992ZM158.64 86.3579H158.04V87.5579H158.64V86.3579ZM173.24 71.4379C173.24 67.3315 171.776 63.8057 168.864 60.8936L168.015 61.7421C170.703 64.43 172.04 67.6509 172.04 71.4379H173.24ZM168.868 60.8977C165.982 57.9564 162.468 56.4779 158.36 56.4779V57.6779C162.145 57.6779 165.35 59.026 168.011 61.7381L168.868 60.8977ZM158.36 56.4779C154.277 56.4779 150.764 57.9571 147.853 60.8956L148.706 61.7401C151.395 59.0253 154.602 57.6779 158.36 57.6779V56.4779ZM147.855 60.8936C144.943 63.8057 143.48 67.3315 143.48 71.4379H144.68C144.68 67.6509 146.016 64.43 148.704 61.7421L147.855 60.8936ZM143.48 71.4379C143.48 75.5186 144.944 79.043 147.853 81.9801L148.706 81.1356C146.015 78.4194 144.68 75.1971 144.68 71.4379H143.48ZM147.853 81.9801C150.764 84.9186 154.277 86.3979 158.36 86.3979V85.1979C154.602 85.1979 151.395 83.8504 148.706 81.1356L147.853 81.9801ZM158.36 86.3979C162.442 86.3979 165.955 84.9186 168.866 81.9801L168.013 81.1356C165.324 83.8504 162.117 85.1979 158.36 85.1979V86.3979ZM168.866 81.9801C171.775 79.043 173.24 75.5186 173.24 71.4379H172.04C172.04 75.1971 170.704 78.4194 168.013 81.1356L168.866 81.9801ZM190.044 74.9979H189.444V75.5979H190.044V74.9979ZM190.044 73.8379V73.2379H189.444V73.8379H190.044ZM201.284 73.8379H201.884V73.2379H201.284V73.8379ZM201.284 84.6779L201.602 85.1867L201.884 85.0104V84.6779H201.284ZM185.244 84.7179L185.556 84.2049L185.556 84.2049L185.244 84.7179ZM179.604 78.9979L179.082 79.2937L179.086 79.3006L179.604 78.9979ZM182.164 60.4379L182.587 60.864L182.589 60.8621L182.164 60.4379ZM201.284 58.0779H201.884V57.7332L201.587 57.5596L201.284 58.0779ZM201.284 59.5579L200.947 60.0538L201.884 60.6922V59.5579H201.284ZM183.084 61.2379L183.509 61.6621L183.511 61.6601L183.084 61.2379ZM183.084 81.4779L183.511 81.0556L183.511 81.0556L183.084 81.4779ZM199.964 84.0379L200.223 84.5794L200.564 84.4163V84.0379H199.964ZM199.964 74.9979H200.564V74.3979H199.964V74.9979ZM190.644 74.9979V73.8379H189.444V74.9979H190.644ZM190.044 74.4379H201.284V73.2379H190.044V74.4379ZM200.684 73.8379V84.6779H201.884V73.8379H200.684ZM200.966 84.1691C198.721 85.5725 196.192 86.2779 193.364 86.2779V87.4779C196.403 87.4779 199.154 86.7166 201.602 85.1867L200.966 84.1691ZM193.364 86.2779H192.924V87.4779H193.364V86.2779ZM192.924 86.2779C190.289 86.2779 187.836 85.5886 185.556 84.2049L184.933 85.2308C187.399 86.7271 190.067 87.4779 192.924 87.4779V86.2779ZM185.556 84.2049C183.267 82.8162 181.458 80.9814 180.122 78.6952L179.086 79.3006C180.524 81.761 182.475 83.7396 184.933 85.2308L185.556 84.2049ZM180.126 78.7021C178.816 76.39 178.164 73.9449 178.164 71.3579H176.964C176.964 74.1575 177.672 76.8057 179.082 79.2937L180.126 78.7021ZM178.164 71.3579C178.164 67.2812 179.631 63.7936 182.587 60.864L181.742 60.0118C178.564 63.1621 176.964 66.9545 176.964 71.3579H178.164ZM182.589 60.8621C185.545 57.9059 189.06 56.4379 193.164 56.4379V55.2379C188.736 55.2379 184.917 56.8365 181.74 60.0136L182.589 60.8621ZM193.164 56.4379C195.907 56.4379 198.51 57.1542 200.982 58.5961L201.587 57.5596C198.939 56.0149 196.128 55.2379 193.164 55.2379V56.4379ZM200.684 58.0779V59.5579H201.884V58.0779H200.684ZM201.622 59.0619C199.02 57.2906 196.197 56.3979 193.164 56.3979V57.5979C195.945 57.5979 198.535 58.4118 200.947 60.0538L201.622 59.0619ZM193.164 56.3979C189.081 56.3979 185.569 57.8771 182.658 60.8156L183.511 61.6601C186.2 58.9453 189.407 57.5979 193.164 57.5979V56.3979ZM182.66 60.8136C179.748 63.7257 178.284 67.2515 178.284 71.3579H179.484C179.484 67.5709 180.821 64.35 183.509 61.6621L182.66 60.8136ZM178.284 71.3579C178.284 75.4386 179.749 78.963 182.658 81.9001L183.511 81.0556C180.82 78.3394 179.484 75.1171 179.484 71.3579H178.284ZM182.658 81.9001C185.569 84.8386 189.081 86.3179 193.164 86.3179V85.1179C189.407 85.1179 186.2 83.7704 183.511 81.0556L182.658 81.9001ZM193.164 86.3179C195.456 86.3179 197.81 85.7307 200.223 84.5794L199.706 83.4964C197.425 84.5851 195.246 85.1179 193.164 85.1179V86.3179ZM200.564 84.0379V74.9979H199.364V84.0379H200.564ZM199.964 74.3979H190.044V75.5979H199.964V74.3979ZM206.499 56.4379V55.8379H205.899V56.4379H206.499ZM215.019 59.3179L214.597 59.7451L214.603 59.7508L215.019 59.3179ZM214.979 72.7179L214.566 72.2821L214.566 72.2821L214.979 72.7179ZM208.259 75.5579V74.9579H206.863L207.823 75.9708L208.259 75.5579ZM218.579 86.4379V87.0379H219.975L219.014 86.025L218.579 86.4379ZM216.859 86.4379L216.424 86.852L216.602 87.0379H216.859V86.4379ZM207.779 76.9179L208.213 76.5038L207.179 75.4195V76.9179H207.779ZM207.779 86.4379V87.0379H208.379V86.4379H207.779ZM206.499 86.4379H205.899V87.0379H206.499V86.4379ZM207.779 74.3979H207.179V74.9979H207.779V74.3979ZM214.219 71.9179L214.643 72.3421L214.643 72.3421L214.219 71.9179ZM214.139 60.1179L214.56 59.6903L214.56 59.6903L214.139 60.1179ZM207.779 57.5979V56.9979H207.179V57.5979H207.779ZM206.499 57.0379H208.219V55.8379H206.499V57.0379ZM208.219 57.0379C210.638 57.0379 212.756 57.9288 214.597 59.745L215.44 58.8907C213.388 56.8669 210.973 55.8379 208.219 55.8379V57.0379ZM214.603 59.7508C216.466 61.5382 217.379 63.6248 217.379 66.0379H218.579C218.579 63.2776 217.518 60.8842 215.434 58.8849L214.603 59.7508ZM217.379 66.0379C217.379 68.4196 216.457 70.4925 214.566 72.2821L215.391 73.1536C217.501 71.1565 218.579 68.7761 218.579 66.0379H217.379ZM214.566 72.2821C212.654 74.0925 210.649 74.9579 208.539 74.9579V76.1579C211.015 76.1579 213.303 75.1299 215.391 73.1536L214.566 72.2821ZM208.539 74.9579H208.259V76.1579H208.539V74.9579ZM207.823 75.9708L218.143 86.8508L219.014 86.025L208.694 75.145L207.823 75.9708ZM218.579 85.8379H216.859V87.0379H218.579V85.8379ZM217.293 86.0238L208.213 76.5038L207.344 77.332L216.424 86.852L217.293 86.0238ZM207.179 76.9179V86.4379H208.379V76.9179H207.179ZM207.779 85.8379H206.499V87.0379H207.779V85.8379ZM207.099 86.4379V56.4379H205.899V86.4379H207.099ZM207.779 74.9979H208.499V73.7979H207.779V74.9979ZM208.499 74.9979C210.832 74.9979 212.887 74.0977 214.643 72.3421L213.794 71.4936C212.243 73.0447 210.486 73.7979 208.499 73.7979V74.9979ZM214.643 72.3421C216.405 70.5802 217.299 68.4692 217.299 66.0379H216.099C216.099 68.1399 215.339 69.9488 213.794 71.4936L214.643 72.3421ZM217.299 66.0379C217.299 63.6006 216.374 61.476 214.56 59.6903L213.718 60.5455C215.317 62.1198 216.099 63.9418 216.099 66.0379H217.299ZM214.56 59.6903C212.752 57.9113 210.659 56.9979 208.299 56.9979V58.1979C210.312 58.1979 212.112 58.9644 213.718 60.5455L214.56 59.6903ZM208.299 56.9979H207.779V58.1979H208.299V56.9979ZM207.179 57.5979V74.3979H208.379V57.5979H207.179ZM235.948 55.7179L236.487 55.4546L235.947 54.3489L235.408 55.4552L235.948 55.7179ZM250.948 86.4379V87.0379H251.908L251.487 86.1746L250.948 86.4379ZM249.548 86.4379L249.01 86.7047L249.176 87.0379H249.548V86.4379ZM243.868 74.9979L244.405 74.731L244.24 74.3979H243.868V74.9979ZM227.828 74.9979V74.3979H227.453L227.289 74.7341L227.828 74.9979ZM222.228 86.4379V87.0379H222.602L222.767 86.7017L222.228 86.4379ZM220.988 86.4379L220.448 86.1752L220.028 87.0379H220.988V86.4379ZM235.828 58.4779L236.366 58.2129L235.825 57.1133L235.288 58.2152L235.828 58.4779ZM228.348 73.8379L227.808 73.5752L227.388 74.4379H228.348V73.8379ZM243.388 73.8379V74.4379H244.352L243.926 73.5729L243.388 73.8379ZM235.409 55.9811L250.409 86.7011L251.487 86.1746L236.487 55.4546L235.409 55.9811ZM250.948 85.8379H249.548V87.0379H250.948V85.8379ZM250.085 86.171L244.405 74.731L243.33 75.2647L249.01 86.7047L250.085 86.171ZM243.868 74.3979H227.828V75.5979H243.868V74.3979ZM227.289 74.7341L221.689 86.1741L222.767 86.7017L228.367 75.2617L227.289 74.7341ZM222.228 85.8379H220.988V87.0379H222.228V85.8379ZM221.527 86.7006L236.487 55.9806L235.408 55.4552L220.448 86.1752L221.527 86.7006ZM235.288 58.2152L227.808 73.5752L228.887 74.1006L236.367 58.7406L235.288 58.2152ZM228.348 74.4379H243.388V73.2379H228.348V74.4379ZM243.926 73.5729L236.366 58.2129L235.289 58.7428L242.849 74.1028L243.926 73.5729ZM255.091 56.4379V55.8379H254.491V56.4379H255.091ZM263.491 59.3179L263.07 59.7451L263.073 59.748L263.491 59.3179ZM263.371 72.7179L262.965 72.2765L262.962 72.2792L263.371 72.7179ZM256.411 75.5179V74.9179H255.811V75.5179H256.411ZM256.411 86.4379V87.0379H257.011V86.4379H256.411ZM255.091 86.4379H254.491V87.0379H255.091V86.4379ZM256.411 74.3979H255.811V74.9979H256.411V74.3979ZM262.571 71.9179L262.151 71.4902L262.147 71.4936L262.571 71.9179ZM262.531 60.1179L262.107 60.5421L262.111 60.5455L262.531 60.1179ZM256.411 57.5979V56.9979H255.811V57.5979H256.411ZM255.091 57.0379H256.411V55.8379H255.091V57.0379ZM256.411 57.0379C259.03 57.0379 261.238 57.9375 263.07 59.745L263.913 58.8907C261.852 56.8582 259.34 55.8379 256.411 55.8379V57.0379ZM263.073 59.748C264.91 61.5346 265.811 63.622 265.811 66.0379H267.011C267.011 63.2804 265.966 60.8878 263.91 58.8877L263.073 59.748ZM265.811 66.0379C265.811 68.4449 264.877 70.5152 262.965 72.2765L263.778 73.1592C265.919 71.1872 267.011 68.8041 267.011 66.0379H265.811ZM262.962 72.2792C261.058 74.0565 258.986 74.9179 256.731 74.9179V76.1179C259.33 76.1179 261.685 75.1126 263.781 73.1565L262.962 72.2792ZM256.731 74.9179H256.411V76.1179H256.731V74.9179ZM255.811 75.5179V86.4379H257.011V75.5179H255.811ZM256.411 85.8379H255.091V87.0379H256.411V85.8379ZM255.691 86.4379V56.4379H254.491V86.4379H255.691ZM256.411 74.9979H256.731V73.7979H256.411V74.9979ZM256.731 74.9979C259.138 74.9979 261.235 74.1025 262.996 72.3421L262.147 71.4936C260.601 73.0399 258.805 73.7979 256.731 73.7979V74.9979ZM262.992 72.3455C264.782 70.5844 265.691 68.4724 265.691 66.0379H264.491C264.491 68.1367 263.721 69.9446 262.151 71.4902L262.992 72.3455ZM265.691 66.0379C265.691 63.6006 264.766 61.476 262.952 59.6903L262.111 60.5455C263.71 62.1198 264.491 63.9418 264.491 66.0379H265.691ZM262.956 59.6936C261.174 57.9118 259.092 56.9979 256.731 56.9979V58.1979C258.744 58.1979 260.529 58.9639 262.107 60.5421L262.956 59.6936ZM256.731 56.9979H256.411V58.1979H256.731V56.9979ZM255.811 57.5979V74.3979H257.011V57.5979H255.811ZM292.597 56.4379V55.8379H291.997V56.4379H292.597ZM293.917 56.4379H294.517V55.8379H293.917V56.4379ZM293.917 86.4379V87.0379H294.517V86.4379H293.917ZM292.597 86.4379H291.997V87.0379H292.597V86.4379ZM292.597 74.9979H293.197V74.3979H292.597V74.9979ZM272.037 74.9979V74.3979H271.437V74.9979H272.037ZM272.037 86.4379V87.0379H272.637V86.4379H272.037ZM270.717 86.4379H270.117V87.0379H270.717V86.4379ZM270.717 56.4379V55.8379H270.117V56.4379H270.717ZM272.037 56.4379H272.637V55.8379H272.037V56.4379ZM272.037 73.8379H271.437V74.4379H272.037V73.8379ZM292.597 73.8379V74.4379H293.197V73.8379H292.597ZM292.597 57.0379H293.917V55.8379H292.597V57.0379ZM293.317 56.4379V86.4379H294.517V56.4379H293.317ZM293.917 85.8379H292.597V87.0379H293.917V85.8379ZM293.197 86.4379V74.9979H291.997V86.4379H293.197ZM292.597 74.3979H272.037V75.5979H292.597V74.3979ZM271.437 74.9979V86.4379H272.637V74.9979H271.437ZM272.037 85.8379H270.717V87.0379H272.037V85.8379ZM271.317 86.4379V56.4379H270.117V86.4379H271.317ZM270.717 57.0379H272.037V55.8379H270.717V57.0379ZM271.437 56.4379V73.8379H272.637V56.4379H271.437ZM272.037 74.4379H292.597V73.2379H272.037V74.4379ZM293.197 73.8379V56.4379H291.997V73.8379H293.197ZM300.136 56.4379V55.8379H299.536V56.4379H300.136ZM301.456 56.4379H302.056V55.8379H301.456V56.4379ZM301.456 86.4379V87.0379H302.056V86.4379H301.456ZM300.136 86.4379H299.536V87.0379H300.136V86.4379ZM300.136 57.0379H301.456V55.8379H300.136V57.0379ZM300.856 56.4379V86.4379H302.056V56.4379H300.856ZM301.456 85.8379H300.136V87.0379H301.456V85.8379ZM300.736 86.4379V56.4379H299.536V86.4379H300.736ZM307.671 56.4379V55.8379H307.071V56.4379H307.671ZM318.431 56.4379H319.031V55.8379H318.431V56.4379ZM318.431 57.5979V58.1979H319.031V57.5979H318.431ZM308.991 57.5979V56.9979H308.391V57.5979H308.991ZM308.991 73.9179H308.391V74.5179H308.991V73.9179ZM316.871 73.9179H317.471V73.3179H316.871V73.9179ZM316.871 75.0779V75.6779H317.471V75.0779H316.871ZM308.991 75.0779V74.4779H308.391V75.0779H308.991ZM308.991 85.2779H308.391V85.8779H308.991V85.2779ZM318.431 85.2779H319.031V84.6779H318.431V85.2779ZM318.431 86.4379V87.0379H319.031V86.4379H318.431ZM307.671 86.4379H307.071V87.0379H307.671V86.4379ZM307.671 57.0379H318.431V55.8379H307.671V57.0379ZM317.831 56.4379V57.5979H319.031V56.4379H317.831ZM318.431 56.9979H308.991V58.1979H318.431V56.9979ZM308.391 57.5979V73.9179H309.591V57.5979H308.391ZM308.991 74.5179H316.871V73.3179H308.991V74.5179ZM316.271 73.9179V75.0779H317.471V73.9179H316.271ZM316.871 74.4779H308.991V75.6779H316.871V74.4779ZM308.391 75.0779V85.2779H309.591V75.0779H308.391ZM308.991 85.8779H318.431V84.6779H308.991V85.8779ZM317.831 85.2779V86.4379H319.031V85.2779H317.831ZM318.431 85.8379H307.671V87.0379H318.431V85.8379ZM308.271 86.4379V56.4379H307.071V86.4379H308.271Z" fill="white"/>
<path d="M86.446 18.3378L90.3559 24.4588L86.446 30.5775H78.6236L74.7111 24.4588L78.6236 18.3378H86.446Z" fill="white"/>
<line x1="71.6014" y1="18.0105" x2="86.4525" y2="18.0105" stroke="white" stroke-width="0.7"/>
<line y1="-0.35" x2="14.5711" y2="-0.35" transform="matrix(0.540103 0.841599 -0.885615 0.46442 82.486 12.2173)" stroke="white" stroke-width="0.7"/>
<line y1="-0.35" x2="14.5711" y2="-0.35" transform="matrix(0.540103 -0.841599 0.854301 0.519779 71.1841 30.6036)" stroke="white" stroke-width="0.7"/>
<line y1="-0.35" x2="14.5694" y2="-0.35" transform="matrix(-0.535907 0.844277 -0.822206 -0.569191 94.2604 18.2346)" stroke="white" stroke-width="0.7"/>
<line y1="-0.35" x2="14.851" y2="-0.35" transform="matrix(-0.999984 0.00573688 -0.00605116 -0.999982 93.5022 30.4926)" stroke="white" stroke-width="0.7"/>
<line y1="-0.35" x2="14.5732" y2="-0.35" transform="matrix(-0.545108 -0.838366 0.882904 -0.469554 82.6551 36.6981)" stroke="white" stroke-width="0.7"/>
<path d="M97.7668 24.4577C97.7668 32.6319 91.0382 39.2711 82.7223 39.2711C74.4063 39.2711 67.6777 32.6319 67.6777 24.4577C67.6777 16.2835 74.4063 9.64423 82.7223 9.64423C91.0382 9.64423 97.7668 16.2835 97.7668 24.4577Z" stroke="white"/>
</svg>
